<svg width="32" height="31" viewBox="0 0 32 31" fill="none" xmlns="http://www.w3.org/2000/svg">
<g clip-path="url(#clip0_7_404)">
<path d="M0.0247068 15.5696C0.0247068 11.8914 0.0930747 8.21168 0.00165256 4.53588C-0.0643304 1.87804 1.95888 -0.0151492 4.63954 -0.000248352C11.113 0.0366116 17.5865 0.00837845 24.06 0.0146525C25.2636 0.0154367 26.4711 -0.00338537 27.67 0.0860196C30.0867 0.266398 31.33 2.36585 31.431 3.81907C31.5765 5.91538 30.2481 7.74583 28.2201 8.21638C27.7487 8.32539 27.2534 8.37637 26.7685 8.37716C20.9302 8.38813 15.0927 8.38421 9.25437 8.38421C8.51027 8.38421 8.48642 8.41558 8.48642 9.16298C8.48722 14.8629 8.48404 20.5629 8.48404 26.2621C8.48404 27.4934 8.23919 28.6431 7.38379 29.6022C6.2756 30.8437 4.3923 31.3284 2.81904 30.7684C1.16232 30.1794 0.050146 28.7105 0.0414013 26.9946C0.0223219 23.1862 0.0358365 19.3779 0.0358365 15.5688C0.0310666 15.5696 0.0278867 15.5696 0.0247068 15.5696Z" fill="#222C37"/>
<path d="M23.474 30.9381C18.8473 30.9286 15.4257 27.1478 15.5211 22.9449C15.6189 18.6213 19.2583 15.1675 23.6672 15.2514C28.0038 15.3338 31.5152 18.939 31.4421 23.232C31.3689 27.5015 27.7422 31.0086 23.474 30.9381Z" fill="#FF2838"/>
</g>
<defs>
<clipPath id="clip0_7_404">
<rect width="31.4429" height="31" fill="white"/>
</clipPath>
</defs>
</svg>
