<svg width="24" height="24" viewBox="0 0 24 24" fill="none" xmlns="http://www.w3.org/2000/svg">
<rect width="24" height="24" rx="4" fill="black"/>
<g clip-path="url(#clip0_7_276)">
<path d="M17.9813 15.07L17.4363 17.4325C17.3598 17.7665 17.0662 18.0001 16.7224 18.0001C10.8094 17.9997 6 13.1903 6 7.27702C6 6.93343 6.23365 6.63952 6.56766 6.56335L8.93016 6.01843C9.27422 5.9387 9.62578 6.11729 9.76875 6.44312L10.8591 8.98609C10.9865 9.28562 10.9005 9.6346 10.6486 9.84038L9.38672 10.8536C10.1831 12.4759 11.5022 13.795 13.125 14.5919L14.1581 13.3309C14.3617 13.0783 14.7134 12.9909 15.0129 13.1206L17.5559 14.2107C17.8617 14.3716 18.0609 14.7278 17.9813 15.07Z" fill="white"/>
</g>
<defs>
<clipPath id="clip0_7_276">
<rect width="12" height="12" fill="white" transform="translate(6 6)"/>
</clipPath>
</defs>
</svg>
