<svg width="24" height="24" viewBox="0 0 24 24" fill="none" xmlns="http://www.w3.org/2000/svg">
<path d="M19.7847 1.36249H3.55516C2.71195 1.36249 1.90328 1.69745 1.30705 2.29368C0.710815 2.88992 0.375854 3.69858 0.375854 4.54178V20.7714C0.375854 21.6147 0.710815 22.4234 1.30705 23.0195C1.90328 23.6157 2.71195 23.9507 3.55516 23.9507H19.7847C20.628 23.9507 21.4367 23.6157 22.0328 23.0195C22.6292 22.4234 22.964 21.6147 22.964 20.7714V4.54178C22.964 3.69858 22.6292 2.88992 22.0328 2.29368C21.4367 1.69745 20.628 1.36249 19.7847 1.36249ZM7.90622 19.4105C7.90622 19.467 7.8681 19.5517 7.79327 19.666C7.68033 19.7423 7.59421 19.779 7.53774 19.779H4.92598C4.86951 19.779 4.7848 19.7423 4.67186 19.666C4.59563 19.5531 4.55751 19.4684 4.55751 19.4105V10.2425C4.55751 10.186 4.59563 10.1013 4.67045 9.98837C4.78339 9.91214 4.8681 9.87402 4.92598 9.87402H7.53774C7.59421 9.87402 7.67892 9.91214 7.79186 9.98696C7.8681 10.0999 7.90622 10.1846 7.90622 10.2425V19.4105ZM7.48127 8.31261C7.31895 8.4786 7.12435 8.60959 6.90947 8.69748C6.69458 8.78538 6.46397 8.82833 6.23186 8.82367C5.73916 8.82367 5.3241 8.65426 4.98245 8.31261C4.81638 8.15034 4.68534 7.95576 4.59745 7.74086C4.50955 7.52596 4.46665 7.29532 4.47139 7.0632C4.47139 6.59026 4.64221 6.18367 4.98245 5.84343C5.14294 5.6731 5.33656 5.53739 5.55142 5.44464C5.76628 5.35188 5.99783 5.30402 6.23186 5.30402C6.46588 5.30402 6.69743 5.35188 6.91229 5.44464C7.12715 5.53739 7.32077 5.6731 7.48127 5.84343C7.8201 6.18226 7.99092 6.59167 7.99092 7.0632C7.99092 7.5559 7.82151 7.97237 7.48127 8.31261ZM19.004 19.4105C19.0036 19.4585 18.9935 19.5059 18.974 19.5498C18.9546 19.5939 18.9264 19.6334 18.8911 19.666C18.8585 19.7012 18.819 19.7294 18.7751 19.7489C18.7311 19.7682 18.6837 19.7786 18.6356 19.779H15.9673C15.9109 19.779 15.8262 19.7423 15.7132 19.666C15.637 19.5531 15.5989 19.4684 15.5989 19.4105V13.8199C15.5989 13.3456 15.5142 12.9771 15.3433 12.7117C15.1344 12.4858 14.7942 12.3728 14.3212 12.3728C13.7156 12.3728 13.2808 12.5507 13.0154 12.9107C12.7697 13.2707 12.6469 13.7818 12.6469 14.4439V19.4105C12.6465 19.4585 12.6362 19.5059 12.6168 19.5498C12.5974 19.5939 12.5692 19.6334 12.534 19.666C12.5011 19.7015 12.4614 19.7297 12.4172 19.7492C12.373 19.7685 12.3253 19.7787 12.277 19.779H9.66527C9.6088 19.779 9.52408 19.7423 9.41114 19.666C9.33492 19.5531 9.29821 19.4684 9.29821 19.4105V10.2425C9.29821 10.186 9.33492 10.1013 9.41114 9.98837C9.52408 9.91214 9.6088 9.87402 9.66527 9.87402H12.1923C12.2686 9.87402 12.3434 9.89237 12.4182 9.93049C12.4577 9.95026 12.4959 10.0152 12.5326 10.1281V10.2707L12.5608 10.3272V10.5545C13.1862 9.95026 14.0474 9.64673 15.1443 9.64673C16.3739 9.64673 17.3198 9.94037 17.9819 10.5263C18.6638 11.1503 19.004 12.051 19.004 13.2227V19.4105Z" fill="black"/>
</svg>
