<svg width="24" height="24" viewBox="0 0 24 24" fill="none" xmlns="http://www.w3.org/2000/svg">
<rect width="24" height="24" rx="4" fill="black"/>
<g clip-path="url(#clip0_7_268)">
<path d="M19 7.36963C19 6.6132 18.3877 6 17.6325 6H6.36752C5.61226 6 5 6.6132 5 7.36963V16.297C5 17.0535 5.61226 17.6667 6.36752 17.6667H17.6325C18.3877 17.6667 19 17.0535 19 16.297V7.36963ZM6.37485 7.09453H17.6432C17.794 7.09453 17.9154 7.21499 17.9154 7.36605V7.37794L12.2021 13.1006C12.1325 13.1704 12.0514 13.1809 12.0091 13.1809C11.9668 13.1809 11.8855 13.1704 11.8157 13.1006L6.10112 7.37716V7.36605C6.10112 7.21499 6.22404 7.09453 6.37485 7.09453ZM17.6432 16.5721H6.37485C6.22404 16.5721 6.10112 16.4471 6.10112 16.296V8.92671L11.0423 13.8754C11.3006 14.1341 11.6441 14.2766 12.0093 14.2766C12.3747 14.2765 12.7174 14.1341 12.9757 13.8754L17.9154 8.92748V16.296C17.9154 16.4471 17.794 16.5721 17.6432 16.5721Z" fill="white"/>
</g>
<defs>
<clipPath id="clip0_7_268">
<rect width="14" height="11.6667" fill="white" transform="translate(5 6)"/>
</clipPath>
</defs>
</svg>
