<svg width="340" height="201" viewBox="0 0 340 201" fill="none" xmlns="http://www.w3.org/2000/svg">
<mask id="mask0_1_466" style="mask-type:alpha" maskUnits="userSpaceOnUse" x="0" y="0" width="340" height="201">
<path d="M0.5 10C0.5 4.75329 4.75329 0.5 10 0.5H330C335.247 0.5 339.5 4.7533 339.5 10V191C339.5 196.247 335.247 200.5 330 200.5H10C4.7533 200.5 0.5 196.247 0.5 191V10Z" fill="#0C0739" stroke="#0C0739"/>
</mask>
<g mask="url(#mask0_1_466)">
<path d="M0.5 10C0.5 4.75329 4.75329 0.5 10 0.5H330C335.247 0.5 339.5 4.7533 339.5 10V191C339.5 196.247 335.247 200.5 330 200.5H10C4.7533 200.5 0.5 196.247 0.5 191V10Z" fill="#0C0739" stroke="#0C0739"/>
<path opacity="0.1" d="M182.29 -59.6557C266.688 -74.5374 440.566 124.705 191.974 95.3671C-56.6187 66.0288 165.575 298.534 335.143 227.525" stroke="white" stroke-width="16.5021"/>
</g>
<path d="M84.5358 53.07H90.5838V55.41H84.5358V53.07ZM84.7518 60H81.8358V47.4H91.3578V49.74H84.7518V60ZM93.1339 60V50.316H95.9419V60H93.1339ZM94.5379 48.966C94.0219 48.966 93.6019 48.816 93.2779 48.516C92.9539 48.216 92.7919 47.844 92.7919 47.4C92.7919 46.956 92.9539 46.584 93.2779 46.284C93.6019 45.984 94.0219 45.834 94.5379 45.834C95.0539 45.834 95.4739 45.978 95.7979 46.266C96.1219 46.542 96.2839 46.902 96.2839 47.346C96.2839 47.814 96.1219 48.204 95.7979 48.516C95.4859 48.816 95.0659 48.966 94.5379 48.966ZM104.434 50.172C105.202 50.172 105.886 50.328 106.486 50.64C107.098 50.94 107.578 51.408 107.926 52.044C108.274 52.668 108.448 53.472 108.448 54.456V60H105.64V54.888C105.64 54.108 105.466 53.532 105.118 53.16C104.782 52.788 104.302 52.602 103.678 52.602C103.234 52.602 102.832 52.698 102.472 52.89C102.124 53.07 101.848 53.352 101.644 53.736C101.452 54.12 101.356 54.612 101.356 55.212V60H98.548V50.316H101.23V52.998L100.726 52.188C101.074 51.54 101.572 51.042 102.22 50.694C102.868 50.346 103.606 50.172 104.434 50.172ZM115.222 60.144C114.31 60.144 113.488 59.94 112.756 59.532C112.024 59.112 111.442 58.53 111.01 57.786C110.59 57.042 110.38 56.166 110.38 55.158C110.38 54.138 110.59 53.256 111.01 52.512C111.442 51.768 112.024 51.192 112.756 50.784C113.488 50.376 114.31 50.172 115.222 50.172C116.038 50.172 116.752 50.352 117.364 50.712C117.976 51.072 118.45 51.618 118.786 52.35C119.122 53.082 119.29 54.018 119.29 55.158C119.29 56.286 119.128 57.222 118.804 57.966C118.48 58.698 118.012 59.244 117.4 59.604C116.8 59.964 116.074 60.144 115.222 60.144ZM115.708 57.84C116.164 57.84 116.578 57.732 116.95 57.516C117.322 57.3 117.616 56.994 117.832 56.598C118.06 56.19 118.174 55.71 118.174 55.158C118.174 54.594 118.06 54.114 117.832 53.718C117.616 53.322 117.322 53.016 116.95 52.8C116.578 52.584 116.164 52.476 115.708 52.476C115.24 52.476 114.82 52.584 114.448 52.8C114.076 53.016 113.776 53.322 113.548 53.718C113.332 54.114 113.224 54.594 113.224 55.158C113.224 55.71 113.332 56.19 113.548 56.598C113.776 56.994 114.076 57.3 114.448 57.516C114.82 57.732 115.24 57.84 115.708 57.84ZM118.246 60V58.02L118.3 55.14L118.12 52.278V46.644H120.928V60H118.246ZM134.906 60.216C133.91 60.216 132.992 60.06 132.152 59.748C131.324 59.424 130.598 58.968 129.974 58.38C129.362 57.792 128.882 57.102 128.534 56.31C128.198 55.518 128.03 54.648 128.03 53.7C128.03 52.752 128.198 51.882 128.534 51.09C128.882 50.298 129.368 49.608 129.992 49.02C130.616 48.432 131.348 47.982 132.188 47.67C133.028 47.346 133.952 47.184 134.96 47.184C136.076 47.184 137.078 47.37 137.966 47.742C138.866 48.114 139.622 48.654 140.234 49.362L138.362 51.09C137.906 50.61 137.408 50.256 136.868 50.028C136.328 49.788 135.74 49.668 135.104 49.668C134.492 49.668 133.934 49.764 133.43 49.956C132.926 50.148 132.488 50.424 132.116 50.784C131.756 51.144 131.474 51.57 131.27 52.062C131.078 52.554 130.982 53.1 130.982 53.7C130.982 54.288 131.078 54.828 131.27 55.32C131.474 55.812 131.756 56.244 132.116 56.616C132.488 56.976 132.92 57.252 133.412 57.444C133.916 57.636 134.468 57.732 135.068 57.732C135.644 57.732 136.202 57.642 136.742 57.462C137.294 57.27 137.828 56.952 138.344 56.508L140 58.614C139.316 59.13 138.518 59.526 137.606 59.802C136.706 60.078 135.806 60.216 134.906 60.216ZM137.336 58.236V53.502H140V58.614L137.336 58.236ZM142.511 60V46.644H145.319V60H142.511ZM152.533 60.144C151.501 60.144 150.583 59.928 149.779 59.496C148.987 59.064 148.357 58.476 147.889 57.732C147.433 56.976 147.205 56.118 147.205 55.158C147.205 54.186 147.433 53.328 147.889 52.584C148.357 51.828 148.987 51.24 149.779 50.82C150.583 50.388 151.501 50.172 152.533 50.172C153.553 50.172 154.465 50.388 155.269 50.82C156.073 51.24 156.703 51.822 157.159 52.566C157.615 53.31 157.843 54.174 157.843 55.158C157.843 56.118 157.615 56.976 157.159 57.732C156.703 58.476 156.073 59.064 155.269 59.496C154.465 59.928 153.553 60.144 152.533 60.144ZM152.533 57.84C153.001 57.84 153.421 57.732 153.793 57.516C154.165 57.3 154.459 56.994 154.675 56.598C154.891 56.19 154.999 55.71 154.999 55.158C154.999 54.594 154.891 54.114 154.675 53.718C154.459 53.322 154.165 53.016 153.793 52.8C153.421 52.584 153.001 52.476 152.533 52.476C152.065 52.476 151.645 52.584 151.273 52.8C150.901 53.016 150.601 53.322 150.373 53.718C150.157 54.114 150.049 54.594 150.049 55.158C150.049 55.71 150.157 56.19 150.373 56.598C150.601 56.994 150.901 57.3 151.273 57.516C151.645 57.732 152.065 57.84 152.533 57.84ZM165.444 60.144C164.592 60.144 163.86 59.964 163.248 59.604C162.636 59.244 162.168 58.698 161.844 57.966C161.52 57.222 161.358 56.286 161.358 55.158C161.358 54.018 161.526 53.082 161.862 52.35C162.21 51.618 162.69 51.072 163.302 50.712C163.914 50.352 164.628 50.172 165.444 50.172C166.356 50.172 167.172 50.376 167.892 50.784C168.624 51.192 169.2 51.768 169.62 52.512C170.052 53.256 170.268 54.138 170.268 55.158C170.268 56.166 170.052 57.042 169.62 57.786C169.2 58.53 168.624 59.112 167.892 59.532C167.172 59.94 166.356 60.144 165.444 60.144ZM159.72 60V46.644H162.528V52.278L162.348 55.14L162.402 58.02V60H159.72ZM164.958 57.84C165.426 57.84 165.84 57.732 166.2 57.516C166.572 57.3 166.866 56.994 167.082 56.598C167.31 56.19 167.424 55.71 167.424 55.158C167.424 54.594 167.31 54.114 167.082 53.718C166.866 53.322 166.572 53.016 166.2 52.8C165.84 52.584 165.426 52.476 164.958 52.476C164.49 52.476 164.07 52.584 163.698 52.8C163.326 53.016 163.032 53.322 162.816 53.718C162.6 54.114 162.492 54.594 162.492 55.158C162.492 55.71 162.6 56.19 162.816 56.598C163.032 56.994 163.326 57.3 163.698 57.516C164.07 57.732 164.49 57.84 164.958 57.84ZM177.929 60V58.11L177.749 57.696V54.312C177.749 53.712 177.563 53.244 177.191 52.908C176.831 52.572 176.273 52.404 175.517 52.404C175.001 52.404 174.491 52.488 173.987 52.656C173.495 52.812 173.075 53.028 172.727 53.304L171.719 51.342C172.247 50.97 172.883 50.682 173.627 50.478C174.371 50.274 175.127 50.172 175.895 50.172C177.371 50.172 178.517 50.52 179.333 51.216C180.149 51.912 180.557 52.998 180.557 54.474V60H177.929ZM174.977 60.144C174.221 60.144 173.573 60.018 173.033 59.766C172.493 59.502 172.079 59.148 171.791 58.704C171.503 58.26 171.359 57.762 171.359 57.21C171.359 56.634 171.497 56.13 171.773 55.698C172.061 55.266 172.511 54.93 173.123 54.69C173.735 54.438 174.533 54.312 175.517 54.312H178.091V55.95H175.823C175.163 55.95 174.707 56.058 174.455 56.274C174.215 56.49 174.095 56.76 174.095 57.084C174.095 57.444 174.233 57.732 174.509 57.948C174.797 58.152 175.187 58.254 175.679 58.254C176.147 58.254 176.567 58.146 176.939 57.93C177.311 57.702 177.581 57.372 177.749 56.94L178.181 58.236C177.977 58.86 177.605 59.334 177.065 59.658C176.525 59.982 175.829 60.144 174.977 60.144ZM183.099 60V46.644H185.907V60H183.099ZM196.418 60V49.776H192.386V47.4H203.366V49.776H199.334V60H196.418ZM210.185 60V58.11L210.005 57.696V54.312C210.005 53.712 209.819 53.244 209.447 52.908C209.087 52.572 208.529 52.404 207.773 52.404C207.257 52.404 206.747 52.488 206.243 52.656C205.751 52.812 205.331 53.028 204.983 53.304L203.975 51.342C204.503 50.97 205.139 50.682 205.883 50.478C206.627 50.274 207.383 50.172 208.151 50.172C209.627 50.172 210.773 50.52 211.589 51.216C212.405 51.912 212.813 52.998 212.813 54.474V60H210.185ZM207.233 60.144C206.477 60.144 205.829 60.018 205.289 59.766C204.749 59.502 204.335 59.148 204.047 58.704C203.759 58.26 203.615 57.762 203.615 57.21C203.615 56.634 203.753 56.13 204.029 55.698C204.317 55.266 204.767 54.93 205.379 54.69C205.991 54.438 206.789 54.312 207.773 54.312H210.347V55.95H208.079C207.419 55.95 206.963 56.058 206.711 56.274C206.471 56.49 206.351 56.76 206.351 57.084C206.351 57.444 206.489 57.732 206.765 57.948C207.053 58.152 207.443 58.254 207.935 58.254C208.403 58.254 208.823 58.146 209.195 57.93C209.567 57.702 209.837 57.372 210.005 56.94L210.437 58.236C210.233 58.86 209.861 59.334 209.321 59.658C208.781 59.982 208.085 60.144 207.233 60.144ZM215.355 60V46.644H218.163V60H215.355ZM225.575 60.144C224.471 60.144 223.499 59.928 222.659 59.496C221.831 59.064 221.189 58.476 220.733 57.732C220.277 56.976 220.049 56.118 220.049 55.158C220.049 54.186 220.271 53.328 220.715 52.584C221.171 51.828 221.789 51.24 222.569 50.82C223.349 50.388 224.231 50.172 225.215 50.172C226.163 50.172 227.015 50.376 227.771 50.784C228.539 51.18 229.145 51.756 229.589 52.512C230.033 53.256 230.255 54.15 230.255 55.194C230.255 55.302 230.249 55.428 230.237 55.572C230.225 55.704 230.213 55.83 230.201 55.95H222.335V54.312H228.725L227.645 54.798C227.645 54.294 227.543 53.856 227.339 53.484C227.135 53.112 226.853 52.824 226.493 52.62C226.133 52.404 225.713 52.296 225.233 52.296C224.753 52.296 224.327 52.404 223.955 52.62C223.595 52.824 223.313 53.118 223.109 53.502C222.905 53.874 222.803 54.318 222.803 54.834V55.266C222.803 55.794 222.917 56.262 223.145 56.67C223.385 57.066 223.715 57.372 224.135 57.588C224.567 57.792 225.071 57.894 225.647 57.894C226.163 57.894 226.613 57.816 226.997 57.66C227.393 57.504 227.753 57.27 228.077 56.958L229.571 58.578C229.127 59.082 228.569 59.472 227.897 59.748C227.225 60.012 226.451 60.144 225.575 60.144ZM238.01 50.172C238.778 50.172 239.462 50.328 240.062 50.64C240.674 50.94 241.154 51.408 241.502 52.044C241.85 52.668 242.024 53.472 242.024 54.456V60H239.216V54.888C239.216 54.108 239.042 53.532 238.694 53.16C238.358 52.788 237.878 52.602 237.254 52.602C236.81 52.602 236.408 52.698 236.048 52.89C235.7 53.07 235.424 53.352 235.22 53.736C235.028 54.12 234.932 54.612 234.932 55.212V60H232.124V50.316H234.806V52.998L234.302 52.188C234.65 51.54 235.148 51.042 235.796 50.694C236.444 50.346 237.182 50.172 238.01 50.172ZM248.529 60.144C247.389 60.144 246.501 59.856 245.865 59.28C245.229 58.692 244.911 57.822 244.911 56.67V48.174H247.719V56.634C247.719 57.042 247.827 57.36 248.043 57.588C248.259 57.804 248.553 57.912 248.925 57.912C249.369 57.912 249.747 57.792 250.059 57.552L250.815 59.532C250.527 59.736 250.179 59.892 249.771 60C249.375 60.096 248.961 60.144 248.529 60.144ZM243.417 52.692V50.532H250.131V52.692H243.417ZM255.65 60.144C254.822 60.144 254.024 60.048 253.256 59.856C252.5 59.652 251.9 59.4 251.456 59.1L252.392 57.084C252.836 57.36 253.358 57.588 253.958 57.768C254.57 57.936 255.17 58.02 255.758 58.02C256.406 58.02 256.862 57.942 257.126 57.786C257.402 57.63 257.54 57.414 257.54 57.138C257.54 56.91 257.432 56.742 257.216 56.634C257.012 56.514 256.736 56.424 256.388 56.364C256.04 56.304 255.656 56.244 255.236 56.184C254.828 56.124 254.414 56.046 253.994 55.95C253.574 55.842 253.19 55.686 252.842 55.482C252.494 55.278 252.212 55.002 251.996 54.654C251.792 54.306 251.69 53.856 251.69 53.304C251.69 52.692 251.864 52.152 252.212 51.684C252.572 51.216 253.088 50.85 253.76 50.586C254.432 50.31 255.236 50.172 256.172 50.172C256.832 50.172 257.504 50.244 258.188 50.388C258.872 50.532 259.442 50.742 259.898 51.018L258.962 53.016C258.494 52.74 258.02 52.554 257.54 52.458C257.072 52.35 256.616 52.296 256.172 52.296C255.548 52.296 255.092 52.38 254.804 52.548C254.516 52.716 254.372 52.932 254.372 53.196C254.372 53.436 254.474 53.616 254.678 53.736C254.894 53.856 255.176 53.952 255.524 54.024C255.872 54.096 256.25 54.162 256.658 54.222C257.078 54.27 257.498 54.348 257.918 54.456C258.338 54.564 258.716 54.72 259.052 54.924C259.4 55.116 259.682 55.386 259.898 55.734C260.114 56.07 260.222 56.514 260.222 57.066C260.222 57.666 260.042 58.2 259.682 58.668C259.322 59.124 258.8 59.484 258.116 59.748C257.444 60.012 256.622 60.144 255.65 60.144Z" fill="white"/>
<rect x="81.3164" y="91" width="74.557" height="62" rx="8" fill="url(#paint0_linear_1_466)"/>
<rect x="184.126" y="91" width="74.557" height="62" rx="8" fill="url(#paint1_linear_1_466)"/>
<path d="M110.465 116.844C110.465 121.315 114.123 124.974 118.595 124.974C123.067 124.974 126.725 121.315 126.725 116.844C126.725 112.372 123.067 108.713 118.595 108.713C114.123 108.713 110.465 112.372 110.465 116.844ZM124.812 116.844C124.812 120.263 122.014 123.061 118.595 123.061C115.176 123.061 112.378 120.263 112.378 116.844C112.378 113.424 115.176 110.626 118.595 110.626C122.014 110.626 124.812 113.424 124.812 116.844Z" fill="white"/>
<path d="M109.126 133.678C111.66 131.143 115.008 129.756 118.595 129.756C122.182 129.756 125.529 131.143 128.064 133.678L129.427 132.315C126.534 129.445 122.684 127.843 118.595 127.843C114.506 127.843 110.656 129.445 107.763 132.315L109.126 133.678Z" fill="white"/>
<g clip-path="url(#clip0_1_466)">
<path d="M221.405 115.685C218.087 115.685 215.372 118.4 215.372 121.718C215.372 125.036 218.087 127.751 221.405 127.751C224.723 127.751 227.438 125.036 227.438 121.718C227.438 118.4 224.723 115.685 221.405 115.685ZM221.405 125.74C219.193 125.74 217.383 123.93 217.383 121.718C217.383 119.506 219.193 117.696 221.405 117.696C223.617 117.696 225.427 119.506 225.427 121.718C225.427 123.93 223.617 125.74 221.405 125.74Z" fill="white"/>
<path d="M221.405 130.466C217.659 130.466 214.065 132.025 211.501 134.765L210.822 135.494L212.28 136.876L212.959 136.147C215.171 133.784 218.162 132.477 221.405 132.477C224.648 132.477 227.639 133.784 229.852 136.147L230.53 136.876L231.988 135.494L231.31 134.765C228.745 132.05 225.151 130.466 221.405 130.466Z" fill="white"/>
<path d="M229.701 117.168V119.179C232.064 119.179 234.251 120.134 235.885 121.869L237.343 120.486C235.382 118.375 232.592 117.168 229.701 117.168Z" fill="white"/>
<path d="M234.502 110.154C234.502 107.515 232.34 105.353 229.701 105.353C227.061 105.353 224.899 107.515 224.899 110.154C224.899 112.794 227.061 114.956 229.701 114.956C232.34 114.956 234.502 112.794 234.502 110.154ZM226.91 110.154C226.91 108.621 228.167 107.364 229.701 107.364C231.234 107.364 232.491 108.621 232.491 110.154C232.491 111.688 231.234 112.945 229.701 112.945C228.167 112.945 226.91 111.688 226.91 110.154Z" fill="white"/>
<path d="M213.109 117.168C210.218 117.168 207.428 118.375 205.467 120.486L206.925 121.869C208.534 120.134 210.746 119.179 213.109 119.179V117.168Z" fill="white"/>
<path d="M217.911 110.154C217.911 107.515 215.749 105.353 213.109 105.353C210.47 105.353 208.308 107.515 208.308 110.154C208.308 112.794 210.47 114.956 213.109 114.956C215.749 114.956 217.911 112.794 217.911 110.154ZM213.109 112.945C211.576 112.945 210.319 111.688 210.319 110.154C210.319 108.621 211.576 107.364 213.109 107.364C214.643 107.364 215.9 108.621 215.9 110.154C215.9 111.688 214.643 112.945 213.109 112.945Z" fill="white"/>
</g>
<defs>
<linearGradient id="paint0_linear_1_466" x1="118.595" y1="91" x2="118.595" y2="153" gradientUnits="userSpaceOnUse">
<stop stop-color="#F35050"/>
<stop offset="1" stop-color="#B81C1D"/>
</linearGradient>
<linearGradient id="paint1_linear_1_466" x1="221.405" y1="91" x2="221.405" y2="153" gradientUnits="userSpaceOnUse">
<stop stop-color="#F35050"/>
<stop offset="1" stop-color="#B81C1D"/>
</linearGradient>
<clipPath id="clip0_1_466">
<rect width="32.1772" height="32.1772" fill="white" transform="translate(205.316 105.127)"/>
</clipPath>
</defs>
</svg>
