<svg width="340" height="201" viewBox="0 0 340 201" fill="none" xmlns="http://www.w3.org/2000/svg">
<g style="mix-blend-mode:luminosity">
<path d="M0 10C0 4.47715 4.47715 0 10 0H330C335.523 0 340 4.47715 340 10V191C340 196.523 335.523 201 330 201H10C4.47716 201 0 196.523 0 191V10Z" fill="#29ABE2"/>
<path d="M117.522 44.07H123.57V46.41H117.522V44.07ZM117.738 51H114.822V38.4H124.344V40.74H117.738V51ZM126.12 51V41.316H128.928V51H126.12ZM127.524 39.966C127.008 39.966 126.588 39.816 126.264 39.516C125.94 39.216 125.778 38.844 125.778 38.4C125.778 37.956 125.94 37.584 126.264 37.284C126.588 36.984 127.008 36.834 127.524 36.834C128.04 36.834 128.46 36.978 128.784 37.266C129.108 37.542 129.27 37.902 129.27 38.346C129.27 38.814 129.108 39.204 128.784 39.516C128.472 39.816 128.052 39.966 127.524 39.966ZM137.42 41.172C138.188 41.172 138.872 41.328 139.472 41.64C140.084 41.94 140.564 42.408 140.912 43.044C141.26 43.668 141.434 44.472 141.434 45.456V51H138.626V45.888C138.626 45.108 138.452 44.532 138.104 44.16C137.768 43.788 137.288 43.602 136.664 43.602C136.22 43.602 135.818 43.698 135.458 43.89C135.11 44.07 134.834 44.352 134.63 44.736C134.438 45.12 134.342 45.612 134.342 46.212V51H131.534V41.316H134.216V43.998L133.712 43.188C134.06 42.54 134.558 42.042 135.206 41.694C135.854 41.346 136.592 41.172 137.42 41.172ZM148.208 51.144C147.296 51.144 146.474 50.94 145.742 50.532C145.01 50.112 144.428 49.53 143.996 48.786C143.576 48.042 143.366 47.166 143.366 46.158C143.366 45.138 143.576 44.256 143.996 43.512C144.428 42.768 145.01 42.192 145.742 41.784C146.474 41.376 147.296 41.172 148.208 41.172C149.024 41.172 149.738 41.352 150.35 41.712C150.962 42.072 151.436 42.618 151.772 43.35C152.108 44.082 152.276 45.018 152.276 46.158C152.276 47.286 152.114 48.222 151.79 48.966C151.466 49.698 150.998 50.244 150.386 50.604C149.786 50.964 149.06 51.144 148.208 51.144ZM148.694 48.84C149.15 48.84 149.564 48.732 149.936 48.516C150.308 48.3 150.602 47.994 150.818 47.598C151.046 47.19 151.16 46.71 151.16 46.158C151.16 45.594 151.046 45.114 150.818 44.718C150.602 44.322 150.308 44.016 149.936 43.8C149.564 43.584 149.15 43.476 148.694 43.476C148.226 43.476 147.806 43.584 147.434 43.8C147.062 44.016 146.762 44.322 146.534 44.718C146.318 45.114 146.21 45.594 146.21 46.158C146.21 46.71 146.318 47.19 146.534 47.598C146.762 47.994 147.062 48.3 147.434 48.516C147.806 48.732 148.226 48.84 148.694 48.84ZM151.232 51V49.02L151.286 46.14L151.106 43.278V37.644H153.914V51H151.232ZM165.948 51.216C164.94 51.216 163.974 51.084 163.05 50.82C162.126 50.544 161.382 50.19 160.818 49.758L161.808 47.562C162.348 47.946 162.984 48.264 163.716 48.516C164.46 48.756 165.21 48.876 165.966 48.876C166.542 48.876 167.004 48.822 167.352 48.714C167.712 48.594 167.976 48.432 168.144 48.228C168.312 48.024 168.396 47.79 168.396 47.526C168.396 47.19 168.264 46.926 168 46.734C167.736 46.53 167.388 46.368 166.956 46.248C166.524 46.116 166.044 45.996 165.516 45.888C165 45.768 164.478 45.624 163.95 45.456C163.434 45.288 162.96 45.072 162.528 44.808C162.096 44.544 161.742 44.196 161.466 43.764C161.202 43.332 161.07 42.78 161.07 42.108C161.07 41.388 161.262 40.734 161.646 40.146C162.042 39.546 162.63 39.072 163.41 38.724C164.202 38.364 165.192 38.184 166.38 38.184C167.172 38.184 167.952 38.28 168.72 38.472C169.488 38.652 170.166 38.928 170.754 39.3L169.854 41.514C169.266 41.178 168.678 40.932 168.09 40.776C167.502 40.608 166.926 40.524 166.362 40.524C165.798 40.524 165.336 40.59 164.976 40.722C164.616 40.854 164.358 41.028 164.202 41.244C164.046 41.448 163.968 41.688 163.968 41.964C163.968 42.288 164.1 42.552 164.364 42.756C164.628 42.948 164.976 43.104 165.408 43.224C165.84 43.344 166.314 43.464 166.83 43.584C167.358 43.704 167.88 43.842 168.396 43.998C168.924 44.154 169.404 44.364 169.836 44.628C170.268 44.892 170.616 45.24 170.88 45.672C171.156 46.104 171.294 46.65 171.294 47.31C171.294 48.018 171.096 48.666 170.7 49.254C170.304 49.842 169.71 50.316 168.918 50.676C168.138 51.036 167.148 51.216 165.948 51.216ZM178.813 51.144C177.997 51.144 177.283 50.964 176.671 50.604C176.059 50.244 175.579 49.698 175.231 48.966C174.895 48.222 174.727 47.286 174.727 46.158C174.727 45.018 174.889 44.082 175.213 43.35C175.537 42.618 176.005 42.072 176.617 41.712C177.229 41.352 177.961 41.172 178.813 41.172C179.725 41.172 180.541 41.382 181.261 41.802C181.993 42.21 182.569 42.786 182.989 43.53C183.421 44.274 183.637 45.15 183.637 46.158C183.637 47.178 183.421 48.06 182.989 48.804C182.569 49.548 181.993 50.124 181.261 50.532C180.541 50.94 179.725 51.144 178.813 51.144ZM173.089 54.492V41.316H175.771V43.296L175.717 46.176L175.897 49.038V54.492H173.089ZM178.327 48.84C178.795 48.84 179.209 48.732 179.569 48.516C179.941 48.3 180.235 47.994 180.451 47.598C180.679 47.19 180.793 46.71 180.793 46.158C180.793 45.594 180.679 45.114 180.451 44.718C180.235 44.322 179.941 44.016 179.569 43.8C179.209 43.584 178.795 43.476 178.327 43.476C177.859 43.476 177.439 43.584 177.067 43.8C176.695 44.016 176.401 44.322 176.185 44.718C175.969 45.114 175.861 45.594 175.861 46.158C175.861 46.71 175.969 47.19 176.185 47.598C176.401 47.994 176.695 48.3 177.067 48.516C177.439 48.732 177.859 48.84 178.327 48.84ZM191.299 51V49.11L191.119 48.696V45.312C191.119 44.712 190.933 44.244 190.561 43.908C190.201 43.572 189.643 43.404 188.887 43.404C188.371 43.404 187.861 43.488 187.357 43.656C186.865 43.812 186.445 44.028 186.097 44.304L185.089 42.342C185.617 41.97 186.253 41.682 186.997 41.478C187.741 41.274 188.497 41.172 189.265 41.172C190.741 41.172 191.887 41.52 192.703 42.216C193.519 42.912 193.927 43.998 193.927 45.474V51H191.299ZM188.347 51.144C187.591 51.144 186.943 51.018 186.403 50.766C185.863 50.502 185.449 50.148 185.161 49.704C184.873 49.26 184.729 48.762 184.729 48.21C184.729 47.634 184.867 47.13 185.143 46.698C185.431 46.266 185.881 45.93 186.493 45.69C187.105 45.438 187.903 45.312 188.887 45.312H191.461V46.95H189.193C188.533 46.95 188.077 47.058 187.825 47.274C187.585 47.49 187.465 47.76 187.465 48.084C187.465 48.444 187.603 48.732 187.879 48.948C188.167 49.152 188.557 49.254 189.049 49.254C189.517 49.254 189.937 49.146 190.309 48.93C190.681 48.702 190.951 48.372 191.119 47.94L191.551 49.236C191.347 49.86 190.975 50.334 190.435 50.658C189.895 50.982 189.199 51.144 188.347 51.144ZM201.218 51.144C200.174 51.144 199.244 50.934 198.428 50.514C197.612 50.082 196.97 49.488 196.502 48.732C196.046 47.976 195.818 47.118 195.818 46.158C195.818 45.186 196.046 44.328 196.502 43.584C196.97 42.828 197.612 42.24 198.428 41.82C199.244 41.388 200.174 41.172 201.218 41.172C202.238 41.172 203.126 41.388 203.882 41.82C204.638 42.24 205.196 42.846 205.556 43.638L203.378 44.808C203.126 44.352 202.808 44.016 202.424 43.8C202.052 43.584 201.644 43.476 201.2 43.476C200.72 43.476 200.288 43.584 199.904 43.8C199.52 44.016 199.214 44.322 198.986 44.718C198.77 45.114 198.662 45.594 198.662 46.158C198.662 46.722 198.77 47.202 198.986 47.598C199.214 47.994 199.52 48.3 199.904 48.516C200.288 48.732 200.72 48.84 201.2 48.84C201.644 48.84 202.052 48.738 202.424 48.534C202.808 48.318 203.126 47.976 203.378 47.508L205.556 48.696C205.196 49.476 204.638 50.082 203.882 50.514C203.126 50.934 202.238 51.144 201.218 51.144ZM211.856 51.144C210.752 51.144 209.78 50.928 208.94 50.496C208.112 50.064 207.47 49.476 207.014 48.732C206.558 47.976 206.33 47.118 206.33 46.158C206.33 45.186 206.552 44.328 206.996 43.584C207.452 42.828 208.07 42.24 208.85 41.82C209.63 41.388 210.512 41.172 211.496 41.172C212.444 41.172 213.296 41.376 214.052 41.784C214.82 42.18 215.426 42.756 215.87 43.512C216.314 44.256 216.536 45.15 216.536 46.194C216.536 46.302 216.53 46.428 216.518 46.572C216.506 46.704 216.494 46.83 216.482 46.95H208.616V45.312H215.006L213.926 45.798C213.926 45.294 213.824 44.856 213.62 44.484C213.416 44.112 213.134 43.824 212.774 43.62C212.414 43.404 211.994 43.296 211.514 43.296C211.034 43.296 210.608 43.404 210.236 43.62C209.876 43.824 209.594 44.118 209.39 44.502C209.186 44.874 209.084 45.318 209.084 45.834V46.266C209.084 46.794 209.198 47.262 209.426 47.67C209.666 48.066 209.996 48.372 210.416 48.588C210.848 48.792 211.352 48.894 211.928 48.894C212.444 48.894 212.894 48.816 213.278 48.66C213.674 48.504 214.034 48.27 214.358 47.958L215.852 49.578C215.408 50.082 214.85 50.472 214.178 50.748C213.506 51.012 212.732 51.144 211.856 51.144ZM221.663 51.144C220.835 51.144 220.037 51.048 219.269 50.856C218.513 50.652 217.913 50.4 217.469 50.1L218.405 48.084C218.849 48.36 219.371 48.588 219.971 48.768C220.583 48.936 221.183 49.02 221.771 49.02C222.419 49.02 222.875 48.942 223.139 48.786C223.415 48.63 223.553 48.414 223.553 48.138C223.553 47.91 223.445 47.742 223.229 47.634C223.025 47.514 222.749 47.424 222.401 47.364C222.053 47.304 221.669 47.244 221.249 47.184C220.841 47.124 220.427 47.046 220.007 46.95C219.587 46.842 219.203 46.686 218.855 46.482C218.507 46.278 218.225 46.002 218.009 45.654C217.805 45.306 217.703 44.856 217.703 44.304C217.703 43.692 217.877 43.152 218.225 42.684C218.585 42.216 219.101 41.85 219.773 41.586C220.445 41.31 221.249 41.172 222.185 41.172C222.845 41.172 223.517 41.244 224.201 41.388C224.885 41.532 225.455 41.742 225.911 42.018L224.975 44.016C224.507 43.74 224.033 43.554 223.553 43.458C223.085 43.35 222.629 43.296 222.185 43.296C221.561 43.296 221.105 43.38 220.817 43.548C220.529 43.716 220.385 43.932 220.385 44.196C220.385 44.436 220.487 44.616 220.691 44.736C220.907 44.856 221.189 44.952 221.537 45.024C221.885 45.096 222.263 45.162 222.671 45.222C223.091 45.27 223.511 45.348 223.931 45.456C224.351 45.564 224.729 45.72 225.065 45.924C225.413 46.116 225.695 46.386 225.911 46.734C226.127 47.07 226.235 47.514 226.235 48.066C226.235 48.666 226.055 49.2 225.695 49.668C225.335 50.124 224.813 50.484 224.129 50.748C223.457 51.012 222.635 51.144 221.663 51.144Z" fill="white"/>
<rect x="73.5" y="69.5" width="193" height="21" rx="10.5" fill="white" stroke="#29ABE2"/>
<rect x="34" y="109" width="75" height="68" rx="8" fill="#94D5F1"/>
<rect opacity="0.5" x="132" y="109" width="75" height="68" rx="8" fill="white"/>
<rect opacity="0.5" x="231" y="109" width="75" height="68" rx="8" fill="white"/>
<mask id="mask0_1_2055" style="mask-type:alpha" maskUnits="userSpaceOnUse" x="0" y="0" width="339" height="201">
<path d="M0.5 10C0.5 4.75329 4.75329 0.5 10 0.5H329C334.247 0.5 338.5 4.75329 338.5 10V191C338.5 196.247 334.247 200.5 329 200.5H10C4.75329 200.5 0.5 196.247 0.5 191V10Z" fill="#FF4164" stroke="#FF4164"/>
</mask>
<g mask="url(#mask0_1_2055)">
<g opacity="0.6">
<ellipse cx="8.83396" cy="26.1545" rx="0.333226" ry="0.3342" fill="white"/>
<ellipse cx="58.8154" cy="26.1545" rx="0.333226" ry="0.3342" fill="white"/>
<ellipse cx="32.157" cy="59.572" rx="0.333226" ry="0.3342" fill="white"/>
<ellipse cx="82.1384" cy="59.572" rx="0.333226" ry="0.3342" fill="white"/>
<ellipse cx="22.1631" cy="92.9953" rx="0.333226" ry="0.3342" fill="white"/>
<ellipse cx="72.1435" cy="92.9953" rx="0.333208" ry="0.3342" fill="white"/>
<ellipse cx="32.157" cy="126.419" rx="0.333226" ry="0.3342" fill="white"/>
<ellipse cx="82.1384" cy="126.419" rx="0.333226" ry="0.3342" fill="white"/>
<ellipse cx="15.4975" cy="160.504" rx="0.333226" ry="0.3342" fill="white"/>
<ellipse cx="65.478" cy="160.504" rx="0.333208" ry="0.3342" fill="white"/>
<ellipse cx="35.4914" cy="193.923" rx="0.333208" ry="0.3342" fill="white"/>
<ellipse cx="25.496" cy="29.4948" rx="0.333208" ry="0.3342" fill="white"/>
<ellipse cx="75.4775" cy="29.4948" rx="0.333226" ry="0.3342" fill="white"/>
<ellipse cx="48.82" cy="62.9121" rx="0.333208" ry="0.3342" fill="white"/>
<ellipse cx="98.8006" cy="62.9121" rx="0.333336" ry="0.3342" fill="white"/>
<ellipse cx="38.8252" cy="96.3354" rx="0.333226" ry="0.3342" fill="white"/>
<ellipse cx="88.8056" cy="96.3354" rx="0.333226" ry="0.3342" fill="white"/>
<ellipse cx="48.82" cy="129.759" rx="0.333208" ry="0.3342" fill="white"/>
<ellipse cx="98.8006" cy="129.759" rx="0.333336" ry="0.3342" fill="white"/>
<ellipse cx="32.1596" cy="163.844" rx="0.333226" ry="0.3342" fill="white"/>
<ellipse cx="82.1401" cy="163.844" rx="0.333226" ry="0.3342" fill="white"/>
<ellipse cx="2.1677" cy="197.263" rx="0.333226" ry="0.3342" fill="white"/>
<ellipse cx="52.1535" cy="197.263" rx="0.333226" ry="0.3342" fill="white"/>
<ellipse cx="43.4841" cy="9.44968" rx="0.333226" ry="0.3342" fill="white"/>
<ellipse cx="40.1528" cy="42.8679" rx="0.333208" ry="0.3342" fill="white"/>
<ellipse cx="13.4953" cy="76.2854" rx="0.333226" ry="0.3342" fill="white"/>
<ellipse cx="63.4758" cy="76.2854" rx="0.333208" ry="0.3342" fill="white"/>
<ellipse cx="3.50044" cy="109.709" rx="0.333208" ry="0.3342" fill="white"/>
<ellipse cx="53.4812" cy="109.709" rx="0.333208" ry="0.3342" fill="white"/>
<ellipse cx="13.4953" cy="143.132" rx="0.333226" ry="0.3342" fill="white"/>
<ellipse cx="63.4758" cy="143.132" rx="0.333208" ry="0.3342" fill="white"/>
<ellipse cx="46.8154" cy="177.217" rx="0.333226" ry="0.3342" fill="white"/>
<ellipse cx="34.8195" cy="6.43329" rx="0.666433" ry="0.668395" fill="white"/>
<ellipse cx="134.786" cy="9.77436" rx="0.666488" ry="0.668399" fill="white"/>
<ellipse cx="14.8278" cy="73.2761" rx="0.666433" ry="0.668399" fill="white"/>
<ellipse cx="114.792" cy="76.6191" rx="0.66636" ry="0.668395" fill="white"/>
<ellipse cx="54.8136" cy="140.114" rx="0.666415" ry="0.668399" fill="white"/>
<ellipse cx="154.779" cy="143.458" rx="0.666433" ry="0.668399" fill="white"/>
<ellipse cx="88.1384" cy="46.5436" rx="0.666452" ry="0.668395" fill="white"/>
<ellipse cx="68.1447" cy="113.388" rx="0.666415" ry="0.668408" fill="white"/>
<ellipse cx="8.16617" cy="177.554" rx="0.666415" ry="0.668399" fill="white"/>
<ellipse cx="108.131" cy="180.227" rx="0.666433" ry="0.668399" fill="white"/>
<ellipse cx="76.8076" cy="2.09316" rx="0.333215" ry="0.3342" fill="white"/>
<ellipse cx="126.791" cy="2.09323" rx="0.333217" ry="0.3342" fill="white"/>
<ellipse cx="176.772" cy="2.09323" rx="0.333217" ry="0.3342" fill="white"/>
<ellipse cx="226.753" cy="2.09323" rx="0.333212" ry="0.3342" fill="white"/>
<ellipse cx="276.737" cy="2.09323" rx="0.333217" ry="0.3342" fill="white"/>
<ellipse cx="326.72" cy="2.09323" rx="0.333217" ry="0.3342" fill="white"/>
<ellipse cx="100.132" cy="35.5105" rx="0.333217" ry="0.3342" fill="white"/>
<ellipse cx="150.117" cy="35.5105" rx="0.333224" ry="0.3342" fill="white"/>
<ellipse cx="200.098" cy="35.5105" rx="0.333217" ry="0.3342" fill="white"/>
<ellipse cx="250.079" cy="35.5105" rx="0.333208" ry="0.3342" fill="white"/>
<ellipse cx="300.063" cy="35.5105" rx="0.333226" ry="0.3342" fill="white"/>
<ellipse cx="90.1369" cy="68.9338" rx="0.333217" ry="0.3342" fill="white"/>
<ellipse cx="140.119" cy="68.9338" rx="0.333217" ry="0.3342" fill="white"/>
<ellipse cx="190.101" cy="68.9338" rx="0.333217" ry="0.3342" fill="white"/>
<ellipse cx="240.082" cy="68.9338" rx="0.333226" ry="0.3342" fill="white"/>
<ellipse cx="290.065" cy="68.9338" rx="0.333217" ry="0.3342" fill="white"/>
<ellipse cx="100.132" cy="102.357" rx="0.333217" ry="0.3342" fill="white"/>
<ellipse cx="150.117" cy="102.357" rx="0.333224" ry="0.3342" fill="white"/>
<ellipse cx="200.098" cy="102.357" rx="0.333217" ry="0.3342" fill="white"/>
<ellipse cx="250.079" cy="102.357" rx="0.333208" ry="0.3342" fill="white"/>
<ellipse cx="300.063" cy="102.357" rx="0.333226" ry="0.3342" fill="white"/>
<ellipse cx="83.4712" cy="136.442" rx="0.333216" ry="0.3342" fill="white"/>
<ellipse cx="133.454" cy="136.442" rx="0.333217" ry="0.3342" fill="white"/>
<ellipse cx="183.435" cy="136.442" rx="0.333212" ry="0.3342" fill="white"/>
<ellipse cx="233.417" cy="136.442" rx="0.33323" ry="0.3342" fill="white"/>
<ellipse cx="283.403" cy="136.442" rx="0.333217" ry="0.3342" fill="white"/>
<ellipse cx="333.383" cy="136.442" rx="0.333217" ry="0.3342" fill="white"/>
<ellipse cx="103.465" cy="169.862" rx="0.333216" ry="0.3342" fill="white"/>
<ellipse cx="153.447" cy="169.862" rx="0.333217" ry="0.3342" fill="white"/>
<ellipse cx="203.43" cy="169.862" rx="0.33323" ry="0.3342" fill="white"/>
<ellipse cx="253.413" cy="169.862" rx="0.333217" ry="0.3342" fill="white"/>
<ellipse cx="303.394" cy="169.862" rx="0.333217" ry="0.3342" fill="white"/>
<ellipse cx="93.4682" cy="5.43637" rx="0.333216" ry="0.3342" fill="white"/>
<ellipse cx="143.452" cy="5.43625" rx="0.333217" ry="0.3342" fill="white"/>
<ellipse cx="193.432" cy="5.43625" rx="0.333212" ry="0.3342" fill="white"/>
<ellipse cx="243.414" cy="5.43625" rx="0.333198" ry="0.3342" fill="white"/>
<ellipse cx="293.397" cy="5.43625" rx="0.333217" ry="0.3342" fill="white"/>
<ellipse cx="116.792" cy="38.8535" rx="0.333219" ry="0.3342" fill="white"/>
<ellipse cx="166.778" cy="38.8535" rx="0.333217" ry="0.3342" fill="white"/>
<ellipse cx="216.759" cy="38.8535" rx="0.33323" ry="0.3342" fill="white"/>
<ellipse cx="266.74" cy="38.8535" rx="0.333217" ry="0.3342" fill="white"/>
<ellipse cx="316.724" cy="38.8535" rx="0.333208" ry="0.3342" fill="white"/>
<ellipse cx="106.798" cy="72.2771" rx="0.333217" ry="0.3342" fill="white"/>
<ellipse cx="156.78" cy="72.2771" rx="0.333217" ry="0.3342" fill="white"/>
<ellipse cx="206.762" cy="72.2771" rx="0.333203" ry="0.3342" fill="white"/>
<ellipse cx="256.745" cy="72.2771" rx="0.333208" ry="0.3342" fill="white"/>
<ellipse cx="306.726" cy="72.2771" rx="0.333217" ry="0.3342" fill="white"/>
<ellipse cx="116.792" cy="105.7" rx="0.333219" ry="0.3342" fill="white"/>
<ellipse cx="166.778" cy="105.7" rx="0.333217" ry="0.3342" fill="white"/>
<ellipse cx="216.759" cy="105.7" rx="0.33323" ry="0.3342" fill="white"/>
<ellipse cx="266.74" cy="105.7" rx="0.333217" ry="0.3342" fill="white"/>
<ellipse cx="316.724" cy="105.7" rx="0.333208" ry="0.3342" fill="white"/>
<ellipse cx="100.132" cy="139.786" rx="0.333217" ry="0.3342" fill="white"/>
<ellipse cx="150.114" cy="139.786" rx="0.333224" ry="0.3342" fill="white"/>
<ellipse cx="200.096" cy="139.786" rx="0.333217" ry="0.3342" fill="white"/>
<ellipse cx="250.08" cy="139.786" rx="0.333208" ry="0.3342" fill="white"/>
<ellipse cx="300.063" cy="139.786" rx="0.333226" ry="0.3342" fill="white"/>
<ellipse cx="120.126" cy="173.205" rx="0.333217" ry="0.3342" fill="white"/>
<ellipse cx="170.107" cy="173.205" rx="0.333217" ry="0.3342" fill="white"/>
<ellipse cx="220.091" cy="173.205" rx="0.333212" ry="0.3342" fill="white"/>
<ellipse cx="270.073" cy="173.205" rx="0.333226" ry="0.3342" fill="white"/>
<ellipse cx="320.055" cy="173.205" rx="0.333217" ry="0.3342" fill="white"/>
<ellipse cx="58.1462" cy="18.8029" rx="0.333216" ry="0.3342" fill="white"/>
<ellipse cx="108.128" cy="18.8029" rx="0.333216" ry="0.3342" fill="white"/>
<ellipse cx="158.11" cy="18.8029" rx="0.333226" ry="0.3342" fill="white"/>
<ellipse cx="208.092" cy="18.8029" rx="0.333203" ry="0.3342" fill="white"/>
<ellipse cx="258.075" cy="18.8029" rx="0.333217" ry="0.3342" fill="white"/>
<ellipse cx="308.059" cy="18.8029" rx="0.333217" ry="0.3342" fill="white"/>
<ellipse cx="81.4702" cy="52.2202" rx="0.333216" ry="0.3342" fill="white"/>
<ellipse cx="131.456" cy="52.2202" rx="0.333217" ry="0.3342" fill="white"/>
<ellipse cx="181.436" cy="52.2202" rx="0.333217" ry="0.3342" fill="white"/>
<ellipse cx="231.418" cy="52.2202" rx="0.333203" ry="0.3342" fill="white"/>
<ellipse cx="281.402" cy="52.2202" rx="0.333208" ry="0.3342" fill="white"/>
<ellipse cx="331.382" cy="52.2202" rx="0.333226" ry="0.3342" fill="white"/>
<ellipse cx="71.4753" cy="85.6438" rx="0.333216" ry="0.3342" fill="white"/>
<ellipse cx="121.458" cy="85.6438" rx="0.333217" ry="0.3342" fill="white"/>
<ellipse cx="171.44" cy="85.6438" rx="0.333217" ry="0.3342" fill="white"/>
<ellipse cx="221.423" cy="85.6438" rx="0.333212" ry="0.3342" fill="white"/>
<ellipse cx="271.404" cy="85.6438" rx="0.333217" ry="0.3342" fill="white"/>
<ellipse cx="321.387" cy="85.6438" rx="0.333244" ry="0.3342" fill="white"/>
<ellipse cx="81.4702" cy="119.067" rx="0.333216" ry="0.3342" fill="white"/>
<ellipse cx="131.456" cy="119.067" rx="0.333217" ry="0.3342" fill="white"/>
<ellipse cx="181.436" cy="119.067" rx="0.333217" ry="0.3342" fill="white"/>
<ellipse cx="231.418" cy="119.067" rx="0.333203" ry="0.3342" fill="white"/>
<ellipse cx="281.402" cy="119.067" rx="0.333208" ry="0.3342" fill="white"/>
<ellipse cx="331.382" cy="119.067" rx="0.333226" ry="0.3342" fill="white"/>
<ellipse cx="64.8098" cy="153.152" rx="0.333216" ry="0.3342" fill="white"/>
<ellipse cx="114.792" cy="153.152" rx="0.333211" ry="0.3342" fill="white"/>
<ellipse cx="164.774" cy="153.152" rx="0.333217" ry="0.3342" fill="white"/>
<ellipse cx="214.758" cy="153.152" rx="0.333217" ry="0.3342" fill="white"/>
<ellipse cx="264.741" cy="153.152" rx="0.333217" ry="0.3342" fill="white"/>
<ellipse cx="314.722" cy="153.152" rx="0.333217" ry="0.3342" fill="white"/>
<ellipse cx="84.8037" cy="186.572" rx="0.333216" ry="0.3342" fill="white"/>
<ellipse cx="134.785" cy="186.572" rx="0.333217" ry="0.3342" fill="white"/>
<ellipse cx="184.769" cy="186.572" rx="0.333217" ry="0.3342" fill="white"/>
<ellipse cx="234.751" cy="186.572" rx="0.333217" ry="0.3342" fill="white"/>
<ellipse cx="284.733" cy="186.572" rx="0.333217" ry="0.3342" fill="white"/>
<ellipse cx="334.715" cy="186.572" rx="0.33318" ry="0.3342" fill="white"/>
<ellipse cx="82.8031" cy="49.216" rx="0.666431" ry="0.668399" fill="white"/>
<ellipse cx="182.769" cy="52.559" rx="0.666433" ry="0.668395" fill="white"/>
<ellipse cx="282.731" cy="49.216" rx="0.666433" ry="0.668399" fill="white"/>
<ellipse cx="122.791" cy="116.054" rx="0.666427" ry="0.668399" fill="white"/>
<ellipse cx="222.754" cy="119.398" rx="0.666415" ry="0.668399" fill="white"/>
<ellipse cx="322.72" cy="116.054" rx="0.666406" ry="0.668399" fill="white"/>
<ellipse cx="106.128" cy="183.562" rx="0.666432" ry="0.668399" fill="white"/>
<ellipse cx="206.093" cy="186.904" rx="0.666433" ry="0.668399" fill="white"/>
<ellipse cx="306.058" cy="183.562" rx="0.666433" ry="0.668399" fill="white"/>
<ellipse cx="56.1452" cy="19.1371" rx="0.666431" ry="0.668395" fill="white"/>
<ellipse cx="156.109" cy="22.4782" rx="0.666424" ry="0.668395" fill="white"/>
<ellipse cx="256.074" cy="19.1371" rx="0.666424" ry="0.668395" fill="white"/>
<ellipse cx="36.1513" cy="85.9799" rx="0.666431" ry="0.668399" fill="white"/>
<ellipse cx="136.117" cy="89.323" rx="0.666431" ry="0.668408" fill="white"/>
<ellipse cx="236.08" cy="85.9799" rx="0.666433" ry="0.668399" fill="white"/>
<ellipse cx="336.047" cy="82.6335" rx="0.666461" ry="0.668399" fill="white"/>
<ellipse cx="76.1388" cy="153.488" rx="0.666432" ry="0.668399" fill="white"/>
<ellipse cx="176.102" cy="156.83" rx="0.666429" ry="0.66839" fill="white"/>
<ellipse cx="276.068" cy="153.488" rx="0.666433" ry="0.668399" fill="white"/>
</g>
</g>
<path d="M79.3125 146.75H76.5V144.875H79.3125C79.4426 144.876 79.5715 144.85 79.6909 144.798C79.8104 144.746 79.9178 144.67 80.0063 144.575C80.1787 144.379 80.2664 144.123 80.25 143.863L79.3125 132.688C79.3125 131.942 79.0162 131.226 78.4887 130.699C77.9613 130.171 77.2459 129.875 76.5 129.875H69C68.2669 129.875 67.5627 130.161 67.0373 130.672C66.512 131.183 66.207 131.88 66.1875 132.613L65.6344 139.25H56.8125C56.5639 139.25 56.3254 139.349 56.1496 139.525C55.9738 139.7 55.875 139.939 55.875 140.188C55.875 140.436 55.9738 140.675 56.1496 140.85C56.3254 141.026 56.5639 141.125 56.8125 141.125H59.625V149.562C59.625 149.811 59.7238 150.05 59.8996 150.225C60.0754 150.401 60.3139 150.5 60.5625 150.5H63.5438C63.7372 151.047 64.0951 151.521 64.5684 151.857C65.0417 152.192 65.6072 152.373 66.1875 152.375H67.125V155.188C67.125 155.436 67.2238 155.675 67.3996 155.85C67.5754 156.026 67.8139 156.125 68.0625 156.125C68.3111 156.125 68.5496 156.026 68.7254 155.85C68.9012 155.675 69 155.436 69 155.188V152.375H76.5V155.188C76.5 155.436 76.5988 155.675 76.7746 155.85C76.9504 156.026 77.1889 156.125 77.4375 156.125C77.6861 156.125 77.9246 156.026 78.1004 155.85C78.2762 155.675 78.375 155.436 78.375 155.188V152.375H79.3125C80.0584 152.375 80.7738 152.079 81.3012 151.551C81.8287 151.024 82.125 150.308 82.125 149.562C82.125 148.817 81.8287 148.101 81.3012 147.574C80.7738 147.046 80.0584 146.75 79.3125 146.75ZM74.625 146.75H70.875V144.875H74.625V146.75ZM68.0625 132.688C68.0625 132.439 68.1613 132.2 68.3371 132.025C68.5129 131.849 68.7514 131.75 69 131.75H76.5C76.6297 131.75 76.7581 131.776 76.877 131.828C76.9959 131.88 77.1028 131.955 77.1909 132.051C77.279 132.146 77.3464 132.258 77.3889 132.381C77.4313 132.503 77.4479 132.633 77.4375 132.763L78.2906 143H67.2094L67.3594 141.125H72.75C72.9986 141.125 73.2371 141.026 73.4129 140.85C73.5887 140.675 73.6875 140.436 73.6875 140.188C73.6875 139.939 73.5887 139.7 73.4129 139.525C73.2371 139.349 72.9986 139.25 72.75 139.25H67.5188L68.0625 132.688ZM61.5 141.125H65.4844L65.25 143.863C65.2336 144.123 65.3213 144.379 65.4938 144.575C65.5822 144.67 65.6896 144.746 65.8091 144.798C65.9285 144.85 66.0574 144.876 66.1875 144.875H69V146.75H66.1875C65.6072 146.752 65.0417 146.933 64.5684 147.268C64.0951 147.604 63.7372 148.078 63.5438 148.625H61.5V141.125ZM79.3125 150.5H66.1875C65.9389 150.5 65.7004 150.401 65.5246 150.225C65.3488 150.05 65.25 149.811 65.25 149.562C65.25 149.314 65.3488 149.075 65.5246 148.9C65.7004 148.724 65.9389 148.625 66.1875 148.625H79.3125C79.5611 148.625 79.7996 148.724 79.9754 148.9C80.1512 149.075 80.25 149.314 80.25 149.562C80.25 149.811 80.1512 150.05 79.9754 150.225C79.7996 150.401 79.5611 150.5 79.3125 150.5Z" fill="white"/>
<path d="M180.312 146.75H177.5V144.875H180.312C180.443 144.876 180.572 144.85 180.691 144.798C180.81 144.746 180.918 144.67 181.006 144.575C181.179 144.379 181.266 144.123 181.25 143.863L180.312 132.688C180.312 131.942 180.016 131.226 179.489 130.699C178.961 130.171 178.246 129.875 177.5 129.875H170C169.267 129.875 168.563 130.161 168.037 130.672C167.512 131.183 167.207 131.88 167.188 132.613L166.634 139.25H157.812C157.564 139.25 157.325 139.349 157.15 139.525C156.974 139.7 156.875 139.939 156.875 140.188C156.875 140.436 156.974 140.675 157.15 140.85C157.325 141.026 157.564 141.125 157.812 141.125H160.625V149.562C160.625 149.811 160.724 150.05 160.9 150.225C161.075 150.401 161.314 150.5 161.562 150.5H164.544C164.737 151.047 165.095 151.521 165.568 151.857C166.042 152.192 166.607 152.373 167.188 152.375H168.125V155.188C168.125 155.436 168.224 155.675 168.4 155.85C168.575 156.026 168.814 156.125 169.062 156.125C169.311 156.125 169.55 156.026 169.725 155.85C169.901 155.675 170 155.436 170 155.188V152.375H177.5V155.188C177.5 155.436 177.599 155.675 177.775 155.85C177.95 156.026 178.189 156.125 178.438 156.125C178.686 156.125 178.925 156.026 179.1 155.85C179.276 155.675 179.375 155.436 179.375 155.188V152.375H180.312C181.058 152.375 181.774 152.079 182.301 151.551C182.829 151.024 183.125 150.308 183.125 149.562C183.125 148.817 182.829 148.101 182.301 147.574C181.774 147.046 181.058 146.75 180.312 146.75ZM175.625 146.75H171.875V144.875H175.625V146.75ZM169.062 132.688C169.062 132.439 169.161 132.2 169.337 132.025C169.513 131.849 169.751 131.75 170 131.75H177.5C177.63 131.75 177.758 131.776 177.877 131.828C177.996 131.88 178.103 131.955 178.191 132.051C178.279 132.146 178.346 132.258 178.389 132.381C178.431 132.503 178.448 132.633 178.438 132.763L179.291 143H168.209L168.359 141.125H173.75C173.999 141.125 174.237 141.026 174.413 140.85C174.589 140.675 174.688 140.436 174.688 140.188C174.688 139.939 174.589 139.7 174.413 139.525C174.237 139.349 173.999 139.25 173.75 139.25H168.519L169.062 132.688ZM162.5 141.125H166.484L166.25 143.863C166.234 144.123 166.321 144.379 166.494 144.575C166.582 144.67 166.69 144.746 166.809 144.798C166.928 144.85 167.057 144.876 167.188 144.875H170V146.75H167.188C166.607 146.752 166.042 146.933 165.568 147.268C165.095 147.604 164.737 148.078 164.544 148.625H162.5V141.125ZM180.312 150.5H167.188C166.939 150.5 166.7 150.401 166.525 150.225C166.349 150.05 166.25 149.811 166.25 149.562C166.25 149.314 166.349 149.075 166.525 148.9C166.7 148.724 166.939 148.625 167.188 148.625H180.312C180.561 148.625 180.8 148.724 180.975 148.9C181.151 149.075 181.25 149.314 181.25 149.562C181.25 149.811 181.151 150.05 180.975 150.225C180.8 150.401 180.561 150.5 180.312 150.5Z" fill="white"/>
<path d="M277.312 146.75H274.5V144.875H277.312C277.443 144.876 277.572 144.85 277.691 144.798C277.81 144.746 277.918 144.67 278.006 144.575C278.179 144.379 278.266 144.123 278.25 143.863L277.312 132.688C277.312 131.942 277.016 131.226 276.489 130.699C275.961 130.171 275.246 129.875 274.5 129.875H267C266.267 129.875 265.563 130.161 265.037 130.672C264.512 131.183 264.207 131.88 264.188 132.613L263.634 139.25H254.812C254.564 139.25 254.325 139.349 254.15 139.525C253.974 139.7 253.875 139.939 253.875 140.188C253.875 140.436 253.974 140.675 254.15 140.85C254.325 141.026 254.564 141.125 254.812 141.125H257.625V149.562C257.625 149.811 257.724 150.05 257.9 150.225C258.075 150.401 258.314 150.5 258.562 150.5H261.544C261.737 151.047 262.095 151.521 262.568 151.857C263.042 152.192 263.607 152.373 264.188 152.375H265.125V155.188C265.125 155.436 265.224 155.675 265.4 155.85C265.575 156.026 265.814 156.125 266.062 156.125C266.311 156.125 266.55 156.026 266.725 155.85C266.901 155.675 267 155.436 267 155.188V152.375H274.5V155.188C274.5 155.436 274.599 155.675 274.775 155.85C274.95 156.026 275.189 156.125 275.438 156.125C275.686 156.125 275.925 156.026 276.1 155.85C276.276 155.675 276.375 155.436 276.375 155.188V152.375H277.312C278.058 152.375 278.774 152.079 279.301 151.551C279.829 151.024 280.125 150.308 280.125 149.562C280.125 148.817 279.829 148.101 279.301 147.574C278.774 147.046 278.058 146.75 277.312 146.75ZM272.625 146.75H268.875V144.875H272.625V146.75ZM266.062 132.688C266.062 132.439 266.161 132.2 266.337 132.025C266.513 131.849 266.751 131.75 267 131.75H274.5C274.63 131.75 274.758 131.776 274.877 131.828C274.996 131.88 275.103 131.955 275.191 132.051C275.279 132.146 275.346 132.258 275.389 132.381C275.431 132.503 275.448 132.633 275.438 132.763L276.291 143H265.209L265.359 141.125H270.75C270.999 141.125 271.237 141.026 271.413 140.85C271.589 140.675 271.688 140.436 271.688 140.188C271.688 139.939 271.589 139.7 271.413 139.525C271.237 139.349 270.999 139.25 270.75 139.25H265.519L266.062 132.688ZM259.5 141.125H263.484L263.25 143.863C263.234 144.123 263.321 144.379 263.494 144.575C263.582 144.67 263.69 144.746 263.809 144.798C263.928 144.85 264.057 144.876 264.188 144.875H267V146.75H264.188C263.607 146.752 263.042 146.933 262.568 147.268C262.095 147.604 261.737 148.078 261.544 148.625H259.5V141.125ZM277.312 150.5H264.188C263.939 150.5 263.7 150.401 263.525 150.225C263.349 150.05 263.25 149.811 263.25 149.562C263.25 149.314 263.349 149.075 263.525 148.9C263.7 148.724 263.939 148.625 264.188 148.625H277.312C277.561 148.625 277.8 148.724 277.975 148.9C278.151 149.075 278.25 149.314 278.25 149.562C278.25 149.811 278.151 150.05 277.975 150.225C277.8 150.401 277.561 150.5 277.312 150.5Z" fill="white"/>
</g>
</svg>
