<svg width="340" height="201" viewBox="0 0 340 201" fill="none" xmlns="http://www.w3.org/2000/svg">
<g style="mix-blend-mode:luminosity">
<path d="M0 10C0 4.47715 4.47715 0 10 0H330C335.523 0 340 4.47715 340 10V191C340 196.523 335.523 201 330 201H10C4.47716 201 0 196.523 0 191V10Z" fill="#00418D"/>
<path opacity="0.5" fill-rule="evenodd" clip-rule="evenodd" d="M331.576 5.63199C331.539 5.60605 331.502 5.57901 331.462 5.55007C331.627 5.19665 331.619 5.10233 331.349 4.92883L331.331 4.91766C331.201 4.83386 331.063 4.74483 330.879 4.77082C330.79 4.7835 330.699 4.77985 330.607 4.7762C330.52 4.77272 330.432 4.76923 330.347 4.77988C329.994 4.82404 329.654 4.91193 329.397 5.18804C329.314 5.27676 329.228 5.36141 329.138 5.4491L329.138 5.4491L329.138 5.44912L329.138 5.44913L329.137 5.44914L329.137 5.44915C329.096 5.48969 329.054 5.53087 329.011 5.57341V5.7191C329.011 5.73667 329.011 5.75425 329.011 5.77184V5.77185V5.77186V5.77188V5.77189V5.7719V5.77191V5.77193V5.77194V5.77195V5.77196V5.77197V5.77199V5.772V5.77201V5.77202V5.77204V5.77205V5.77206V5.77207V5.77208V5.7721V5.77211V5.77213V5.77214V5.77215V5.77215V5.77216V5.77217V5.77217V5.77218V5.77218V5.77219V5.7722V5.7722V5.77221V5.77222V5.77222V5.77223V5.77224V5.77224V5.77225V5.77226V5.77226V5.77227C329.011 5.80758 329.012 5.84291 329.011 5.87819C329.003 6.1535 329.002 6.15377 328.673 6.26342L328.666 6.26596C328.635 6.27621 328.605 6.29508 328.575 6.3136C328.529 6.34162 328.485 6.36883 328.444 6.36411C328.197 6.33586 328.072 6.47817 327.955 6.65264L328.567 6.83944L328.552 6.91752H327.959C327.875 7.28436 328.118 7.32041 328.344 7.35404L328.386 7.36036C328.286 7.58107 328.269 7.75173 328.487 7.85827C328.662 7.94397 328.587 8.01703 328.51 8.09153C328.5 8.10177 328.489 8.11204 328.479 8.12238C328.807 8.33761 329.199 8.43447 329.59 8.39674C329.894 8.37946 330.2 8.38305 330.505 8.38663H330.505H330.505H330.505H330.505H330.505H330.505H330.505H330.505H330.505H330.505H330.505H330.505H330.505H330.505H330.505H330.505H330.505H330.505H330.505H330.505H330.505H330.505C330.662 8.38848 330.82 8.39032 330.977 8.38932C331.068 8.38454 331.16 8.37515 331.25 8.36119L331.248 8.30667L330.734 8.2553C330.865 8.19578 331.009 8.16887 331.153 8.1769C331.29 8.17402 331.427 8.16061 331.563 8.13677C331.686 8.10221 331.806 8.05925 331.923 8.00821L331.676 7.92304C332.006 7.74184 332.006 7.74137 331.924 7.40598L331.924 7.40332C331.913 7.35741 331.896 7.28381 331.918 7.26396C332.04 7.15579 332.013 7.08174 331.923 6.95754C331.902 6.92849 331.926 6.8729 331.952 6.81166C331.976 6.7552 332.003 6.69394 331.998 6.64425C331.978 6.51452 331.93 6.39068 331.857 6.28156C331.812 6.20884 331.844 6.14977 331.876 6.09225C331.905 6.03919 331.933 5.98744 331.899 5.92748C331.877 5.88193 331.847 5.84079 331.81 5.80611C331.737 5.74742 331.66 5.69274 331.576 5.63199ZM326.681 15.6695C326.661 15.608 326.702 15.5275 326.782 15.3693C326.736 15.3386 326.7 15.2978 326.663 15.2565C326.585 15.1687 326.505 15.0791 326.336 15.082C326.114 15.0822 325.9 15.1654 325.737 15.315C325.718 15.3316 325.697 15.3481 325.677 15.3647C325.61 15.4179 325.541 15.4727 325.516 15.5415C325.444 15.7429 325.296 15.8747 325.148 16.0062L325.148 16.0062L325.148 16.0062C325.077 16.0701 325.005 16.134 324.942 16.2057C324.719 16.4598 324.395 16.5462 324.084 16.5688C323.33 16.6237 322.739 17.0199 322.149 17.4158L322.102 17.4478C321.911 17.5762 321.876 17.7935 321.842 18.0141C321.836 18.0518 321.83 18.0895 321.823 18.127L321.82 18.1453C321.747 18.5515 321.73 18.6469 322.026 18.8018L322.058 18.8187C322.244 18.9152 322.366 18.9781 322.171 19.199C322.156 19.2154 322.199 19.2875 322.233 19.3434L322.249 19.371C322.262 19.3937 322.285 19.4207 322.306 19.4455C322.334 19.4788 322.358 19.5081 322.352 19.5171C322.196 19.7344 322.401 19.7511 322.505 19.7595L322.51 19.76C322.545 19.7628 322.58 19.766 322.615 19.7691C322.849 19.7901 323.09 19.8118 323.306 19.7529C323.381 19.7321 323.461 19.7185 323.541 19.7049L323.541 19.7049L323.541 19.7049C323.742 19.6709 323.945 19.6364 324.097 19.4865C324.188 19.3796 324.326 19.3239 324.466 19.3372C324.532 19.3308 324.595 19.3057 324.647 19.265C324.684 19.2423 324.722 19.2197 324.759 19.1971L324.759 19.1969L324.759 19.1969C324.922 19.0988 325.084 19.0005 325.237 18.8892C325.339 18.8144 325.437 18.7326 325.534 18.6508L325.534 18.6507L325.534 18.6507L325.534 18.6507L325.534 18.6507C325.634 18.567 325.733 18.4834 325.838 18.4073C325.986 18.2998 326.125 18.1794 326.262 18.0606L326.343 17.99C326.374 17.9632 326.406 17.9368 326.438 17.9102C326.654 17.7304 326.877 17.545 326.921 17.2248C326.964 16.9976 327.019 16.7728 327.086 16.5515C326.962 16.4301 326.97 16.2838 326.978 16.1382C326.984 16.0447 326.989 15.9514 326.959 15.8651C326.786 15.7768 326.701 15.7334 326.681 15.6695ZM291.812 54.9569C292.277 55.0296 292.691 55.1998 292.977 55.5623C293.058 55.5524 293.133 55.5421 293.203 55.5324C293.342 55.5131 293.463 55.4963 293.584 55.4905C293.822 55.4797 294.064 55.4149 294.123 55.1872C294.194 54.9156 294.299 54.7536 294.59 54.7411C294.624 54.7354 294.653 54.7148 294.669 54.6851C294.784 54.4211 294.991 54.2383 295.198 54.0556C295.305 53.9603 295.413 53.865 295.508 53.7583L295.545 53.7163C295.758 53.4779 295.77 53.4651 295.739 53.0385C295.733 52.9529 295.721 52.8676 295.706 52.7697C295.699 52.7212 295.691 52.6696 295.684 52.6133C295.901 52.4258 296.129 52.2521 296.368 52.0933C296.437 52.0525 296.498 51.9988 296.559 51.945C296.688 51.8317 296.818 51.7179 297.014 51.7238C297.036 51.5636 297.149 51.4724 297.252 51.3896C297.319 51.3358 297.382 51.2855 297.412 51.2221L297.304 50.6827H297.007C297.062 50.6202 297.093 50.5837 297.108 50.5673L296.976 50.3667C296.179 50.735 295.418 51.1777 294.705 51.6888C294.599 51.7728 294.453 51.7859 294.334 51.722C294.447 51.6455 294.556 51.5692 294.663 51.4942L294.664 51.4935L294.665 51.4933C294.901 51.3276 295.128 51.1687 295.367 51.0299C295.673 50.8522 295.988 50.6914 296.304 50.5302L296.305 50.5301L296.305 50.5297L296.306 50.5294C296.442 50.46 296.579 50.3906 296.714 50.3197C296.511 50.0338 296.51 50.0342 296.255 50.1446L296.244 50.1496C295.502 50.4711 294.817 50.895 294.134 51.3175L294.134 51.3176L294.132 51.3191L294.132 51.3192L294.131 51.3193L294.131 51.3193C294.028 51.3831 293.925 51.4468 293.822 51.5101C293.05 51.9843 292.293 52.4909 291.681 53.182C291.562 53.3168 291.48 53.4663 291.398 53.6155L291.398 53.6156L291.398 53.6156L291.398 53.6156L291.398 53.6157L291.398 53.6157L291.398 53.6157L291.398 53.6158L291.398 53.6158L291.398 53.6158L291.397 53.6159L291.397 53.6159L291.397 53.6159L291.397 53.616L291.397 53.616L291.397 53.616L291.397 53.6161L291.397 53.6161L291.397 53.6161L291.397 53.6162L291.397 53.6162L291.397 53.6162L291.397 53.6163L291.397 53.6163L291.397 53.6163L291.397 53.6164L291.397 53.6165L291.397 53.6165L291.397 53.6166L291.397 53.6166L291.397 53.6167C291.36 53.6846 291.322 53.7524 291.282 53.8188C291.242 53.9085 291.25 54.0121 291.304 54.0941C291.405 54.1919 291.428 54.3007 291.454 54.4176C291.46 54.4474 291.467 54.4777 291.475 54.5085L291.479 54.5256L291.486 54.5532C291.527 54.7211 291.576 54.9201 291.812 54.9569ZM306.526 49.8209C306.61 49.7367 306.695 49.6568 306.777 49.5786C306.952 49.4126 307.118 49.2545 307.265 49.0794C307.764 48.4815 308.43 48.1379 309.097 47.7943C309.254 47.7135 309.411 47.6326 309.565 47.5485C309.873 47.3813 310.212 47.3952 310.547 47.4089C310.61 47.4115 310.672 47.4141 310.734 47.4154C310.78 47.4164 310.826 47.4601 310.873 47.5053L310.873 47.5053C310.895 47.5266 310.918 47.5482 310.941 47.5658L310.93 47.5711C310.784 47.6442 310.646 47.7136 310.447 47.814H311.177C311.201 47.8625 311.222 47.9109 311.242 47.9576C311.286 48.0596 311.326 48.1539 311.392 48.2254C311.483 48.3353 311.508 48.4858 311.457 48.619C311.432 48.7145 311.369 48.8003 311.304 48.8902L311.304 48.8902L311.304 48.8903L311.303 48.8903L311.303 48.8904L311.303 48.8904C311.274 48.9303 311.244 48.971 311.217 49.0136C310.834 48.9322 310.513 49.0822 310.179 49.2679C310.195 49.3276 310.19 49.3911 310.185 49.4558C310.176 49.5712 310.167 49.6901 310.277 49.7968C310.314 49.8581 310.317 49.9335 310.286 49.9978C310.228 50.0943 310.176 50.1961 310.124 50.2979C309.956 50.626 309.788 50.9548 309.402 51.112L309.375 51.1226L309.375 51.1226C309.289 51.1571 309.188 51.1973 309.152 51.2647C309.126 51.3118 309.077 51.3212 309.029 51.3307C308.962 51.3437 308.896 51.3566 308.892 51.4687C308.888 51.5744 308.814 51.5648 308.74 51.5549C308.702 51.55 308.664 51.545 308.635 51.5545C308.527 51.5965 308.417 51.6308 308.305 51.6571C308.199 51.6671 308.092 51.6684 307.986 51.6608C307.63 51.2695 307.183 50.9703 306.685 50.7892L306.526 49.8209ZM327.126 36.3984L327.125 36.3981L327.125 36.3981C327.005 36.224 326.887 36.0526 326.779 35.8757C326.77 35.8615 326.801 35.8227 326.841 35.7737L326.841 35.7737C326.862 35.7477 326.885 35.7188 326.906 35.6893C326.818 35.6478 326.734 35.6 326.654 35.5462C326.574 35.4759 326.498 35.4016 326.426 35.3235L326.405 35.3037C326.256 35.1609 326.108 35.0193 326.333 34.8083C326.344 34.7979 326.342 34.7744 326.339 34.7497C326.338 34.7343 326.336 34.7185 326.337 34.7051C326.344 34.6422 326.345 34.58 326.346 34.5182C326.35 34.3358 326.353 34.1564 326.503 33.9697C326.568 33.8899 326.624 33.8014 326.681 33.7119C326.768 33.5755 326.856 33.4368 326.976 33.3227C327.152 33.1336 327.353 32.9704 327.575 32.8381C327.939 32.6481 328.299 32.4607 328.726 32.5283C328.848 32.5663 328.965 32.6188 329.074 32.6845L328.802 33.0142C328.882 33.038 328.965 33.0539 329.048 33.07L329.048 33.07C329.269 33.1124 329.497 33.156 329.681 33.3491L329.433 33.6798H329.823C329.841 33.7888 329.866 33.8948 329.89 33.9996C329.944 34.2303 329.997 34.4557 329.982 34.6965C329.979 34.882 329.908 35.06 329.784 35.1981C329.73 35.2539 329.681 35.3139 329.633 35.3741C329.539 35.4903 329.445 35.607 329.312 35.6948C329.22 35.7555 329.135 35.8278 329.049 35.9007C328.966 35.972 328.882 36.0439 328.789 36.1064C328.596 36.236 328.382 36.3121 328.169 36.3881L328.169 36.3881L328.169 36.3881C328.041 36.4337 327.913 36.4791 327.79 36.536C327.683 36.5861 327.545 36.5729 327.409 36.5599C327.348 36.5541 327.286 36.5482 327.228 36.5482C327.195 36.4987 327.161 36.4495 327.127 36.4006L327.126 36.3984ZM315.856 14.0359H317.003L317.027 13.938C316.945 13.9142 316.861 13.8816 316.777 13.8489L316.777 13.8489L316.777 13.8489L316.777 13.8489L316.777 13.8489L316.777 13.8489L316.777 13.8489L316.777 13.8489L316.777 13.8489L316.777 13.8489L316.777 13.8489L316.777 13.8489L316.777 13.8489L316.777 13.8489L316.777 13.8489L316.777 13.8489L316.777 13.8489L316.777 13.8489L316.777 13.8489L316.777 13.8489L316.777 13.8489C316.586 13.7747 316.396 13.7005 316.224 13.7308C316.152 13.7436 316.079 13.7529 316.005 13.7624L316.005 13.7624L316.005 13.7624L316.005 13.7624L316.005 13.7624L316.005 13.7624L316.005 13.7624L316.005 13.7624L316.005 13.7624L316.005 13.7625L316.005 13.7625L316.005 13.7625L316.005 13.7625L316.005 13.7625L316.005 13.7625L316.005 13.7625L316.005 13.7625L316.005 13.7625L316.005 13.7625L316.005 13.7625L316.005 13.7625C315.77 13.7926 315.528 13.8237 315.313 13.967C315.186 14.0515 315.047 14.119 314.908 14.1865C314.586 14.3428 314.264 14.4989 314.098 14.8657C313.838 14.9282 313.747 15.1373 313.659 15.3381C313.635 15.392 313.612 15.4453 313.586 15.4951C313.416 15.8167 313.251 16.161 313.497 16.539C313.66 16.7904 313.812 17.0495 313.961 17.3059L313.962 17.3063L313.962 17.3068L313.962 17.3074L313.963 17.308C314.028 17.4193 314.093 17.5302 314.158 17.6397C314.327 17.6282 314.496 17.6297 314.664 17.644C314.998 17.6986 315.28 17.5481 315.508 17.3714C315.641 17.2681 315.805 17.2126 315.974 17.2141C316.136 17.1287 316.235 17.0023 316.33 16.8797C316.415 16.7713 316.497 16.666 316.619 16.5944C316.737 16.5002 316.805 16.3579 316.804 16.2078C316.799 16.1203 316.808 16.0311 316.818 15.9417C316.839 15.7391 316.86 15.5348 316.718 15.3431C316.696 15.3139 316.719 15.2553 316.743 15.1922C316.76 15.1486 316.778 15.1029 316.783 15.0632C316.786 15.0325 316.769 14.9995 316.746 14.9558C316.734 14.9325 316.721 14.9062 316.708 14.8757C316.814 14.8901 316.921 14.8875 317.026 14.8681C317.11 14.8373 317.239 14.7346 317.231 14.68C317.199 14.5197 317.143 14.3653 317.064 14.222C317.01 14.1131 316.91 14.121 316.814 14.1287L316.814 14.1287C316.785 14.131 316.757 14.1332 316.73 14.1324C316.677 14.1307 316.624 14.1299 316.57 14.1292H316.57C316.332 14.1258 316.093 14.1224 315.856 14.0359ZM311.217 24.3213L311.95 23.5933C312.148 23.5828 312.347 23.586 312.545 23.6028C312.622 23.6132 312.699 23.7228 312.744 23.8047C312.756 23.8262 312.725 23.8714 312.693 23.9165L312.693 23.9166C312.68 23.9362 312.666 23.9558 312.656 23.9735C312.679 23.9847 312.702 23.9953 312.726 24.0059C312.865 24.0684 313.011 24.1338 312.967 24.3568C312.953 24.4069 312.958 24.4605 312.982 24.5071C313.088 24.6373 313.196 24.7788 313.149 24.9451C313.133 25.0018 313.119 25.0597 313.104 25.118L313.104 25.1181C313.041 25.366 312.978 25.6194 312.81 25.8075C312.401 26.2668 311.956 26.7033 311.365 26.932C311.014 27.0749 310.65 27.1837 310.278 27.2571C310.083 27.2946 309.883 27.2175 309.764 27.0589C309.683 26.9432 309.599 26.8291 309.515 26.715L309.515 26.7149L309.515 26.7148L309.515 26.7147L309.514 26.7146L309.514 26.7145L309.514 26.7143L309.514 26.7142L309.514 26.7141L309.514 26.714L309.514 26.7139L309.514 26.7138L309.514 26.7137L309.514 26.7136L309.514 26.7135L309.514 26.7134L309.514 26.7133L309.513 26.7132L309.513 26.713L309.513 26.7129L309.513 26.7129C309.379 26.5301 309.244 26.3473 309.12 26.1578C309.046 26.0464 309.009 25.9151 309.014 25.782C309.081 25.0095 309.447 24.459 310.325 24.2309C310.366 24.22 310.409 24.2042 310.451 24.1884L310.451 24.1884L310.451 24.1884C310.538 24.1558 310.625 24.1234 310.705 24.135C310.882 24.1784 311.054 24.2409 311.217 24.3213ZM292.213 25.5827L291.892 25.6457C292.062 25.721 292.208 25.7488 292.373 25.6215C292.479 25.5403 292.601 25.4853 292.723 25.4298L292.723 25.4298C292.889 25.3551 293.056 25.2795 293.188 25.138C293.263 25.0444 293.348 24.9597 293.443 24.8859C294.071 24.507 294.425 23.9279 294.708 23.288L294.719 23.263C294.753 23.1896 294.797 23.0915 294.771 23.059C294.686 22.9553 294.718 22.8708 294.752 22.7813C294.76 22.7599 294.768 22.7382 294.775 22.7158C294.795 22.6511 294.809 22.5468 294.773 22.5101C294.653 22.3859 294.594 22.2359 294.534 22.0846C294.521 22.0519 294.508 22.0192 294.494 21.9866C294.477 21.9462 294.439 21.8703 294.343 21.9413C294.295 21.976 294.229 21.9842 294.152 21.9935C294.115 21.998 294.076 22.0028 294.036 22.0111C294.166 21.7509 294.224 21.5356 294.007 21.3877C293.936 21.4148 293.865 21.4372 293.795 21.459C293.647 21.5058 293.506 21.5502 293.394 21.6331C293.286 21.7129 293.167 21.7791 293.048 21.8453L293.048 21.8454L293.048 21.8454L293.048 21.8454L293.048 21.8454L293.048 21.8454L293.048 21.8454L293.048 21.8455L293.048 21.8455L293.048 21.8455L293.048 21.8455L293.048 21.8455L293.048 21.8455L293.048 21.8456L293.048 21.8456L293.048 21.8456L293.048 21.8456L293.048 21.8456L293.048 21.8456C292.794 21.9876 292.539 22.1297 292.39 22.4046C291.825 22.7132 291.521 23.2353 291.215 23.7594L291.215 23.7595L291.215 23.7596L291.215 23.7597L291.214 23.7598C291.189 23.8039 291.163 23.8479 291.137 23.8919C291.016 24.0564 291.015 24.2801 291.136 24.4452C291.141 24.4529 291.146 24.4607 291.152 24.4688C291.199 24.5366 291.256 24.6188 291.151 24.7335C291.12 24.7881 291.115 24.8537 291.137 24.9124C291.159 24.9712 291.207 25.017 291.267 25.0374C291.425 25.08 291.544 25.1892 291.664 25.2988C291.818 25.44 291.974 25.5819 292.213 25.5827ZM316.83 57.9118L317.136 57.9554C317.126 57.9691 317.118 57.9822 317.112 57.9938C317.099 58.0152 317.089 58.0316 317.075 58.0373C316.984 58.0743 316.894 58.1138 316.804 58.1533L316.804 58.1533L316.804 58.1534L316.804 58.1534L316.804 58.1534L316.803 58.1535L316.803 58.1535C316.562 58.2593 316.321 58.3652 316.06 58.4234L316.022 58.4319C315.81 58.4801 315.608 58.5259 315.442 58.3209C315.397 58.2646 315.318 58.2516 315.24 58.2385C315.113 58.2174 314.986 58.1963 314.998 57.9908C314.751 57.8381 314.769 57.5957 314.786 57.3609L314.788 57.3428C314.624 57.3009 314.463 57.2479 314.306 57.1842C314.14 57.1045 314.093 56.8498 314.171 56.5766C314.179 56.5513 314.193 56.5263 314.207 56.5017C314.228 56.4658 314.248 56.4308 314.245 56.3969L314.244 56.385C314.206 55.9547 314.206 55.9538 314.554 55.7692C314.724 55.6671 314.899 55.5745 315.08 55.4919C315.291 55.4158 315.459 55.2521 315.54 55.0434C315.676 54.7205 315.971 54.4908 316.319 54.4365C316.632 54.3844 316.919 54.53 317.145 54.8078L316.531 55.2749C316.617 55.2749 316.693 55.2746 316.763 55.2743C316.905 55.2738 317.021 55.2733 317.138 55.2757C317.276 55.2786 317.281 55.2907 317.34 55.4337C317.355 55.4701 317.373 55.5149 317.398 55.5701C317.428 55.636 317.435 55.712 317.443 55.788C317.457 55.9356 317.472 56.0834 317.651 56.1571L317.673 56.7322C317.687 57.0864 317.648 57.4006 317.252 57.5657C317.144 57.6102 317.054 57.698 316.962 57.7887C316.919 57.8304 316.876 57.8727 316.83 57.9118ZM314.885 4.90184C314.555 4.93418 314.287 5.18189 314.232 5.50683L314.682 5.69276C314.395 5.78218 314.178 5.90693 314.141 6.24126C314.244 6.2902 314.343 6.34429 314.44 6.40331C314.465 6.41982 314.487 6.44394 314.509 6.46783C314.571 6.53517 314.63 6.60068 314.744 6.4888L314.72 6.80656C314.885 6.88224 315.106 6.98355 315.312 7.07853C315.304 7.11183 315.296 7.14443 315.287 7.17653L315.287 7.17665C315.261 7.2785 315.236 7.37524 315.217 7.47306C315.213 7.49029 315.261 7.53707 315.283 7.53565C315.33 7.53238 315.407 7.517 315.416 7.48821C315.426 7.45938 315.423 7.4242 315.421 7.39017C315.418 7.34917 315.415 7.30983 315.434 7.28528C315.455 7.25753 315.503 7.25034 315.569 7.24054C315.604 7.23544 315.643 7.22963 315.685 7.21985L315.495 7.43325L315.858 7.4334C316.295 7.43368 316.711 7.43393 317.126 7.43042C317.151 7.43017 317.175 7.4146 317.2 7.39869C317.219 7.38633 317.238 7.37377 317.259 7.36804C317.372 7.33642 317.479 7.28396 317.585 7.23253C317.793 7.1311 317.992 7.03366 318.21 7.10775C318.491 7.00489 318.507 6.80113 318.523 6.60958C318.532 6.48393 318.542 6.36354 318.626 6.2803C318.59 6.2126 318.548 6.14735 318.507 6.08375C318.418 5.94689 318.334 5.81765 318.333 5.68796C318.333 5.54579 318.259 5.44217 318.187 5.34056C318.113 5.23698 318.041 5.13549 318.049 4.99737C318.051 4.96193 317.947 4.88679 317.892 4.88767C317.793 4.88916 317.704 4.85816 317.614 4.82679C317.514 4.7918 317.412 4.75636 317.294 4.7651C316.833 4.80025 316.369 4.80083 315.907 4.76684C315.662 4.74812 315.429 4.79612 315.198 4.84378C315.093 4.86524 314.99 4.88664 314.885 4.90184ZM289.634 44.636C289.635 44.5936 289.638 44.5516 289.641 44.5103C289.656 44.2838 289.669 44.0803 289.41 43.9678C289.707 43.7435 289.919 43.717 290.155 43.9454C290.215 44.0036 290.281 44.0544 290.347 44.1055C290.46 44.193 290.574 44.2813 290.663 44.4084C290.734 44.5102 290.856 44.5748 290.979 44.6403C291.069 44.6884 291.16 44.7369 291.234 44.801C291.326 44.8817 291.394 44.9903 291.462 45.0988L291.462 45.0989C291.492 45.1473 291.522 45.1957 291.555 45.2417L291.381 45.418L291.202 45.1683L291.138 45.196L291.198 45.5746C291.183 45.5845 291.162 45.5949 291.138 45.6065C291.073 45.6374 290.99 45.6776 290.956 45.7431C290.672 46.2853 290.198 46.6311 289.711 46.9605C289.617 47.0246 289.506 47.0638 289.394 47.1031C289.317 47.1302 289.241 47.1574 289.169 47.1927L289.098 47.2273C288.722 47.4133 288.629 47.4591 288.254 47.3975C287.967 47.3504 287.662 47.2982 287.428 47.0742C287.337 46.9758 287.216 46.9099 287.084 46.8868C286.786 46.8751 286.738 46.7123 286.754 46.473C286.757 46.4047 286.75 46.3363 286.732 46.2703C286.619 45.8528 286.63 45.8097 286.952 45.6015C287.349 45.3448 287.794 45.1997 288.237 45.0549C288.326 45.0257 288.416 44.9966 288.504 44.9665C288.764 44.8785 289.029 44.8051 289.29 44.7327C289.406 44.7006 289.52 44.6688 289.634 44.636ZM295.578 37.74L295.578 37.7406L295.578 37.7411C295.553 37.786 295.528 37.831 295.502 37.8759C295.687 37.9366 295.836 38.0586 295.731 38.2039C295.58 38.4112 295.726 38.4446 295.847 38.47C295.87 38.4749 295.895 38.4779 295.919 38.4809L295.919 38.481C296.004 38.4913 296.087 38.5014 296.115 38.589C296.159 38.7255 296.265 38.7924 296.369 38.8585C296.414 38.8869 296.459 38.9152 296.498 38.9488C296.604 39.0392 296.784 39.1282 296.903 39.1004C297.104 39.0436 297.291 38.9433 297.449 38.8068C297.544 38.7292 297.622 38.6309 297.7 38.5322L297.7 38.5322L297.7 38.5322L297.7 38.5321L297.7 38.5321L297.7 38.5321L297.7 38.532L297.7 38.532L297.7 38.532L297.7 38.5319L297.7 38.5319L297.7 38.5319L297.7 38.5318L297.7 38.5318C297.751 38.4671 297.803 38.4022 297.859 38.3431C297.931 38.2678 298.005 38.195 298.08 38.1222L298.08 38.1221C298.292 37.9154 298.504 37.7086 298.65 37.446C298.714 37.3306 298.792 37.2229 298.87 37.1153L298.87 37.1153C299.017 36.9132 299.163 36.7111 299.217 36.4578C299.252 36.2059 299.369 35.9724 299.55 35.7926C299.759 35.5979 299.727 35.449 299.539 35.1819C299.517 35.1498 299.494 35.11 299.471 35.07L299.471 35.0699C299.418 34.9757 299.363 34.8798 299.307 34.8787C299.162 34.8755 299.16 34.7911 299.159 34.707C299.158 34.6296 299.156 34.5524 299.043 34.5391C298.506 34.7746 298.046 35.1697 297.588 35.5626L297.511 35.6286L297.431 35.6972C297.104 35.9754 296.804 36.2842 296.504 36.5931L296.504 36.5934L296.504 36.5936L296.503 36.5938L296.503 36.5941L296.503 36.5943L296.503 36.5946L296.502 36.5948C296.357 36.7447 296.211 36.8946 296.062 37.041C295.856 37.2447 295.718 37.4903 295.578 37.74ZM298.596 59.2757C298.844 58.6776 299.302 58.4162 299.75 58.1605L299.768 58.1507C300.166 57.9205 300.581 57.7187 301.009 57.5468C301.101 57.51 301.193 57.4672 301.286 57.4242C301.617 57.27 301.956 57.1124 302.376 57.215C302.235 57.4156 302.027 57.5025 301.812 57.5926C301.616 57.6746 301.414 57.7593 301.25 57.9347C301.557 57.8966 301.825 57.7904 302.103 57.6801C302.317 57.5954 302.537 57.5082 302.785 57.4475L302.592 57.7965L302.881 57.8476L302.977 58.3526C302.954 58.3668 302.928 58.3824 302.9 58.3991C302.83 58.4404 302.748 58.4892 302.671 58.5442C302.25 58.8427 302.248 58.8469 302.058 59.3801L302.053 59.3934C302.028 59.4544 301.997 59.5126 301.96 59.567C301.691 59.9902 301.388 60.3755 300.92 60.6085C300.71 60.7175 300.481 60.7849 300.245 60.8068C300.196 60.8137 300.15 60.8368 300.115 60.8722C300.085 60.9065 300.039 60.9226 299.994 60.9146C299.95 60.9067 299.912 60.8758 299.896 60.8334C299.821 60.7014 299.706 60.6107 299.591 60.5202C299.498 60.4471 299.406 60.374 299.334 60.2793C299.266 60.2011 299.167 60.1562 299.063 60.156C298.91 60.1336 298.712 59.8353 298.744 59.6965C298.751 59.6679 298.773 59.6425 298.795 59.6172C298.84 59.5665 298.884 59.5157 298.806 59.4378C298.74 59.3794 298.67 59.3252 298.596 59.2757ZM311.007 41.7373L311.061 42.0616C311.177 42.1301 311.293 42.1016 311.409 42.073C311.514 42.0472 311.619 42.0212 311.726 42.0665C311.785 42.0739 311.84 42.0406 311.86 41.9861C311.881 41.9316 311.861 41.8703 311.812 41.8382C311.797 41.8229 311.813 41.7757 311.83 41.7285C311.837 41.7068 311.845 41.6851 311.849 41.6666C311.865 41.671 311.884 41.6753 311.903 41.6795L311.903 41.6796C311.944 41.6887 311.986 41.6979 311.986 41.7087C311.997 41.9913 312.234 41.9072 312.335 41.8687C312.42 41.8365 312.505 41.8057 312.59 41.7748C312.939 41.6486 313.29 41.5219 313.592 41.3017L313.596 41.2987C313.753 41.1843 313.952 41.0387 313.748 40.7928C313.738 40.7799 313.748 40.7396 313.76 40.72C313.9 40.5053 313.817 40.3733 313.604 40.2838C313.418 40.2058 313.503 40.1222 313.57 40.0567L313.581 40.0454L313.348 39.7533L312.892 39.8733C312.925 39.8161 312.975 39.7797 313.025 39.7441C313.11 39.6831 313.191 39.6243 313.177 39.4675L313.119 39.4342C313.062 39.4014 312.999 39.3648 312.936 39.3274C312.905 39.3093 312.868 39.2926 312.832 39.2759C312.75 39.2389 312.668 39.2018 312.657 39.1492C312.61 38.9316 312.492 38.9823 312.386 39.0281L312.368 39.0357C312.36 39.039 312.353 39.0421 312.345 39.0451C312.192 39.1047 312.043 39.1715 311.893 39.2384L311.893 39.2384C311.787 39.2854 311.682 39.3325 311.576 39.377C311.509 39.3975 311.441 39.4112 311.373 39.418L311.345 39.3319L312.457 38.8287C312.13 38.7515 311.909 38.848 311.668 38.956C311.288 39.1279 310.932 39.3478 310.609 39.6103C310.198 39.9414 309.858 40.3386 309.969 40.9347C309.974 40.9837 309.974 41.033 309.97 41.0821L310.761 41.8682L311.007 41.7373ZM322.474 40.1364L322.253 40.3561L322.665 40.4037C322.679 40.4686 322.694 40.5342 322.709 40.6002C322.744 40.7567 322.78 40.916 322.804 41.0771C322.824 41.2172 322.824 41.3596 322.802 41.4995C322.795 41.5438 322.756 41.5549 322.712 41.5674C322.652 41.5847 322.581 41.6047 322.571 41.7185C322.562 41.8235 322.412 41.9084 322.274 41.9858C322.246 42.0018 322.218 42.0175 322.192 42.0331C322.153 42.0566 322.098 42.0613 322.044 42.066C321.928 42.076 321.809 42.0861 321.82 42.275L321.299 42.3039C321.288 42.3046 321.276 42.3066 321.264 42.3086L321.249 42.3111L320.454 43.1012C320.46 43.1876 320.459 43.2745 320.451 43.3608C320.43 43.4926 320.299 43.6348 320.217 43.5671C320.12 43.4866 320.039 43.5267 319.962 43.5648C319.895 43.5979 319.831 43.6294 319.762 43.5794C319.638 43.1683 319.625 43.0388 319.683 42.7045L319.143 42.9528C319.127 42.9368 319.105 42.9195 319.082 42.9011C319.027 42.8575 318.965 42.8083 318.966 42.7595C318.967 42.6664 318.962 42.5722 318.957 42.4778C318.941 42.1287 318.924 41.7775 319.17 41.4701C319.243 41.3558 319.329 41.2498 319.425 41.1539C319.627 40.9934 319.841 40.8472 320.055 40.7012L320.164 40.6269C320.235 40.578 320.309 40.5332 320.383 40.4885L320.383 40.4885L320.383 40.4884C320.437 40.4559 320.491 40.4234 320.544 40.3893C320.617 40.3418 320.703 40.3176 320.789 40.2934C320.93 40.2537 321.071 40.2139 321.157 40.0708C321.338 40.0974 321.485 40.0263 321.635 39.9536C321.681 39.9313 321.727 39.9089 321.775 39.8891C321.9 39.8262 322.046 39.8171 322.178 39.8638C322.31 39.9105 322.417 40.009 322.474 40.1364ZM330.401 24.2226V23.7318C330.437 23.4111 330.397 23.0866 330.286 22.7834C330.24 22.6536 330.159 22.5399 330.078 22.4253C329.996 22.3089 329.912 22.1916 329.863 22.0555C329.853 22.0247 329.776 21.9988 329.732 22.0019C329.596 22.0105 329.461 22.0287 329.328 22.0564C329.08 22.11 328.885 22.2542 328.688 22.3988C328.629 22.4423 328.57 22.4858 328.509 22.5269C327.993 22.8778 327.605 23.2973 327.618 23.9683C327.622 24.0183 327.608 24.0682 327.578 24.1084C327.439 24.237 327.502 24.3408 327.565 24.4442C327.599 24.5006 327.633 24.557 327.634 24.6172C327.861 24.7599 327.978 24.9888 328.091 25.2119C328.132 25.291 328.172 25.3694 328.216 25.443C328.367 25.6934 328.526 25.7646 328.747 25.7114C328.791 25.7008 328.835 25.6908 328.88 25.6807L328.88 25.6807L328.88 25.6807L328.88 25.6806C329.228 25.6016 329.584 25.5209 329.81 25.1903C329.841 25.1461 329.884 25.1101 329.927 25.0739C330.017 24.9982 330.107 24.9221 330.085 24.77C330.088 24.7236 330.116 24.6823 330.157 24.6609C330.407 24.6215 330.404 24.4493 330.402 24.2761C330.402 24.2582 330.401 24.2403 330.401 24.2226ZM304.458 22.8798L304.069 23.1258C304.141 23.1354 304.194 23.1427 304.237 23.1485L304.237 23.1486C304.305 23.1578 304.344 23.1631 304.383 23.1675L304.384 23.1676L304.384 23.1676C304.481 23.1782 304.533 23.184 304.564 23.2128C304.6 23.2468 304.607 23.3126 304.622 23.456V23.456L304.622 23.4567C304.623 23.4652 304.623 23.4749 304.623 23.4847C304.625 23.5136 304.626 23.5443 304.64 23.5532C304.816 23.6538 304.895 23.865 304.828 24.0558C304.773 24.2791 304.674 24.4893 304.537 24.6744C303.979 25.3331 303.23 25.7204 302.436 26.0212C302.343 26.0564 302.233 26.0468 302.124 26.0373C302.074 26.0329 302.024 26.0286 301.975 26.0286L301.998 25.8256C301.806 25.8389 301.664 25.7958 301.619 25.573C301.589 25.4915 301.521 25.4298 301.437 25.4081C301.3 25.3947 301.284 25.3059 301.268 25.2188C301.258 25.1595 301.247 25.1009 301.198 25.0675C301.311 24.9973 301.291 24.9001 301.27 24.8022C301.252 24.7169 301.235 24.6311 301.304 24.5623C301.355 24.5127 301.401 24.4566 301.447 24.4008C301.533 24.2972 301.619 24.1943 301.728 24.1335C302.097 23.9177 302.488 23.742 302.894 23.6096C303.077 23.5688 303.235 23.4563 303.333 23.2976C303.472 23.0428 303.689 22.8384 303.953 22.7136L303.962 22.7095C304.183 22.6084 304.184 22.6077 304.458 22.8798ZM310.872 32.8475C310.808 32.8377 310.743 32.8362 310.679 32.8431C310.537 32.9433 310.412 33.0542 310.289 33.1628L310.289 33.1628L310.289 33.1629C310.231 33.2145 310.173 33.2656 310.115 33.3149C309.75 33.619 309.376 33.9322 309.182 34.4085C309.053 34.7266 309.091 35.0213 309.314 35.1878C309.378 35.2355 309.425 35.304 309.471 35.3722C309.554 35.4941 309.636 35.6151 309.816 35.6143C309.857 35.905 310.099 35.8555 310.252 35.8106C310.681 35.6851 311.114 35.5467 311.456 35.2414C311.519 35.1852 311.571 35.1165 311.623 35.0478L311.623 35.0478C311.67 34.9842 311.718 34.9206 311.775 34.8667C311.869 34.7776 311.974 34.6995 312.087 34.6153C312.139 34.577 312.192 34.5375 312.246 34.4951L312.094 33.7139L311.963 33.6924L311.962 33.6923C311.895 33.6813 311.827 33.6702 311.745 33.6569L312.23 33.0662C312.191 33.0254 312.146 32.9866 312.104 32.95L312.104 32.95C312.018 32.8756 311.942 32.8104 311.95 32.7561C311.961 32.668 311.937 32.595 311.912 32.522C311.887 32.4503 311.863 32.3786 311.873 32.2927C311.811 32.3392 311.8 32.4147 311.79 32.4876C311.774 32.6005 311.758 32.7069 311.555 32.6884L311.662 32.4402C311.41 32.3566 311.311 32.522 311.209 32.6939L311.208 32.6941L311.208 32.6943L311.208 32.6943L311.208 32.6944C311.198 32.7111 311.188 32.7279 311.178 32.7445C311.255 32.722 311.333 32.6998 311.422 32.674L311.481 32.6573C311.474 32.7136 311.458 32.7683 311.433 32.8192C311.391 32.8736 311.336 32.9165 311.273 32.9437C311.256 32.95 311.233 32.9361 311.208 32.9213C311.185 32.9078 311.161 32.8936 311.14 32.8936C311.116 32.8939 311.091 32.9062 311.067 32.9184C311.04 32.9318 311.014 32.9449 310.99 32.9412C310.968 32.9379 310.949 32.9164 310.93 32.8948C310.912 32.8739 310.894 32.8528 310.872 32.8475ZM303.742 41.6021L303.651 41.8654C303.895 41.876 304.043 41.7457 304.194 41.6137C304.322 41.5015 304.452 41.388 304.642 41.3585C304.616 41.437 304.581 41.5124 304.538 41.5833C304.453 41.679 304.363 41.7703 304.268 41.8567C304.43 41.8461 304.583 41.7786 304.7 41.6662C304.891 41.8229 304.974 41.8918 305.011 41.9802C305.04 42.0494 305.041 42.1307 305.041 42.2757C304.979 42.3307 304.91 42.3833 304.841 42.4364C304.683 42.5582 304.521 42.6825 304.422 42.8446C304.326 43.0008 304.188 43.09 304.052 43.1785C303.964 43.2355 303.877 43.2921 303.801 43.3662C303.599 43.5391 303.372 43.6809 303.128 43.787C302.997 43.8618 302.848 43.8967 302.697 43.8874C302.525 43.8601 302.272 43.7873 302.223 43.6664C302.167 43.5277 302.082 43.5074 301.994 43.4865C301.955 43.4775 301.917 43.4683 301.88 43.4493C301.714 43.3636 301.552 43.2463 301.516 43.031C301.509 42.9854 301.491 42.9367 301.474 42.8886C301.444 42.8043 301.414 42.7223 301.441 42.6637C301.536 42.4323 301.675 42.2212 301.85 42.0421C302.191 41.7325 302.551 41.445 302.929 41.1814C302.992 41.1368 303.085 41.1354 303.195 41.1337C303.251 41.1328 303.311 41.1319 303.373 41.1252L303.211 41.3252C303.392 41.299 303.495 41.3949 303.591 41.4855C303.64 41.5312 303.687 41.5755 303.742 41.6021ZM284.282 38.5249L284.125 38.8085C284.305 38.7791 284.483 38.7376 284.657 38.6843C284.728 38.6563 284.827 38.5573 284.82 38.5028C284.804 38.3832 284.871 38.3107 284.933 38.2432C284.974 38.1996 285.012 38.1581 285.025 38.1072C285.057 37.9783 285.136 37.9054 285.216 37.8329C285.247 37.8046 285.277 37.7763 285.305 37.7448C285.362 37.681 285.428 37.623 285.495 37.5654C285.607 37.4677 285.718 37.3709 285.778 37.2481C285.837 37.1258 285.925 37.0376 286.011 36.9505C286.067 36.8942 286.122 36.8384 286.169 36.7741C286.252 36.6605 286.333 36.5454 286.414 36.4307L286.414 36.4297L286.456 36.3701L286.521 36.2787V35.703C286.327 35.7601 286.327 35.6592 286.327 35.5574C286.326 35.4778 286.326 35.3977 286.233 35.3921C286.16 35.386 286.112 35.4402 286.063 35.4949C285.996 35.5711 285.927 35.6483 285.789 35.5651C285.813 35.5368 285.84 35.5097 285.868 35.4828L285.868 35.4828C285.976 35.3763 286.08 35.2731 285.979 35.1082C285.67 35.1228 285.481 35.3208 285.292 35.5189L285.264 35.5474C285.23 35.5879 285.192 35.6253 285.151 35.6591C284.674 35.9994 284.224 36.3744 283.804 36.7811C283.756 36.8288 283.695 36.8648 283.635 36.9009C283.579 36.9343 283.523 36.9678 283.476 37.0107L283.457 37.0285C283.284 37.1863 283.105 37.3495 283.143 37.6228C283.257 37.637 283.344 37.5797 283.429 37.5236C283.532 37.4559 283.633 37.3897 283.776 37.4526L283.234 37.9907L283.399 38.2726L283.981 38.0233C283.825 38.3759 283.847 38.405 284.282 38.5249ZM319.898 35.1564C319.894 35.219 319.902 35.275 319.91 35.3282C319.926 35.4305 319.939 35.5228 319.86 35.6327L319.785 35.4189C319.727 35.4359 319.669 35.4535 319.611 35.471L319.611 35.471L319.611 35.471L319.611 35.4711C319.455 35.5182 319.299 35.5655 319.141 35.6027C319.085 35.6159 318.975 35.5869 318.959 35.5482C318.906 35.4232 318.804 35.3494 318.704 35.2763C318.634 35.2245 318.563 35.1732 318.511 35.1044C318.459 35.0198 318.43 34.9236 318.426 34.8247C318.423 34.8006 318.44 34.7743 318.457 34.748C318.474 34.7219 318.491 34.6958 318.488 34.672C318.468 34.6087 318.437 34.5495 318.395 34.4975L318.418 34.491C318.72 34.4065 318.736 34.4021 318.856 34.0519C318.902 33.9184 319.001 33.8506 319.102 33.7819C319.163 33.7399 319.225 33.6977 319.276 33.6399L319.053 33.5357C319.071 33.5184 319.089 33.4973 319.106 33.4765C319.143 33.4333 319.177 33.3921 319.212 33.3922C319.849 33.3951 319.863 33.3945 320.245 33.1053C320.072 33.007 319.943 33.0809 319.806 33.1591C319.715 33.211 319.621 33.2647 319.509 33.2715C319.512 33.2463 319.514 33.2171 319.516 33.1887L319.516 33.1886L319.516 33.1886L319.516 33.1886C319.519 33.1297 319.522 33.0742 319.545 33.0651C319.594 33.045 319.643 33.0234 319.691 33.0017L319.691 33.0017L319.691 33.0017L319.691 33.0017C319.972 32.8772 320.25 32.7537 320.589 32.9342C320.605 32.9426 320.62 32.95 320.633 32.957C320.729 33.0054 320.778 33.0306 320.78 33.1599C320.792 33.2578 320.829 33.351 320.888 33.4305C320.982 33.5795 321.083 33.7246 321.189 33.8765L321.189 33.8765L321.189 33.8766L321.189 33.8766C321.232 33.9394 321.277 34.0033 321.322 34.0691L321.19 34.1563C321.137 34.2314 321.167 34.3078 321.192 34.3732C321.227 34.4627 321.253 34.5318 321.051 34.5489C321.013 34.5522 321.025 34.5869 321.038 34.6284C321.061 34.6946 321.089 34.7779 320.929 34.7779C320.859 34.7779 320.79 34.866 320.722 34.9508C320.693 34.9884 320.664 35.0253 320.635 35.0536L320.495 35.0002L320.385 34.9582L320.33 35.0366L320.619 35.1873L320.239 35.4097C320.134 35.3317 320.016 35.2441 319.898 35.1564ZM304.337 16.9601L303.922 17.2872C303.964 17.3496 304.013 17.407 304.068 17.4584C304.127 17.4867 304.188 17.5116 304.25 17.5329L304.259 17.5373C304.314 17.563 304.402 17.6039 304.398 17.6194C304.369 17.7416 304.443 17.8254 304.516 17.909C304.596 17.9986 304.675 18.088 304.625 18.2241C304.666 18.2428 304.708 18.2593 304.751 18.2735C304.801 18.168 304.878 18.1878 304.954 18.2075C304.993 18.2178 305.033 18.228 305.069 18.22C305.221 18.1854 305.343 18.1044 305.463 18.0243L305.463 18.0243C305.548 17.9676 305.633 17.9114 305.727 17.8725C306.135 17.7064 306.499 17.4491 306.791 17.1206L306.638 16.0339H306.117C306.147 15.9509 306.212 15.8932 306.276 15.8372C306.368 15.7568 306.455 15.6801 306.426 15.5373C306.132 15.4735 305.848 15.4831 305.622 15.6445C305.435 15.7781 305.238 15.8955 305.041 16.0127L305.041 16.0127C304.851 16.1258 304.662 16.2388 304.481 16.366C304.302 16.4792 304.157 16.6377 304.059 16.8251L304.337 16.9601ZM297.453 29.0624L296.964 29.2728L297.224 29.371C297.219 29.3786 297.215 29.3878 297.211 29.3969C297.202 29.4162 297.193 29.4353 297.18 29.4388C297 29.4848 296.835 29.5765 296.701 29.7049C296.612 29.7811 296.513 29.8447 296.407 29.8941C296.224 29.976 296.094 30.1432 296.06 30.3401L296.235 30.4255L296.015 30.7171C295.989 30.7171 295.969 30.7181 295.953 30.719C295.93 30.7202 295.918 30.7208 295.915 30.716C295.865 30.64 295.817 30.5626 295.772 30.4892L295.737 30.4315L295.26 30.5161L295.442 30.1442L295.008 29.9298L294.978 29.6726H294.741C294.539 29.4057 294.567 29.187 294.779 28.9555C294.867 28.8598 294.949 28.7595 295.033 28.6579C295.17 28.4915 295.31 28.3214 295.481 28.1616L295.699 28.4888C295.918 28.4269 296.121 28.3195 296.295 28.1738C296.427 28.0681 296.585 27.9958 296.741 27.9248C296.809 27.894 296.876 27.8634 296.94 27.8304C297.093 27.9535 297.036 28.0562 296.975 28.1644C296.959 28.193 296.943 28.222 296.93 28.2519C296.947 28.2539 296.965 28.2578 296.983 28.2616C297.019 28.2697 297.054 28.2773 297.08 28.2658C297.322 28.1593 297.441 28.2053 297.451 28.4312C297.458 28.5782 297.456 28.7255 297.455 28.8708V28.8709V28.871V28.8711C297.454 28.9353 297.453 28.9992 297.453 29.0624ZM294.962 14.1855L295.339 13.9328L295.329 13.9182L295.316 13.8984C295.252 13.8011 295.196 13.7155 295.039 13.7004C294.683 13.666 294.383 13.8062 294.084 13.9458C294.007 13.9818 293.93 14.0177 293.852 14.0506C293.696 14.1166 293.645 14.3827 293.691 14.5939C293.708 14.6786 293.713 14.7651 293.708 14.8513C293.686 15.067 293.839 15.2614 294.055 15.2921C294.207 15.3252 294.309 15.3621 294.354 15.5201C294.384 15.662 294.522 15.7544 294.665 15.7288L294.69 15.7269L294.709 15.7253C294.83 15.7149 294.955 15.7043 295.053 15.827C295.116 15.8604 295.192 15.8598 295.255 15.8253C295.283 15.8055 295.3 15.763 295.316 15.7232C295.333 15.6812 295.349 15.6422 295.375 15.636C295.408 15.6283 295.447 15.6514 295.486 15.6755C295.523 15.6975 295.561 15.7203 295.597 15.7206C295.847 15.723 295.979 15.5377 296.054 15.3425C296.074 15.2902 296.076 15.2323 296.077 15.1729C296.079 15.0834 296.082 14.9906 296.149 14.9093C296.155 14.9019 296.114 14.8581 296.066 14.8065L296.066 14.8065C296.028 14.7654 295.985 14.7194 295.958 14.6828C295.933 14.6362 295.915 14.5865 295.903 14.5351H295.466L295.726 14.4109V14.1017C295.667 14.115 295.61 14.1281 295.554 14.1409L295.554 14.1409C295.404 14.1754 295.265 14.2076 295.124 14.234C295.098 14.2389 295.069 14.2269 295.031 14.2114C295.011 14.2031 294.988 14.1937 294.962 14.1855ZM304.962 30.9802L304.832 31.4199C305.004 31.4918 305.17 31.5131 305.324 31.3614C305.425 31.4718 305.376 31.5603 305.325 31.6521C305.29 31.7152 305.254 31.7799 305.265 31.8543L305.552 31.9071C305.629 31.979 305.595 32.0475 305.56 32.1198C305.525 32.1912 305.489 32.2663 305.555 32.352C305.638 32.4586 305.563 32.5171 305.484 32.5797C305.431 32.621 305.376 32.6639 305.362 32.7236C305.326 32.8147 305.262 32.8927 305.18 32.9473C305.077 33.0308 304.956 33.0848 304.835 33.1391C304.666 33.2145 304.496 33.2905 304.371 33.4468C304.336 33.4898 304.246 33.4888 304.144 33.4876C304.092 33.4871 304.038 33.4865 303.985 33.4913C304.061 33.3384 303.972 33.2591 303.884 33.1795C303.799 33.1038 303.715 33.0278 303.77 32.888C303.726 32.8615 303.672 32.8504 303.617 32.8392C303.49 32.8131 303.356 32.7857 303.334 32.5601L303.615 32.3966L303.345 32.2684C303.304 32.0955 303.445 32.0123 303.545 31.9534L303.559 31.9453C303.883 31.7546 304.154 31.4848 304.344 31.1614C304.466 30.9577 304.666 30.8461 304.962 30.9802ZM318.64 27.7189L319.172 28.3936C319.225 28.3813 319.285 28.373 319.347 28.3643C319.491 28.3441 319.647 28.3222 319.767 28.2444C320.075 28.0518 320.352 27.8126 320.586 27.5356C320.848 27.2104 321.064 26.8262 320.68 26.4181C320.655 26.3919 320.648 26.35 320.639 26.3026C320.635 26.2779 320.63 26.2518 320.623 26.2257C320.575 26.235 320.527 26.2397 320.481 26.2442C320.387 26.2534 320.303 26.2616 320.25 26.3066C320.215 26.3368 320.18 26.3677 320.146 26.3985C319.939 26.582 319.736 26.7629 319.434 26.7858C319.304 26.946 319.125 27.0282 318.947 27.1097C318.84 27.1586 318.734 27.2073 318.64 27.2725V27.7189Z" fill="white" fill-opacity="0.5"/>
<path opacity="0.5" fill-rule="evenodd" clip-rule="evenodd" d="M57.4649 197.921C57.4265 197.948 57.3864 197.977 57.3442 198.008C57.5192 198.383 57.5109 198.484 57.2238 198.668L57.2053 198.68C57.0671 198.769 56.9203 198.863 56.7249 198.836C56.6301 198.822 56.533 198.826 56.4358 198.83C56.3431 198.834 56.2503 198.838 56.1593 198.826C55.7839 198.779 55.4228 198.686 55.1499 198.393C55.0623 198.298 54.97 198.208 54.8744 198.115L54.8743 198.115L54.8743 198.115L54.8743 198.115L54.8742 198.115C54.8301 198.072 54.7852 198.028 54.7398 197.983V197.828C54.7398 197.81 54.7399 197.791 54.7401 197.772V197.772V197.772V197.772V197.772V197.772V197.772V197.772V197.772V197.772V197.772V197.772V197.772V197.772V197.772V197.772V197.772V197.772V197.772V197.772V197.772V197.772V197.772C54.7405 197.734 54.7409 197.697 54.7398 197.659C54.7313 197.367 54.7304 197.366 54.3813 197.25L54.3732 197.247C54.3405 197.236 54.3081 197.216 54.2763 197.197C54.2281 197.167 54.1814 197.138 54.1372 197.143C53.875 197.173 53.7424 197.022 53.6178 196.836L54.2684 196.638L54.2519 196.555H53.6223C53.5331 196.165 53.7907 196.127 54.031 196.091L54.0755 196.084C53.9695 195.85 53.952 195.669 54.1833 195.555C54.3693 195.464 54.2894 195.387 54.2078 195.308L54.2078 195.308C54.1966 195.297 54.1854 195.286 54.1748 195.275C54.5229 195.046 54.9395 194.943 55.3548 194.983C55.6782 195.002 56.0028 194.998 56.3274 194.994H56.3274H56.3274H56.3274H56.3274H56.3274H56.3274H56.3274H56.3275H56.3275H56.3275H56.3275H56.3275H56.3275H56.3275H56.3275H56.3275H56.3275H56.3275H56.3275H56.3275H56.3276H56.3276C56.4946 194.992 56.6617 194.99 56.8287 194.991C56.9259 194.996 57.0228 195.006 57.1191 195.021L57.1165 195.079L56.5702 195.134C56.7096 195.197 56.8623 195.225 57.0153 195.217C57.1615 195.22 57.3073 195.234 57.4513 195.26C57.5817 195.296 57.7094 195.342 57.8335 195.396L57.5711 195.487C57.9222 195.679 57.9221 195.68 57.8353 196.036L57.8347 196.039C57.8229 196.088 57.8054 196.166 57.8287 196.187C57.9581 196.302 57.9292 196.38 57.8336 196.512C57.8113 196.543 57.8368 196.602 57.8649 196.667C57.8907 196.727 57.9188 196.793 57.9137 196.845C57.8929 196.983 57.8417 197.115 57.7639 197.231C57.716 197.308 57.7502 197.371 57.7836 197.432C57.8143 197.488 57.8443 197.543 57.8084 197.607C57.7851 197.655 57.7529 197.699 57.7136 197.736C57.636 197.798 57.555 197.856 57.4649 197.921ZM52.2641 187.256C52.2434 187.322 52.2865 187.407 52.3712 187.575C52.3232 187.608 52.2845 187.651 52.2454 187.695C52.1621 187.788 52.0771 187.884 51.8976 187.881C51.6618 187.88 51.4346 187.792 51.2612 187.633C51.241 187.615 51.2191 187.598 51.197 187.58C51.1262 187.524 51.0531 187.465 51.027 187.392C50.9504 187.178 50.7929 187.038 50.6359 186.899C50.5596 186.831 50.4833 186.763 50.4165 186.687C50.1793 186.417 49.8351 186.325 49.505 186.301C48.7038 186.242 48.0764 185.822 47.4494 185.401L47.3986 185.367C47.1958 185.23 47.1595 185 47.1226 184.765V184.765C47.1163 184.725 47.11 184.685 47.1029 184.645L47.0994 184.626C47.0217 184.194 47.0035 184.093 47.3179 183.928L47.3524 183.91C47.5504 183.808 47.6794 183.741 47.4721 183.506C47.4562 183.489 47.5023 183.412 47.5379 183.353L47.5554 183.324C47.5696 183.299 47.5937 183.271 47.6157 183.244L47.6158 183.244C47.6454 183.209 47.6715 183.178 47.6648 183.168C47.4985 182.937 47.7173 182.92 47.8269 182.911L47.8324 182.91C47.8695 182.907 47.907 182.904 47.9446 182.9C48.1925 182.878 48.4491 182.855 48.6779 182.918C48.7585 182.94 48.8431 182.954 48.9282 182.969C49.1412 183.005 49.357 183.042 49.5188 183.201C49.6157 183.314 49.7623 183.374 49.9113 183.359C49.9814 183.366 50.048 183.393 50.1033 183.436C50.143 183.46 50.1827 183.484 50.2225 183.508C50.395 183.613 50.5677 183.717 50.73 183.835C50.8389 183.915 50.9423 184.002 51.0457 184.089C51.1514 184.178 51.257 184.267 51.3686 184.347C51.5261 184.462 51.6735 184.59 51.819 184.716L51.9056 184.791C51.9386 184.819 51.9724 184.847 52.0064 184.876C52.2358 185.067 52.4726 185.264 52.5196 185.604C52.5649 185.845 52.6233 186.084 52.6945 186.319C52.5628 186.448 52.5716 186.604 52.5803 186.758C52.5859 186.858 52.5915 186.957 52.5598 187.048C52.3759 187.142 52.2856 187.188 52.2641 187.256ZM15.2156 145.513C15.7101 145.435 16.1504 145.255 16.4536 144.869C16.5403 144.88 16.6195 144.891 16.6938 144.901L16.6938 144.901C16.8421 144.922 16.9704 144.94 17.0988 144.946C17.3515 144.957 17.6084 145.026 17.6714 145.268C17.7464 145.557 17.8587 145.729 18.168 145.742C18.2035 145.748 18.2342 145.77 18.2514 145.801C18.3741 146.082 18.5937 146.276 18.8132 146.47L18.8132 146.47C18.9277 146.572 19.0421 146.673 19.1429 146.786L19.1826 146.831C19.4089 147.084 19.421 147.098 19.3888 147.551C19.3824 147.642 19.3689 147.733 19.3535 147.837L19.3535 147.837L19.3534 147.837L19.3534 147.837L19.3429 147.908C19.3385 147.938 19.3341 147.97 19.3296 148.003C19.5602 148.202 19.8033 148.387 20.0573 148.555C20.1298 148.599 20.1948 148.656 20.2599 148.713C20.397 148.833 20.5346 148.954 20.7433 148.948C20.766 149.118 20.8867 149.215 20.9961 149.303C21.0674 149.36 21.1339 149.414 21.1655 149.481L21.0509 150.054H20.7362C20.7938 150.12 20.8275 150.159 20.8427 150.177L20.7028 150.39C19.8555 149.999 19.0475 149.528 18.2896 148.985C18.1774 148.896 18.0224 148.882 17.896 148.95C18.0165 149.031 18.1327 149.113 18.2468 149.193L18.2471 149.193L18.2473 149.193L18.2474 149.193L18.2478 149.193L18.2478 149.193C18.499 149.369 18.7399 149.538 18.9932 149.685C19.318 149.874 19.6535 150.045 19.9897 150.216C20.1348 150.29 20.2801 150.364 20.4247 150.44C20.2085 150.743 20.2075 150.743 19.937 150.626L19.9249 150.621C19.137 150.279 18.4091 149.829 17.6834 149.38L17.6833 149.379C17.5728 149.311 17.4624 149.243 17.3518 149.175C16.5314 148.671 15.7274 148.133 15.0772 147.399C14.9502 147.255 14.8627 147.096 14.7753 146.937C14.7356 146.865 14.6959 146.793 14.6525 146.722C14.6103 146.627 14.6194 146.517 14.6767 146.429C14.7837 146.326 14.8086 146.21 14.8353 146.086C14.8422 146.054 14.8491 146.022 14.8576 145.989C14.8615 145.974 14.8654 145.958 14.8694 145.942C14.9134 145.763 14.9655 145.552 15.2156 145.513ZM31.1166 151.227L31.1167 151.227C31.3026 151.404 31.4796 151.572 31.6349 151.758C32.1652 152.393 32.8735 152.758 33.5817 153.123C33.7484 153.209 33.9151 153.295 34.0794 153.384C34.406 153.562 34.7663 153.547 35.1224 153.532C35.1889 153.53 35.2553 153.527 35.3212 153.526C35.3706 153.525 35.4189 153.478 35.4689 153.43C35.4924 153.407 35.5163 153.384 35.5409 153.366C35.3818 153.286 35.2332 153.211 35.0162 153.102H35.7921C35.8177 153.051 35.8397 152.999 35.861 152.95L35.861 152.949C35.9075 152.841 35.9504 152.741 36.0199 152.665C36.1173 152.548 36.1437 152.388 36.0889 152.247C36.0632 152.145 35.9964 152.054 35.9264 151.959C35.8953 151.916 35.8635 151.873 35.8345 151.827C35.4273 151.914 35.0863 151.755 34.7311 151.557C34.7484 151.494 34.7432 151.426 34.7379 151.358C34.7284 151.235 34.7187 151.109 34.836 150.995C34.8747 150.93 34.8783 150.85 34.8456 150.782C34.7835 150.679 34.7283 150.571 34.673 150.463L34.673 150.463C34.4949 150.114 34.3165 149.765 33.9056 149.598L33.8776 149.587C33.7858 149.55 33.6791 149.507 33.64 149.436C33.6126 149.386 33.561 149.376 33.5098 149.366C33.4388 149.352 33.3686 149.338 33.364 149.219C33.3597 149.107 33.2815 149.117 33.202 149.127C33.1622 149.133 33.122 149.138 33.0905 149.128C32.9765 149.083 32.8593 149.047 32.74 149.019C32.6273 149.008 32.514 149.007 32.4011 149.015C32.0231 149.431 31.5486 149.749 31.019 149.941L30.8497 150.97C30.9394 151.059 31.0286 151.144 31.1158 151.226L31.1166 151.227ZM52.8458 165.072C52.8092 165.126 52.7726 165.179 52.7362 165.232C52.6087 165.417 52.4833 165.599 52.3678 165.787C52.3584 165.802 52.3917 165.843 52.4336 165.895L52.4337 165.895L52.4338 165.895C52.456 165.923 52.4807 165.954 52.5028 165.985C52.4101 166.029 52.3208 166.08 52.2357 166.137C52.1507 166.212 52.0697 166.291 51.9928 166.374L51.9709 166.395C51.8126 166.546 51.6556 166.697 51.8948 166.921C51.9065 166.932 51.9038 166.957 51.9009 166.983C51.8992 167 51.8973 167.016 51.8989 167.031C51.9062 167.097 51.9074 167.164 51.9086 167.229C51.9121 167.423 51.9156 167.614 52.0753 167.812C52.1435 167.897 52.2035 167.991 52.2641 168.086C52.3564 168.231 52.4504 168.378 52.5779 168.499C52.7641 168.7 52.9783 168.874 53.2139 169.014C53.6005 169.216 53.9827 169.415 54.4364 169.343C54.5662 169.303 54.6906 169.247 54.807 169.178L54.518 168.827C54.6021 168.802 54.69 168.785 54.7789 168.768L54.7789 168.768L54.7789 168.768L54.779 168.768L54.779 168.768L54.779 168.768L54.779 168.768L54.7791 168.768L54.7791 168.768L54.7791 168.768L54.7792 168.768L54.7792 168.768L54.7792 168.768L54.7792 168.768L54.7793 168.768L54.7793 168.768L54.7793 168.768C55.0143 168.723 55.2558 168.677 55.4519 168.471L55.1879 168.12H55.602C55.6219 168.004 55.6482 167.892 55.6741 167.78C55.7313 167.535 55.7871 167.296 55.7716 167.04C55.7679 166.843 55.693 166.654 55.5606 166.507C55.5036 166.448 55.4521 166.384 55.4005 166.32C55.3008 166.196 55.2006 166.072 55.0593 165.979C54.9613 165.915 54.8714 165.838 54.7806 165.76C54.6919 165.685 54.6025 165.608 54.5038 165.542C54.2986 165.404 54.0716 165.323 53.8449 165.242L53.8448 165.242L53.8448 165.242C53.7091 165.194 53.5736 165.146 53.4429 165.085C53.3282 165.032 53.1821 165.046 53.0375 165.06L53.0375 165.06C52.9722 165.066 52.9073 165.072 52.8458 165.072ZM40.7629 188.991H41.9822L42.0071 189.095C41.9197 189.121 41.8305 189.155 41.7413 189.19C41.5388 189.269 41.3363 189.348 41.154 189.315C41.078 189.302 41.0001 189.292 40.9215 189.282L40.9215 189.282C40.6718 189.25 40.4148 189.217 40.1864 189.065C40.0516 188.975 39.9037 188.903 39.756 188.831C39.4135 188.665 39.0716 188.499 38.8951 188.11C38.6187 188.043 38.5218 187.821 38.4287 187.608C38.4037 187.55 38.379 187.494 38.3511 187.441C38.1709 187.099 37.9956 186.733 38.2564 186.332C38.4299 186.065 38.5908 185.789 38.7501 185.517L38.7501 185.517C38.8197 185.398 38.889 185.279 38.9589 185.162C39.138 185.174 39.3179 185.173 39.4968 185.158C39.8511 185.1 40.1515 185.26 40.3933 185.447C40.5345 185.557 40.709 185.616 40.8883 185.614C41.0608 185.705 41.1655 185.84 41.2671 185.97C41.3569 186.085 41.4442 186.197 41.5737 186.273C41.6986 186.373 41.771 186.524 41.7702 186.684C41.7651 186.777 41.7749 186.871 41.7847 186.966C41.807 187.182 41.8295 187.399 41.6788 187.602C41.6558 187.633 41.68 187.696 41.706 187.763L41.706 187.763C41.7239 187.809 41.7427 187.858 41.7475 187.9C41.7512 187.932 41.7331 187.967 41.7092 188.014C41.6964 188.039 41.682 188.067 41.6684 188.099C41.7805 188.084 41.8944 188.086 42.0057 188.107C42.096 188.14 42.2327 188.249 42.2242 188.307C42.1902 188.477 42.1302 188.641 42.0461 188.794C41.9888 188.909 41.8834 188.901 41.781 188.893C41.7507 188.89 41.7205 188.888 41.692 188.889C41.6353 188.891 41.5785 188.891 41.5217 188.892C41.2684 188.896 41.0145 188.899 40.7629 188.991ZM35.834 178.064L36.6123 178.837C36.8232 178.848 37.0347 178.845 37.2452 178.827C37.3268 178.816 37.4084 178.7 37.4563 178.613C37.469 178.59 37.4357 178.542 37.4026 178.494C37.3881 178.473 37.3737 178.452 37.3631 178.433C37.3869 178.421 37.4119 178.41 37.4371 178.399C37.585 178.332 37.7399 178.263 37.6937 178.026C37.6787 177.973 37.6842 177.916 37.7091 177.866C37.8214 177.728 37.9363 177.578 37.8868 177.401C37.8699 177.341 37.8543 177.279 37.8387 177.217C37.7723 176.954 37.7044 176.684 37.5264 176.484C37.0915 175.996 36.619 175.533 35.991 175.29C35.6181 175.138 35.2314 175.022 34.8362 174.944C34.6287 174.905 34.4166 174.986 34.2906 175.155C34.2035 175.278 34.1138 175.4 34.024 175.522L34.024 175.522L34.024 175.522L34.024 175.522L34.024 175.522L34.0239 175.522L34.0239 175.522L34.0239 175.522L34.0239 175.522L34.0239 175.522L34.0238 175.522L34.0238 175.522L34.0238 175.522L34.0238 175.522L34.0238 175.522L34.0238 175.522L34.0237 175.522L34.0237 175.522L34.0237 175.522L34.0237 175.522C33.8805 175.717 33.7374 175.911 33.6053 176.112C33.5271 176.231 33.4879 176.37 33.4929 176.512C33.5644 177.332 33.9529 177.917 34.8857 178.16C34.9301 178.171 34.9751 178.188 35.0201 178.205L35.0201 178.205C35.1126 178.239 35.2046 178.274 35.2901 178.262C35.4781 178.215 35.6605 178.149 35.834 178.064ZM15.6428 176.723L15.301 176.656C15.4824 176.576 15.6367 176.547 15.8126 176.682C15.9251 176.768 16.0544 176.826 16.1847 176.885C16.3603 176.965 16.5378 177.045 16.6784 177.195C16.7579 177.295 16.8489 177.385 16.9494 177.463C17.6163 177.866 17.9928 178.481 18.2935 179.161L18.3055 179.188C18.3408 179.266 18.388 179.37 18.3598 179.404C18.2696 179.515 18.3038 179.604 18.34 179.699C18.3486 179.722 18.3574 179.745 18.3646 179.769C18.3855 179.838 18.4005 179.949 18.3627 179.988C18.2354 180.119 18.172 180.279 18.1082 180.44L18.0887 180.488C18.0813 180.507 18.0738 180.525 18.066 180.544C18.048 180.587 18.0076 180.667 17.9054 180.592C17.8551 180.555 17.7839 180.546 17.7028 180.536C17.6635 180.532 17.6218 180.527 17.579 180.518C17.7177 180.794 17.7788 181.023 17.5481 181.18C17.4731 181.151 17.3975 181.128 17.3236 181.104C17.1659 181.055 17.0159 181.008 16.8968 180.919C16.7821 180.835 16.6559 180.764 16.5296 180.694C16.2595 180.543 15.989 180.392 15.8301 180.1C15.2305 179.772 14.9067 179.217 14.5817 178.66L14.536 178.582L14.4993 178.519C14.3701 178.345 14.3695 178.107 14.4977 177.932C14.5031 177.923 14.5088 177.915 14.5148 177.906C14.5649 177.834 14.6255 177.747 14.5144 177.625C14.4812 177.567 14.4757 177.498 14.4993 177.435C14.523 177.373 14.5735 177.324 14.6369 177.302C14.8049 177.257 14.9318 177.141 15.0592 177.025C15.2233 176.875 15.3882 176.724 15.6428 176.723ZM41.7979 142.374L42.1231 142.327C42.1126 142.313 42.1043 142.299 42.0969 142.286C42.0834 142.264 42.0731 142.246 42.0581 142.24C41.9612 142.201 41.8653 142.159 41.7695 142.117L41.7694 142.117C41.513 142.004 41.2566 141.892 40.9793 141.83L40.9395 141.821C40.7142 141.77 40.4997 141.721 40.3233 141.939C40.2748 141.999 40.1917 142.013 40.1085 142.026C39.9738 142.049 39.839 142.071 39.8516 142.29C39.5893 142.452 39.6082 142.709 39.6265 142.959L39.6279 142.978C39.4535 143.023 39.2825 143.079 39.1158 143.147C38.9396 143.231 38.8897 143.502 38.973 143.792C38.9808 143.819 38.9961 143.846 39.0112 143.872C39.0331 143.91 39.0545 143.947 39.0514 143.983L39.0503 143.996C39.0102 144.453 39.0101 144.454 39.3797 144.65C39.5601 144.759 39.7466 144.857 39.9382 144.945C40.1629 145.026 40.3412 145.2 40.4268 145.421C40.5718 145.764 40.8853 146.008 41.2552 146.066C41.5877 146.121 41.8928 145.967 42.1326 145.672L41.4805 145.175C41.5713 145.175 41.6523 145.176 41.7267 145.176C41.8773 145.177 42.001 145.177 42.1246 145.174C42.2718 145.171 42.2771 145.159 42.3396 145.007C42.3555 144.968 42.375 144.92 42.4016 144.862C42.4333 144.792 42.4411 144.711 42.449 144.63C42.4642 144.473 42.4795 144.316 42.6697 144.238L42.693 143.627C42.7079 143.251 42.6667 142.917 42.2458 142.741C42.1313 142.694 42.0361 142.601 41.9378 142.504L41.9377 142.504L41.9377 142.504L41.9376 142.504L41.9376 142.504L41.9375 142.504L41.9375 142.504L41.9374 142.504C41.8923 142.46 41.8465 142.415 41.7979 142.374ZM39.7307 198.696C39.38 198.662 39.0957 198.399 39.0364 198.053L39.5151 197.856C39.2097 197.761 38.9793 197.628 38.9404 197.273C39.0492 197.221 39.1552 197.164 39.2581 197.101C39.2844 197.083 39.3079 197.058 39.3311 197.032C39.3966 196.961 39.4602 196.891 39.5807 197.01L39.5552 196.673C39.7306 196.592 39.9651 196.484 40.1847 196.384C40.1758 196.348 40.1668 196.313 40.158 196.279C40.1301 196.171 40.1035 196.068 40.0831 195.964C40.0789 195.946 40.1297 195.896 40.153 195.898C40.2035 195.901 40.2849 195.918 40.2951 195.948C40.3054 195.979 40.3027 196.016 40.3 196.052C40.2968 196.096 40.2937 196.138 40.3138 196.164C40.3362 196.193 40.3876 196.201 40.4578 196.211L40.4578 196.211C40.4943 196.217 40.5358 196.223 40.581 196.233L40.3787 196.007L40.7644 196.006H40.7644H40.7644H40.7645H40.7645H40.7645H40.7645H40.7646H40.7646H40.7646H40.7646H40.7647H40.7647H40.7647H40.7647H40.7647H40.7648C41.2294 196.006 41.6705 196.006 42.1115 196.01C42.138 196.01 42.1637 196.026 42.1899 196.043C42.2103 196.057 42.231 196.07 42.2528 196.076C42.3728 196.11 42.487 196.165 42.599 196.22C42.8199 196.328 43.0322 196.431 43.2631 196.352C43.5622 196.462 43.5794 196.678 43.5955 196.882C43.6061 197.015 43.6163 197.143 43.7052 197.232C43.6675 197.304 43.6225 197.373 43.5787 197.44C43.4844 197.586 43.3954 197.723 43.3946 197.861C43.3936 198.012 43.3155 198.122 43.2388 198.23C43.1607 198.34 43.0841 198.448 43.0926 198.595C43.0948 198.632 42.9837 198.712 42.9254 198.711C42.8206 198.71 42.7261 198.743 42.6305 198.776C42.5238 198.813 42.4158 198.851 42.2905 198.842C41.7999 198.804 41.3071 198.804 40.8164 198.84C40.5558 198.86 40.3084 198.809 40.0627 198.758C39.952 198.735 39.8417 198.712 39.7307 198.696ZM12.9017 156.479C12.9029 156.524 12.9059 156.569 12.9088 156.613C12.9248 156.853 12.9391 157.07 12.6635 157.189C12.9797 157.428 13.2042 157.456 13.4555 157.213C13.5195 157.151 13.5892 157.097 13.6593 157.043L13.6593 157.043C13.7795 156.95 13.9006 156.856 13.9952 156.721C14.0711 156.613 14.1999 156.544 14.3307 156.475C14.4265 156.424 14.5234 156.372 14.6014 156.304C14.6997 156.218 14.7718 156.103 14.844 155.987C14.8761 155.936 14.9083 155.885 14.9428 155.836L14.7579 155.648L14.5683 155.914L14.5001 155.884L14.5639 155.482C14.5479 155.471 14.5251 155.46 14.4994 155.448C14.4313 155.415 14.3429 155.373 14.3064 155.303C14.0048 154.727 13.5011 154.359 12.9841 154.009C12.8835 153.941 12.7656 153.9 12.6471 153.858L12.6471 153.858L12.647 153.858C12.5655 153.829 12.4838 153.8 12.4074 153.763L12.3329 153.726C11.9326 153.528 11.834 153.48 11.4358 153.545C11.131 153.595 10.8062 153.651 10.5576 153.889C10.4613 153.993 10.333 154.063 10.1925 154.088C9.87591 154.1 9.8252 154.273 9.84164 154.527C9.84549 154.6 9.83761 154.673 9.81832 154.743C9.69824 155.186 9.7106 155.232 10.0528 155.453C10.4746 155.726 10.9466 155.88 11.4178 156.034C11.5126 156.065 11.6074 156.096 11.7017 156.128C11.9778 156.222 12.2591 156.3 12.5367 156.377C12.6593 156.411 12.7812 156.444 12.9017 156.479ZM19.2178 163.806C19.1909 163.758 19.1639 163.71 19.1364 163.661C19.3326 163.597 19.4915 163.467 19.3798 163.313C19.2195 163.093 19.3745 163.057 19.5027 163.03C19.5277 163.025 19.5539 163.022 19.5799 163.019C19.6697 163.008 19.7576 162.997 19.7877 162.904C19.8348 162.759 19.947 162.688 20.0578 162.617C20.1055 162.587 20.1529 162.557 20.1947 162.521C20.3074 162.425 20.4982 162.331 20.6248 162.36C20.8388 162.421 21.0368 162.527 21.2047 162.672C21.3061 162.755 21.3887 162.859 21.4716 162.964C21.5261 163.033 21.5808 163.102 21.6409 163.165C21.7171 163.245 21.7963 163.322 21.8755 163.399L21.8755 163.4L21.8756 163.4L21.8756 163.4L21.8756 163.4L21.8756 163.4L21.8756 163.4L21.8757 163.4L21.8757 163.4L21.8757 163.4L21.8757 163.4L21.8758 163.4L21.8758 163.4L21.8758 163.4C22.1009 163.619 22.3262 163.839 22.4814 164.118C22.5494 164.241 22.6323 164.355 22.7152 164.47C22.8708 164.684 23.0264 164.899 23.0839 165.168C23.1213 165.436 23.2455 165.684 23.4377 165.875C23.6592 166.082 23.6251 166.24 23.426 166.524C23.4021 166.558 23.378 166.6 23.3538 166.643C23.2968 166.743 23.2388 166.845 23.1795 166.846C23.0252 166.849 23.0236 166.939 23.0221 167.028C23.0206 167.111 23.0192 167.193 22.8988 167.207C22.3283 166.957 21.8392 166.537 21.3528 166.119C21.2971 166.072 21.2415 166.024 21.1858 165.976C20.8389 165.681 20.5201 165.353 20.2012 165.024C20.0459 164.865 19.8906 164.705 19.732 164.549C19.5122 164.332 19.3662 164.071 19.2178 163.806ZM22.4245 140.924C22.6877 141.559 23.1745 141.837 23.6507 142.109L23.669 142.119C24.0927 142.364 24.5332 142.578 24.9874 142.761C25.0861 142.8 25.1837 142.845 25.2819 142.891L25.2819 142.891C25.6342 143.055 25.9939 143.222 26.4399 143.113C26.2905 142.9 26.0698 142.808 25.841 142.712C25.6327 142.625 25.4177 142.535 25.2439 142.349C25.5703 142.389 25.8548 142.502 26.1505 142.619C26.3774 142.709 26.611 142.802 26.8751 142.866L26.6704 142.496L26.9765 142.441L27.079 141.905C27.0547 141.89 27.027 141.873 26.9972 141.855L26.997 141.855L26.9969 141.855L26.9966 141.855C26.9228 141.811 26.8357 141.759 26.7535 141.701C26.3063 141.384 26.3048 141.38 26.1022 140.813L26.0971 140.799C26.0711 140.734 26.038 140.672 25.9984 140.614C25.7125 140.165 25.3903 139.755 24.8933 139.508C24.6703 139.392 24.4267 139.32 24.1762 139.297C24.1236 139.29 24.075 139.265 24.0378 139.228C24.0062 139.191 23.9576 139.174 23.9099 139.183C23.8623 139.191 23.8226 139.224 23.8056 139.269C23.7259 139.409 23.6036 139.505 23.4816 139.602C23.3829 139.679 23.2844 139.757 23.2086 139.858C23.1362 139.941 23.0312 139.988 22.9206 139.989C22.758 140.012 22.5476 140.329 22.5816 140.477C22.5887 140.507 22.6122 140.534 22.6358 140.561C22.6828 140.615 22.7301 140.669 22.6471 140.752C22.5767 140.814 22.5023 140.871 22.4245 140.924ZM35.6104 159.559L35.6678 159.214C35.7916 159.141 35.9142 159.172 36.0376 159.202C36.1491 159.229 36.2612 159.257 36.3753 159.209C36.437 159.201 36.496 159.236 36.5176 159.294C36.5393 159.352 36.518 159.417 36.4661 159.451C36.4498 159.468 36.4674 159.518 36.485 159.568C36.4931 159.591 36.5012 159.614 36.506 159.634C36.5221 159.629 36.5425 159.625 36.563 159.62C36.6068 159.61 36.6507 159.601 36.6512 159.589C36.6632 159.289 36.9147 159.378 37.0219 159.419C37.1117 159.453 37.2024 159.486 37.2932 159.519C37.6639 159.653 38.0364 159.788 38.3572 160.022L38.3615 160.025C38.5281 160.146 38.7402 160.301 38.5237 160.562C38.513 160.576 38.5228 160.619 38.5363 160.64C38.6852 160.868 38.5968 161.008 38.3704 161.103C38.1727 161.186 38.263 161.275 38.3336 161.344L38.3458 161.356L38.0983 161.667L37.6133 161.539C37.6484 161.6 37.7022 161.639 37.7549 161.677C37.8449 161.741 37.9318 161.804 37.9164 161.97L37.8547 162.006C37.7942 162.041 37.7268 162.08 37.6599 162.119C37.6277 162.138 37.5886 162.156 37.5494 162.174C37.4628 162.213 37.3759 162.253 37.3638 162.309C37.3136 162.54 37.1887 162.486 37.0759 162.437C37.0612 162.431 37.0467 162.425 37.0326 162.419C36.8704 162.356 36.7112 162.285 36.552 162.214L36.552 162.214C36.44 162.164 36.3281 162.114 36.215 162.066C36.1448 162.045 36.0725 162.03 35.9992 162.023L35.9696 162.114L37.1515 162.649C36.8042 162.731 36.5687 162.629 36.3131 162.514C35.9094 162.331 35.5312 162.098 35.1877 161.819C34.7516 161.467 34.3897 161.045 34.5077 160.411C34.513 160.359 34.5135 160.307 34.509 160.255L35.3495 159.42L35.6104 159.559ZM47.7943 161.259L47.5592 161.026L47.7208 161.007L47.9972 160.975C48.0118 160.906 48.0274 160.837 48.0432 160.767C48.0806 160.6 48.1187 160.431 48.1441 160.26C48.166 160.111 48.1654 159.96 48.1426 159.811C48.1353 159.764 48.094 159.752 48.0472 159.739C47.9827 159.721 47.9078 159.699 47.8971 159.579C47.8874 159.467 47.7275 159.377 47.5818 159.294C47.5515 159.277 47.5219 159.261 47.4944 159.244C47.4525 159.219 47.3949 159.214 47.3366 159.209C47.2136 159.199 47.0876 159.188 47.0991 158.987L46.5456 158.956C46.5333 158.956 46.521 158.954 46.5088 158.952L46.5087 158.952L46.5086 158.952L46.4922 158.949L45.6477 158.109C45.6541 158.018 45.6531 157.925 45.6449 157.834C45.6224 157.693 45.4826 157.542 45.3958 157.614C45.2926 157.7 45.2064 157.657 45.1244 157.617C45.0533 157.582 44.9854 157.548 44.9126 157.601C44.7808 158.038 44.7663 158.176 44.8288 158.531L44.2543 158.267C44.238 158.284 44.2147 158.302 44.1901 158.322C44.1319 158.368 44.066 158.421 44.0665 158.472C44.0672 158.571 44.0624 158.671 44.0576 158.772C44.0398 159.143 44.0219 159.516 44.2835 159.842C44.3613 159.964 44.4521 160.076 44.5545 160.178C44.7694 160.349 44.9967 160.504 45.2237 160.659L45.3391 160.738C45.4148 160.79 45.4936 160.838 45.5723 160.885L45.5724 160.885C45.6297 160.92 45.687 160.954 45.7431 160.991C45.8213 161.041 45.9124 161.067 46.0035 161.093C46.1533 161.135 46.3031 161.177 46.3951 161.329C46.5866 161.301 46.7426 161.376 46.902 161.454C46.9509 161.477 47.0002 161.501 47.0508 161.522C47.1839 161.589 47.3387 161.599 47.4792 161.549C47.6197 161.499 47.7335 161.395 47.7943 161.259ZM56.2175 178.168V178.689C56.255 179.03 56.2133 179.375 56.0954 179.697C56.0458 179.835 55.9602 179.956 55.874 180.077C55.7864 180.201 55.6981 180.326 55.6461 180.47C55.6345 180.503 55.5529 180.531 55.5062 180.527C55.3621 180.518 55.2189 180.499 55.0776 180.469C54.8141 180.412 54.606 180.259 54.3973 180.106C54.3346 180.059 54.2719 180.013 54.2075 179.97C53.6585 179.597 53.2468 179.151 53.2605 178.438C53.2649 178.385 53.2496 178.332 53.2174 178.289C53.07 178.153 53.137 178.042 53.2037 177.932C53.2402 177.872 53.2765 177.813 53.2778 177.749C53.5187 177.597 53.6426 177.354 53.7633 177.117C53.8061 177.033 53.8485 176.949 53.8956 176.871C54.0559 176.605 54.2248 176.529 54.4599 176.586C54.5066 176.597 54.5538 176.608 54.6011 176.619C54.9714 176.703 55.3492 176.788 55.5896 177.14C55.6219 177.187 55.6675 177.225 55.7132 177.263C55.8089 177.344 55.9051 177.425 55.881 177.586C55.8848 177.636 55.914 177.679 55.9582 177.702C56.2238 177.744 56.2209 177.927 56.2181 178.111C56.2178 178.13 56.2175 178.149 56.2175 178.168ZM28.6523 179.595L28.2385 179.334C28.3149 179.323 28.3719 179.316 28.4169 179.309L28.4171 179.309C28.4888 179.3 28.5302 179.294 28.572 179.289L28.5727 179.289C28.6758 179.278 28.7315 179.272 28.7644 179.241C28.8031 179.205 28.8102 179.135 28.8258 178.983V178.983L28.8259 178.982C28.8264 178.977 28.8267 178.972 28.827 178.967L28.8276 178.952C28.8287 178.922 28.8299 178.889 28.8449 178.88C29.0322 178.773 29.1164 178.548 29.0453 178.346C28.9867 178.108 28.8815 177.885 28.7358 177.688C28.1424 176.988 27.3469 176.577 26.503 176.257C26.4044 176.22 26.2877 176.23 26.1717 176.24C26.1184 176.245 26.0652 176.249 26.0141 176.249L26.0381 176.465C25.8343 176.451 25.6834 176.497 25.635 176.734C25.6038 176.82 25.5314 176.886 25.4419 176.909C25.2959 176.923 25.2791 177.017 25.2626 177.11C25.2513 177.173 25.2402 177.235 25.1884 177.271C25.3078 177.345 25.2863 177.448 25.2647 177.552C25.2458 177.643 25.2269 177.734 25.301 177.807C25.3547 177.86 25.404 177.92 25.4531 177.979C25.5443 178.089 25.635 178.198 25.7516 178.263C26.143 178.492 26.5582 178.679 26.99 178.82C27.1841 178.863 27.3523 178.983 27.4563 179.151C27.6045 179.422 27.8352 179.639 28.1152 179.772L28.1248 179.776C28.3594 179.883 28.3611 179.884 28.6523 179.595ZM35.467 169.004C35.399 169.015 35.33 169.016 35.2616 169.009C35.1105 168.902 34.9777 168.785 34.8475 168.669L34.8475 168.669C34.7856 168.614 34.7244 168.56 34.662 168.508C34.2744 168.184 33.8768 167.852 33.6711 167.346C33.5338 167.008 33.5747 166.694 33.8118 166.518C33.8797 166.467 33.929 166.394 33.9781 166.322C34.0659 166.192 34.153 166.064 34.3447 166.064C34.3887 165.755 34.6458 165.808 34.8084 165.856C35.2633 165.989 35.7234 166.136 36.0875 166.461C36.1544 166.52 36.2092 166.593 36.264 166.666L36.2641 166.666L36.2641 166.666L36.2641 166.666L36.2641 166.666L36.2642 166.666L36.2642 166.666L36.2642 166.666L36.2642 166.666C36.315 166.734 36.3658 166.801 36.4264 166.859C36.5264 166.953 36.6376 167.036 36.7576 167.126L36.7577 167.126L36.7578 167.126L36.7578 167.126L36.7578 167.126L36.758 167.126C36.8124 167.167 36.8687 167.209 36.9266 167.254L36.7654 168.084L36.6251 168.107L36.6236 168.107C36.5529 168.118 36.481 168.13 36.3941 168.144L36.9092 168.772C36.8679 168.815 36.8203 168.856 36.7754 168.895L36.7753 168.895C36.6839 168.974 36.6038 169.044 36.6116 169.101C36.6241 169.195 36.5978 169.272 36.5714 169.35C36.5456 169.426 36.5197 169.502 36.5306 169.594C36.4647 169.544 36.4531 169.464 36.4419 169.387C36.4245 169.267 36.4082 169.154 36.1925 169.173L36.3065 169.437C36.038 169.526 35.9331 169.35 35.8242 169.167C35.8135 169.149 35.8028 169.131 35.7918 169.114C35.8733 169.137 35.955 169.161 36.0498 169.188L36.0513 169.188L36.1135 169.206C36.1064 169.146 36.0892 169.088 36.0626 169.034C36.0183 168.976 35.9599 168.931 35.8929 168.902C35.8745 168.895 35.8497 168.91 35.8235 168.926C35.7994 168.94 35.7741 168.955 35.7513 168.955C35.7257 168.955 35.6995 168.942 35.6737 168.929C35.6452 168.915 35.6174 168.901 35.5916 168.905C35.5685 168.908 35.5486 168.931 35.5286 168.954C35.5093 168.976 35.4899 168.998 35.467 169.004ZM27.8914 159.702L27.7955 159.422C28.0539 159.411 28.2118 159.55 28.3718 159.69C28.5079 159.809 28.6455 159.93 28.8478 159.961C28.8202 159.878 28.7833 159.797 28.7378 159.722C28.6472 159.62 28.5514 159.524 28.4507 159.432C28.6229 159.443 28.7855 159.515 28.9094 159.634C29.1121 159.468 29.2011 159.394 29.2404 159.3C29.2712 159.227 29.2714 159.141 29.2719 158.987C29.2056 158.928 29.1329 158.872 29.0596 158.816C28.8912 158.686 28.7194 158.554 28.6137 158.382C28.5116 158.216 28.3657 158.121 28.2207 158.027C28.1275 157.967 28.0347 157.907 27.9543 157.828C27.7397 157.644 27.4987 157.493 27.2393 157.381C27.1005 157.301 26.9413 157.264 26.7815 157.274C26.5988 157.303 26.3302 157.38 26.2782 157.509C26.2185 157.656 26.1274 157.678 26.0339 157.7C25.9933 157.71 25.9523 157.719 25.9132 157.739C25.7367 157.831 25.5649 157.955 25.527 158.184C25.519 158.232 25.5004 158.284 25.482 158.335C25.4498 158.425 25.4184 158.512 25.4467 158.574C25.5477 158.82 25.6954 159.044 25.8817 159.235C26.2437 159.564 26.6267 159.869 27.0283 160.149C27.0944 160.197 27.1936 160.198 27.3104 160.2H27.3104H27.3105H27.3105H27.3105H27.3106H27.3106H27.3107C27.3699 160.201 27.4337 160.202 27.5 160.209L27.3277 159.996C27.5203 160.024 27.6288 159.922 27.7312 159.826C27.7829 159.778 27.8329 159.73 27.8914 159.702ZM7.21547 162.973L7.04922 162.671C7.24037 162.703 7.42916 162.747 7.6143 162.803C7.68949 162.833 7.79523 162.938 7.78765 162.996C7.77101 163.123 7.84191 163.2 7.90798 163.272C7.95067 163.318 7.99135 163.362 8.00508 163.417C8.03918 163.553 8.12378 163.631 8.20785 163.708C8.24073 163.738 8.27352 163.768 8.30318 163.802C8.36332 163.869 8.43403 163.931 8.50436 163.992C8.62354 164.096 8.74161 164.199 8.80518 164.329C8.86848 164.459 8.96122 164.553 9.0528 164.645L9.05287 164.646L9.05289 164.646C9.11205 164.705 9.17072 164.765 9.22067 164.833C9.30893 164.954 9.39494 165.076 9.48073 165.198C9.5187 165.252 9.55661 165.306 9.59467 165.359V165.971C9.38858 165.91 9.38839 166.018 9.38821 166.126C9.38806 166.21 9.38792 166.295 9.28934 166.301C9.21151 166.308 9.16033 166.25 9.10865 166.192C9.0367 166.111 8.96377 166.029 8.8166 166.117C8.84256 166.148 8.87177 166.176 8.90074 166.205C9.01553 166.318 9.12673 166.428 9.01875 166.603C8.69046 166.587 8.48956 166.377 8.28851 166.167L8.25957 166.136C8.22293 166.093 8.18251 166.054 8.13879 166.018C7.63288 165.656 7.15474 165.258 6.70834 164.825C6.65651 164.775 6.59256 164.737 6.52853 164.698C6.46914 164.663 6.40969 164.627 6.35976 164.581L6.33907 164.563C6.15511 164.395 5.9648 164.221 6.00558 163.931C6.12674 163.916 6.21925 163.977 6.30999 164.037C6.41946 164.109 6.52634 164.179 6.6778 164.112L6.10235 163.54L6.27722 163.241L6.89627 163.506C6.73002 163.131 6.75404 163.1 7.21547 162.973ZM45.0571 166.551C45.0526 166.485 45.0616 166.425 45.0701 166.369C45.0864 166.26 45.1011 166.162 45.0162 166.045L44.9375 166.273C44.876 166.254 44.8145 166.236 44.753 166.217L44.7523 166.217C44.5864 166.167 44.4204 166.117 44.2525 166.077C44.1932 166.063 44.0764 166.094 44.0591 166.135C44.0027 166.268 43.8952 166.346 43.7888 166.424C43.7136 166.479 43.6389 166.534 43.5832 166.607C43.5281 166.697 43.497 166.799 43.4926 166.904C43.4897 166.929 43.5079 166.957 43.526 166.985C43.544 167.013 43.562 167.041 43.5593 167.066C43.5379 167.133 43.5043 167.196 43.4602 167.251L43.485 167.258C43.8056 167.348 43.8221 167.353 43.9498 167.725C43.9984 167.867 44.104 167.939 44.2111 168.012C44.2764 168.056 44.3423 168.101 44.3961 168.163L44.1591 168.273C44.1786 168.292 44.1975 168.314 44.216 168.336C44.2546 168.382 44.2913 168.426 44.3279 168.426C45.0049 168.423 45.0203 168.423 45.4259 168.731C45.2418 168.835 45.1044 168.757 44.9589 168.673C44.8625 168.618 44.7626 168.561 44.6433 168.554C44.6474 168.581 44.6492 168.612 44.651 168.642V168.642L44.651 168.642C44.6546 168.705 44.658 168.764 44.6818 168.773C44.7341 168.795 44.7859 168.818 44.8376 168.841C45.1354 168.973 45.4307 169.104 45.7916 168.912C45.8082 168.904 45.8238 168.896 45.8384 168.888C45.9395 168.837 45.9924 168.81 45.9947 168.673C46.007 168.569 46.0462 168.47 46.1086 168.385C46.2093 168.227 46.3163 168.073 46.4283 167.911L46.4286 167.911C46.4749 167.844 46.5219 167.776 46.5698 167.707L46.4299 167.614C46.374 167.534 46.4053 167.453 46.4321 167.384C46.4687 167.288 46.497 167.215 46.2824 167.197C46.2417 167.193 46.2541 167.156 46.2688 167.112C46.2924 167.042 46.322 166.954 46.1524 166.954C46.0784 166.954 46.0043 166.86 45.9331 166.77C45.9015 166.73 45.8705 166.691 45.8403 166.661L45.6915 166.717L45.5749 166.762L45.5166 166.679L45.8227 166.519L45.4191 166.282C45.3074 166.365 45.1822 166.458 45.0571 166.551ZM28.5242 185.884L28.0832 185.536C28.1279 185.47 28.1801 185.409 28.2387 185.354C28.3014 185.324 28.3659 185.298 28.4318 185.275L28.4417 185.271C28.5002 185.243 28.5932 185.2 28.5893 185.183C28.5576 185.053 28.6363 184.964 28.7148 184.876C28.7989 184.78 28.8828 184.685 28.8303 184.541C28.8739 184.521 28.9185 184.503 28.9639 184.488C29.017 184.6 29.0985 184.579 29.1792 184.558C29.2216 184.547 29.2637 184.537 29.3013 184.545C29.4634 184.582 29.5928 184.668 29.7207 184.753C29.8111 184.813 29.9008 184.873 30.0008 184.914C30.4345 185.091 30.8215 185.364 31.1317 185.713L30.9685 186.868H30.4152C30.4468 186.956 30.5167 187.017 30.5845 187.077C30.6818 187.162 30.7748 187.244 30.7438 187.395C30.4314 187.463 30.1295 187.453 29.8891 187.282C29.6902 187.14 29.481 187.015 29.272 186.89L29.272 186.89C29.0704 186.77 28.869 186.65 28.6774 186.515C28.4872 186.395 28.3326 186.226 28.2293 186.027L28.5242 185.884ZM21.2097 173.025L20.6896 172.802L20.9663 172.697C20.9613 172.689 20.9568 172.68 20.9523 172.67C20.9428 172.649 20.9334 172.629 20.9197 172.625C20.7282 172.577 20.5527 172.479 20.4104 172.343C20.3161 172.262 20.2109 172.194 20.098 172.142C19.9034 172.055 19.7652 171.877 19.7296 171.668L19.9152 171.577L19.682 171.267C19.6541 171.267 19.6324 171.266 19.6161 171.265C19.591 171.264 19.5785 171.263 19.5751 171.268C19.5223 171.349 19.4719 171.431 19.424 171.509L19.4238 171.51L19.3863 171.571L18.8798 171.481L19.0734 171.876L18.6117 172.104L18.5803 172.377H18.3278C18.1139 172.661 18.1427 172.893 18.3684 173.139C18.4617 173.241 18.5494 173.347 18.6385 173.455L18.6385 173.455C18.7841 173.632 18.933 173.813 19.1145 173.982L19.3457 173.635C19.5784 173.701 19.7944 173.815 19.9794 173.97C20.1191 174.082 20.2876 174.159 20.4532 174.234C20.5252 174.267 20.5965 174.299 20.6648 174.334C20.8272 174.204 20.7661 174.094 20.7017 173.979C20.6847 173.949 20.6674 173.918 20.654 173.886C20.6724 173.884 20.6913 173.88 20.7098 173.876C20.7486 173.868 20.7857 173.859 20.8136 173.872C21.0701 173.985 21.1965 173.936 21.2077 173.696C21.2148 173.54 21.2131 173.383 21.2113 173.229V173.228V173.228V173.228C21.2105 173.16 21.2097 173.092 21.2097 173.025ZM18.564 188.833L18.9636 189.101L18.9569 189.111L18.9394 189.138C18.8717 189.241 18.8121 189.332 18.6458 189.348C18.2675 189.385 17.9484 189.236 17.6303 189.088L17.6302 189.088L17.6302 189.088C17.5484 189.049 17.4666 189.011 17.384 188.976C17.2181 188.906 17.1638 188.623 17.2133 188.399C17.2309 188.309 17.2368 188.217 17.231 188.126C17.2077 187.896 17.3704 187.69 17.5998 187.657C17.7612 187.622 17.8693 187.583 17.9172 187.415C17.949 187.264 18.0957 187.166 18.2482 187.193C18.2638 187.194 18.2795 187.196 18.2952 187.197C18.4236 187.208 18.5557 187.219 18.6603 187.089C18.7274 187.053 18.8081 187.054 18.8746 187.091C18.9046 187.112 18.9229 187.157 18.94 187.199C18.9581 187.244 18.9749 187.285 19.0028 187.292C19.0378 187.3 19.0785 187.275 19.1208 187.25C19.1596 187.226 19.1997 187.202 19.2378 187.202C19.5042 187.199 19.6439 187.396 19.724 187.604C19.7455 187.659 19.747 187.721 19.7485 187.784C19.7508 187.879 19.7532 187.977 19.8247 188.064C19.8313 188.072 19.788 188.118 19.737 188.173L19.7369 188.173L19.7367 188.173C19.6962 188.217 19.6508 188.266 19.6217 188.305C19.5955 188.354 19.5759 188.407 19.5634 188.462H19.0991L19.3753 188.593V188.922C19.3126 188.908 19.252 188.894 19.1929 188.88C19.0336 188.844 18.8852 188.809 18.7355 188.781C18.708 188.776 18.6771 188.789 18.6372 188.805C18.6157 188.814 18.5916 188.824 18.564 188.833ZM29.1869 170.988L29.0492 170.521C29.2323 170.444 29.4081 170.422 29.5718 170.583C29.6791 170.466 29.6269 170.372 29.5727 170.274C29.5355 170.207 29.4974 170.138 29.5095 170.059L29.8136 170.003C29.8956 169.927 29.8602 169.854 29.8227 169.777C29.7858 169.701 29.7469 169.622 29.8178 169.531C29.9056 169.417 29.8262 169.355 29.7413 169.289C29.6854 169.245 29.627 169.199 29.6127 169.136C29.5738 169.039 29.5063 168.956 29.4192 168.898C29.3096 168.809 29.181 168.752 29.0518 168.694C28.8723 168.614 28.6916 168.533 28.5588 168.367C28.5223 168.322 28.4266 168.323 28.3175 168.324H28.3175C28.263 168.324 28.2051 168.325 28.1495 168.32C28.2297 168.482 28.1358 168.567 28.0415 168.651C27.9519 168.732 27.8618 168.812 27.9202 168.961C27.8741 168.989 27.8169 169.001 27.7583 169.013C27.6227 169.041 27.4805 169.07 27.4573 169.309L27.7557 169.483L27.469 169.619C27.4253 169.803 27.5754 169.891 27.6814 169.954L27.696 169.963C28.0409 170.165 28.3282 170.452 28.5307 170.795C28.6607 171.012 28.8725 171.13 29.1869 170.988ZM43.7197 174.454L44.285 173.737C44.3419 173.75 44.4052 173.759 44.4709 173.768C44.6242 173.79 44.7903 173.813 44.9171 173.895C45.2449 174.1 45.5387 174.354 45.7881 174.649C46.0664 174.994 46.2958 175.402 45.8878 175.836C45.8616 175.864 45.8536 175.908 45.8445 175.959C45.8398 175.985 45.8348 176.013 45.8268 176.04C45.7759 176.03 45.7247 176.025 45.676 176.021C45.5763 176.011 45.4868 176.002 45.4311 175.954C45.3936 175.922 45.3567 175.89 45.3199 175.857C45.1006 175.662 44.8844 175.47 44.564 175.445C44.4253 175.275 44.2351 175.188 44.0464 175.101C43.9331 175.049 43.8204 174.997 43.7197 174.928V174.454Z" fill="white" fill-opacity="0.5"/>
<path d="M38.194 62.07H44.242V64.41H38.194V62.07ZM38.41 69H35.494V56.4H45.016V58.74H38.41V69ZM46.7921 69V59.316H49.6001V69H46.7921ZM48.1961 57.966C47.6801 57.966 47.2601 57.816 46.9361 57.516C46.6121 57.216 46.4501 56.844 46.4501 56.4C46.4501 55.956 46.6121 55.584 46.9361 55.284C47.2601 54.984 47.6801 54.834 48.1961 54.834C48.7121 54.834 49.1321 54.978 49.4561 55.266C49.7801 55.542 49.9421 55.902 49.9421 56.346C49.9421 56.814 49.7801 57.204 49.4561 57.516C49.1441 57.816 48.7241 57.966 48.1961 57.966ZM56.3642 69.144C55.4522 69.144 54.6302 68.94 53.8982 68.532C53.1662 68.112 52.5842 67.53 52.1522 66.786C51.7322 66.042 51.5222 65.166 51.5222 64.158C51.5222 63.138 51.7322 62.256 52.1522 61.512C52.5842 60.768 53.1662 60.192 53.8982 59.784C54.6302 59.376 55.4522 59.172 56.3642 59.172C57.1802 59.172 57.8942 59.352 58.5062 59.712C59.1182 60.072 59.5922 60.618 59.9282 61.35C60.2642 62.082 60.4322 63.018 60.4322 64.158C60.4322 65.286 60.2702 66.222 59.9462 66.966C59.6222 67.698 59.1542 68.244 58.5422 68.604C57.9422 68.964 57.2162 69.144 56.3642 69.144ZM56.8502 66.84C57.3062 66.84 57.7202 66.732 58.0922 66.516C58.4642 66.3 58.7582 65.994 58.9742 65.598C59.2022 65.19 59.3162 64.71 59.3162 64.158C59.3162 63.594 59.2022 63.114 58.9742 62.718C58.7582 62.322 58.4642 62.016 58.0922 61.8C57.7202 61.584 57.3062 61.476 56.8502 61.476C56.3822 61.476 55.9622 61.584 55.5902 61.8C55.2182 62.016 54.9182 62.322 54.6902 62.718C54.4742 63.114 54.3662 63.594 54.3662 64.158C54.3662 64.71 54.4742 65.19 54.6902 65.598C54.9182 65.994 55.2182 66.3 55.5902 66.516C55.9622 66.732 56.3822 66.84 56.8502 66.84ZM59.3882 69V67.02L59.4422 64.14L59.2622 61.278V55.644H62.0702V69H59.3882ZM68.755 69.144C67.951 69.144 67.231 68.988 66.595 68.676C65.971 68.364 65.485 67.89 65.137 67.254C64.789 66.606 64.615 65.784 64.615 64.788V59.316H67.423V64.374C67.423 65.178 67.591 65.772 67.927 66.156C68.275 66.528 68.761 66.714 69.385 66.714C69.817 66.714 70.201 66.624 70.537 66.444C70.873 66.252 71.137 65.964 71.329 65.58C71.521 65.184 71.617 64.692 71.617 64.104V59.316H74.425V69H71.761V66.336L72.247 67.11C71.923 67.782 71.443 68.292 70.807 68.64C70.183 68.976 69.499 69.144 68.755 69.144ZM81.7065 69.144C80.6625 69.144 79.7325 68.934 78.9165 68.514C78.1005 68.082 77.4585 67.488 76.9905 66.732C76.5345 65.976 76.3065 65.118 76.3065 64.158C76.3065 63.186 76.5345 62.328 76.9905 61.584C77.4585 60.828 78.1005 60.24 78.9165 59.82C79.7325 59.388 80.6625 59.172 81.7065 59.172C82.7265 59.172 83.6145 59.388 84.3705 59.82C85.1265 60.24 85.6845 60.846 86.0445 61.638L83.8665 62.808C83.6145 62.352 83.2965 62.016 82.9125 61.8C82.5405 61.584 82.1325 61.476 81.6885 61.476C81.2085 61.476 80.7765 61.584 80.3925 61.8C80.0085 62.016 79.7025 62.322 79.4745 62.718C79.2585 63.114 79.1505 63.594 79.1505 64.158C79.1505 64.722 79.2585 65.202 79.4745 65.598C79.7025 65.994 80.0085 66.3 80.3925 66.516C80.7765 66.732 81.2085 66.84 81.6885 66.84C82.1325 66.84 82.5405 66.738 82.9125 66.534C83.2965 66.318 83.6145 65.976 83.8665 65.508L86.0445 66.696C85.6845 67.476 85.1265 68.082 84.3705 68.514C83.6145 68.934 82.7265 69.144 81.7065 69.144ZM87.6085 69V59.316H90.4165V69H87.6085ZM89.0125 57.966C88.4965 57.966 88.0765 57.816 87.7525 57.516C87.4285 57.216 87.2665 56.844 87.2665 56.4C87.2665 55.956 87.4285 55.584 87.7525 55.284C88.0765 54.984 88.4965 54.834 89.0125 54.834C89.5285 54.834 89.9485 54.978 90.2725 55.266C90.5965 55.542 90.7585 55.902 90.7585 56.346C90.7585 56.814 90.5965 57.204 90.2725 57.516C89.9605 57.816 89.5405 57.966 89.0125 57.966ZM98.9626 69V67.11L98.7826 66.696V63.312C98.7826 62.712 98.5966 62.244 98.2246 61.908C97.8646 61.572 97.3066 61.404 96.5506 61.404C96.0346 61.404 95.5246 61.488 95.0206 61.656C94.5286 61.812 94.1086 62.028 93.7606 62.304L92.7526 60.342C93.2806 59.97 93.9166 59.682 94.6606 59.478C95.4046 59.274 96.1606 59.172 96.9286 59.172C98.4046 59.172 99.5506 59.52 100.367 60.216C101.183 60.912 101.591 61.998 101.591 63.474V69H98.9626ZM96.0106 69.144C95.2546 69.144 94.6066 69.018 94.0666 68.766C93.5266 68.502 93.1126 68.148 92.8246 67.704C92.5366 67.26 92.3926 66.762 92.3926 66.21C92.3926 65.634 92.5306 65.13 92.8066 64.698C93.0946 64.266 93.5446 63.93 94.1566 63.69C94.7686 63.438 95.5666 63.312 96.5506 63.312H99.1246V64.95H96.8566C96.1966 64.95 95.7406 65.058 95.4886 65.274C95.2486 65.49 95.1286 65.76 95.1286 66.084C95.1286 66.444 95.2666 66.732 95.5426 66.948C95.8306 67.152 96.2206 67.254 96.7126 67.254C97.1806 67.254 97.6006 67.146 97.9726 66.93C98.3446 66.702 98.6146 66.372 98.7826 65.94L99.2146 67.236C99.0106 67.86 98.6386 68.334 98.0986 68.658C97.5586 68.982 96.8626 69.144 96.0106 69.144ZM104.132 69V59.316H106.814V62.052L106.436 61.26C106.724 60.576 107.186 60.06 107.822 59.712C108.458 59.352 109.232 59.172 110.144 59.172V61.764C110.024 61.752 109.916 61.746 109.82 61.746C109.724 61.734 109.622 61.728 109.514 61.728C108.746 61.728 108.122 61.95 107.642 62.394C107.174 62.826 106.94 63.504 106.94 64.428V69H104.132ZM113.372 72.636C112.868 72.636 112.37 72.558 111.878 72.402C111.386 72.246 110.984 72.03 110.672 71.754L111.698 69.756C111.914 69.948 112.16 70.098 112.436 70.206C112.724 70.314 113.006 70.368 113.282 70.368C113.678 70.368 113.99 70.272 114.218 70.08C114.458 69.9 114.674 69.594 114.866 69.162L115.37 67.974L115.586 67.668L119.06 59.316H121.76L117.386 69.594C117.074 70.374 116.714 70.986 116.306 71.43C115.91 71.874 115.466 72.186 114.974 72.366C114.494 72.546 113.96 72.636 113.372 72.636ZM115.028 69.378L110.708 59.316H113.606L116.954 67.416L115.028 69.378ZM35.494 91V78.4H37.906L43.27 87.292H41.992L47.266 78.4H49.66L49.696 91H46.96L46.942 82.594H47.446L43.234 89.668H41.92L37.618 82.594H38.23V91H35.494ZM58.4274 91V89.11L58.2474 88.696V85.312C58.2474 84.712 58.0614 84.244 57.6894 83.908C57.3294 83.572 56.7714 83.404 56.0154 83.404C55.4994 83.404 54.9894 83.488 54.4854 83.656C53.9934 83.812 53.5734 84.028 53.2254 84.304L52.2174 82.342C52.7454 81.97 53.3814 81.682 54.1254 81.478C54.8694 81.274 55.6254 81.172 56.3934 81.172C57.8694 81.172 59.0154 81.52 59.8314 82.216C60.6474 82.912 61.0554 83.998 61.0554 85.474V91H58.4274ZM55.4754 91.144C54.7194 91.144 54.0714 91.018 53.5314 90.766C52.9914 90.502 52.5774 90.148 52.2894 89.704C52.0014 89.26 51.8574 88.762 51.8574 88.21C51.8574 87.634 51.9954 87.13 52.2714 86.698C52.5594 86.266 53.0094 85.93 53.6214 85.69C54.2334 85.438 55.0314 85.312 56.0154 85.312H58.5894V86.95H56.3214C55.6614 86.95 55.2054 87.058 54.9534 87.274C54.7134 87.49 54.5934 87.76 54.5934 88.084C54.5934 88.444 54.7314 88.732 55.0074 88.948C55.2954 89.152 55.6854 89.254 56.1774 89.254C56.6454 89.254 57.0654 89.146 57.4374 88.93C57.8094 88.702 58.0794 88.372 58.2474 87.94L58.6794 89.236C58.4754 89.86 58.1034 90.334 57.5634 90.658C57.0234 90.982 56.3274 91.144 55.4754 91.144ZM69.4828 81.172C70.2508 81.172 70.9348 81.328 71.5348 81.64C72.1468 81.94 72.6268 82.408 72.9748 83.044C73.3228 83.668 73.4968 84.472 73.4968 85.456V91H70.6888V85.888C70.6888 85.108 70.5148 84.532 70.1668 84.16C69.8308 83.788 69.3508 83.602 68.7268 83.602C68.2828 83.602 67.8808 83.698 67.5208 83.89C67.1728 84.07 66.8968 84.352 66.6928 84.736C66.5008 85.12 66.4048 85.612 66.4048 86.212V91H63.5968V81.316H66.2788V83.998L65.7748 83.188C66.1228 82.54 66.6208 82.042 67.2688 81.694C67.9168 81.346 68.6548 81.172 69.4828 81.172ZM81.9821 91V89.11L81.8021 88.696V85.312C81.8021 84.712 81.6161 84.244 81.2441 83.908C80.8841 83.572 80.3261 83.404 79.5701 83.404C79.0541 83.404 78.5441 83.488 78.0401 83.656C77.5481 83.812 77.1281 84.028 76.7801 84.304L75.7721 82.342C76.3001 81.97 76.9361 81.682 77.6801 81.478C78.4241 81.274 79.1801 81.172 79.9481 81.172C81.4241 81.172 82.5701 81.52 83.3861 82.216C84.2021 82.912 84.6101 83.998 84.6101 85.474V91H81.9821ZM79.0301 91.144C78.2741 91.144 77.6261 91.018 77.0861 90.766C76.5461 90.502 76.1321 90.148 75.8441 89.704C75.5561 89.26 75.4121 88.762 75.4121 88.21C75.4121 87.634 75.5501 87.13 75.8261 86.698C76.1141 86.266 76.5641 85.93 77.1761 85.69C77.7881 85.438 78.5861 85.312 79.5701 85.312H82.1441V86.95H79.8761C79.2161 86.95 78.7601 87.058 78.5081 87.274C78.2681 87.49 78.1481 87.76 78.1481 88.084C78.1481 88.444 78.2861 88.732 78.5621 88.948C78.8501 89.152 79.2401 89.254 79.7321 89.254C80.2001 89.254 80.6201 89.146 80.9921 88.93C81.3641 88.702 81.6341 88.372 81.8021 87.94L82.2341 89.236C82.0301 89.86 81.6581 90.334 81.1181 90.658C80.5781 90.982 79.8821 91.144 79.0301 91.144ZM91.7758 94.636C90.8638 94.636 89.9818 94.522 89.1298 94.294C88.2898 94.078 87.5878 93.748 87.0238 93.304L88.1398 91.288C88.5478 91.624 89.0638 91.888 89.6878 92.08C90.3238 92.284 90.9478 92.386 91.5598 92.386C92.5558 92.386 93.2758 92.164 93.7198 91.72C94.1758 91.276 94.4038 90.616 94.4038 89.74V88.282L94.5838 85.852L94.5478 83.404V81.316H97.2118V89.38C97.2118 91.18 96.7438 92.506 95.8078 93.358C94.8718 94.21 93.5278 94.636 91.7758 94.636ZM91.3438 90.532C90.4438 90.532 89.6278 90.34 88.8958 89.956C88.1758 89.56 87.5938 89.014 87.1498 88.318C86.7178 87.61 86.5018 86.788 86.5018 85.852C86.5018 84.904 86.7178 84.082 87.1498 83.386C87.5938 82.678 88.1758 82.132 88.8958 81.748C89.6278 81.364 90.4438 81.172 91.3438 81.172C92.1598 81.172 92.8798 81.34 93.5038 81.676C94.1278 82 94.6138 82.51 94.9618 83.206C95.3098 83.89 95.4838 84.772 95.4838 85.852C95.4838 86.92 95.3098 87.802 94.9618 88.498C94.6138 89.182 94.1278 89.692 93.5038 90.028C92.8798 90.364 92.1598 90.532 91.3438 90.532ZM91.9018 88.228C92.3938 88.228 92.8318 88.132 93.2158 87.94C93.5998 87.736 93.8998 87.454 94.1158 87.094C94.3318 86.734 94.4398 86.32 94.4398 85.852C94.4398 85.372 94.3318 84.958 94.1158 84.61C93.8998 84.25 93.5998 83.974 93.2158 83.782C92.8318 83.578 92.3938 83.476 91.9018 83.476C91.4098 83.476 90.9718 83.578 90.5878 83.782C90.2038 83.974 89.8978 84.25 89.6698 84.61C89.4538 84.958 89.3458 85.372 89.3458 85.852C89.3458 86.32 89.4538 86.734 89.6698 87.094C89.8978 87.454 90.2038 87.736 90.5878 87.94C90.9718 88.132 91.4098 88.228 91.9018 88.228ZM104.631 91.144C103.527 91.144 102.555 90.928 101.715 90.496C100.887 90.064 100.245 89.476 99.7893 88.732C99.3333 87.976 99.1053 87.118 99.1053 86.158C99.1053 85.186 99.3273 84.328 99.7713 83.584C100.227 82.828 100.845 82.24 101.625 81.82C102.405 81.388 103.287 81.172 104.271 81.172C105.219 81.172 106.071 81.376 106.827 81.784C107.595 82.18 108.201 82.756 108.645 83.512C109.089 84.256 109.311 85.15 109.311 86.194C109.311 86.302 109.305 86.428 109.293 86.572C109.281 86.704 109.269 86.83 109.257 86.95H101.391V85.312H107.781L106.701 85.798C106.701 85.294 106.599 84.856 106.395 84.484C106.191 84.112 105.909 83.824 105.549 83.62C105.189 83.404 104.769 83.296 104.289 83.296C103.809 83.296 103.383 83.404 103.011 83.62C102.651 83.824 102.369 84.118 102.165 84.502C101.961 84.874 101.859 85.318 101.859 85.834V86.266C101.859 86.794 101.973 87.262 102.201 87.67C102.441 88.066 102.771 88.372 103.191 88.588C103.623 88.792 104.127 88.894 104.703 88.894C105.219 88.894 105.669 88.816 106.053 88.66C106.449 88.504 106.809 88.27 107.133 87.958L108.627 89.578C108.183 90.082 107.625 90.472 106.953 90.748C106.281 91.012 105.507 91.144 104.631 91.144ZM123.583 81.172C124.351 81.172 125.029 81.328 125.617 81.64C126.217 81.94 126.685 82.408 127.021 83.044C127.369 83.668 127.543 84.472 127.543 85.456V91H124.735V85.888C124.735 85.108 124.573 84.532 124.249 84.16C123.925 83.788 123.469 83.602 122.881 83.602C122.473 83.602 122.107 83.698 121.783 83.89C121.459 84.07 121.207 84.346 121.027 84.718C120.847 85.09 120.757 85.564 120.757 86.14V91H117.949V85.888C117.949 85.108 117.787 84.532 117.463 84.16C117.151 83.788 116.701 83.602 116.113 83.602C115.705 83.602 115.339 83.698 115.015 83.89C114.691 84.07 114.439 84.346 114.259 84.718C114.079 85.09 113.989 85.564 113.989 86.14V91H111.181V81.316H113.863V83.962L113.359 83.188C113.695 82.528 114.169 82.03 114.781 81.694C115.405 81.346 116.113 81.172 116.905 81.172C117.793 81.172 118.567 81.4 119.227 81.856C119.899 82.3 120.343 82.984 120.559 83.908L119.569 83.638C119.893 82.882 120.409 82.282 121.117 81.838C121.837 81.394 122.659 81.172 123.583 81.172ZM134.936 91.144C133.832 91.144 132.86 90.928 132.02 90.496C131.192 90.064 130.55 89.476 130.094 88.732C129.638 87.976 129.41 87.118 129.41 86.158C129.41 85.186 129.632 84.328 130.076 83.584C130.532 82.828 131.15 82.24 131.93 81.82C132.71 81.388 133.592 81.172 134.576 81.172C135.524 81.172 136.376 81.376 137.132 81.784C137.9 82.18 138.506 82.756 138.95 83.512C139.394 84.256 139.616 85.15 139.616 86.194C139.616 86.302 139.61 86.428 139.598 86.572C139.586 86.704 139.574 86.83 139.562 86.95H131.696V85.312H138.086L137.006 85.798C137.006 85.294 136.904 84.856 136.7 84.484C136.496 84.112 136.214 83.824 135.854 83.62C135.494 83.404 135.074 83.296 134.594 83.296C134.114 83.296 133.688 83.404 133.316 83.62C132.956 83.824 132.674 84.118 132.47 84.502C132.266 84.874 132.164 85.318 132.164 85.834V86.266C132.164 86.794 132.278 87.262 132.506 87.67C132.746 88.066 133.076 88.372 133.496 88.588C133.928 88.792 134.432 88.894 135.008 88.894C135.524 88.894 135.974 88.816 136.358 88.66C136.754 88.504 137.114 88.27 137.438 87.958L138.932 89.578C138.488 90.082 137.93 90.472 137.258 90.748C136.586 91.012 135.812 91.144 134.936 91.144ZM147.371 81.172C148.139 81.172 148.823 81.328 149.423 81.64C150.035 81.94 150.515 82.408 150.863 83.044C151.211 83.668 151.385 84.472 151.385 85.456V91H148.577V85.888C148.577 85.108 148.403 84.532 148.055 84.16C147.719 83.788 147.239 83.602 146.615 83.602C146.171 83.602 145.769 83.698 145.409 83.89C145.061 84.07 144.785 84.352 144.581 84.736C144.389 85.12 144.293 85.612 144.293 86.212V91H141.485V81.316H144.167V83.998L143.663 83.188C144.011 82.54 144.509 82.042 145.157 81.694C145.805 81.346 146.543 81.172 147.371 81.172ZM157.891 91.144C156.751 91.144 155.863 90.856 155.227 90.28C154.591 89.692 154.273 88.822 154.273 87.67V79.174H157.081V87.634C157.081 88.042 157.189 88.36 157.405 88.588C157.621 88.804 157.915 88.912 158.287 88.912C158.731 88.912 159.109 88.792 159.421 88.552L160.177 90.532C159.889 90.736 159.541 90.892 159.133 91C158.737 91.096 158.323 91.144 157.891 91.144ZM152.779 83.692V81.532H159.493V83.692H152.779Z" fill="white"/>
<rect x="34" y="115" width="127" height="6" rx="3" fill="#5AB6E2"/>
<rect x="34" y="129" width="127" height="6" rx="3" fill="#5AB6E2"/>
<rect x="34" y="143" width="56" height="6" rx="3" fill="#5AB6E2"/>
<g clip-path="url(#clip0_1_192)">
<path d="M255 85.2812C247.369 85.2812 241.125 91.525 241.125 99.1562C241.125 106.788 247.369 113.031 255 113.031C262.631 113.031 268.875 106.788 268.875 99.1562C268.875 91.525 262.631 85.2812 255 85.2812ZM255 108.406C249.912 108.406 245.75 104.244 245.75 99.1562C245.75 94.0687 249.912 89.9062 255 89.9062C260.087 89.9062 264.25 94.0687 264.25 99.1562C264.25 104.244 260.087 108.406 255 108.406Z" fill="#5AB6E2"/>
<path d="M255 119.275C246.386 119.275 238.119 122.859 232.222 129.161L230.661 130.838L234.014 134.017L235.575 132.341C240.662 126.906 247.542 123.9 255 123.9C262.458 123.9 269.337 126.906 274.425 132.341L275.986 134.017L279.339 130.838L277.778 129.161C271.881 122.917 263.614 119.275 255 119.275Z" fill="#5AB6E2"/>
<path d="M274.078 88.6922V93.3172C279.512 93.3172 284.542 95.5141 288.3 99.5031L291.653 96.3234C287.144 91.4672 280.727 88.6922 274.078 88.6922Z" fill="#5AB6E2"/>
<path d="M285.12 72.5625C285.12 66.4922 280.148 61.5203 274.078 61.5203C268.008 61.5203 263.036 66.4922 263.036 72.5625C263.036 78.6328 268.008 83.6047 274.078 83.6047C280.148 83.6047 285.12 78.6328 285.12 72.5625ZM267.661 72.5625C267.661 69.036 270.552 66.1453 274.078 66.1453C277.605 66.1453 280.495 69.036 280.495 72.5625C280.495 76.0891 277.605 78.9797 274.078 78.9797C270.552 78.9797 267.661 76.0891 267.661 72.5625Z" fill="#5AB6E2"/>
<path d="M235.922 88.6922C229.273 88.6922 222.856 91.4672 218.347 96.3234L221.7 99.5031C225.4 95.5141 230.488 93.3172 235.922 93.3172V88.6922Z" fill="#5AB6E2"/>
<path d="M246.964 72.5625C246.964 66.4922 241.992 61.5203 235.922 61.5203C229.852 61.5203 224.88 66.4922 224.88 72.5625C224.88 78.6328 229.852 83.6047 235.922 83.6047C241.992 83.6047 246.964 78.6328 246.964 72.5625ZM235.922 78.9797C232.395 78.9797 229.505 76.0891 229.505 72.5625C229.505 69.036 232.395 66.1453 235.922 66.1453C239.448 66.1453 242.339 69.036 242.339 72.5625C242.339 76.0891 239.448 78.9797 235.922 78.9797Z" fill="#5AB6E2"/>
</g>
</g>
<defs>
<clipPath id="clip0_1_192">
<rect width="74" height="74" fill="white" transform="translate(218 61)"/>
</clipPath>
</defs>
</svg>
