<svg width="400" height="261" viewBox="0 0 400 261" fill="none" xmlns="http://www.w3.org/2000/svg">
<g style="mix-blend-mode:luminosity">
<mask id="mask0_1_679" style="mask-type:alpha" maskUnits="userSpaceOnUse" x="0" y="0" width="400" height="261">
<rect width="400" height="261" fill="#E9F6F8"/>
</mask>
<g mask="url(#mask0_1_679)">
<rect width="400" height="261" fill="#E9F6F8"/>
<path d="M19.5813 26V42.12H18.4187V26H19.5813ZM33.88 56.4187H50V57.5813H33.88V56.4187ZM19.5813 42.12C19.5813 44.7338 19.5817 46.6593 19.706 48.1809C19.8298 49.6957 20.0734 50.7591 20.5315 51.6582L19.4957 52.186C18.9402 51.0957 18.677 49.8623 18.5474 48.2756C18.4183 46.6956 18.4187 44.7147 18.4187 42.12H19.5813ZM33.88 57.5813C31.2853 57.5813 29.3044 57.5817 27.7244 57.4526C26.1377 57.323 24.9043 57.0598 23.814 56.5043L24.3418 55.4685C25.2409 55.9266 26.3043 56.1702 27.8191 56.294C29.3407 56.4183 31.2662 56.4187 33.88 56.4187V57.5813ZM20.5315 51.6582C21.3674 53.2988 22.7012 54.6326 24.3418 55.4685L23.814 56.5043C21.9547 55.5569 20.4431 54.0453 19.4957 52.186L20.5315 51.6582Z" fill="#1FA2AB"/>
<path d="M50.7985 56.589C51.0254 56.816 51.0254 57.184 50.7985 57.411L47.0994 61.1101C46.8724 61.3371 46.5044 61.3371 46.2774 61.1101C46.0504 60.8831 46.0504 60.515 46.2774 60.288L49.5654 57L46.2774 53.712C46.0504 53.485 46.0504 53.1169 46.2774 52.8899C46.5044 52.6629 46.8724 52.6629 47.0994 52.8899L50.7985 56.589ZM50 56.4187H50.3875V57.5813H50V56.4187Z" fill="#1FA2AB"/>
<rect width="5.425" height="5.425" rx="2.7125" transform="matrix(1 0 0 -1 16.2875 26)" fill="#1FA2AB"/>
<path d="M368 244.681L359.16 244.681L359.16 245.319L368 245.319L368 244.681ZM351.319 236.84L351.319 228L350.681 228L350.681 236.84L351.319 236.84ZM359.16 244.681C357.727 244.681 356.671 244.681 355.836 244.613C355.006 244.545 354.422 244.411 353.929 244.16L353.64 244.728C354.238 245.033 354.914 245.177 355.784 245.248C356.651 245.319 357.737 245.319 359.16 245.319L359.16 244.681ZM350.681 236.84C350.681 238.263 350.681 239.349 350.752 240.216C350.823 241.086 350.967 241.762 351.272 242.36L351.84 242.071C351.589 241.578 351.455 240.994 351.387 240.164C351.319 239.329 351.319 238.273 351.319 236.84L350.681 236.84ZM353.929 244.16C353.03 243.702 352.298 242.97 351.84 242.071L351.272 242.36C351.791 243.38 352.62 244.209 353.64 244.728L353.929 244.16Z" fill="#1FA2AB"/>
<path d="M351.225 227.562C351.101 227.438 350.899 227.438 350.775 227.562L348.746 229.591C348.622 229.715 348.622 229.917 348.746 230.041C348.871 230.166 349.072 230.166 349.197 230.041L351 228.238L352.803 230.041C352.928 230.166 353.129 230.166 353.254 230.041C353.378 229.917 353.378 229.715 353.254 229.591L351.225 227.562ZM351.319 228L351.319 227.787L350.681 227.787L350.681 228L351.319 228Z" fill="#1FA2AB"/>
<rect x="368" y="246.487" width="2.975" height="2.975" rx="1.4875" transform="rotate(-90 368 246.487)" fill="#1FA2AB"/>
<path d="M390.595 8.92096L390.314 8.36965L390.595 8.92096ZM395.381 -23L395.381 -5.84L396.619 -5.84L396.619 -23L395.381 -23ZM380.16 9.38125L363 9.38125L363 10.6187L380.16 10.6187L380.16 9.38125ZM395.381 -5.84C395.381 -3.05753 395.381 -1.00789 395.248 0.611914C395.117 2.2245 394.857 3.3565 394.37 4.3136L395.472 4.87541C396.064 3.71478 396.344 2.4018 396.482 0.712686C396.619 -0.969201 396.619 -3.07795 396.619 -5.84L395.381 -5.84ZM380.16 10.6187C382.922 10.6187 385.031 10.6192 386.713 10.4818C388.402 10.3438 389.715 10.0636 390.875 9.47227L390.314 8.36965C389.357 8.85732 388.224 9.11667 386.612 9.24842C384.992 9.38077 382.942 9.38125 380.16 9.38125L380.16 10.6187ZM394.37 4.3136C393.48 6.05998 392.06 7.47983 390.314 8.36965L390.875 9.47227C392.855 8.46381 394.464 6.85464 395.472 4.87541L394.37 4.3136Z" fill="#1FA2AB"/>
<path d="M362.15 9.56248C361.908 9.80411 361.908 10.1959 362.15 10.4375L366.088 14.3752C366.329 14.6169 366.721 14.6169 366.963 14.3752C367.204 14.1336 367.204 13.7418 366.963 13.5002L363.462 10L366.963 6.49982C367.204 6.25818 367.204 5.86641 366.963 5.62478C366.721 5.38314 366.329 5.38314 366.088 5.62478L362.15 9.56248ZM363 9.38125L362.587 9.38125L362.587 10.6188L363 10.6188L363 9.38125Z" fill="#1FA2AB"/>
<circle cx="39.9577" cy="241.531" r="5.46517" fill="#1FA2AB" stroke="white" stroke-width="1.13793"/>
<circle cx="371.896" cy="77.8962" r="5.46517" fill="#1FA2AB" stroke="white" stroke-width="1.13793"/>
<path d="M59 51C59 45.4772 63.4772 41 69 41H132C137.523 41 142 45.4772 142 51V210C142 215.523 137.523 220 132 220H69C63.4772 220 59 215.523 59 210V51Z" fill="#1FA2AB"/>
<rect x="66" y="66" width="34" height="5" rx="2.5" fill="white"/>
<rect x="66" y="78" width="15" height="3" rx="1.5" fill="#8FD0D5"/>
<circle cx="100.5" cy="168.5" r="11.5" fill="white"/>
<rect x="66" y="200" width="6" height="6" rx="1" fill="#8FD0D5"/>
<rect x="98" y="200" width="6" height="6" rx="1" fill="#8FD0D5"/>
<rect x="131" y="200" width="6" height="6" rx="1" fill="#8FD0D5"/>
<circle cx="70.5" cy="119.5" r="6.5" fill="white"/>
<circle cx="90.5" cy="119.5" r="6.5" fill="white"/>
<circle cx="110.5" cy="119.5" r="6.5" fill="white"/>
<circle cx="130.5" cy="119.5" r="6.5" fill="white"/>
<path d="M257 51C257 45.4772 261.477 41 267 41H330C335.523 41 340 45.4772 340 51V210C340 215.523 335.523 220 330 220H267C261.477 220 257 215.523 257 210V51Z" fill="#1FA2AB"/>
<rect x="264" y="60" width="18" height="3" rx="1.5" fill="#8FD0D5"/>
<rect x="264" y="66" width="34" height="5" rx="2.5" fill="white"/>
<rect x="264" y="74" width="15" height="3" rx="1.5" fill="#8FD0D5"/>
<circle cx="298.5" cy="168.5" r="11.5" fill="white"/>
<rect x="264" y="200" width="6" height="6" rx="1" fill="#8FD0D5"/>
<rect x="296" y="200" width="6" height="6" rx="1" fill="#8FD0D5"/>
<rect x="329" y="200" width="6" height="6" rx="1" fill="#8FD0D5"/>
<circle cx="268.5" cy="119.5" r="6.5" fill="white"/>
<circle cx="283.5" cy="119.5" r="6.5" fill="white"/>
<circle cx="298.5" cy="119.5" r="6.5" fill="white"/>
<circle cx="313.5" cy="119.5" r="6.5" fill="white"/>
<circle cx="328.5" cy="119.5" r="6.5" fill="white"/>
<path d="M158 51C158 45.4772 162.477 41 168 41H231C236.523 41 241 45.4772 241 51V210C241 215.523 236.523 220 231 220H168C162.477 220 158 215.523 158 210V51Z" fill="#1FA2AB"/>
<circle cx="169.5" cy="71.5" r="6.5" fill="white"/>
<rect x="179" y="70" width="40" height="3" rx="1.5" fill="white"/>
<rect opacity="0.5" x="165" y="90" width="69" height="118" rx="8" fill="white"/>
</g>
</g>
</svg>
