<svg width="40" height="40" viewBox="0 0 40 40" fill="none" xmlns="http://www.w3.org/2000/svg">
<rect x="1" y="1" width="38" height="38" rx="9" stroke="black" stroke-width="2"/>
<path d="M27.7857 18.8147H16.1454L18.9298 16.0631C19.0458 15.9524 19.1383 15.82 19.2019 15.6736C19.2655 15.5272 19.299 15.3698 19.3004 15.2104C19.3018 15.0511 19.2711 14.8931 19.2101 14.7456C19.149 14.5981 19.0588 14.4641 18.9448 14.3515C18.8308 14.2388 18.6952 14.1497 18.546 14.0894C18.3968 14.029 18.2369 13.9987 18.0756 14C17.9144 14.0014 17.7551 14.0345 17.6069 14.0974C17.4588 14.1603 17.3248 14.2517 17.2127 14.3663L12.3555 19.1663C12.1279 19.3914 12 19.6965 12 20.0147C12 20.3329 12.1279 20.6381 12.3555 20.8631L17.2127 25.6631C17.4418 25.8817 17.7485 26.0027 18.0669 26C18.3853 25.9972 18.6898 25.871 18.915 25.6485C19.1401 25.426 19.2678 25.1251 19.2706 24.8104C19.2734 24.4958 19.151 24.1927 18.9298 23.9663L16.1454 21.2147H27.7857C28.1077 21.2147 28.4166 21.0883 28.6443 20.8633C28.8721 20.6382 29 20.333 29 20.0147C29 19.6965 28.8721 19.3913 28.6443 19.1662C28.4166 18.9412 28.1077 18.8147 27.7857 18.8147Z" fill="black"/>
</svg>
