<svg width="694" height="178" viewBox="0 0 694 178" fill="none" xmlns="http://www.w3.org/2000/svg">
<path d="M159.573 62.618H156.745V65.516H155.261V62.618H152.433V61.274H155.261V58.376H156.745V61.274H159.573V62.618Z" fill="#767676"/>
<path d="M350.573 62.618H347.745V65.516H346.261V62.618H343.433V61.274H346.261V58.376H347.745V61.274H350.573V62.618Z" fill="#767676"/>
<path d="M541.803 59.678V61.022H534.355V59.678H541.803ZM541.803 62.856V64.2H534.355V62.856H541.803Z" fill="#767676"/>
<path d="M191 20C191 8.95431 199.954 0 211 0H292C303.046 0 312 8.9543 312 20V101C312 112.046 303.046 121 292 121H211C199.954 121 191 112.046 191 101V20Z" fill="#F35050"/>
<path d="M264 50C264 44.4772 259.523 40 254 40H249C243.477 40 239 44.4772 239 50C239 55.5228 243.477 60 249 60H254C259.523 60 264 64.4772 264 70C264 75.5228 259.523 80 254 80H249C243.477 80 239 75.5228 239 70" stroke="white" stroke-width="5" stroke-linecap="round" stroke-linejoin="round"/>
<path d="M0 20C0 8.95431 8.9543 0 20 0H101C112.046 0 121 8.9543 121 20V101C121 112.046 112.046 121 101 121H20C8.95431 121 0 112.046 0 101V20Z" fill="#F35050"/>
<path d="M80 82.7031V77.7031C80 72.1803 75.5228 67.7031 70 67.7031H50C44.4772 67.7031 40 72.1803 40 77.7031V82.7031" stroke="white" stroke-width="5" stroke-linecap="round" stroke-linejoin="round"/>
<ellipse cx="59.7602" cy="47.718" rx="10.042" ry="9.71803" stroke="white" stroke-width="5" stroke-linecap="round" stroke-linejoin="round"/>
<path d="M382 20C382 8.95431 390.954 0 402 0H483C494.046 0 503 8.9543 503 20V101C503 112.046 494.046 121 483 121H402C390.954 121 382 112.046 382 101V20Z" fill="#F35050"/>
<path d="M433.709 65.8786C433.075 65.3581 432.374 64.9348 431.873 64.3426C430.255 62.4305 430.48 60.3043 431.416 58.1974C431.765 57.4113 432.323 56.7128 432.825 56.0025C433.014 55.7356 433.044 55.584 432.855 55.2877C430.544 51.6487 430.526 47.907 432.597 44.1983C433.826 41.9972 435.892 40.8223 438.32 40.285C440.328 39.8403 442.336 39.9646 444.346 40.325C445.123 40.4644 445.913 40.5755 446.7 40.5963C448.804 40.6514 450.91 40.649 453.014 40.6726C454.058 40.6844 454.366 40.9557 454.438 41.9888C454.462 42.3389 454.422 42.7027 454.351 43.0482C454.242 43.5846 453.895 43.8506 453.328 43.837C452.217 43.8102 451.105 43.801 449.994 43.7855C449.802 43.7828 449.609 43.7851 449.284 43.7851C450.385 45.0221 451.061 46.346 451.302 47.8612C451.777 50.8405 451.511 53.6892 449.623 56.1836C448.111 58.1805 446.013 59.1524 443.573 59.4639C441.074 59.783 438.668 59.4867 436.399 58.342C436.064 58.1733 435.748 57.9688 435.424 57.781C433.459 59.2429 433.672 62.0881 435.866 63.1112C436.514 63.4133 437.266 63.5801 437.984 63.6309C440.695 63.823 443.413 63.9102 446.125 64.0986C448.102 64.2361 450.008 64.6724 451.673 65.8407C453.892 67.3985 454.645 69.5852 454.295 72.1827C453.795 75.8973 451.424 78.0536 448.034 79.0715C443.586 80.4068 439.093 80.3015 434.694 78.7576C432.496 77.9862 430.756 76.5935 430.212 74.2085C429.615 71.5912 430.278 69.2518 432.203 67.3235C432.703 66.8216 433.225 66.341 433.709 65.8786ZM442.815 76.9613C443.787 76.8625 444.631 76.848 445.44 76.6744C446.267 76.4972 447.092 76.2325 447.862 75.8837C449.328 75.2197 450.316 74.1163 450.708 72.5063C451.186 70.5409 450.605 68.9872 448.842 68.0273C448.161 67.6564 447.36 67.371 446.594 67.3128C443.568 67.0835 440.535 66.9552 437.504 66.8065C437.308 66.797 437.056 66.8793 436.914 67.0099C436.215 67.6529 435.496 68.2846 434.874 68.9988C433.884 70.136 433.521 71.5084 433.721 72.9944C433.919 74.469 434.932 75.3096 436.194 75.8922C438.346 76.8855 440.651 76.9128 442.815 76.9613ZM434.933 49.7707L434.784 49.8152C435.034 50.8453 435.149 51.9335 435.562 52.8938C436.625 55.3671 438.696 56.4022 441.289 56.52C442.831 56.5898 444.286 56.303 445.547 55.3382C448.059 53.4181 448.353 49.3253 447.168 46.6517C446.135 44.3205 444.161 43.3327 441.719 43.1522C440.071 43.0305 438.507 43.3007 437.188 44.3803C435.485 45.7732 434.951 47.6688 434.933 49.7707Z" fill="white" stroke="white"/>
<path d="M573 20C573 8.95431 581.954 0 593 0H674C685.046 0 694 8.9543 694 20V101C694 112.046 685.046 121 674 121H593C581.954 121 573 112.046 573 101V20Z" fill="#F35050"/>
<path d="M630.985 75.1979C633.523 75.1979 636.062 75.1683 638.6 75.2101C640.001 75.2338 640.779 74.3004 641.022 73.4039C641.354 72.1737 640.901 70.9003 639.906 70.2853C639.538 70.057 639.131 70.006 638.711 70.006C633.644 70.007 632.168 70.007 627.101 70.007C626.213 70.007 625.451 69.7211 624.907 68.9708C624.34 68.1874 624.225 67.3222 624.589 66.4303C624.962 65.5167 625.656 64.9789 626.631 64.8549C626.856 64.8266 627.084 64.817 627.31 64.817C632.288 64.8148 633.676 64.837 638.654 64.8097C642.839 64.7855 645.73 67.9918 646.151 71.6168C646.535 74.9203 645.012 78.0021 642.183 79.5617C641.131 80.1412 639.985 80.3956 638.792 80.3969C633.696 80.403 628.599 80.4017 623.503 80.3983C622.041 80.3976 620.968 79.4425 620.804 78.0141C620.652 76.6906 621.771 75.3095 623.074 75.2152C623.251 75.2018 623.429 75.1991 623.607 75.1991C626.066 75.1979 628.526 75.1979 630.985 75.1979Z" fill="white"/>
<path d="M639.254 44.75C640.26 43.7114 641.262 42.6799 642.31 41.5996C642.319 41.7588 642.329 41.8525 642.329 41.947C642.33 45.3723 642.338 48.7988 642.327 52.2251C642.313 56.7715 639.397 60.7529 635.139 62.064C630.19 63.5872 624.802 60.9487 622.95 56.001C621.54 52.2317 622.077 48.6731 624.593 45.5684C626.851 42.782 629.85 41.5947 633.373 41.9463C635.558 42.1638 637.468 43.0801 639.09 44.6096C639.133 44.6492 639.179 44.686 639.254 44.75ZM627.285 52.1765C627.277 55.0029 629.486 57.2815 632.253 57.3013C635.001 57.3198 637.251 55.0378 637.265 52.2183C637.279 49.3748 635.059 47.0732 632.293 47.064C629.522 47.0542 627.293 49.3298 627.285 52.1765Z" fill="white"/>
<path d="M43.5007 160.27V166.472C43.5007 167.209 43.692 167.765 44.0747 168.138C44.4667 168.511 45.008 168.698 45.6987 168.698C46.3987 168.698 46.94 168.511 47.3227 168.138C47.7147 167.765 47.9107 167.209 47.9107 166.472V160.27H49.5067V166.444C49.5067 167.237 49.334 167.909 48.9887 168.46C48.6433 169.011 48.1813 169.421 47.6027 169.692C47.024 169.963 46.3847 170.098 45.6847 170.098C44.9847 170.098 44.3453 169.963 43.7667 169.692C43.1973 169.421 42.7447 169.011 42.4087 168.46C42.0727 167.909 41.9047 167.237 41.9047 166.444V160.27H43.5007ZM54.3847 170.126C53.778 170.126 53.232 170.019 52.7467 169.804C52.2707 169.58 51.8927 169.281 51.6127 168.908C51.3327 168.525 51.1833 168.101 51.1647 167.634H52.8167C52.8447 167.961 52.9987 168.236 53.2787 168.46C53.568 168.675 53.9273 168.782 54.3567 168.782C54.8047 168.782 55.15 168.698 55.3927 168.53C55.6447 168.353 55.7707 168.129 55.7707 167.858C55.7707 167.569 55.6307 167.354 55.3507 167.214C55.08 167.074 54.646 166.92 54.0487 166.752C53.47 166.593 52.9987 166.439 52.6347 166.29C52.2707 166.141 51.9533 165.912 51.6827 165.604C51.4213 165.296 51.2907 164.89 51.2907 164.386C51.2907 163.975 51.412 163.602 51.6547 163.266C51.8973 162.921 52.2427 162.65 52.6907 162.454C53.148 162.258 53.6707 162.16 54.2587 162.16C55.136 162.16 55.8407 162.384 56.3727 162.832C56.914 163.271 57.2033 163.873 57.2407 164.638H55.6447C55.6167 164.293 55.4767 164.017 55.2247 163.812C54.9727 163.607 54.632 163.504 54.2027 163.504C53.7827 163.504 53.4607 163.583 53.2367 163.742C53.0127 163.901 52.9007 164.111 52.9007 164.372C52.9007 164.577 52.9753 164.75 53.1247 164.89C53.274 165.03 53.456 165.142 53.6707 165.226C53.8853 165.301 54.2027 165.399 54.6227 165.52C55.1827 165.669 55.64 165.823 55.9947 165.982C56.3587 166.131 56.6713 166.355 56.9327 166.654C57.194 166.953 57.3293 167.349 57.3387 167.844C57.3387 168.283 57.2173 168.675 56.9747 169.02C56.732 169.365 56.3867 169.636 55.9387 169.832C55.5 170.028 54.982 170.126 54.3847 170.126ZM66.1332 165.954C66.1332 166.243 66.1145 166.505 66.0772 166.738H60.1832C60.2299 167.354 60.4585 167.849 60.8692 168.222C61.2799 168.595 61.7839 168.782 62.3812 168.782C63.2399 168.782 63.8465 168.423 64.2012 167.704H65.9232C65.6899 168.413 65.2652 168.997 64.6492 169.454C64.0425 169.902 63.2865 170.126 62.3812 170.126C61.6439 170.126 60.9812 169.963 60.3932 169.636C59.8145 169.3 59.3572 168.833 59.0212 168.236C58.6945 167.629 58.5312 166.929 58.5312 166.136C58.5312 165.343 58.6899 164.647 59.0072 164.05C59.3339 163.443 59.7865 162.977 60.3652 162.65C60.9532 162.323 61.6252 162.16 62.3812 162.16C63.1092 162.16 63.7579 162.319 64.3272 162.636C64.8965 162.953 65.3399 163.401 65.6572 163.98C65.9745 164.549 66.1332 165.207 66.1332 165.954ZM64.4672 165.45C64.4579 164.862 64.2479 164.391 63.8372 164.036C63.4265 163.681 62.9179 163.504 62.3112 163.504C61.7605 163.504 61.2892 163.681 60.8972 164.036C60.5052 164.381 60.2719 164.853 60.1972 165.45H64.4672ZM69.2998 163.406C69.5331 163.014 69.8411 162.711 70.2238 162.496C70.6158 162.272 71.0778 162.16 71.6098 162.16V163.812H71.2038C70.5785 163.812 70.1025 163.971 69.7758 164.288C69.4585 164.605 69.2998 165.156 69.2998 165.94V170H67.7038V162.286H69.2998V163.406ZM75.8769 170.126C75.2702 170.126 74.7242 170.019 74.2389 169.804C73.7629 169.58 73.3849 169.281 73.1049 168.908C72.8249 168.525 72.6755 168.101 72.6569 167.634H74.3089C74.3369 167.961 74.4909 168.236 74.7709 168.46C75.0602 168.675 75.4195 168.782 75.8489 168.782C76.2969 168.782 76.6422 168.698 76.8849 168.53C77.1369 168.353 77.2629 168.129 77.2629 167.858C77.2629 167.569 77.1229 167.354 76.8429 167.214C76.5722 167.074 76.1382 166.92 75.5409 166.752C74.9622 166.593 74.4909 166.439 74.1269 166.29C73.7629 166.141 73.4455 165.912 73.1749 165.604C72.9135 165.296 72.7829 164.89 72.7829 164.386C72.7829 163.975 72.9042 163.602 73.1469 163.266C73.3895 162.921 73.7349 162.65 74.1829 162.454C74.6402 162.258 75.1629 162.16 75.7509 162.16C76.6282 162.16 77.3329 162.384 77.8649 162.832C78.4062 163.271 78.6955 163.873 78.7329 164.638H77.1369C77.1089 164.293 76.9689 164.017 76.7169 163.812C76.4649 163.607 76.1242 163.504 75.6949 163.504C75.2749 163.504 74.9529 163.583 74.7289 163.742C74.5049 163.901 74.3929 164.111 74.3929 164.372C74.3929 164.577 74.4675 164.75 74.6169 164.89C74.7662 165.03 74.9482 165.142 75.1629 165.226C75.3775 165.301 75.6949 165.399 76.1149 165.52C76.6749 165.669 77.1322 165.823 77.4869 165.982C77.8509 166.131 78.1635 166.355 78.4249 166.654C78.6862 166.953 78.8215 167.349 78.8309 167.844C78.8309 168.283 78.7095 168.675 78.4669 169.02C78.2242 169.365 77.8789 169.636 77.4309 169.832C76.9922 170.028 76.4742 170.126 75.8769 170.126Z" fill="#767676"/>
<path d="M225.26 163.602H223.524L224.994 160.27H226.114L225.26 163.602ZM227.78 163.602H226.044L227.514 160.27H228.634L227.78 163.602ZM233.336 170.098C232.683 170.098 232.095 169.986 231.572 169.762C231.049 169.529 230.639 169.202 230.34 168.782C230.041 168.362 229.892 167.872 229.892 167.312H231.6C231.637 167.732 231.801 168.077 232.09 168.348C232.389 168.619 232.804 168.754 233.336 168.754C233.887 168.754 234.316 168.623 234.624 168.362C234.932 168.091 235.086 167.746 235.086 167.326C235.086 166.999 234.988 166.733 234.792 166.528C234.605 166.323 234.367 166.164 234.078 166.052C233.798 165.94 233.406 165.819 232.902 165.688C232.267 165.52 231.749 165.352 231.348 165.184C230.956 165.007 230.62 164.736 230.34 164.372C230.06 164.008 229.92 163.523 229.92 162.916C229.92 162.356 230.06 161.866 230.34 161.446C230.62 161.026 231.012 160.704 231.516 160.48C232.02 160.256 232.603 160.144 233.266 160.144C234.209 160.144 234.979 160.382 235.576 160.858C236.183 161.325 236.519 161.969 236.584 162.79H234.82C234.792 162.435 234.624 162.132 234.316 161.88C234.008 161.628 233.602 161.502 233.098 161.502C232.641 161.502 232.267 161.619 231.978 161.852C231.689 162.085 231.544 162.421 231.544 162.86C231.544 163.159 231.633 163.406 231.81 163.602C231.997 163.789 232.23 163.938 232.51 164.05C232.79 164.162 233.173 164.283 233.658 164.414C234.302 164.591 234.825 164.769 235.226 164.946C235.637 165.123 235.982 165.399 236.262 165.772C236.551 166.136 236.696 166.626 236.696 167.242C236.696 167.737 236.561 168.203 236.29 168.642C236.029 169.081 235.641 169.435 235.128 169.706C234.624 169.967 234.027 170.098 233.336 170.098ZM238.831 160.27H240.567L239.097 163.602H237.977L238.831 160.27ZM241.351 160.27H243.087L241.617 163.602H240.497L241.351 160.27ZM243.954 166.108C243.954 165.333 244.112 164.647 244.43 164.05C244.756 163.453 245.195 162.991 245.746 162.664C246.306 162.328 246.926 162.16 247.608 162.16C248.205 162.16 248.732 162.281 249.19 162.524C249.656 162.767 250.016 163.061 250.268 163.406V162.286H251.878V173.668H250.268V168.88C250.016 169.225 249.652 169.519 249.176 169.762C248.7 170.005 248.158 170.126 247.552 170.126C246.889 170.126 246.282 169.958 245.732 169.622C245.19 169.277 244.756 168.801 244.43 168.194C244.112 167.578 243.954 166.883 243.954 166.108ZM250.268 166.136C250.268 165.604 250.156 165.142 249.932 164.75C249.717 164.358 249.432 164.059 249.078 163.854C248.723 163.649 248.34 163.546 247.93 163.546C247.519 163.546 247.136 163.649 246.782 163.854C246.427 164.05 246.138 164.344 245.914 164.736C245.699 165.119 245.592 165.576 245.592 166.108C245.592 166.64 245.699 167.107 245.914 167.508C246.138 167.909 246.427 168.217 246.782 168.432C247.146 168.637 247.528 168.74 247.93 168.74C248.34 168.74 248.723 168.637 249.078 168.432C249.432 168.227 249.717 167.928 249.932 167.536C250.156 167.135 250.268 166.668 250.268 166.136ZM260.96 162.286V170H259.364V169.09C259.112 169.407 258.78 169.659 258.37 169.846C257.968 170.023 257.539 170.112 257.082 170.112C256.475 170.112 255.929 169.986 255.444 169.734C254.968 169.482 254.59 169.109 254.31 168.614C254.039 168.119 253.904 167.522 253.904 166.822V162.286H255.486V166.584C255.486 167.275 255.658 167.807 256.004 168.18C256.349 168.544 256.82 168.726 257.418 168.726C258.015 168.726 258.486 168.544 258.832 168.18C259.186 167.807 259.364 167.275 259.364 166.584V162.286H260.96ZM262.534 166.108C262.534 165.333 262.692 164.647 263.01 164.05C263.336 163.453 263.775 162.991 264.326 162.664C264.886 162.328 265.502 162.16 266.174 162.16C266.78 162.16 267.308 162.281 267.756 162.524C268.213 162.757 268.577 163.051 268.848 163.406V162.286H270.458V170H268.848V168.852C268.577 169.216 268.208 169.519 267.742 169.762C267.275 170.005 266.743 170.126 266.146 170.126C265.483 170.126 264.876 169.958 264.326 169.622C263.775 169.277 263.336 168.801 263.01 168.194C262.692 167.578 262.534 166.883 262.534 166.108ZM268.848 166.136C268.848 165.604 268.736 165.142 268.512 164.75C268.297 164.358 268.012 164.059 267.658 163.854C267.303 163.649 266.92 163.546 266.51 163.546C266.099 163.546 265.716 163.649 265.362 163.854C265.007 164.05 264.718 164.344 264.494 164.736C264.279 165.119 264.172 165.576 264.172 166.108C264.172 166.64 264.279 167.107 264.494 167.508C264.718 167.909 265.007 168.217 265.362 168.432C265.726 168.637 266.108 168.74 266.51 168.74C266.92 168.74 267.303 168.637 267.658 168.432C268.012 168.227 268.297 167.928 268.512 167.536C268.736 167.135 268.848 166.668 268.848 166.136ZM272.022 166.108C272.022 165.333 272.181 164.647 272.498 164.05C272.825 163.453 273.263 162.991 273.814 162.664C274.374 162.328 274.995 162.16 275.676 162.16C276.18 162.16 276.675 162.272 277.16 162.496C277.655 162.711 278.047 163 278.336 163.364V159.64H279.946V170H278.336V168.838C278.075 169.211 277.711 169.519 277.244 169.762C276.787 170.005 276.259 170.126 275.662 170.126C274.99 170.126 274.374 169.958 273.814 169.622C273.263 169.277 272.825 168.801 272.498 168.194C272.181 167.578 272.022 166.883 272.022 166.108ZM278.336 166.136C278.336 165.604 278.224 165.142 278 164.75C277.785 164.358 277.501 164.059 277.146 163.854C276.791 163.649 276.409 163.546 275.998 163.546C275.587 163.546 275.205 163.649 274.85 163.854C274.495 164.05 274.206 164.344 273.982 164.736C273.767 165.119 273.66 165.576 273.66 166.108C273.66 166.64 273.767 167.107 273.982 167.508C274.206 167.909 274.495 168.217 274.85 168.432C275.214 168.637 275.597 168.74 275.998 168.74C276.409 168.74 276.791 168.637 277.146 168.432C277.501 168.227 277.785 167.928 278 167.536C278.224 167.135 278.336 166.668 278.336 166.136Z" fill="#767676"/>
<path d="M418.417 163.602H416.681L418.151 160.27H419.271L418.417 163.602ZM420.937 163.602H419.201L420.671 160.27H421.791L420.937 163.602ZM430.329 163.07C430.077 162.585 429.727 162.221 429.279 161.978C428.831 161.726 428.313 161.6 427.725 161.6C427.081 161.6 426.507 161.745 426.003 162.034C425.499 162.323 425.103 162.734 424.813 163.266C424.533 163.798 424.393 164.414 424.393 165.114C424.393 165.814 424.533 166.435 424.813 166.976C425.103 167.508 425.499 167.919 426.003 168.208C426.507 168.497 427.081 168.642 427.725 168.642C428.593 168.642 429.298 168.399 429.839 167.914C430.381 167.429 430.712 166.771 430.833 165.94H427.179V164.666H432.541V165.912C432.439 166.668 432.168 167.363 431.729 167.998C431.3 168.633 430.735 169.141 430.035 169.524C429.345 169.897 428.575 170.084 427.725 170.084C426.811 170.084 425.975 169.874 425.219 169.454C424.463 169.025 423.861 168.432 423.413 167.676C422.975 166.92 422.755 166.066 422.755 165.114C422.755 164.162 422.975 163.308 423.413 162.552C423.861 161.796 424.463 161.208 425.219 160.788C425.985 160.359 426.82 160.144 427.725 160.144C428.761 160.144 429.681 160.401 430.483 160.914C431.295 161.418 431.883 162.137 432.247 163.07H430.329ZM434.367 160.27H436.103L434.633 163.602H433.513L434.367 160.27ZM436.887 160.27H438.623L437.153 163.602H436.033L436.887 160.27ZM447.008 162.286V170H445.412V169.09C445.16 169.407 444.828 169.659 444.418 169.846C444.016 170.023 443.587 170.112 443.13 170.112C442.523 170.112 441.977 169.986 441.492 169.734C441.016 169.482 440.638 169.109 440.358 168.614C440.087 168.119 439.952 167.522 439.952 166.822V162.286H441.534V166.584C441.534 167.275 441.706 167.807 442.052 168.18C442.397 168.544 442.868 168.726 443.466 168.726C444.063 168.726 444.534 168.544 444.88 168.18C445.234 167.807 445.412 167.275 445.412 166.584V162.286H447.008ZM450.709 163.406C450.943 163.014 451.251 162.711 451.633 162.496C452.025 162.272 452.487 162.16 453.019 162.16V163.812H452.613C451.988 163.812 451.512 163.971 451.185 164.288C450.868 164.605 450.709 165.156 450.709 165.94V170H449.113V162.286H450.709V163.406ZM461.473 162.286V170H459.877V169.09C459.625 169.407 459.293 169.659 458.883 169.846C458.481 170.023 458.052 170.112 457.595 170.112C456.988 170.112 456.442 169.986 455.957 169.734C455.481 169.482 455.103 169.109 454.823 168.614C454.552 168.119 454.417 167.522 454.417 166.822V162.286H455.999V166.584C455.999 167.275 456.171 167.807 456.517 168.18C456.862 168.544 457.333 168.726 457.931 168.726C458.528 168.726 458.999 168.544 459.345 168.18C459.699 167.807 459.877 167.275 459.877 166.584V162.286H461.473ZM466.378 170.126C465.772 170.126 465.226 170.019 464.74 169.804C464.264 169.58 463.886 169.281 463.606 168.908C463.326 168.525 463.177 168.101 463.158 167.634H464.81C464.838 167.961 464.992 168.236 465.272 168.46C465.562 168.675 465.921 168.782 466.35 168.782C466.798 168.782 467.144 168.698 467.386 168.53C467.638 168.353 467.764 168.129 467.764 167.858C467.764 167.569 467.624 167.354 467.344 167.214C467.074 167.074 466.64 166.92 466.042 166.752C465.464 166.593 464.992 166.439 464.628 166.29C464.264 166.141 463.947 165.912 463.676 165.604C463.415 165.296 463.284 164.89 463.284 164.386C463.284 163.975 463.406 163.602 463.648 163.266C463.891 162.921 464.236 162.65 464.684 162.454C465.142 162.258 465.664 162.16 466.252 162.16C467.13 162.16 467.834 162.384 468.366 162.832C468.908 163.271 469.197 163.873 469.234 164.638H467.638C467.61 164.293 467.47 164.017 467.218 163.812C466.966 163.607 466.626 163.504 466.196 163.504C465.776 163.504 465.454 163.583 465.23 163.742C465.006 163.901 464.894 164.111 464.894 164.372C464.894 164.577 464.969 164.75 465.118 164.89C465.268 165.03 465.45 165.142 465.664 165.226C465.879 165.301 466.196 165.399 466.616 165.52C467.176 165.669 467.634 165.823 467.988 165.982C468.352 166.131 468.665 166.355 468.926 166.654C469.188 166.953 469.323 167.349 469.332 167.844C469.332 168.283 469.211 168.675 468.968 169.02C468.726 169.365 468.38 169.636 467.932 169.832C467.494 170.028 466.976 170.126 466.378 170.126Z" fill="#767676"/>
<path d="M596.389 170.098C595.736 170.098 595.148 169.986 594.625 169.762C594.103 169.529 593.692 169.202 593.393 168.782C593.095 168.362 592.945 167.872 592.945 167.312H594.653C594.691 167.732 594.854 168.077 595.143 168.348C595.442 168.619 595.857 168.754 596.389 168.754C596.94 168.754 597.369 168.623 597.677 168.362C597.985 168.091 598.139 167.746 598.139 167.326C598.139 166.999 598.041 166.733 597.845 166.528C597.659 166.323 597.421 166.164 597.131 166.052C596.851 165.94 596.459 165.819 595.955 165.688C595.321 165.52 594.803 165.352 594.401 165.184C594.009 165.007 593.673 164.736 593.393 164.372C593.113 164.008 592.973 163.523 592.973 162.916C592.973 162.356 593.113 161.866 593.393 161.446C593.673 161.026 594.065 160.704 594.569 160.48C595.073 160.256 595.657 160.144 596.319 160.144C597.262 160.144 598.032 160.382 598.629 160.858C599.236 161.325 599.572 161.969 599.637 162.79H597.873C597.845 162.435 597.677 162.132 597.369 161.88C597.061 161.628 596.655 161.502 596.151 161.502C595.694 161.502 595.321 161.619 595.031 161.852C594.742 162.085 594.597 162.421 594.597 162.86C594.597 163.159 594.686 163.406 594.863 163.602C595.05 163.789 595.283 163.938 595.563 164.05C595.843 164.162 596.226 164.283 596.711 164.414C597.355 164.591 597.878 164.769 598.279 164.946C598.69 165.123 599.035 165.399 599.315 165.772C599.605 166.136 599.749 166.626 599.749 167.242C599.749 167.737 599.614 168.203 599.343 168.642C599.082 169.081 598.695 169.435 598.181 169.706C597.677 169.967 597.08 170.098 596.389 170.098ZM601.101 166.108C601.101 165.333 601.259 164.647 601.577 164.05C601.903 163.453 602.342 162.991 602.893 162.664C603.453 162.328 604.073 162.16 604.755 162.16C605.352 162.16 605.879 162.281 606.337 162.524C606.803 162.767 607.163 163.061 607.415 163.406V162.286H609.025V173.668H607.415V168.88C607.163 169.225 606.799 169.519 606.323 169.762C605.847 170.005 605.305 170.126 604.699 170.126C604.036 170.126 603.429 169.958 602.879 169.622C602.337 169.277 601.903 168.801 601.577 168.194C601.259 167.578 601.101 166.883 601.101 166.108ZM607.415 166.136C607.415 165.604 607.303 165.142 607.079 164.75C606.864 164.358 606.579 164.059 606.225 163.854C605.87 163.649 605.487 163.546 605.077 163.546C604.666 163.546 604.283 163.649 603.929 163.854C603.574 164.05 603.285 164.344 603.061 164.736C602.846 165.119 602.739 165.576 602.739 166.108C602.739 166.64 602.846 167.107 603.061 167.508C603.285 167.909 603.574 168.217 603.929 168.432C604.293 168.637 604.675 168.74 605.077 168.74C605.487 168.74 605.87 168.637 606.225 168.432C606.579 168.227 606.864 167.928 607.079 167.536C607.303 167.135 607.415 166.668 607.415 166.136ZM618.107 162.286V170H616.511V169.09C616.259 169.407 615.927 169.659 615.517 169.846C615.115 170.023 614.686 170.112 614.229 170.112C613.622 170.112 613.076 169.986 612.591 169.734C612.115 169.482 611.737 169.109 611.457 168.614C611.186 168.119 611.051 167.522 611.051 166.822V162.286H612.633V166.584C612.633 167.275 612.805 167.807 613.151 168.18C613.496 168.544 613.967 168.726 614.565 168.726C615.162 168.726 615.633 168.544 615.979 168.18C616.333 167.807 616.511 167.275 616.511 166.584V162.286H618.107ZM619.681 166.108C619.681 165.333 619.839 164.647 620.157 164.05C620.483 163.453 620.922 162.991 621.473 162.664C622.033 162.328 622.649 162.16 623.321 162.16C623.927 162.16 624.455 162.281 624.903 162.524C625.36 162.757 625.724 163.051 625.995 163.406V162.286H627.605V170H625.995V168.852C625.724 169.216 625.355 169.519 624.889 169.762C624.422 170.005 623.89 170.126 623.293 170.126C622.63 170.126 622.023 169.958 621.473 169.622C620.922 169.277 620.483 168.801 620.157 168.194C619.839 167.578 619.681 166.883 619.681 166.108ZM625.995 166.136C625.995 165.604 625.883 165.142 625.659 164.75C625.444 164.358 625.159 164.059 624.805 163.854C624.45 163.649 624.067 163.546 623.657 163.546C623.246 163.546 622.863 163.649 622.509 163.854C622.154 164.05 621.865 164.344 621.641 164.736C621.426 165.119 621.319 165.576 621.319 166.108C621.319 166.64 621.426 167.107 621.641 167.508C621.865 167.909 622.154 168.217 622.509 168.432C622.873 168.637 623.255 168.74 623.657 168.74C624.067 168.74 624.45 168.637 624.805 168.432C625.159 168.227 625.444 167.928 625.659 167.536C625.883 167.135 625.995 166.668 625.995 166.136ZM629.169 166.108C629.169 165.333 629.328 164.647 629.645 164.05C629.972 163.453 630.41 162.991 630.961 162.664C631.521 162.328 632.142 162.16 632.823 162.16C633.327 162.16 633.822 162.272 634.307 162.496C634.802 162.711 635.194 163 635.483 163.364V159.64H637.093V170H635.483V168.838C635.222 169.211 634.858 169.519 634.391 169.762C633.934 170.005 633.406 170.126 632.809 170.126C632.137 170.126 631.521 169.958 630.961 169.622C630.41 169.277 629.972 168.801 629.645 168.194C629.328 167.578 629.169 166.883 629.169 166.108ZM635.483 166.136C635.483 165.604 635.371 165.142 635.147 164.75C634.932 164.358 634.648 164.059 634.293 163.854C633.938 163.649 633.556 163.546 633.145 163.546C632.734 163.546 632.352 163.649 631.997 163.854C631.642 164.05 631.353 164.344 631.129 164.736C630.914 165.119 630.807 165.576 630.807 166.108C630.807 166.64 630.914 167.107 631.129 167.508C631.353 167.909 631.642 168.217 631.997 168.432C632.361 168.637 632.744 168.74 633.145 168.74C633.556 168.74 633.938 168.637 634.293 168.432C634.648 168.227 634.932 167.928 635.147 167.536C635.371 167.135 635.483 166.668 635.483 166.136ZM646.231 163.07C645.979 162.585 645.629 162.221 645.181 161.978C644.733 161.726 644.215 161.6 643.627 161.6C642.983 161.6 642.409 161.745 641.905 162.034C641.401 162.323 641.004 162.734 640.715 163.266C640.435 163.798 640.295 164.414 640.295 165.114C640.295 165.814 640.435 166.435 640.715 166.976C641.004 167.508 641.401 167.919 641.905 168.208C642.409 168.497 642.983 168.642 643.627 168.642C644.495 168.642 645.2 168.399 645.741 167.914C646.282 167.429 646.614 166.771 646.735 165.94H643.081V164.666H648.443V165.912C648.34 166.668 648.07 167.363 647.631 167.998C647.202 168.633 646.637 169.141 645.937 169.524C645.246 169.897 644.476 170.084 643.627 170.084C642.712 170.084 641.877 169.874 641.121 169.454C640.365 169.025 639.763 168.432 639.315 167.676C638.876 166.92 638.657 166.066 638.657 165.114C638.657 164.162 638.876 163.308 639.315 162.552C639.763 161.796 640.365 161.208 641.121 160.788C641.886 160.359 642.722 160.144 643.627 160.144C644.663 160.144 645.582 160.401 646.385 160.914C647.197 161.418 647.785 162.137 648.149 163.07H646.231ZM657.003 162.286V170H655.407V169.09C655.155 169.407 654.824 169.659 654.413 169.846C654.012 170.023 653.583 170.112 653.125 170.112C652.519 170.112 651.973 169.986 651.487 169.734C651.011 169.482 650.633 169.109 650.353 168.614C650.083 168.119 649.947 167.522 649.947 166.822V162.286H651.529V166.584C651.529 167.275 651.702 167.807 652.047 168.18C652.393 168.544 652.864 168.726 653.461 168.726C654.059 168.726 654.53 168.544 654.875 168.18C655.23 167.807 655.407 167.275 655.407 166.584V162.286H657.003ZM660.705 163.406C660.938 163.014 661.246 162.711 661.629 162.496C662.021 162.272 662.483 162.16 663.015 162.16V163.812H662.609C661.984 163.812 661.508 163.971 661.181 164.288C660.864 164.605 660.705 165.156 660.705 165.94V170H659.109V162.286H660.705V163.406ZM671.468 162.286V170H669.872V169.09C669.62 169.407 669.289 169.659 668.878 169.846C668.477 170.023 668.047 170.112 667.59 170.112C666.983 170.112 666.437 169.986 665.952 169.734C665.476 169.482 665.098 169.109 664.818 168.614C664.547 168.119 664.412 167.522 664.412 166.822V162.286H665.994V166.584C665.994 167.275 666.167 167.807 666.512 168.18C666.857 168.544 667.329 168.726 667.926 168.726C668.523 168.726 668.995 168.544 669.34 168.18C669.695 167.807 669.872 167.275 669.872 166.584V162.286H671.468ZM676.374 170.126C675.767 170.126 675.221 170.019 674.736 169.804C674.26 169.58 673.882 169.281 673.602 168.908C673.322 168.525 673.173 168.101 673.154 167.634H674.806C674.834 167.961 674.988 168.236 675.268 168.46C675.557 168.675 675.917 168.782 676.346 168.782C676.794 168.782 677.139 168.698 677.382 168.53C677.634 168.353 677.76 168.129 677.76 167.858C677.76 167.569 677.62 167.354 677.34 167.214C677.069 167.074 676.635 166.92 676.038 166.752C675.459 166.593 674.988 166.439 674.624 166.29C674.26 166.141 673.943 165.912 673.672 165.604C673.411 165.296 673.28 164.89 673.28 164.386C673.28 163.975 673.401 163.602 673.644 163.266C673.887 162.921 674.232 162.65 674.68 162.454C675.137 162.258 675.66 162.16 676.248 162.16C677.125 162.16 677.83 162.384 678.362 162.832C678.903 163.271 679.193 163.873 679.23 164.638H677.634C677.606 164.293 677.466 164.017 677.214 163.812C676.962 163.607 676.621 163.504 676.192 163.504C675.772 163.504 675.45 163.583 675.226 163.742C675.002 163.901 674.89 164.111 674.89 164.372C674.89 164.577 674.965 164.75 675.114 164.89C675.263 165.03 675.445 165.142 675.66 165.226C675.875 165.301 676.192 165.399 676.612 165.52C677.172 165.669 677.629 165.823 677.984 165.982C678.348 166.131 678.661 166.355 678.922 166.654C679.183 166.953 679.319 167.349 679.328 167.844C679.328 168.283 679.207 168.675 678.964 169.02C678.721 169.365 678.376 169.636 677.928 169.832C677.489 170.028 676.971 170.126 676.374 170.126Z" fill="#767676"/>
</svg>
