<svg width="48" height="48" viewBox="0 0 48 48" fill="none" xmlns="http://www.w3.org/2000/svg">
<rect width="48" height="48" rx="8" fill="black"/>
<path d="M31.7986 29.6117L26.1869 24L31.7986 18.3883C32.4045 17.7824 32.4045 16.807 31.7986 16.2012C31.1928 15.5953 30.2174 15.5953 29.6115 16.2012L23.9998 21.8129L18.3881 16.2012C17.7822 15.5953 16.8068 15.5953 16.201 16.2012C15.5951 16.807 15.5951 17.7824 16.201 18.3883L21.8127 24L16.201 29.6117C15.5951 30.2176 15.5951 31.193 16.201 31.7988C16.8068 32.4047 17.7822 32.4047 18.3881 31.7988L23.9998 26.1871L29.6115 31.7988C30.2174 32.4047 31.1928 32.4047 31.7986 31.7988C32.4002 31.193 32.4002 30.2133 31.7986 29.6117Z" fill="white"/>
</svg>
