<svg width="361" height="32" viewBox="0 0 361 32" fill="none" xmlns="http://www.w3.org/2000/svg">
<rect width="32" height="32" rx="16" fill="#F35050"/>
<path d="M13.1776 12.4V10.336H17.0336V22H14.7296V12.4H13.1776Z" fill="#F8F8F8"/>
<path d="M40.688 16.416C40.688 15.328 40.9333 14.352 41.424 13.488C41.9147 12.6133 42.5813 11.9307 43.424 11.44C44.2773 10.9493 45.2213 10.704 46.256 10.704C47.472 10.704 48.5333 10.9973 49.44 11.584C50.3467 12.1707 51.008 13.0027 51.424 14.08H49.68C49.3707 13.408 48.9227 12.8907 48.336 12.528C47.76 12.1653 47.0667 11.984 46.256 11.984C45.4773 11.984 44.7787 12.1653 44.16 12.528C43.5413 12.8907 43.056 13.408 42.704 14.08C42.352 14.7413 42.176 15.52 42.176 16.416C42.176 17.3013 42.352 18.08 42.704 18.752C43.056 19.4133 43.5413 19.9253 44.16 20.288C44.7787 20.6507 45.4773 20.832 46.256 20.832C47.0667 20.832 47.76 20.656 48.336 20.304C48.9227 19.9413 49.3707 19.424 49.68 18.752H51.424C51.008 19.8187 50.3467 20.6453 49.44 21.232C48.5333 21.808 47.472 22.096 46.256 22.096C45.2213 22.096 44.2773 21.856 43.424 21.376C42.5813 20.8853 41.9147 20.208 41.424 19.344C40.9333 18.48 40.688 17.504 40.688 16.416ZM58.6474 22.112C57.6127 22.112 56.6687 21.872 55.8154 21.392C54.962 20.9013 54.2847 20.224 53.7834 19.36C53.2927 18.4853 53.0474 17.504 53.0474 16.416C53.0474 15.328 53.2927 14.352 53.7834 13.488C54.2847 12.6133 54.962 11.936 55.8154 11.456C56.6687 10.9653 57.6127 10.72 58.6474 10.72C59.6927 10.72 60.642 10.9653 61.4954 11.456C62.3487 11.936 63.0207 12.608 63.5114 13.472C64.002 14.336 64.2474 15.3173 64.2474 16.416C64.2474 17.5147 64.002 18.496 63.5114 19.36C63.0207 20.224 62.3487 20.9013 61.4954 21.392C60.642 21.872 59.6927 22.112 58.6474 22.112ZM58.6474 20.848C59.426 20.848 60.1247 20.6667 60.7434 20.304C61.3727 19.9413 61.8634 19.424 62.2154 18.752C62.578 18.08 62.7594 17.3013 62.7594 16.416C62.7594 15.52 62.578 14.7413 62.2154 14.08C61.8634 13.408 61.378 12.8907 60.7594 12.528C60.1407 12.1653 59.4367 11.984 58.6474 11.984C57.858 11.984 57.154 12.1653 56.5354 12.528C55.9167 12.8907 55.426 13.408 55.0634 14.08C54.7114 14.7413 54.5354 15.52 54.5354 16.416C54.5354 17.3013 54.7114 18.08 55.0634 18.752C55.426 19.424 55.9167 19.9413 56.5354 20.304C57.1647 20.6667 57.8687 20.848 58.6474 20.848ZM77.4815 10.928V22H76.0255V13.744L72.3455 22H71.3215L67.6255 13.728V22H66.1695V10.928H67.7375L71.8335 20.08L75.9295 10.928H77.4815ZM87.4068 14.112C87.4068 15.04 87.0868 15.8133 86.4468 16.432C85.8174 17.04 84.8521 17.344 83.5508 17.344H81.4068V22H79.9508V10.848H83.5508C84.8094 10.848 85.7641 11.152 86.4148 11.76C87.0761 12.368 87.4068 13.152 87.4068 14.112ZM83.5508 16.144C84.3614 16.144 84.9588 15.968 85.3428 15.616C85.7268 15.264 85.9188 14.7627 85.9188 14.112C85.9188 12.736 85.1294 12.048 83.5508 12.048H81.4068V16.144H83.5508ZM90.6724 12.032V15.76H94.7364V16.96H90.6724V20.8H95.2164V22H89.2164V10.832H95.2164V12.032H90.6724ZM104.284 10.848V12.032H101.244V22H99.7875V12.032H96.7315V10.848H104.284ZM107.532 10.848V22H106.076V10.848H107.532ZM116.877 10.848V12.032H113.837V22H112.381V12.032H109.325V10.848H116.877ZM120.126 10.848V22H118.67V10.848H120.126ZM131.823 10.848L127.615 22H125.935L121.727 10.848H123.279L126.783 20.464L130.287 10.848H131.823ZM134.876 12.032V15.76H138.94V16.96H134.876V20.8H139.42V22H133.42V10.832H139.42V12.032H134.876ZM152.48 19.52H147.616L146.72 22H145.184L149.216 10.912H150.896L154.912 22H153.376L152.48 19.52ZM152.064 18.336L150.048 12.704L148.032 18.336H152.064ZM165.438 22H163.982L158.126 13.12V22H156.67V10.832H158.126L163.982 19.696V10.832H165.438V22ZM174.512 19.52H169.648L168.752 22H167.215L171.248 10.912H172.928L176.944 22H175.408L174.512 19.52ZM174.096 18.336L172.08 12.704L170.064 18.336H174.096ZM180.157 20.816H184.061V22H178.701V10.848H180.157V20.816ZM193.415 10.848L189.783 17.792V22H188.327V17.792L184.679 10.848H186.295L189.047 16.496L191.799 10.848H193.415ZM198.487 22.112C197.751 22.112 197.089 21.984 196.503 21.728C195.927 21.4613 195.473 21.0987 195.143 20.64C194.812 20.1707 194.641 19.632 194.631 19.024H196.183C196.236 19.5467 196.449 19.9893 196.823 20.352C197.207 20.704 197.761 20.88 198.487 20.88C199.18 20.88 199.724 20.7093 200.119 20.368C200.524 20.016 200.727 19.568 200.727 19.024C200.727 18.5973 200.609 18.2507 200.375 17.984C200.14 17.7173 199.847 17.5147 199.495 17.376C199.143 17.2373 198.668 17.088 198.071 16.928C197.335 16.736 196.743 16.544 196.295 16.352C195.857 16.16 195.479 15.8613 195.159 15.456C194.849 15.04 194.695 14.4853 194.695 13.792C194.695 13.184 194.849 12.6453 195.159 12.176C195.468 11.7067 195.9 11.344 196.455 11.088C197.02 10.832 197.665 10.704 198.391 10.704C199.436 10.704 200.289 10.9653 200.951 11.488C201.623 12.0107 202.001 12.704 202.087 13.568H200.487C200.433 13.1413 200.209 12.768 199.815 12.448C199.42 12.1173 198.897 11.952 198.247 11.952C197.639 11.952 197.143 12.112 196.759 12.432C196.375 12.7413 196.183 13.1787 196.183 13.744C196.183 14.1493 196.295 14.48 196.519 14.736C196.753 14.992 197.036 15.1893 197.367 15.328C197.708 15.456 198.183 15.6053 198.791 15.776C199.527 15.9787 200.119 16.1813 200.567 16.384C201.015 16.576 201.399 16.88 201.719 17.296C202.039 17.7013 202.199 18.256 202.199 18.96C202.199 19.504 202.055 20.016 201.767 20.496C201.479 20.976 201.052 21.3653 200.487 21.664C199.921 21.9627 199.255 22.112 198.487 22.112ZM205.797 10.848V22H204.341V10.848H205.797ZM211.815 22.112C211.079 22.112 210.418 21.984 209.831 21.728C209.255 21.4613 208.802 21.0987 208.471 20.64C208.14 20.1707 207.97 19.632 207.959 19.024H209.511C209.564 19.5467 209.778 19.9893 210.151 20.352C210.535 20.704 211.09 20.88 211.815 20.88C212.508 20.88 213.052 20.7093 213.447 20.368C213.852 20.016 214.055 19.568 214.055 19.024C214.055 18.5973 213.938 18.2507 213.703 17.984C213.468 17.7173 213.175 17.5147 212.823 17.376C212.471 17.2373 211.996 17.088 211.399 16.928C210.663 16.736 210.071 16.544 209.623 16.352C209.186 16.16 208.807 15.8613 208.487 15.456C208.178 15.04 208.023 14.4853 208.023 13.792C208.023 13.184 208.178 12.6453 208.487 12.176C208.796 11.7067 209.228 11.344 209.783 11.088C210.348 10.832 210.994 10.704 211.719 10.704C212.764 10.704 213.618 10.9653 214.279 11.488C214.951 12.0107 215.33 12.704 215.415 13.568H213.815C213.762 13.1413 213.538 12.768 213.143 12.448C212.748 12.1173 212.226 11.952 211.575 11.952C210.967 11.952 210.471 12.112 210.087 12.432C209.703 12.7413 209.511 13.1787 209.511 13.744C209.511 14.1493 209.623 14.48 209.847 14.736C210.082 14.992 210.364 15.1893 210.695 15.328C211.036 15.456 211.511 15.6053 212.119 15.776C212.855 15.9787 213.447 16.1813 213.895 16.384C214.343 16.576 214.727 16.88 215.047 17.296C215.367 17.7013 215.527 18.256 215.527 18.96C215.527 19.504 215.383 20.016 215.095 20.496C214.807 20.976 214.38 21.3653 213.815 21.664C213.25 21.9627 212.583 22.112 211.815 22.112Z" fill="#F35050"/>
<rect x="233" width="32" height="32" rx="16" fill="#DADADC"/>
<path d="M245.458 19.472C246.482 18.6187 247.298 17.9093 247.906 17.344C248.514 16.768 249.021 16.1707 249.426 15.552C249.832 14.9333 250.034 14.3253 250.034 13.728C250.034 13.184 249.906 12.7573 249.65 12.448C249.394 12.1387 249 11.984 248.466 11.984C247.933 11.984 247.522 12.1653 247.234 12.528C246.946 12.88 246.797 13.3653 246.786 13.984H244.61C244.653 12.704 245.032 11.7333 245.746 11.072C246.472 10.4107 247.389 10.08 248.498 10.08C249.714 10.08 250.648 10.4053 251.298 11.056C251.949 11.696 252.274 12.544 252.274 13.6C252.274 14.432 252.05 15.2267 251.602 15.984C251.154 16.7413 250.642 17.4027 250.066 17.968C249.49 18.5227 248.738 19.1947 247.81 19.984H252.53V21.84H244.626V20.176L245.458 19.472Z" fill="#2E303A"/>
<rect x="281" width="32" height="32" rx="16" fill="#DADADC"/>
<path d="M292.591 13.408C292.644 12.3413 293.018 11.52 293.711 10.944C294.415 10.3573 295.338 10.064 296.479 10.064C297.258 10.064 297.924 10.2027 298.479 10.48C299.034 10.7467 299.45 11.1147 299.727 11.584C300.015 12.0427 300.159 12.5653 300.159 13.152C300.159 13.824 299.983 14.3947 299.631 14.864C299.29 15.3227 298.879 15.632 298.399 15.792V15.856C299.018 16.048 299.498 16.3893 299.839 16.88C300.191 17.3707 300.367 18 300.367 18.768C300.367 19.408 300.218 19.9787 299.919 20.48C299.631 20.9813 299.199 21.376 298.623 21.664C298.058 21.9413 297.375 22.08 296.575 22.08C295.37 22.08 294.388 21.776 293.631 21.168C292.874 20.56 292.474 19.664 292.431 18.48H294.607C294.628 19.0027 294.804 19.424 295.135 19.744C295.476 20.0533 295.94 20.208 296.527 20.208C297.071 20.208 297.487 20.0587 297.775 19.76C298.074 19.4507 298.223 19.056 298.223 18.576C298.223 17.936 298.02 17.4773 297.615 17.2C297.21 16.9227 296.58 16.784 295.727 16.784H295.263V14.944H295.727C297.242 14.944 297.999 14.4373 297.999 13.424C297.999 12.9653 297.86 12.608 297.583 12.352C297.316 12.096 296.927 11.968 296.415 11.968C295.914 11.968 295.524 12.1067 295.247 12.384C294.98 12.6507 294.826 12.992 294.783 13.408H292.591Z" fill="#2E303A"/>
<rect x="329" width="32" height="32" rx="16" fill="#DADADC"/>
<path d="M339.963 19.728V17.968L345.195 10.48H347.803V17.776H349.211V19.728H347.803V22H345.563V19.728H339.963ZM345.707 12.88L342.427 17.776H345.707V12.88Z" fill="#2E303A"/>
</svg>
