<svg width="315" height="29" viewBox="0 0 315 29" fill="none" xmlns="http://www.w3.org/2000/svg">
<rect x="0.844238" y="0.675781" width="27.4073" height="27.4073" rx="13.7036" fill="#2E303A"/>
<path d="M12.1306 10.8796V9.11185H15.4332V19.1018H13.4599V10.8796H12.1306Z" fill="#F8F8F8"/>
<path d="M35.6106 13.8932C35.6106 12.9614 35.8252 12.1254 36.2546 11.3854C36.6931 10.6454 37.2824 10.0699 38.0224 9.65878C38.7715 9.23853 39.5892 9.02841 40.4753 9.02841C41.4894 9.02841 42.3893 9.27964 43.175 9.78211C43.9698 10.2754 44.5453 10.9789 44.9016 11.8925H43.0242C42.7776 11.39 42.435 11.0154 41.9965 10.7688C41.5579 10.5221 41.0509 10.3988 40.4753 10.3988C39.845 10.3988 39.2831 10.5404 38.7898 10.8236C38.2965 11.1068 37.9082 11.5133 37.625 12.0432C37.3509 12.5731 37.2139 13.1898 37.2139 13.8932C37.2139 14.5967 37.3509 15.2133 37.625 15.7432C37.9082 16.2731 38.2965 16.6842 38.7898 16.9765C39.2831 17.2597 39.845 17.4013 40.4753 17.4013C41.0509 17.4013 41.5579 17.278 41.9965 17.0313C42.435 16.7847 42.7776 16.4101 43.0242 15.9076H44.9016C44.5453 16.8212 43.9698 17.5247 43.175 18.018C42.3893 18.5113 41.4894 18.758 40.4753 18.758C39.58 18.758 38.7624 18.5524 38.0224 18.1413C37.2824 17.7211 36.6931 17.141 36.2546 16.401C35.8252 15.661 35.6106 14.8251 35.6106 13.8932ZM51.0743 18.7717C50.1881 18.7717 49.3704 18.5662 48.6213 18.155C47.8813 17.7348 47.2921 17.1547 46.8535 16.4147C46.4242 15.6655 46.2095 14.8251 46.2095 13.8932C46.2095 12.9614 46.4242 12.1254 46.8535 11.3854C47.2921 10.6454 47.8813 10.0699 48.6213 9.65878C49.3704 9.23853 50.1881 9.02841 51.0743 9.02841C51.9696 9.02841 52.7872 9.23853 53.5272 9.65878C54.2763 10.0699 54.8656 10.6454 55.295 11.3854C55.7244 12.1254 55.9391 12.9614 55.9391 13.8932C55.9391 14.8251 55.7244 15.6655 55.295 16.4147C54.8656 17.1547 54.2763 17.7348 53.5272 18.155C52.7872 18.5662 51.9696 18.7717 51.0743 18.7717ZM51.0743 17.415C51.7046 17.415 52.2665 17.2734 52.7598 16.9902C53.2531 16.6979 53.6368 16.2868 53.9109 15.7569C54.1941 15.2179 54.3357 14.5967 54.3357 13.8932C54.3357 13.1898 54.1941 12.5731 53.9109 12.0432C53.6368 11.5133 53.2531 11.1068 52.7598 10.8236C52.2665 10.5404 51.7046 10.3988 51.0743 10.3988C50.4439 10.3988 49.882 10.5404 49.3887 10.8236C48.8954 11.1068 48.5071 11.5133 48.2239 12.0432C47.9498 12.5731 47.8128 13.1898 47.8128 13.8932C47.8128 14.5967 47.9498 15.2179 48.2239 15.7569C48.5071 16.2868 48.8954 16.6979 49.3887 16.9902C49.882 17.2734 50.4439 17.415 51.0743 17.415ZM67.5074 9.15174V18.6758H65.9452V12.1528L63.04 18.6758H61.9574L59.0385 12.1528V18.6758H57.4763V9.15174H59.1619L62.5056 16.6202L65.8356 9.15174H67.5074ZM76.2207 11.9884C76.2207 12.4726 76.1065 12.9294 75.8781 13.3588C75.6497 13.7881 75.2843 14.1399 74.7818 14.4139C74.2793 14.6789 73.6353 14.8114 72.8496 14.8114H71.1229V18.6758H69.5607V9.15174H72.8496C73.5804 9.15174 74.1971 9.27964 74.6996 9.53545C75.2112 9.78211 75.5903 10.1201 75.837 10.5495C76.0928 10.9789 76.2207 11.4585 76.2207 11.9884ZM72.8496 13.5369C73.4434 13.5369 73.8865 13.4044 74.1788 13.1395C74.4712 12.8654 74.6173 12.4817 74.6173 11.9884C74.6173 10.9469 74.0281 10.4262 72.8496 10.4262H71.1229V13.5369H72.8496ZM79.2728 10.4125V13.208H82.5617V14.4825H79.2728V17.4013H82.9728V18.6758H77.7106V9.13804H82.9728V10.4125H79.2728ZM91.0499 9.15174V10.4262H88.5148V18.6758H86.9526V10.4262H84.4037V9.15174H91.0499ZM94.1943 9.15174V18.6758H92.6321V9.15174H94.1943ZM102.398 9.15174V10.4262H99.8631V18.6758H98.3009V10.4262H95.752V9.15174H102.398ZM105.543 9.15174V18.6758H103.98V9.15174H105.543ZM115.802 9.15174L112.226 18.6758H110.417L106.826 9.15174H108.498L111.321 17.0725L114.158 9.15174H115.802ZM118.671 10.4125V13.208H121.96V14.4825H118.671V17.4013H122.371V18.6758H117.109V9.13804H122.371V10.4125H118.671ZM133.597 16.7299H129.609L128.924 18.6758H127.293L130.705 9.13804H132.514L135.926 18.6758H134.282L133.597 16.7299ZM133.158 15.4554L131.61 11.0291L130.047 15.4554H133.158ZM145.235 18.6758H143.672L138.972 11.5636V18.6758H137.41V9.13804H138.972L143.672 16.2365V9.13804H145.235V18.6758ZM153.028 16.7299H149.04L148.355 18.6758H146.724L150.136 9.13804H151.945L155.358 18.6758H153.713L153.028 16.7299ZM152.589 15.4554L151.041 11.0291L149.479 15.4554H152.589ZM158.403 17.415H161.624V18.6758H156.841V9.15174H158.403V17.415ZM169.988 9.15174L166.836 15.2225V18.6758H165.274V15.2225L162.108 9.15174H163.848L166.055 13.8247L168.261 9.15174H169.988ZM174.365 18.7717C173.726 18.7717 173.15 18.6621 172.639 18.4428C172.127 18.2144 171.725 17.8947 171.433 17.4836C171.141 17.0725 170.994 16.5928 170.994 16.0447H172.666C172.703 16.4558 172.863 16.7938 173.146 17.0588C173.438 17.3237 173.845 17.4562 174.365 17.4562C174.904 17.4562 175.325 17.3283 175.626 17.0725C175.928 16.8075 176.078 16.4695 176.078 16.0584C176.078 15.7386 175.982 15.4783 175.791 15.2773C175.608 15.0763 175.375 14.921 175.092 14.8114C174.818 14.7017 174.434 14.583 173.941 14.4551C173.319 14.2906 172.812 14.1262 172.42 13.9617C172.036 13.7881 171.707 13.5232 171.433 13.1669C171.159 12.8106 171.022 12.3356 171.022 11.7417C171.022 11.1936 171.159 10.714 171.433 10.3029C171.707 9.89174 172.091 9.57656 172.584 9.3573C173.077 9.13804 173.648 9.02841 174.297 9.02841C175.22 9.02841 175.973 9.26137 176.558 9.7273C177.152 10.1841 177.481 10.8145 177.545 11.6184H175.818C175.791 11.2712 175.626 10.9743 175.325 10.7277C175.023 10.481 174.626 10.3577 174.133 10.3577C173.685 10.3577 173.319 10.4719 173.036 10.7003C172.753 10.9287 172.611 11.2575 172.611 11.6869C172.611 11.9793 172.698 12.2214 172.872 12.4132C173.054 12.5959 173.283 12.7421 173.557 12.8517C173.831 12.9614 174.206 13.0801 174.681 13.208C175.311 13.3816 175.823 13.5552 176.215 13.7288C176.617 13.9023 176.955 14.1718 177.23 14.5373C177.513 14.8936 177.654 15.3732 177.654 15.9762C177.654 16.4604 177.522 16.9171 177.257 17.3465C177.001 17.7759 176.622 18.1231 176.12 18.388C175.626 18.6438 175.042 18.7717 174.365 18.7717ZM181.06 9.15174V18.6758H179.498V9.15174H181.06ZM186.249 18.7717C185.61 18.7717 185.034 18.6621 184.522 18.4428C184.011 18.2144 183.609 17.8947 183.317 17.4836C183.024 17.0725 182.878 16.5928 182.878 16.0447H184.55C184.586 16.4558 184.746 16.7938 185.029 17.0588C185.322 17.3237 185.728 17.4562 186.249 17.4562C186.788 17.4562 187.208 17.3283 187.51 17.0725C187.811 16.8075 187.962 16.4695 187.962 16.0584C187.962 15.7386 187.866 15.4783 187.674 15.2773C187.492 15.0763 187.259 14.921 186.975 14.8114C186.701 14.7017 186.318 14.583 185.824 14.4551C185.203 14.2906 184.696 14.1262 184.303 13.9617C183.919 13.7881 183.591 13.5232 183.317 13.1669C183.042 12.8106 182.905 12.3356 182.905 11.7417C182.905 11.1936 183.042 10.714 183.317 10.3029C183.591 9.89174 183.974 9.57656 184.468 9.3573C184.961 9.13804 185.532 9.02841 186.181 9.02841C187.103 9.02841 187.857 9.26137 188.442 9.7273C189.036 10.1841 189.364 10.8145 189.428 11.6184H187.702C187.674 11.2712 187.51 10.9743 187.208 10.7277C186.907 10.481 186.509 10.3577 186.016 10.3577C185.568 10.3577 185.203 10.4719 184.92 10.7003C184.637 10.9287 184.495 11.2575 184.495 11.6869C184.495 11.9793 184.582 12.2214 184.755 12.4132C184.938 12.5959 185.167 12.7421 185.441 12.8517C185.715 12.9614 186.089 13.0801 186.564 13.208C187.195 13.3816 187.706 13.5552 188.099 13.7288C188.501 13.9023 188.839 14.1718 189.113 14.5373C189.396 14.8936 189.538 15.3732 189.538 15.9762C189.538 16.4604 189.406 16.9171 189.141 17.3465C188.885 17.7759 188.506 18.1231 188.003 18.388C187.51 18.6438 186.925 18.7717 186.249 18.7717Z" fill="#2E303A"/>
<rect x="204.807" y="0.675781" width="27.4073" height="27.4073" rx="13.7036" fill="#DADADC"/>
<path d="M215.477 16.9366C216.354 16.2058 217.053 15.5982 217.574 15.114C218.095 14.6207 218.529 14.1091 218.876 13.5792C219.223 13.0494 219.397 12.5286 219.397 12.017C219.397 11.5511 219.287 11.1857 219.068 10.9207C218.849 10.6558 218.511 10.5233 218.054 10.5233C217.597 10.5233 217.245 10.6786 216.999 10.9892C216.752 11.2907 216.624 11.7064 216.615 12.2363H214.751C214.788 11.14 215.112 10.3086 215.724 9.74221C216.345 9.1758 217.131 8.89259 218.081 8.89259C219.123 8.89259 219.922 9.17123 220.479 9.72851C221.037 10.2767 221.315 11.0029 221.315 11.9074C221.315 12.62 221.123 13.3006 220.74 13.9492C220.356 14.5979 219.917 15.1643 219.424 15.6485C218.931 16.1235 218.287 16.6991 217.492 17.3751H221.534V18.9648H214.765V17.5396L215.477 16.9366Z" fill="#2E303A"/>
<rect x="245.918" y="0.675781" width="27.4073" height="27.4073" rx="13.7036" fill="#DADADC"/>
<path d="M255.845 11.7429C255.891 10.8294 256.21 10.1259 256.804 9.63258C257.407 9.13012 258.197 8.87888 259.175 8.87888C259.842 8.87888 260.413 8.99765 260.888 9.23518C261.363 9.46357 261.719 9.77876 261.957 10.1807C262.203 10.5736 262.327 11.0212 262.327 11.5237C262.327 12.0992 262.176 12.588 261.875 12.99C261.582 13.3828 261.23 13.6478 260.819 13.7848V13.8396C261.349 14.004 261.76 14.2964 262.053 14.7166C262.354 15.1369 262.505 15.6759 262.505 16.3337C262.505 16.8818 262.377 17.3706 262.121 17.8C261.875 18.2293 261.505 18.5674 261.011 18.814C260.527 19.0516 259.942 19.1703 259.257 19.1703C258.225 19.1703 257.384 18.91 256.736 18.3892C256.087 17.8685 255.744 17.1011 255.708 16.087H257.572C257.59 16.5347 257.741 16.8955 258.024 17.1696C258.316 17.4345 258.714 17.567 259.216 17.567C259.682 17.567 260.038 17.4391 260.285 17.1833C260.541 16.9184 260.669 16.5803 260.669 16.1692C260.669 15.6211 260.495 15.2282 260.148 14.9907C259.801 14.7532 259.262 14.6344 258.531 14.6344H258.133V13.0585H258.531C259.828 13.0585 260.477 12.6245 260.477 11.7567C260.477 11.3638 260.358 11.0578 260.12 10.8385C259.892 10.6192 259.559 10.5096 259.12 10.5096C258.691 10.5096 258.357 10.6284 258.12 10.8659C257.891 11.0943 257.759 11.3867 257.722 11.7429H255.845Z" fill="#2E303A"/>
<rect x="287.029" y="0.675781" width="27.4073" height="27.4073" rx="13.7036" fill="#DADADC"/>
<path d="M296.418 17.1559V15.6485L300.9 9.23518H303.133V15.484H304.339V17.1559H303.133V19.1018H301.215V17.1559H296.418ZM301.338 11.2907L298.529 15.484H301.338V11.2907Z" fill="#2E303A"/>
</svg>
