<svg width="294" height="26" viewBox="0 0 294 26" fill="none" xmlns="http://www.w3.org/2000/svg">
<rect width="26" height="26" rx="13" fill="#DADADC"/>
<path d="M10.7068 10.45V8.773H13.8398V18.25H11.9678V10.45H10.7068Z" fill="#2E303A"/>
<rect x="32.5" width="26" height="26" rx="13" fill="#2E303A"/>
<path d="M42.6223 16.196C43.4543 15.5027 44.1173 14.9263 44.6113 14.467C45.1053 13.999 45.517 13.5137 45.8463 13.011C46.1757 12.5083 46.3403 12.0143 46.3403 11.529C46.3403 11.087 46.2363 10.7403 46.0283 10.489C45.8203 10.2377 45.4997 10.112 45.0663 10.112C44.633 10.112 44.2993 10.2593 44.0653 10.554C43.8313 10.84 43.71 11.2343 43.7013 11.737H41.9333C41.968 10.697 42.2757 9.90833 42.8563 9.371C43.4457 8.83367 44.191 8.565 45.0923 8.565C46.0803 8.565 46.8387 8.82933 47.3673 9.358C47.896 9.878 48.1603 10.567 48.1603 11.425C48.1603 12.101 47.9783 12.7467 47.6143 13.362C47.2503 13.9773 46.8343 14.5147 46.3663 14.974C45.8983 15.4247 45.2873 15.9707 44.5333 16.612H48.3683V18.12H41.9463V16.768L42.6223 16.196Z" fill="#F8F8F8"/>
<path d="M68.926 8.965C69.888 8.965 70.7287 9.15133 71.448 9.524C72.176 9.888 72.735 10.4167 73.125 11.11C73.5237 11.7947 73.723 12.5963 73.723 13.515C73.723 14.4337 73.5237 15.231 73.125 15.907C72.735 16.583 72.176 17.103 71.448 17.467C70.7287 17.8223 69.888 18 68.926 18H65.975V8.965H68.926ZM68.926 16.791C69.9833 16.791 70.7937 16.505 71.357 15.933C71.9203 15.361 72.202 14.555 72.202 13.515C72.202 12.4663 71.9203 11.6473 71.357 11.058C70.7937 10.4687 69.9833 10.174 68.926 10.174H67.457V16.791H68.926ZM76.6738 10.161V12.813H79.7938V14.022H76.6738V16.791H80.1838V18H75.1918V8.952H80.1838V10.161H76.6738ZM87.3262 8.965V10.174H83.4912V12.839H86.4812V14.048H83.4912V18H82.0092V8.965H87.3262ZM90.1816 8.965V18H88.6996V8.965H90.1816ZM99.5503 18H98.0683L93.6093 11.253V18H92.1273V8.952H93.6093L98.0683 15.686V8.952H99.5503V18ZM102.978 10.161V12.813H106.098V14.022H102.978V16.791H106.488V18H101.496V8.952H106.488V10.161H102.978ZM113.173 8.965V18H111.691V8.965H113.173ZM122.542 18H121.06L116.601 11.253V18H115.119V8.952H116.601L121.06 15.686V8.952H122.542V18ZM129.805 8.965V10.174H125.97V12.839H128.96V14.048H125.97V18H124.488V8.965H129.805ZM135.299 18.091C134.458 18.091 133.683 17.896 132.972 17.506C132.27 17.1073 131.711 16.557 131.295 15.855C130.888 15.1443 130.684 14.347 130.684 13.463C130.684 12.579 130.888 11.786 131.295 11.084C131.711 10.382 132.27 9.836 132.972 9.446C133.683 9.04733 134.458 8.848 135.299 8.848C136.148 8.848 136.924 9.04733 137.626 9.446C138.337 9.836 138.896 10.382 139.303 11.084C139.71 11.786 139.914 12.579 139.914 13.463C139.914 14.347 139.71 15.1443 139.303 15.855C138.896 16.557 138.337 17.1073 137.626 17.506C136.924 17.896 136.148 18.091 135.299 18.091ZM135.299 16.804C135.897 16.804 136.43 16.6697 136.898 16.401C137.366 16.1237 137.73 15.7337 137.99 15.231C138.259 14.7197 138.393 14.1303 138.393 13.463C138.393 12.7957 138.259 12.2107 137.99 11.708C137.73 11.2053 137.366 10.8197 136.898 10.551C136.43 10.2823 135.897 10.148 135.299 10.148C134.701 10.148 134.168 10.2823 133.7 10.551C133.232 10.8197 132.864 11.2053 132.595 11.708C132.335 12.2107 132.205 12.7957 132.205 13.463C132.205 14.1303 132.335 14.7197 132.595 15.231C132.864 15.7337 133.232 16.1237 133.7 16.401C134.168 16.6697 134.701 16.804 135.299 16.804ZM146.065 18L143.985 14.386H142.854V18H141.372V8.965H144.492C145.186 8.965 145.771 9.08633 146.247 9.329C146.733 9.57167 147.092 9.89667 147.326 10.304C147.569 10.7113 147.69 11.1663 147.69 11.669C147.69 12.2583 147.517 12.7957 147.17 13.281C146.832 13.7577 146.308 14.0827 145.597 14.256L147.833 18H146.065ZM142.854 13.203H144.492C145.047 13.203 145.463 13.0643 145.74 12.787C146.026 12.5097 146.169 12.137 146.169 11.669C146.169 11.201 146.031 10.837 145.753 10.577C145.476 10.3083 145.056 10.174 144.492 10.174H142.854V13.203ZM159.102 8.965V18H157.62V11.812L154.864 18H153.837L151.068 11.812V18H149.586V8.965H151.185L154.357 16.05L157.516 8.965H159.102ZM166.497 16.154H162.714L162.064 18H160.517L163.754 8.952H165.47L168.707 18H167.147L166.497 16.154ZM166.081 14.945L164.612 10.746L163.13 14.945H166.081ZM175.952 8.965V10.174H173.547V18H172.065V10.174H169.647V8.965H175.952ZM178.935 8.965V18H177.453V8.965H178.935ZM185.001 18.091C184.161 18.091 183.385 17.896 182.674 17.506C181.972 17.1073 181.413 16.557 180.997 15.855C180.59 15.1443 180.386 14.347 180.386 13.463C180.386 12.579 180.59 11.786 180.997 11.084C181.413 10.382 181.972 9.836 182.674 9.446C183.385 9.04733 184.161 8.848 185.001 8.848C185.851 8.848 186.626 9.04733 187.328 9.446C188.039 9.836 188.598 10.382 189.005 11.084C189.413 11.786 189.616 12.579 189.616 13.463C189.616 14.347 189.413 15.1443 189.005 15.855C188.598 16.557 188.039 17.1073 187.328 17.506C186.626 17.896 185.851 18.091 185.001 18.091ZM185.001 16.804C185.599 16.804 186.132 16.6697 186.6 16.401C187.068 16.1237 187.432 15.7337 187.692 15.231C187.961 14.7197 188.095 14.1303 188.095 13.463C188.095 12.7957 187.961 12.2107 187.692 11.708C187.432 11.2053 187.068 10.8197 186.6 10.551C186.132 10.2823 185.599 10.148 185.001 10.148C184.403 10.148 183.87 10.2823 183.402 10.551C182.934 10.8197 182.566 11.2053 182.297 11.708C182.037 12.2107 181.907 12.7957 181.907 13.463C181.907 14.1303 182.037 14.7197 182.297 15.231C182.566 15.7337 182.934 16.1237 183.402 16.401C183.87 16.6697 184.403 16.804 185.001 16.804ZM198.498 18H197.016L192.557 11.253V18H191.075V8.952H192.557L197.016 15.686V8.952H198.498V18Z" fill="#2E303A"/>
<rect x="213" width="26" height="26" rx="13" fill="#DADADC"/>
<path d="M222.418 11.269C222.461 10.4023 222.764 9.735 223.328 9.267C223.9 8.79033 224.649 8.552 225.577 8.552C226.209 8.552 226.751 8.66467 227.202 8.89C227.652 9.10667 227.99 9.40567 228.216 9.787C228.45 10.1597 228.567 10.5843 228.567 11.061C228.567 11.607 228.424 12.0707 228.138 12.452C227.86 12.8247 227.527 13.076 227.137 13.206V13.258C227.639 13.414 228.029 13.6913 228.307 14.09C228.593 14.4887 228.736 15 228.736 15.624C228.736 16.144 228.614 16.6077 228.372 17.015C228.138 17.4223 227.787 17.743 227.319 17.977C226.859 18.2023 226.305 18.315 225.655 18.315C224.675 18.315 223.878 18.068 223.263 17.574C222.647 17.08 222.322 16.352 222.288 15.39H224.056C224.073 15.8147 224.216 16.157 224.485 16.417C224.762 16.6683 225.139 16.794 225.616 16.794C226.058 16.794 226.396 16.6727 226.63 16.43C226.872 16.1787 226.994 15.858 226.994 15.468C226.994 14.948 226.829 14.5753 226.5 14.35C226.17 14.1247 225.659 14.012 224.966 14.012H224.589V12.517H224.966C226.196 12.517 226.812 12.1053 226.812 11.282C226.812 10.9093 226.699 10.619 226.474 10.411C226.257 10.203 225.941 10.099 225.525 10.099C225.117 10.099 224.801 10.2117 224.576 10.437C224.359 10.6537 224.233 10.931 224.199 11.269H222.418Z" fill="#2E303A"/>
<rect x="252" width="26" height="26" rx="13" fill="#DADADC"/>
<path d="M260.907 16.404V14.974L265.158 8.89H267.277V14.818H268.421V16.404H267.277V18.25H265.457V16.404H260.907ZM265.574 10.84L262.909 14.818H265.574V10.84Z" fill="#2E303A"/>
</svg>
