<svg width="294" height="26" viewBox="0 0 294 26" fill="none" xmlns="http://www.w3.org/2000/svg">
<rect width="26" height="26" rx="13" fill="#DADADC"/>
<path d="M10.7068 10.45V8.773H13.8398V18.25H11.9678V10.45H10.7068Z" fill="#2E303A"/>
<rect x="32.5" width="26" height="26" rx="13" fill="#2E303A"/>
<path d="M42.6223 16.196C43.4543 15.5027 44.1173 14.9263 44.6113 14.467C45.1053 13.999 45.517 13.5137 45.8463 13.011C46.1757 12.5083 46.3403 12.0143 46.3403 11.529C46.3403 11.087 46.2363 10.7403 46.0283 10.489C45.8203 10.2377 45.4997 10.112 45.0663 10.112C44.633 10.112 44.2993 10.2593 44.0653 10.554C43.8313 10.84 43.71 11.2343 43.7013 11.737H41.9333C41.968 10.697 42.2757 9.90833 42.8563 9.371C43.4457 8.83367 44.191 8.565 45.0923 8.565C46.0803 8.565 46.8387 8.82933 47.3673 9.358C47.896 9.878 48.1603 10.567 48.1603 11.425C48.1603 12.101 47.9783 12.7467 47.6143 13.362C47.2503 13.9773 46.8343 14.5147 46.3663 14.974C45.8983 15.4247 45.2873 15.9707 44.5333 16.612H48.3683V18.12H41.9463V16.768L42.6223 16.196Z" fill="#F8F8F8"/>
<path d="M68.926 8.965C69.888 8.965 70.7287 9.15133 71.448 9.524C72.176 9.888 72.735 10.4167 73.125 11.11C73.5237 11.7947 73.723 12.5963 73.723 13.515C73.723 14.4337 73.5237 15.231 73.125 15.907C72.735 16.583 72.176 17.103 71.448 17.467C70.7287 17.8223 69.888 18 68.926 18H65.975V8.965H68.926ZM68.926 16.791C69.9833 16.791 70.7937 16.505 71.357 15.933C71.9203 15.361 72.202 14.555 72.202 13.515C72.202 12.4663 71.9203 11.6473 71.357 11.058C70.7937 10.4687 69.9833 10.174 68.926 10.174H67.457V16.791H68.926ZM76.6738 10.161V12.813H79.7938V14.022H76.6738V16.791H80.1838V18H75.1918V8.952H80.1838V10.161H76.6738ZM87.3262 8.965V10.174H83.4912V12.839H86.4812V14.048H83.4912V18H82.0092V8.965H87.3262ZM90.1816 8.965V18H88.6996V8.965H90.1816ZM99.5503 18H98.0683L93.6093 11.253V18H92.1273V8.952H93.6093L98.0683 15.686V8.952H99.5503V18ZM102.978 10.161V12.813H106.098V14.022H102.978V16.791H106.488V18H101.496V8.952H106.488V10.161H102.978ZM117.528 8.965V10.174H115.123V18H113.641V10.174H111.223V8.965H117.528ZM126.244 8.965V18H124.762V14.048H120.511V18H119.029V8.965H120.511V12.839H124.762V8.965H126.244ZM129.677 10.161V12.813H132.797V14.022H129.677V16.791H133.187V18H128.195V8.952H133.187V10.161H129.677ZM144.707 11.656C144.707 12.1153 144.599 12.5487 144.382 12.956C144.165 13.3633 143.819 13.697 143.342 13.957C142.865 14.2083 142.254 14.334 141.509 14.334H139.871V18H138.389V8.965H141.509C142.202 8.965 142.787 9.08633 143.264 9.329C143.749 9.563 144.109 9.88367 144.343 10.291C144.586 10.6983 144.707 11.1533 144.707 11.656ZM141.509 13.125C142.072 13.125 142.493 12.9993 142.77 12.748C143.047 12.488 143.186 12.124 143.186 11.656C143.186 10.668 142.627 10.174 141.509 10.174H139.871V13.125H141.509ZM150.814 18L148.734 14.386H147.603V18H146.121V8.965H149.241C149.934 8.965 150.519 9.08633 150.996 9.329C151.481 9.57167 151.841 9.89667 152.075 10.304C152.317 10.7113 152.439 11.1663 152.439 11.669C152.439 12.2583 152.265 12.7957 151.919 13.281C151.581 13.7577 151.056 14.0827 150.346 14.256L152.582 18H150.814ZM147.603 13.203H149.241C149.795 13.203 150.211 13.0643 150.489 12.787C150.775 12.5097 150.918 12.137 150.918 11.669C150.918 11.201 150.779 10.837 150.502 10.577C150.224 10.3083 149.804 10.174 149.241 10.174H147.603V13.203ZM158.455 18.091C157.615 18.091 156.839 17.896 156.128 17.506C155.426 17.1073 154.867 16.557 154.451 15.855C154.044 15.1443 153.84 14.347 153.84 13.463C153.84 12.579 154.044 11.786 154.451 11.084C154.867 10.382 155.426 9.836 156.128 9.446C156.839 9.04733 157.615 8.848 158.455 8.848C159.305 8.848 160.08 9.04733 160.782 9.446C161.493 9.836 162.052 10.382 162.459 11.084C162.867 11.786 163.07 12.579 163.07 13.463C163.07 14.347 162.867 15.1443 162.459 15.855C162.052 16.557 161.493 17.1073 160.782 17.506C160.08 17.896 159.305 18.091 158.455 18.091ZM158.455 16.804C159.053 16.804 159.586 16.6697 160.054 16.401C160.522 16.1237 160.886 15.7337 161.146 15.231C161.415 14.7197 161.549 14.1303 161.549 13.463C161.549 12.7957 161.415 12.2107 161.146 11.708C160.886 11.2053 160.522 10.8197 160.054 10.551C159.586 10.2823 159.053 10.148 158.455 10.148C157.857 10.148 157.324 10.2823 156.856 10.551C156.388 10.8197 156.02 11.2053 155.751 11.708C155.491 12.2107 155.361 12.7957 155.361 13.463C155.361 14.1303 155.491 14.7197 155.751 15.231C156.02 15.7337 156.388 16.1237 156.856 16.401C157.324 16.6697 157.857 16.804 158.455 16.804ZM169.365 13.359C169.85 13.4457 170.262 13.7013 170.6 14.126C170.938 14.5507 171.107 15.0317 171.107 15.569C171.107 16.0283 170.985 16.4443 170.743 16.817C170.509 17.181 170.166 17.4713 169.716 17.688C169.265 17.896 168.741 18 168.143 18H164.529V8.965H167.974C168.589 8.965 169.118 9.069 169.56 9.277C170.002 9.485 170.335 9.76667 170.561 10.122C170.786 10.4687 170.899 10.8587 170.899 11.292C170.899 11.812 170.76 12.2453 170.483 12.592C170.205 12.9387 169.833 13.1943 169.365 13.359ZM166.011 12.761H167.844C168.329 12.761 168.706 12.6527 168.975 12.436C169.252 12.2107 169.391 11.89 169.391 11.474C169.391 11.0667 169.252 10.7503 168.975 10.525C168.706 10.291 168.329 10.174 167.844 10.174H166.011V12.761ZM168.013 16.791C168.515 16.791 168.91 16.6697 169.196 16.427C169.482 16.1843 169.625 15.8463 169.625 15.413C169.625 14.971 169.473 14.62 169.17 14.36C168.866 14.1 168.463 13.97 167.961 13.97H166.011V16.791H168.013ZM174.199 16.804H177.254V18H172.717V8.965H174.199V16.804ZM179.976 10.161V12.813H183.096V14.022H179.976V16.791H183.486V18H178.494V8.952H183.486V10.161H179.976ZM194.827 8.965V18H193.345V11.812L190.589 18H189.562L186.793 11.812V18H185.311V8.965H186.91L190.082 16.05L193.241 8.965H194.827Z" fill="#2E303A"/>
<rect x="209" width="26" height="26" rx="13" fill="#DADADC"/>
<path d="M218.418 11.269C218.461 10.4023 218.764 9.735 219.328 9.267C219.9 8.79033 220.649 8.552 221.577 8.552C222.209 8.552 222.751 8.66467 223.202 8.89C223.652 9.10667 223.99 9.40567 224.216 9.787C224.45 10.1597 224.567 10.5843 224.567 11.061C224.567 11.607 224.424 12.0707 224.138 12.452C223.86 12.8247 223.527 13.076 223.137 13.206V13.258C223.639 13.414 224.029 13.6913 224.307 14.09C224.593 14.4887 224.736 15 224.736 15.624C224.736 16.144 224.614 16.6077 224.372 17.015C224.138 17.4223 223.787 17.743 223.319 17.977C222.859 18.2023 222.305 18.315 221.655 18.315C220.675 18.315 219.878 18.068 219.263 17.574C218.647 17.08 218.322 16.352 218.288 15.39H220.056C220.073 15.8147 220.216 16.157 220.485 16.417C220.762 16.6683 221.139 16.794 221.616 16.794C222.058 16.794 222.396 16.6727 222.63 16.43C222.872 16.1787 222.994 15.858 222.994 15.468C222.994 14.948 222.829 14.5753 222.5 14.35C222.17 14.1247 221.659 14.012 220.966 14.012H220.589V12.517H220.966C222.196 12.517 222.812 12.1053 222.812 11.282C222.812 10.9093 222.699 10.619 222.474 10.411C222.257 10.203 221.941 10.099 221.525 10.099C221.117 10.099 220.801 10.2117 220.576 10.437C220.359 10.6537 220.233 10.931 220.199 11.269H218.418Z" fill="#2E303A"/>
<rect x="248" width="26" height="26" rx="13" fill="#DADADC"/>
<path d="M256.907 16.404V14.974L261.158 8.89H263.277V14.818H264.421V16.404H263.277V18.25H261.457V16.404H256.907ZM261.574 10.84L258.909 14.818H261.574V10.84Z" fill="#2E303A"/>
</svg>
