<svg width="294" height="26" viewBox="0 0 294 26" fill="none" xmlns="http://www.w3.org/2000/svg">
<rect width="26" height="26" rx="13" fill="#DADADC"/>
<path d="M10.7068 10.45V8.773H13.8398V18.25H11.9678V10.45H10.7068Z" fill="#2E303A"/>
<rect x="39" width="26" height="26" rx="13" fill="#2E303A"/>
<path d="M49.1223 16.196C49.9543 15.5027 50.6173 14.9263 51.1113 14.467C51.6053 13.999 52.017 13.5137 52.3463 13.011C52.6757 12.5083 52.8403 12.0143 52.8403 11.529C52.8403 11.087 52.7363 10.7403 52.5283 10.489C52.3203 10.2377 51.9997 10.112 51.5663 10.112C51.133 10.112 50.7993 10.2593 50.5653 10.554C50.3313 10.84 50.21 11.2343 50.2013 11.737H48.4333C48.468 10.697 48.7757 9.90833 49.3563 9.371C49.9457 8.83367 50.691 8.565 51.5923 8.565C52.5803 8.565 53.3387 8.82933 53.8673 9.358C54.396 9.878 54.6603 10.567 54.6603 11.425C54.6603 12.101 54.4783 12.7467 54.1143 13.362C53.7503 13.9773 53.3343 14.5147 52.8663 14.974C52.3983 15.4247 51.7873 15.9707 51.0333 16.612H54.8683V18.12H48.4463V16.768L49.1223 16.196Z" fill="#F8F8F8"/>
<path d="M75.426 8.965C76.388 8.965 77.2287 9.15133 77.948 9.524C78.676 9.888 79.235 10.4167 79.625 11.11C80.0237 11.7947 80.223 12.5963 80.223 13.515C80.223 14.4337 80.0237 15.231 79.625 15.907C79.235 16.583 78.676 17.103 77.948 17.467C77.2287 17.8223 76.388 18 75.426 18H72.475V8.965H75.426ZM75.426 16.791C76.4833 16.791 77.2937 16.505 77.857 15.933C78.4203 15.361 78.702 14.555 78.702 13.515C78.702 12.4663 78.4203 11.6473 77.857 11.058C77.2937 10.4687 76.4833 10.174 75.426 10.174H73.957V16.791H75.426ZM83.1738 10.161V12.813H86.2938V14.022H83.1738V16.791H86.6838V18H81.6918V8.952H86.6838V10.161H83.1738ZM93.8262 8.965V10.174H89.9912V12.839H92.9812V14.048H89.9912V18H88.5092V8.965H93.8262ZM96.6816 8.965V18H95.1996V8.965H96.6816ZM106.05 18H104.568L100.109 11.253V18H98.6273V8.952H100.109L104.568 15.686V8.952H106.05V18ZM109.478 10.161V12.813H112.598V14.022H109.478V16.791H112.988V18H107.996V8.952H112.988V10.161H109.478ZM124.028 8.965V10.174H121.623V18H120.141V10.174H117.723V8.965H124.028ZM132.744 8.965V18H131.262V14.048H127.011V18H125.529V8.965H127.011V12.839H131.262V8.965H132.744ZM136.177 10.161V12.813H139.297V14.022H136.177V16.791H139.687V18H134.695V8.952H139.687V10.161H136.177ZM151.207 11.656C151.207 12.1153 151.099 12.5487 150.882 12.956C150.665 13.3633 150.319 13.697 149.842 13.957C149.365 14.2083 148.754 14.334 148.009 14.334H146.371V18H144.889V8.965H148.009C148.702 8.965 149.287 9.08633 149.764 9.329C150.249 9.563 150.609 9.88367 150.843 10.291C151.086 10.6983 151.207 11.1533 151.207 11.656ZM148.009 13.125C148.572 13.125 148.993 12.9993 149.27 12.748C149.547 12.488 149.686 12.124 149.686 11.656C149.686 10.668 149.127 10.174 148.009 10.174H146.371V13.125H148.009ZM157.314 18L155.234 14.386H154.103V18H152.621V8.965H155.741C156.434 8.965 157.019 9.08633 157.496 9.329C157.981 9.57167 158.341 9.89667 158.575 10.304C158.817 10.7113 158.939 11.1663 158.939 11.669C158.939 12.2583 158.765 12.7957 158.419 13.281C158.081 13.7577 157.556 14.0827 156.846 14.256L159.082 18H157.314ZM154.103 13.203H155.741C156.295 13.203 156.711 13.0643 156.989 12.787C157.275 12.5097 157.418 12.137 157.418 11.669C157.418 11.201 157.279 10.837 157.002 10.577C156.724 10.3083 156.304 10.174 155.741 10.174H154.103V13.203ZM164.955 18.091C164.115 18.091 163.339 17.896 162.628 17.506C161.926 17.1073 161.367 16.557 160.951 15.855C160.544 15.1443 160.34 14.347 160.34 13.463C160.34 12.579 160.544 11.786 160.951 11.084C161.367 10.382 161.926 9.836 162.628 9.446C163.339 9.04733 164.115 8.848 164.955 8.848C165.805 8.848 166.58 9.04733 167.282 9.446C167.993 9.836 168.552 10.382 168.959 11.084C169.367 11.786 169.57 12.579 169.57 13.463C169.57 14.347 169.367 15.1443 168.959 15.855C168.552 16.557 167.993 17.1073 167.282 17.506C166.58 17.896 165.805 18.091 164.955 18.091ZM164.955 16.804C165.553 16.804 166.086 16.6697 166.554 16.401C167.022 16.1237 167.386 15.7337 167.646 15.231C167.915 14.7197 168.049 14.1303 168.049 13.463C168.049 12.7957 167.915 12.2107 167.646 11.708C167.386 11.2053 167.022 10.8197 166.554 10.551C166.086 10.2823 165.553 10.148 164.955 10.148C164.357 10.148 163.824 10.2823 163.356 10.551C162.888 10.8197 162.52 11.2053 162.251 11.708C161.991 12.2107 161.861 12.7957 161.861 13.463C161.861 14.1303 161.991 14.7197 162.251 15.231C162.52 15.7337 162.888 16.1237 163.356 16.401C163.824 16.6697 164.357 16.804 164.955 16.804ZM175.865 13.359C176.35 13.4457 176.762 13.7013 177.1 14.126C177.438 14.5507 177.607 15.0317 177.607 15.569C177.607 16.0283 177.485 16.4443 177.243 16.817C177.009 17.181 176.666 17.4713 176.216 17.688C175.765 17.896 175.241 18 174.643 18H171.029V8.965H174.474C175.089 8.965 175.618 9.069 176.06 9.277C176.502 9.485 176.835 9.76667 177.061 10.122C177.286 10.4687 177.399 10.8587 177.399 11.292C177.399 11.812 177.26 12.2453 176.983 12.592C176.705 12.9387 176.333 13.1943 175.865 13.359ZM172.511 12.761H174.344C174.829 12.761 175.206 12.6527 175.475 12.436C175.752 12.2107 175.891 11.89 175.891 11.474C175.891 11.0667 175.752 10.7503 175.475 10.525C175.206 10.291 174.829 10.174 174.344 10.174H172.511V12.761ZM174.513 16.791C175.015 16.791 175.41 16.6697 175.696 16.427C175.982 16.1843 176.125 15.8463 176.125 15.413C176.125 14.971 175.973 14.62 175.67 14.36C175.366 14.1 174.963 13.97 174.461 13.97H172.511V16.791H174.513ZM180.699 16.804H183.754V18H179.217V8.965H180.699V16.804ZM186.476 10.161V12.813H189.596V14.022H186.476V16.791H189.986V18H184.994V8.952H189.986V10.161H186.476ZM201.327 8.965V18H199.845V11.812L197.089 18H196.062L193.293 11.812V18H191.811V8.965H193.41L196.582 16.05L199.741 8.965H201.327Z" fill="#2E303A"/>
<rect x="215.5" width="26" height="26" rx="13" fill="#DADADC"/>
<path d="M224.918 11.269C224.961 10.4023 225.264 9.735 225.828 9.267C226.4 8.79033 227.149 8.552 228.077 8.552C228.709 8.552 229.251 8.66467 229.702 8.89C230.152 9.10667 230.49 9.40567 230.716 9.787C230.95 10.1597 231.067 10.5843 231.067 11.061C231.067 11.607 230.924 12.0707 230.638 12.452C230.36 12.8247 230.027 13.076 229.637 13.206V13.258C230.139 13.414 230.529 13.6913 230.807 14.09C231.093 14.4887 231.236 15 231.236 15.624C231.236 16.144 231.114 16.6077 230.872 17.015C230.638 17.4223 230.287 17.743 229.819 17.977C229.359 18.2023 228.805 18.315 228.155 18.315C227.175 18.315 226.378 18.068 225.763 17.574C225.147 17.08 224.822 16.352 224.788 15.39H226.556C226.573 15.8147 226.716 16.157 226.985 16.417C227.262 16.6683 227.639 16.794 228.116 16.794C228.558 16.794 228.896 16.6727 229.13 16.43C229.372 16.1787 229.494 15.858 229.494 15.468C229.494 14.948 229.329 14.5753 229 14.35C228.67 14.1247 228.159 14.012 227.466 14.012H227.089V12.517H227.466C228.696 12.517 229.312 12.1053 229.312 11.282C229.312 10.9093 229.199 10.619 228.974 10.411C228.757 10.203 228.441 10.099 228.025 10.099C227.617 10.099 227.301 10.2117 227.076 10.437C226.859 10.6537 226.733 10.931 226.699 11.269H224.918Z" fill="#2E303A"/>
</svg>
