<svg width="294" height="26" viewBox="0 0 294 26" fill="none" xmlns="http://www.w3.org/2000/svg">
<rect width="26" height="26" rx="13" fill="#DADADC"/>
<path d="M10.7068 10.45V8.773H13.8398V18.25H11.9678V10.45H10.7068Z" fill="#2E303A"/>
<rect x="32.5" width="26" height="26" rx="13" fill="#DADADC"/>
<path d="M42.6223 16.196C43.4543 15.5027 44.1173 14.9263 44.6113 14.467C45.1053 13.999 45.517 13.5137 45.8463 13.011C46.1757 12.5083 46.3403 12.0143 46.3403 11.529C46.3403 11.087 46.2363 10.7403 46.0283 10.489C45.8203 10.2377 45.4997 10.112 45.0663 10.112C44.633 10.112 44.2993 10.2593 44.0653 10.554C43.8313 10.84 43.71 11.2343 43.7013 11.737H41.9333C41.968 10.697 42.2757 9.90833 42.8563 9.371C43.4457 8.83367 44.191 8.565 45.0923 8.565C46.0803 8.565 46.8387 8.82933 47.3673 9.358C47.896 9.878 48.1603 10.567 48.1603 11.425C48.1603 12.101 47.9783 12.7467 47.6143 13.362C47.2503 13.9773 46.8343 14.5147 46.3663 14.974C45.8983 15.4247 45.2873 15.9707 44.5333 16.612H48.3683V18.12H41.9463V16.768L42.6223 16.196Z" fill="#2E303A"/>
<rect x="65" width="26" height="26" rx="13" fill="#2E303A"/>
<path d="M74.4176 11.269C74.461 10.4023 74.7643 9.735 75.3276 9.267C75.8996 8.79033 76.6493 8.552 77.5766 8.552C78.2093 8.552 78.751 8.66467 79.2016 8.89C79.6523 9.10667 79.9903 9.40567 80.2156 9.787C80.4496 10.1597 80.5666 10.5843 80.5666 11.061C80.5666 11.607 80.4236 12.0707 80.1376 12.452C79.8603 12.8247 79.5266 13.076 79.1366 13.206V13.258C79.6393 13.414 80.0293 13.6913 80.3066 14.09C80.5926 14.4887 80.7356 15 80.7356 15.624C80.7356 16.144 80.6143 16.6077 80.3716 17.015C80.1376 17.4223 79.7866 17.743 79.3186 17.977C78.8593 18.2023 78.3046 18.315 77.6546 18.315C76.6753 18.315 75.878 18.068 75.2626 17.574C74.6473 17.08 74.3223 16.352 74.2876 15.39H76.0556C76.073 15.8147 76.216 16.157 76.4846 16.417C76.762 16.6683 77.139 16.794 77.6156 16.794C78.0576 16.794 78.3956 16.6727 78.6296 16.43C78.8723 16.1787 78.9936 15.858 78.9936 15.468C78.9936 14.948 78.829 14.5753 78.4996 14.35C78.1703 14.1247 77.659 14.012 76.9656 14.012H76.5886V12.517H76.9656C78.1963 12.517 78.8116 12.1053 78.8116 11.282C78.8116 10.9093 78.699 10.619 78.4736 10.411C78.257 10.203 77.9406 10.099 77.5246 10.099C77.1173 10.099 76.801 10.2117 76.5756 10.437C76.359 10.6537 76.2333 10.931 76.1986 11.269H74.4176Z" fill="#F8F8F8"/>
<path d="M101.426 8.965C102.388 8.965 103.229 9.15133 103.948 9.524C104.676 9.888 105.235 10.4167 105.625 11.11C106.024 11.7947 106.223 12.5963 106.223 13.515C106.223 14.4337 106.024 15.231 105.625 15.907C105.235 16.583 104.676 17.103 103.948 17.467C103.229 17.8223 102.388 18 101.426 18H98.475V8.965H101.426ZM101.426 16.791C102.483 16.791 103.294 16.505 103.857 15.933C104.42 15.361 104.702 14.555 104.702 13.515C104.702 12.4663 104.42 11.6473 103.857 11.058C103.294 10.4687 102.483 10.174 101.426 10.174H99.957V16.791H101.426ZM109.174 10.161V12.813H112.294V14.022H109.174V16.791H112.684V18H107.692V8.952H112.684V10.161H109.174ZM117.486 18.091C116.88 18.091 116.334 17.987 115.848 17.779C115.363 17.5623 114.982 17.259 114.704 16.869C114.427 16.479 114.288 16.024 114.288 15.504H115.874C115.909 15.894 116.061 16.2147 116.329 16.466C116.607 16.7173 116.992 16.843 117.486 16.843C117.998 16.843 118.396 16.7217 118.682 16.479C118.968 16.2277 119.111 15.907 119.111 15.517C119.111 15.2137 119.02 14.9667 118.838 14.776C118.665 14.5853 118.444 14.438 118.175 14.334C117.915 14.23 117.551 14.1173 117.083 13.996C116.494 13.84 116.013 13.684 115.64 13.528C115.276 13.3633 114.964 13.112 114.704 12.774C114.444 12.436 114.314 11.9853 114.314 11.422C114.314 10.902 114.444 10.447 114.704 10.057C114.964 9.667 115.328 9.368 115.796 9.16C116.264 8.952 116.806 8.848 117.421 8.848C118.297 8.848 119.012 9.069 119.566 9.511C120.13 9.94433 120.442 10.5423 120.502 11.305H118.864C118.838 10.9757 118.682 10.694 118.396 10.46C118.11 10.226 117.733 10.109 117.265 10.109C116.841 10.109 116.494 10.2173 116.225 10.434C115.957 10.6507 115.822 10.9627 115.822 11.37C115.822 11.6473 115.905 11.877 116.069 12.059C116.243 12.2323 116.459 12.371 116.719 12.475C116.979 12.579 117.335 12.6917 117.785 12.813C118.383 12.9777 118.869 13.1423 119.241 13.307C119.623 13.4717 119.943 13.7273 120.203 14.074C120.472 14.412 120.606 14.867 120.606 15.439C120.606 15.8983 120.481 16.3317 120.229 16.739C119.987 17.1463 119.627 17.4757 119.15 17.727C118.682 17.9697 118.128 18.091 117.486 18.091ZM123.837 8.965V18H122.355V8.965H123.837ZM132.322 11.565C132.088 11.1143 131.763 10.7763 131.347 10.551C130.931 10.317 130.45 10.2 129.904 10.2C129.306 10.2 128.773 10.3343 128.305 10.603C127.837 10.8717 127.468 11.253 127.2 11.747C126.94 12.241 126.81 12.813 126.81 13.463C126.81 14.113 126.94 14.6893 127.2 15.192C127.468 15.686 127.837 16.0673 128.305 16.336C128.773 16.6047 129.306 16.739 129.904 16.739C130.71 16.739 131.364 16.5137 131.867 16.063C132.369 15.6123 132.677 15.0013 132.79 14.23H129.397V13.047H134.376V14.204C134.28 14.906 134.029 15.5517 133.622 16.141C133.223 16.7303 132.699 17.2027 132.049 17.558C131.407 17.9047 130.692 18.078 129.904 18.078C129.054 18.078 128.279 17.883 127.577 17.493C126.875 17.0943 126.316 16.544 125.9 15.842C125.492 15.14 125.289 14.347 125.289 13.463C125.289 12.579 125.492 11.786 125.9 11.084C126.316 10.382 126.875 9.836 127.577 9.446C128.287 9.04733 129.063 8.848 129.904 8.848C130.866 8.848 131.719 9.08633 132.465 9.563C133.219 10.031 133.765 10.6983 134.103 11.565H132.322ZM143.26 18H141.778L137.319 11.253V18H135.837V8.952H137.319L141.778 15.686V8.952H143.26V18ZM150.065 8.965V18H148.583V8.965H150.065ZM154.962 8.965C155.924 8.965 156.765 9.15133 157.484 9.524C158.212 9.888 158.771 10.4167 159.161 11.11C159.56 11.7947 159.759 12.5963 159.759 13.515C159.759 14.4337 159.56 15.231 159.161 15.907C158.771 16.583 158.212 17.103 157.484 17.467C156.765 17.8223 155.924 18 154.962 18H152.011V8.965H154.962ZM154.962 16.791C156.019 16.791 156.83 16.505 157.393 15.933C157.956 15.361 158.238 14.555 158.238 13.515C158.238 12.4663 157.956 11.6473 157.393 11.058C156.83 10.4687 156.019 10.174 154.962 10.174H153.493V16.791H154.962ZM162.71 10.161V12.813H165.83V14.022H162.71V16.791H166.22V18H161.228V8.952H166.22V10.161H162.71ZM173.492 16.154H169.709L169.059 18H167.512L170.749 8.952H172.465L175.702 18H174.142L173.492 16.154ZM173.076 14.945L171.607 10.746L170.125 14.945H173.076ZM182.947 8.965V10.174H180.542V18H179.06V10.174H176.642V8.965H182.947ZM185.93 8.965V18H184.448V8.965H185.93ZM191.996 18.091C191.156 18.091 190.38 17.896 189.669 17.506C188.967 17.1073 188.408 16.557 187.992 15.855C187.585 15.1443 187.381 14.347 187.381 13.463C187.381 12.579 187.585 11.786 187.992 11.084C188.408 10.382 188.967 9.836 189.669 9.446C190.38 9.04733 191.156 8.848 191.996 8.848C192.846 8.848 193.621 9.04733 194.323 9.446C195.034 9.836 195.593 10.382 196 11.084C196.408 11.786 196.611 12.579 196.611 13.463C196.611 14.347 196.408 15.1443 196 15.855C195.593 16.557 195.034 17.1073 194.323 17.506C193.621 17.896 192.846 18.091 191.996 18.091ZM191.996 16.804C192.594 16.804 193.127 16.6697 193.595 16.401C194.063 16.1237 194.427 15.7337 194.687 15.231C194.956 14.7197 195.09 14.1303 195.09 13.463C195.09 12.7957 194.956 12.2107 194.687 11.708C194.427 11.2053 194.063 10.8197 193.595 10.551C193.127 10.2823 192.594 10.148 191.996 10.148C191.398 10.148 190.865 10.2823 190.397 10.551C189.929 10.8197 189.561 11.2053 189.292 11.708C189.032 12.2107 188.902 12.7957 188.902 13.463C188.902 14.1303 189.032 14.7197 189.292 15.231C189.561 15.7337 189.929 16.1237 190.397 16.401C190.865 16.6697 191.398 16.804 191.996 16.804ZM205.493 18H204.011L199.552 11.253V18H198.07V8.952H199.552L204.011 15.686V8.952H205.493V18Z" fill="#2E303A"/>
<rect x="219.5" width="26" height="26" rx="13" fill="#DADADC"/>
<path d="M228.407 16.404V14.974L232.658 8.89H234.777V14.818H235.921V16.404H234.777V18.25H232.957V16.404H228.407ZM233.074 10.84L230.409 14.818H233.074V10.84Z" fill="#2E303A"/>
</svg>
