<svg width="294" height="26" viewBox="0 0 294 26" fill="none" xmlns="http://www.w3.org/2000/svg">
<rect width="26" height="26" rx="13" fill="#2E303A"/>
<path d="M10.7068 10.45V8.773H13.8398V18.25H11.9678V10.45H10.7068Z" fill="#F8F8F8"/>
<path d="M36.426 8.965C37.388 8.965 38.2287 9.15133 38.948 9.524C39.676 9.888 40.235 10.4167 40.625 11.11C41.0237 11.7947 41.223 12.5963 41.223 13.515C41.223 14.4337 41.0237 15.231 40.625 15.907C40.235 16.583 39.676 17.103 38.948 17.467C38.2287 17.8223 37.388 18 36.426 18H33.475V8.965H36.426ZM36.426 16.791C37.4833 16.791 38.2937 16.505 38.857 15.933C39.4203 15.361 39.702 14.555 39.702 13.515C39.702 12.4663 39.4203 11.6473 38.857 11.058C38.2937 10.4687 37.4833 10.174 36.426 10.174H34.957V16.791H36.426ZM46.8128 18.091C45.9721 18.091 45.1965 17.896 44.4858 17.506C43.7838 17.1073 43.2248 16.557 42.8088 15.855C42.4015 15.1443 42.1978 14.347 42.1978 13.463C42.1978 12.579 42.4015 11.786 42.8088 11.084C43.2248 10.382 43.7838 9.836 44.4858 9.446C45.1965 9.04733 45.9721 8.848 46.8128 8.848C47.6621 8.848 48.4378 9.04733 49.1398 9.446C49.8505 9.836 50.4095 10.382 50.8168 11.084C51.2241 11.786 51.4278 12.579 51.4278 13.463C51.4278 14.347 51.2241 15.1443 50.8168 15.855C50.4095 16.557 49.8505 17.1073 49.1398 17.506C48.4378 17.896 47.6621 18.091 46.8128 18.091ZM46.8128 16.804C47.4108 16.804 47.9438 16.6697 48.4118 16.401C48.8798 16.1237 49.2438 15.7337 49.5038 15.231C49.7725 14.7197 49.9068 14.1303 49.9068 13.463C49.9068 12.7957 49.7725 12.2107 49.5038 11.708C49.2438 11.2053 48.8798 10.8197 48.4118 10.551C47.9438 10.2823 47.4108 10.148 46.8128 10.148C46.2148 10.148 45.6818 10.2823 45.2138 10.551C44.7458 10.8197 44.3775 11.2053 44.1088 11.708C43.8488 12.2107 43.7188 12.7957 43.7188 13.463C43.7188 14.1303 43.8488 14.7197 44.1088 15.231C44.3775 15.7337 44.7458 16.1237 45.2138 16.401C45.6818 16.6697 46.2148 16.804 46.8128 16.804ZM62.4021 8.965V18H60.9201V11.812L58.1641 18H57.1371L54.3681 11.812V18H52.8861V8.965H54.4851L57.6571 16.05L60.8161 8.965H62.4021ZM69.797 16.154H66.014L65.364 18H63.817L67.054 8.952H68.77L72.007 18H70.447L69.797 16.154ZM69.381 14.945L67.912 10.746L66.43 14.945H69.381ZM74.8965 8.965V18H73.4145V8.965H74.8965ZM84.2652 18H82.7832L78.3242 11.253V18H76.8422V8.952H78.3242L82.7832 15.686V8.952H84.2652V18ZM91.0573 8.965V14.724C91.0573 15.4087 91.2349 15.9243 91.5903 16.271C91.9543 16.6177 92.4569 16.791 93.0983 16.791C93.7483 16.791 94.2509 16.6177 94.6063 16.271C94.9703 15.9243 95.1523 15.4087 95.1523 14.724V8.965H96.6343V14.698C96.6343 15.4347 96.4739 16.0587 96.1533 16.57C95.8326 17.0813 95.4036 17.4627 94.8663 17.714C94.3289 17.9653 93.7353 18.091 93.0853 18.091C92.4353 18.091 91.8416 17.9653 91.3043 17.714C90.7756 17.4627 90.3553 17.0813 90.0433 16.57C89.7313 16.0587 89.5753 15.4347 89.5753 14.698V8.965H91.0573ZM105.987 18H104.505L100.046 11.253V18H98.5639V8.952H100.046L104.505 15.686V8.952H105.987V18ZM110.884 8.965C111.846 8.965 112.687 9.15133 113.406 9.524C114.134 9.888 114.693 10.4167 115.083 11.11C115.482 11.7947 115.681 12.5963 115.681 13.515C115.681 14.4337 115.482 15.231 115.083 15.907C114.693 16.583 114.134 17.103 113.406 17.467C112.687 17.8223 111.846 18 110.884 18H107.933V8.965H110.884ZM110.884 16.791C111.941 16.791 112.752 16.505 113.315 15.933C113.878 15.361 114.16 14.555 114.16 13.515C114.16 12.4663 113.878 11.6473 113.315 11.058C112.752 10.4687 111.941 10.174 110.884 10.174H109.415V16.791H110.884ZM118.632 10.161V12.813H121.752V14.022H118.632V16.791H122.142V18H117.15V8.952H122.142V10.161H118.632ZM128.66 18L126.58 14.386H125.449V18H123.967V8.965H127.087C127.781 8.965 128.366 9.08633 128.842 9.329C129.328 9.57167 129.687 9.89667 129.921 10.304C130.164 10.7113 130.285 11.1663 130.285 11.669C130.285 12.2583 130.112 12.7957 129.765 13.281C129.427 13.7577 128.903 14.0827 128.192 14.256L130.428 18H128.66ZM125.449 13.203H127.087C127.642 13.203 128.058 13.0643 128.335 12.787C128.621 12.5097 128.764 12.137 128.764 11.669C128.764 11.201 128.626 10.837 128.348 10.577C128.071 10.3083 127.651 10.174 127.087 10.174H125.449V13.203ZM135.158 18.091C134.551 18.091 134.005 17.987 133.52 17.779C133.035 17.5623 132.653 17.259 132.376 16.869C132.099 16.479 131.96 16.024 131.96 15.504H133.546C133.581 15.894 133.732 16.2147 134.001 16.466C134.278 16.7173 134.664 16.843 135.158 16.843C135.669 16.843 136.068 16.7217 136.354 16.479C136.64 16.2277 136.783 15.907 136.783 15.517C136.783 15.2137 136.692 14.9667 136.51 14.776C136.337 14.5853 136.116 14.438 135.847 14.334C135.587 14.23 135.223 14.1173 134.755 13.996C134.166 13.84 133.685 13.684 133.312 13.528C132.948 13.3633 132.636 13.112 132.376 12.774C132.116 12.436 131.986 11.9853 131.986 11.422C131.986 10.902 132.116 10.447 132.376 10.057C132.636 9.667 133 9.368 133.468 9.16C133.936 8.952 134.478 8.848 135.093 8.848C135.968 8.848 136.683 9.069 137.238 9.511C137.801 9.94433 138.113 10.5423 138.174 11.305H136.536C136.51 10.9757 136.354 10.694 136.068 10.46C135.782 10.226 135.405 10.109 134.937 10.109C134.512 10.109 134.166 10.2173 133.897 10.434C133.628 10.6507 133.494 10.9627 133.494 11.37C133.494 11.6473 133.576 11.877 133.741 12.059C133.914 12.2323 134.131 12.371 134.391 12.475C134.651 12.579 135.006 12.6917 135.457 12.813C136.055 12.9777 136.54 13.1423 136.913 13.307C137.294 13.4717 137.615 13.7273 137.875 14.074C138.144 14.412 138.278 14.867 138.278 15.439C138.278 15.8983 138.152 16.3317 137.901 16.739C137.658 17.1463 137.299 17.4757 136.822 17.727C136.354 17.9697 135.799 18.091 135.158 18.091ZM145.864 8.965V10.174H143.459V18H141.977V10.174H139.559V8.965H145.864ZM152.812 16.154H149.029L148.379 18H146.832L150.069 8.952H151.785L155.022 18H153.462L152.812 16.154ZM152.396 14.945L150.927 10.746L149.445 14.945H152.396ZM163.852 18H162.37L157.911 11.253V18H156.429V8.952H157.911L162.37 15.686V8.952H163.852V18ZM168.749 8.965C169.711 8.965 170.552 9.15133 171.271 9.524C171.999 9.888 172.558 10.4167 172.948 11.11C173.347 11.7947 173.546 12.5963 173.546 13.515C173.546 14.4337 173.347 15.231 172.948 15.907C172.558 16.583 171.999 17.103 171.271 17.467C170.552 17.8223 169.711 18 168.749 18H165.798V8.965H168.749ZM168.749 16.791C169.807 16.791 170.617 16.505 171.18 15.933C171.744 15.361 172.025 14.555 172.025 13.515C172.025 12.4663 171.744 11.6473 171.18 11.058C170.617 10.4687 169.807 10.174 168.749 10.174H167.28V16.791H168.749Z" fill="#2E303A"/>
<rect x="187.5" width="26" height="26" rx="13" fill="#DADADC"/>
<path d="M197.622 16.196C198.454 15.5027 199.117 14.9263 199.611 14.467C200.105 13.999 200.517 13.5137 200.846 13.011C201.176 12.5083 201.34 12.0143 201.34 11.529C201.34 11.087 201.236 10.7403 201.028 10.489C200.82 10.2377 200.5 10.112 200.066 10.112C199.633 10.112 199.299 10.2593 199.065 10.554C198.831 10.84 198.71 11.2343 198.701 11.737H196.933C196.968 10.697 197.276 9.90833 197.856 9.371C198.446 8.83367 199.191 8.565 200.092 8.565C201.08 8.565 201.839 8.82933 202.367 9.358C202.896 9.878 203.16 10.567 203.16 11.425C203.16 12.101 202.978 12.7467 202.614 13.362C202.25 13.9773 201.834 14.5147 201.366 14.974C200.898 15.4247 200.287 15.9707 199.533 16.612H203.368V18.12H196.946V16.768L197.622 16.196Z" fill="#2E303A"/>
<rect x="226.5" width="26" height="26" rx="13" fill="#DADADC"/>
<path d="M235.918 11.269C235.961 10.4023 236.264 9.735 236.828 9.267C237.4 8.79033 238.149 8.552 239.077 8.552C239.709 8.552 240.251 8.66467 240.702 8.89C241.152 9.10667 241.49 9.40567 241.716 9.787C241.95 10.1597 242.067 10.5843 242.067 11.061C242.067 11.607 241.924 12.0707 241.638 12.452C241.36 12.8247 241.027 13.076 240.637 13.206V13.258C241.139 13.414 241.529 13.6913 241.807 14.09C242.093 14.4887 242.236 15 242.236 15.624C242.236 16.144 242.114 16.6077 241.872 17.015C241.638 17.4223 241.287 17.743 240.819 17.977C240.359 18.2023 239.805 18.315 239.155 18.315C238.175 18.315 237.378 18.068 236.763 17.574C236.147 17.08 235.822 16.352 235.788 15.39H237.556C237.573 15.8147 237.716 16.157 237.985 16.417C238.262 16.6683 238.639 16.794 239.116 16.794C239.558 16.794 239.896 16.6727 240.13 16.43C240.372 16.1787 240.494 15.858 240.494 15.468C240.494 14.948 240.329 14.5753 240 14.35C239.67 14.1247 239.159 14.012 238.466 14.012H238.089V12.517H238.466C239.696 12.517 240.312 12.1053 240.312 11.282C240.312 10.9093 240.199 10.619 239.974 10.411C239.757 10.203 239.441 10.099 239.025 10.099C238.617 10.099 238.301 10.2117 238.076 10.437C237.859 10.6537 237.733 10.931 237.699 11.269H235.918Z" fill="#2E303A"/>
<rect x="265.5" width="26" height="26" rx="13" fill="#DADADC"/>
<path d="M274.407 16.404V14.974L278.658 8.89H280.777V14.818H281.921V16.404H280.777V18.25H278.957V16.404H274.407ZM279.074 10.84L276.409 14.818H279.074V10.84Z" fill="#2E303A"/>
</svg>
