<svg width="311" height="29" viewBox="0 0 311 29" fill="none" xmlns="http://www.w3.org/2000/svg">
<rect x="0.844238" y="0.21875" width="27.4073" height="27.4073" rx="13.7036" fill="#DADADC"/>
<path d="M12.1306 10.4228V8.65506H15.4332V18.645H13.4599V10.4228H12.1306Z" fill="#2E303A"/>
<rect x="35.1035" y="0.21875" width="27.4073" height="27.4073" rx="13.7036" fill="#DADADC"/>
<path d="M45.7738 16.4798C46.6509 15.749 47.3497 15.1415 47.8705 14.6573C48.3912 14.1639 48.8252 13.6523 49.1723 13.1224C49.5195 12.5926 49.6931 12.0718 49.6931 11.5602C49.6931 11.0943 49.5834 10.7289 49.3642 10.4639C49.1449 10.199 48.8069 10.0665 48.3501 10.0665C47.8933 10.0665 47.5416 10.2218 47.2949 10.5325C47.0483 10.8339 46.9204 11.2496 46.9112 11.7795H45.0475C45.0841 10.6832 45.4084 9.85184 46.0205 9.28543C46.6417 8.71901 47.4274 8.4358 48.3775 8.4358C49.419 8.4358 50.2184 8.71444 50.7757 9.27172C51.3329 9.81987 51.6116 10.5462 51.6116 11.4506C51.6116 12.1632 51.4197 12.8438 51.036 13.4924C50.6523 14.1411 50.2138 14.7075 49.7205 15.1917C49.2271 15.6668 48.5831 16.2423 47.7883 16.9184H51.8308V18.508H45.0612V17.0828L45.7738 16.4798Z" fill="#2E303A"/>
<rect x="69.3628" y="0.21875" width="27.4073" height="27.4073" rx="13.7036" fill="#DADADC"/>
<path d="M79.2903 11.2862C79.336 10.3726 79.6557 9.66913 80.2495 9.1758C80.8525 8.67333 81.6427 8.4221 82.6203 8.4221C83.2872 8.4221 83.8582 8.54086 84.3332 8.77839C84.8083 9.00679 85.1646 9.32197 85.4021 9.72394C85.6488 10.1168 85.7721 10.5644 85.7721 11.0669C85.7721 11.6425 85.6214 12.1312 85.3199 12.5332C85.0275 12.926 84.6758 13.191 84.2647 13.328V13.3828C84.7946 13.5473 85.2057 13.8396 85.498 14.2599C85.7995 14.6801 85.9502 15.2191 85.9502 15.8769C85.9502 16.425 85.8223 16.9138 85.5665 17.3432C85.3199 17.7726 84.9499 18.1106 84.4565 18.3572C83.9724 18.5948 83.3877 18.7135 82.7025 18.7135C81.6701 18.7135 80.8296 18.4532 80.181 17.9324C79.5324 17.4117 79.1898 16.6443 79.1532 15.6302H81.0169C81.0352 16.0779 81.1859 16.4387 81.4692 16.7128C81.7615 16.9777 82.1589 17.1102 82.6614 17.1102C83.1273 17.1102 83.4836 16.9823 83.7303 16.7265C83.9861 16.4616 84.114 16.1235 84.114 15.7124C84.114 15.1643 83.9404 14.7715 83.5932 14.5339C83.2461 14.2964 82.707 14.1776 81.9762 14.1776H81.5788V12.6017H81.9762C83.2735 12.6017 83.9221 12.1678 83.9221 11.2999C83.9221 10.907 83.8033 10.601 83.5658 10.3817C83.3374 10.1625 83.004 10.0528 82.5654 10.0528C82.1361 10.0528 81.8026 10.1716 81.5651 10.4091C81.3367 10.6375 81.2042 10.9299 81.1677 11.2862H79.2903Z" fill="#2E303A"/>
<rect x="103.622" y="0.21875" width="27.4073" height="27.4073" rx="13.7036" fill="#2E303A"/>
<path d="M113.011 16.6991V15.1917L117.492 8.77839H119.726V15.0273H120.932V16.6991H119.726V18.645H117.807V16.6991H113.011ZM117.931 10.8339L115.122 15.0273H117.931V10.8339Z" fill="#F8F8F8"/>
<path d="M144.513 8.69471V9.96915H140.471V12.7784H143.623V14.0528H140.471V18.2188H138.909V8.69471H144.513ZM147.523 8.69471V18.2188H145.961V8.69471H147.523ZM157.399 18.2188H155.837L151.137 11.1066V18.2188H149.574V8.68101H151.137L155.837 15.7795V8.68101H157.399V18.2188ZM165.193 16.2728H161.205L160.52 18.2188H158.889L162.301 8.68101H164.11L167.522 18.2188H165.878L165.193 16.2728ZM164.754 14.9984L163.206 10.5721L161.643 14.9984H164.754ZM170.568 16.958H173.788V18.2188H169.006V8.69471H170.568V16.958ZM181.765 8.69471C182.779 8.69471 183.666 8.89113 184.424 9.28397C185.191 9.66767 185.78 10.225 186.192 10.9558C186.612 11.6775 186.822 12.5226 186.822 13.491C186.822 14.4594 186.612 15.2999 186.192 16.0125C185.78 16.7251 185.191 17.2732 184.424 17.6569C183.666 18.0315 182.779 18.2188 181.765 18.2188H178.655V8.69471H181.765ZM181.765 16.9443C182.88 16.9443 183.734 16.6428 184.328 16.0399C184.922 15.4369 185.219 14.5873 185.219 13.491C185.219 12.3856 184.922 11.5222 184.328 10.901C183.734 10.2798 182.88 9.96915 181.765 9.96915H180.217V16.9443H181.765ZM189.932 9.95545V12.751H193.221V14.0254H189.932V16.9443H193.632V18.2188H188.37V8.68101H193.632V9.95545H189.932ZM198.695 18.3147C198.055 18.3147 197.48 18.205 196.968 17.9858C196.457 17.7574 196.055 17.4376 195.762 17.0265C195.47 16.6154 195.324 16.1358 195.324 15.5876H196.996C197.032 15.9988 197.192 16.3368 197.475 16.6017C197.767 16.8667 198.174 16.9991 198.695 16.9991C199.234 16.9991 199.654 16.8712 199.955 16.6154C200.257 16.3505 200.408 16.0125 200.408 15.6014C200.408 15.2816 200.312 15.0212 200.12 14.8202C199.937 14.6193 199.704 14.4639 199.421 14.3543C199.147 14.2447 198.763 14.1259 198.27 13.998C197.649 13.8336 197.142 13.6691 196.749 13.5047C196.365 13.3311 196.036 13.0662 195.762 12.7099C195.488 12.3536 195.351 11.8785 195.351 11.2847C195.351 10.7366 195.488 10.2569 195.762 9.84582C196.036 9.43471 196.42 9.11953 196.913 8.90027C197.407 8.68101 197.978 8.57138 198.626 8.57138C199.549 8.57138 200.303 8.80434 200.887 9.27027C201.481 9.72705 201.81 10.3574 201.874 11.1614H200.147C200.12 10.8142 199.955 10.5173 199.654 10.2706C199.353 10.024 198.955 9.90063 198.462 9.90063C198.014 9.90063 197.649 10.0148 197.366 10.2432C197.082 10.4716 196.941 10.8005 196.941 11.2299C196.941 11.5222 197.027 11.7643 197.201 11.9562C197.384 12.1389 197.612 12.2851 197.886 12.3947C198.16 12.5043 198.535 12.6231 199.01 12.751C199.64 12.9246 200.152 13.0982 200.545 13.2717C200.947 13.4453 201.285 13.7148 201.559 14.0802C201.842 14.4365 201.984 14.9162 201.984 15.5191C201.984 16.0033 201.851 16.4601 201.586 16.8895C201.33 17.3189 200.951 17.666 200.449 17.931C199.955 18.1868 199.371 18.3147 198.695 18.3147ZM205.389 8.69471V18.2188H203.827V8.69471H205.389ZM214.333 11.4354C214.087 10.9604 213.744 10.6041 213.305 10.3666C212.867 10.1199 212.36 9.99656 211.784 9.99656C211.154 9.99656 210.592 10.1382 210.099 10.4214C209.605 10.7046 209.217 11.1066 208.934 11.6273C208.66 12.148 208.523 12.751 208.523 13.4362C208.523 14.1214 208.66 14.7289 208.934 15.2588C209.217 15.7795 209.605 16.1815 210.099 16.4647C210.592 16.7479 211.154 16.8895 211.784 16.8895C212.634 16.8895 213.324 16.652 213.854 16.1769C214.383 15.7018 214.708 15.0578 214.827 14.2447H211.25V12.9977H216.498V14.2173C216.398 14.9573 216.133 15.6379 215.704 16.2591C215.283 16.8804 214.731 17.3783 214.045 17.7528C213.369 18.1183 212.616 18.301 211.784 18.301C210.889 18.301 210.071 18.0954 209.331 17.6843C208.591 17.2641 208.002 16.6839 207.564 15.9439C207.134 15.2039 206.92 14.368 206.92 13.4362C206.92 12.5043 207.134 11.6684 207.564 10.9284C208.002 10.1884 208.591 9.61286 209.331 9.20175C210.081 8.7815 210.898 8.57138 211.784 8.57138C212.798 8.57138 213.698 8.82261 214.484 9.32508C215.279 9.81841 215.854 10.5219 216.211 11.4354H214.333ZM225.864 18.2188H224.302L219.601 11.1066V18.2188H218.039V8.68101H219.601L224.302 15.7795V8.68101H225.864V18.2188Z" fill="#2E303A"/>
</svg>
