<svg width="262" height="32" viewBox="0 0 262 32" fill="none" xmlns="http://www.w3.org/2000/svg">
<rect width="32" height="32" rx="16" fill="#DADADC"/>
<path d="M13.1776 12.4V10.336H17.0336V22H14.7296V12.4H13.1776Z" fill="#2E303A"/>
<rect x="40" width="32" height="32" rx="16" fill="#DADADC"/>
<path d="M52.4583 19.472C53.4823 18.6187 54.2983 17.9093 54.9062 17.344C55.5143 16.768 56.0209 16.1707 56.4263 15.552C56.8316 14.9333 57.0343 14.3253 57.0343 13.728C57.0343 13.184 56.9063 12.7573 56.6503 12.448C56.3943 12.1387 55.9996 11.984 55.4663 11.984C54.9329 11.984 54.5223 12.1653 54.2343 12.528C53.9463 12.88 53.7969 13.3653 53.7863 13.984H51.6103C51.6529 12.704 52.0316 11.7333 52.7463 11.072C53.4716 10.4107 54.3889 10.08 55.4983 10.08C56.7143 10.08 57.6476 10.4053 58.2983 11.056C58.9489 11.696 59.2743 12.544 59.2743 13.6C59.2743 14.432 59.0503 15.2267 58.6023 15.984C58.1543 16.7413 57.6423 17.4027 57.0663 17.968C56.4903 18.5227 55.7383 19.1947 54.8103 19.984H59.5303V21.84H51.6263V20.176L52.4583 19.472Z" fill="#2E303A"/>
<rect x="80" width="32" height="32" rx="16" fill="#DADADC"/>
<path d="M91.5909 13.408C91.6443 12.3413 92.0176 11.52 92.7109 10.944C93.4149 10.3573 94.3376 10.064 95.4789 10.064C96.2576 10.064 96.9243 10.2027 97.4789 10.48C98.0336 10.7467 98.4496 11.1147 98.7269 11.584C99.0149 12.0427 99.1589 12.5653 99.1589 13.152C99.1589 13.824 98.9829 14.3947 98.6309 14.864C98.2896 15.3227 97.8789 15.632 97.3989 15.792V15.856C98.0176 16.048 98.4976 16.3893 98.8389 16.88C99.1909 17.3707 99.3669 18 99.3669 18.768C99.3669 19.408 99.2176 19.9787 98.9189 20.48C98.6309 20.9813 98.1989 21.376 97.6229 21.664C97.0576 21.9413 96.3749 22.08 95.5749 22.08C94.3696 22.08 93.3883 21.776 92.6309 21.168C91.8736 20.56 91.4736 19.664 91.4309 18.48H93.6069C93.6283 19.0027 93.8043 19.424 94.1349 19.744C94.4763 20.0533 94.9403 20.208 95.5269 20.208C96.0709 20.208 96.4869 20.0587 96.7749 19.76C97.0736 19.4507 97.2229 19.056 97.2229 18.576C97.2229 17.936 97.0203 17.4773 96.6149 17.2C96.2096 16.9227 95.5803 16.784 94.7269 16.784H94.2629V14.944H94.7269C96.2416 14.944 96.9989 14.4373 96.9989 13.424C96.9989 12.9653 96.8603 12.608 96.5829 12.352C96.3163 12.096 95.9269 11.968 95.4149 11.968C94.9136 11.968 94.5243 12.1067 94.2469 12.384C93.9803 12.6507 93.8256 12.992 93.7829 13.408H91.5909Z" fill="#2E303A"/>
<rect x="120" width="32" height="32" rx="16" fill="#F35050"/>
<path d="M130.963 19.728V17.968L136.195 10.48H138.803V17.776H140.211V19.728H138.803V22H136.563V19.728H130.963ZM136.707 12.88L133.427 17.776H136.707V12.88Z" fill="#F8F8F8"/>
<path d="M167.536 10.848V12.032H162.688V15.792H166.624V16.976H162.688V22H161.232V10.848H167.536ZM170.751 10.848V22H169.295V10.848H170.751ZM182 22H180.544L174.688 13.12V22H173.232V10.832H174.688L180.544 19.696V10.832H182V22ZM191.074 19.52H186.21L185.314 22H183.778L187.81 10.912H189.49L193.506 22H191.97L191.074 19.52ZM190.658 18.336L188.642 12.704L186.626 18.336H190.658ZM196.719 20.816H200.623V22H195.263V10.848H196.719V20.816ZM209.907 10.848C211.123 10.848 212.174 11.0773 213.059 11.536C213.955 11.984 214.638 12.6293 215.107 13.472C215.587 14.3147 215.827 15.3067 215.827 16.448C215.827 17.5893 215.587 18.5813 215.107 19.424C214.638 20.256 213.955 20.896 213.059 21.344C212.174 21.7813 211.123 22 209.907 22H206.435V10.848H209.907ZM209.907 20.8C211.347 20.8 212.446 20.4213 213.203 19.664C213.96 18.896 214.339 17.824 214.339 16.448C214.339 15.0613 213.955 13.9787 213.187 13.2C212.43 12.4213 211.336 12.032 209.907 12.032H207.891V20.8H209.907ZM219.204 12.032V15.76H223.268V16.96H219.204V20.8H223.748V22H217.748V10.832H223.748V12.032H219.204ZM229.487 22.112C228.751 22.112 228.089 21.984 227.503 21.728C226.927 21.4613 226.473 21.0987 226.143 20.64C225.812 20.1707 225.641 19.632 225.631 19.024H227.183C227.236 19.5467 227.449 19.9893 227.823 20.352C228.207 20.704 228.761 20.88 229.487 20.88C230.18 20.88 230.724 20.7093 231.119 20.368C231.524 20.016 231.727 19.568 231.727 19.024C231.727 18.5973 231.609 18.2507 231.375 17.984C231.14 17.7173 230.847 17.5147 230.495 17.376C230.143 17.2373 229.668 17.088 229.071 16.928C228.335 16.736 227.743 16.544 227.295 16.352C226.857 16.16 226.479 15.8613 226.159 15.456C225.849 15.04 225.695 14.4853 225.695 13.792C225.695 13.184 225.849 12.6453 226.159 12.176C226.468 11.7067 226.9 11.344 227.455 11.088C228.02 10.832 228.665 10.704 229.391 10.704C230.436 10.704 231.289 10.9653 231.951 11.488C232.623 12.0107 233.001 12.704 233.087 13.568H231.487C231.433 13.1413 231.209 12.768 230.815 12.448C230.42 12.1173 229.897 11.952 229.247 11.952C228.639 11.952 228.143 12.112 227.759 12.432C227.375 12.7413 227.183 13.1787 227.183 13.744C227.183 14.1493 227.295 14.48 227.519 14.736C227.753 14.992 228.036 15.1893 228.367 15.328C228.708 15.456 229.183 15.6053 229.791 15.776C230.527 15.9787 231.119 16.1813 231.567 16.384C232.015 16.576 232.399 16.88 232.719 17.296C233.039 17.7013 233.199 18.256 233.199 18.96C233.199 19.504 233.055 20.016 232.767 20.496C232.479 20.976 232.052 21.3653 231.487 21.664C230.921 21.9627 230.255 22.112 229.487 22.112ZM236.797 10.848V22H235.341V10.848H236.797ZM247.727 14.08C247.418 13.4293 246.97 12.928 246.383 12.576C245.796 12.2133 245.114 12.032 244.335 12.032C243.556 12.032 242.852 12.2133 242.223 12.576C241.604 12.928 241.114 13.44 240.751 14.112C240.399 14.7733 240.223 15.5413 240.223 16.416C240.223 17.2907 240.399 18.0587 240.751 18.72C241.114 19.3813 241.604 19.8933 242.223 20.256C242.852 20.608 243.556 20.784 244.335 20.784C245.423 20.784 246.319 20.4587 247.023 19.808C247.727 19.1573 248.138 18.2773 248.255 17.168H243.807V15.984H249.807V17.104C249.722 18.0213 249.434 18.864 248.943 19.632C248.452 20.3893 247.807 20.992 247.007 21.44C246.207 21.8773 245.316 22.096 244.335 22.096C243.3 22.096 242.356 21.856 241.503 21.376C240.65 20.8853 239.972 20.208 239.471 19.344C238.98 18.48 238.735 17.504 238.735 16.416C238.735 15.328 238.98 14.352 239.471 13.488C239.972 12.6133 240.65 11.936 241.503 11.456C242.356 10.9653 243.3 10.72 244.335 10.72C245.519 10.72 246.564 11.0133 247.471 11.6C248.388 12.1867 249.055 13.0133 249.471 14.08H247.727ZM260.5 22H259.044L253.188 13.12V22H251.732V10.832H253.188L259.044 19.696V10.832H260.5V22Z" fill="#F35050"/>
</svg>
