<svg width="205" height="219" viewBox="0 0 205 219" fill="none" xmlns="http://www.w3.org/2000/svg">
<path d="M10.404 112.324C10.404 112.996 10.242 113.626 9.918 114.214C9.606 114.802 9.108 115.276 8.424 115.636C7.752 115.996 6.9 116.176 5.868 116.176H3.762V121H1.242V108.436H5.868C6.84 108.436 7.668 108.604 8.352 108.94C9.036 109.276 9.546 109.738 9.882 110.326C10.23 110.914 10.404 111.58 10.404 112.324ZM5.76 114.142C6.456 114.142 6.972 113.986 7.308 113.674C7.644 113.35 7.812 112.9 7.812 112.324C7.812 111.1 7.128 110.488 5.76 110.488H3.762V114.142H5.76ZM21.4632 115.798C21.4632 116.158 21.4392 116.482 21.3912 116.77H14.1012C14.1612 117.49 14.4132 118.054 14.8572 118.462C15.3012 118.87 15.8472 119.074 16.4952 119.074C17.4312 119.074 18.0972 118.672 18.4932 117.868H21.2112C20.9232 118.828 20.3712 119.62 19.5552 120.244C18.7392 120.856 17.7372 121.162 16.5492 121.162C15.5892 121.162 14.7252 120.952 13.9572 120.532C13.2012 120.1 12.6072 119.494 12.1752 118.714C11.7552 117.934 11.5452 117.034 11.5452 116.014C11.5452 114.982 11.7552 114.076 12.1752 113.296C12.5952 112.516 13.1832 111.916 13.9392 111.496C14.6952 111.076 15.5652 110.866 16.5492 110.866C17.4972 110.866 18.3432 111.07 19.0872 111.478C19.8432 111.886 20.4252 112.468 20.8332 113.224C21.2532 113.968 21.4632 114.826 21.4632 115.798ZM18.8532 115.078C18.8412 114.43 18.6072 113.914 18.1512 113.53C17.6952 113.134 17.1372 112.936 16.4772 112.936C15.8532 112.936 15.3252 113.128 14.8932 113.512C14.4732 113.884 14.2152 114.406 14.1192 115.078H18.8532ZM25.8225 112.576C26.1465 112.048 26.5665 111.634 27.0825 111.334C27.6105 111.034 28.2105 110.884 28.8825 110.884V113.53H28.2165C27.4245 113.53 26.8245 113.716 26.4165 114.088C26.0205 114.46 25.8225 115.108 25.8225 116.032V121H23.3025V111.028H25.8225V112.576ZM34.3959 121.162C33.5799 121.162 32.8479 121.018 32.1999 120.73C31.5519 120.43 31.0359 120.028 30.6519 119.524C30.2799 119.02 30.0759 118.462 30.0399 117.85H32.5779C32.6259 118.234 32.8119 118.552 33.1359 118.804C33.4719 119.056 33.8859 119.182 34.3779 119.182C34.8579 119.182 35.2299 119.086 35.4939 118.894C35.7699 118.702 35.9079 118.456 35.9079 118.156C35.9079 117.832 35.7399 117.592 35.4039 117.436C35.0799 117.268 34.5579 117.088 33.8379 116.896C33.0939 116.716 32.4819 116.53 32.0019 116.338C31.5339 116.146 31.1259 115.852 30.7779 115.456C30.4419 115.06 30.2739 114.526 30.2739 113.854C30.2739 113.302 30.4299 112.798 30.7419 112.342C31.0659 111.886 31.5219 111.526 32.1099 111.262C32.7099 110.998 33.4119 110.866 34.2159 110.866C35.4039 110.866 36.3519 111.166 37.0599 111.766C37.7679 112.354 38.1579 113.152 38.2299 114.16H35.8179C35.7819 113.764 35.6139 113.452 35.3139 113.224C35.0259 112.984 34.6359 112.864 34.1439 112.864C33.6879 112.864 33.3339 112.948 33.0819 113.116C32.8419 113.284 32.7219 113.518 32.7219 113.818C32.7219 114.154 32.8899 114.412 33.2259 114.592C33.5619 114.76 34.0839 114.934 34.7919 115.114C35.5119 115.294 36.1059 115.48 36.5739 115.672C37.0419 115.864 37.4439 116.164 37.7799 116.572C38.1279 116.968 38.3079 117.496 38.3199 118.156C38.3199 118.732 38.1579 119.248 37.8339 119.704C37.5219 120.16 37.0659 120.52 36.4659 120.784C35.8779 121.036 35.1879 121.162 34.3959 121.162ZM44.8165 121.162C43.8565 121.162 42.9925 120.952 42.2245 120.532C41.4565 120.1 40.8505 119.494 40.4065 118.714C39.9745 117.934 39.7585 117.034 39.7585 116.014C39.7585 114.994 39.9805 114.094 40.4245 113.314C40.8805 112.534 41.4985 111.934 42.2785 111.514C43.0585 111.082 43.9285 110.866 44.8885 110.866C45.8485 110.866 46.7185 111.082 47.4985 111.514C48.2785 111.934 48.8905 112.534 49.3345 113.314C49.7905 114.094 50.0185 114.994 50.0185 116.014C50.0185 117.034 49.7845 117.934 49.3165 118.714C48.8605 119.494 48.2365 120.1 47.4445 120.532C46.6645 120.952 45.7885 121.162 44.8165 121.162ZM44.8165 118.966C45.2725 118.966 45.6985 118.858 46.0945 118.642C46.5025 118.414 46.8265 118.078 47.0665 117.634C47.3065 117.19 47.4265 116.65 47.4265 116.014C47.4265 115.066 47.1745 114.34 46.6705 113.836C46.1785 113.32 45.5725 113.062 44.8525 113.062C44.1325 113.062 43.5265 113.32 43.0345 113.836C42.5545 114.34 42.3145 115.066 42.3145 116.014C42.3145 116.962 42.5485 117.694 43.0165 118.21C43.4965 118.714 44.0965 118.966 44.8165 118.966ZM57.393 110.884C58.581 110.884 59.541 111.262 60.273 112.018C61.005 112.762 61.371 113.806 61.371 115.15V121H58.851V115.492C58.851 114.7 58.653 114.094 58.257 113.674C57.861 113.242 57.321 113.026 56.637 113.026C55.941 113.026 55.389 113.242 54.981 113.674C54.585 114.094 54.387 114.7 54.387 115.492V121H51.867V111.028H54.387V112.27C54.723 111.838 55.149 111.502 55.665 111.262C56.193 111.01 56.769 110.884 57.393 110.884ZM63.1194 115.978C63.1194 114.97 63.3174 114.076 63.7134 113.296C64.1214 112.516 64.6674 111.916 65.3514 111.496C66.0474 111.076 66.8214 110.866 67.6734 110.866C68.4174 110.866 69.0654 111.016 69.6174 111.316C70.1814 111.616 70.6314 111.994 70.9674 112.45V111.028H73.5054V121H70.9674V119.542C70.6434 120.01 70.1934 120.4 69.6174 120.712C69.0534 121.012 68.3994 121.162 67.6554 121.162C66.8154 121.162 66.0474 120.946 65.3514 120.514C64.6674 120.082 64.1214 119.476 63.7134 118.696C63.3174 117.904 63.1194 116.998 63.1194 115.978ZM70.9674 116.014C70.9674 115.402 70.8474 114.88 70.6074 114.448C70.3674 114.004 70.0434 113.668 69.6354 113.44C69.2274 113.2 68.7894 113.08 68.3214 113.08C67.8534 113.08 67.4214 113.194 67.0254 113.422C66.6294 113.65 66.3054 113.986 66.0534 114.43C65.8134 114.862 65.6934 115.378 65.6934 115.978C65.6934 116.578 65.8134 117.106 66.0534 117.562C66.3054 118.006 66.6294 118.348 67.0254 118.588C67.4334 118.828 67.8654 118.948 68.3214 118.948C68.7894 118.948 69.2274 118.834 69.6354 118.606C70.0434 118.366 70.3674 118.03 70.6074 117.598C70.8474 117.154 70.9674 116.626 70.9674 116.014ZM93.9537 108.436V121H91.4337V112.828L88.0677 121H86.1597L82.7757 112.828V121H80.2557V108.436H83.1177L87.1137 117.778L91.1097 108.436H93.9537ZM95.7971 115.978C95.7971 114.97 95.9951 114.076 96.3911 113.296C96.7991 112.516 97.3451 111.916 98.0291 111.496C98.7251 111.076 99.4991 110.866 100.351 110.866C101.095 110.866 101.743 111.016 102.295 111.316C102.859 111.616 103.309 111.994 103.645 112.45V111.028H106.183V121H103.645V119.542C103.321 120.01 102.871 120.4 102.295 120.712C101.731 121.012 101.077 121.162 100.333 121.162C99.4931 121.162 98.7251 120.946 98.0291 120.514C97.3451 120.082 96.7991 119.476 96.3911 118.696C95.9951 117.904 95.7971 116.998 95.7971 115.978ZM103.645 116.014C103.645 115.402 103.525 114.88 103.285 114.448C103.045 114.004 102.721 113.668 102.313 113.44C101.905 113.2 101.467 113.08 100.999 113.08C100.531 113.08 100.099 113.194 99.7031 113.422C99.3071 113.65 98.9831 113.986 98.7311 114.43C98.4911 114.862 98.3711 115.378 98.3711 115.978C98.3711 116.578 98.4911 117.106 98.7311 117.562C98.9831 118.006 99.3071 118.348 99.7031 118.588C100.111 118.828 100.543 118.948 100.999 118.948C101.467 118.948 101.905 118.834 102.313 118.606C102.721 118.366 103.045 118.03 103.285 117.598C103.525 117.154 103.645 116.626 103.645 116.014ZM111.164 112.468C111.488 112.012 111.932 111.634 112.496 111.334C113.072 111.022 113.726 110.866 114.458 110.866C115.31 110.866 116.078 111.076 116.762 111.496C117.458 111.916 118.004 112.516 118.4 113.296C118.808 114.064 119.012 114.958 119.012 115.978C119.012 116.998 118.808 117.904 118.4 118.696C118.004 119.476 117.458 120.082 116.762 120.514C116.078 120.946 115.31 121.162 114.458 121.162C113.726 121.162 113.078 121.012 112.514 120.712C111.962 120.412 111.512 120.034 111.164 119.578V125.752H108.644V111.028H111.164V112.468ZM116.438 115.978C116.438 115.378 116.312 114.862 116.06 114.43C115.82 113.986 115.496 113.65 115.088 113.422C114.692 113.194 114.26 113.08 113.792 113.08C113.336 113.08 112.904 113.2 112.496 113.44C112.1 113.668 111.776 114.004 111.524 114.448C111.284 114.892 111.164 115.414 111.164 116.014C111.164 116.614 111.284 117.136 111.524 117.58C111.776 118.024 112.1 118.366 112.496 118.606C112.904 118.834 113.336 118.948 113.792 118.948C114.26 118.948 114.692 118.828 115.088 118.588C115.496 118.348 115.82 118.006 116.06 117.562C116.312 117.118 116.438 116.59 116.438 115.978ZM123.364 112.468C123.688 112.012 124.132 111.634 124.696 111.334C125.272 111.022 125.926 110.866 126.658 110.866C127.51 110.866 128.278 111.076 128.962 111.496C129.658 111.916 130.204 112.516 130.6 113.296C131.008 114.064 131.212 114.958 131.212 115.978C131.212 116.998 131.008 117.904 130.6 118.696C130.204 119.476 129.658 120.082 128.962 120.514C128.278 120.946 127.51 121.162 126.658 121.162C125.926 121.162 125.278 121.012 124.714 120.712C124.162 120.412 123.712 120.034 123.364 119.578V125.752H120.844V111.028H123.364V112.468ZM128.638 115.978C128.638 115.378 128.512 114.862 128.26 114.43C128.02 113.986 127.696 113.65 127.288 113.422C126.892 113.194 126.46 113.08 125.992 113.08C125.536 113.08 125.104 113.2 124.696 113.44C124.3 113.668 123.976 114.004 123.724 114.448C123.484 114.892 123.364 115.414 123.364 116.014C123.364 116.614 123.484 117.136 123.724 117.58C123.976 118.024 124.3 118.366 124.696 118.606C125.104 118.834 125.536 118.948 125.992 118.948C126.46 118.948 126.892 118.828 127.288 118.588C127.696 118.348 128.02 118.006 128.26 117.562C128.512 117.118 128.638 116.59 128.638 115.978ZM134.321 109.84C133.877 109.84 133.505 109.702 133.205 109.426C132.917 109.138 132.773 108.784 132.773 108.364C132.773 107.944 132.917 107.596 133.205 107.32C133.505 107.032 133.877 106.888 134.321 106.888C134.765 106.888 135.131 107.032 135.419 107.32C135.719 107.596 135.869 107.944 135.869 108.364C135.869 108.784 135.719 109.138 135.419 109.426C135.131 109.702 134.765 109.84 134.321 109.84ZM135.563 111.028V121H133.043V111.028H135.563ZM143.579 110.884C144.767 110.884 145.727 111.262 146.459 112.018C147.191 112.762 147.557 113.806 147.557 115.15V121H145.037V115.492C145.037 114.7 144.839 114.094 144.443 113.674C144.047 113.242 143.507 113.026 142.823 113.026C142.127 113.026 141.575 113.242 141.167 113.674C140.771 114.094 140.573 114.7 140.573 115.492V121H138.053V111.028H140.573V112.27C140.909 111.838 141.335 111.502 141.851 111.262C142.379 111.01 142.955 110.884 143.579 110.884ZM153.859 110.866C154.603 110.866 155.257 111.016 155.821 111.316C156.385 111.604 156.829 111.982 157.153 112.45V111.028H159.691V121.072C159.691 121.996 159.505 122.818 159.133 123.538C158.761 124.27 158.203 124.846 157.459 125.266C156.715 125.698 155.815 125.914 154.759 125.914C153.343 125.914 152.179 125.584 151.267 124.924C150.367 124.264 149.857 123.364 149.737 122.224H152.239C152.371 122.68 152.653 123.04 153.085 123.304C153.529 123.58 154.063 123.718 154.687 123.718C155.419 123.718 156.013 123.496 156.469 123.052C156.925 122.62 157.153 121.96 157.153 121.072V119.524C156.829 119.992 156.379 120.382 155.803 120.694C155.239 121.006 154.591 121.162 153.859 121.162C153.019 121.162 152.251 120.946 151.555 120.514C150.859 120.082 150.307 119.476 149.899 118.696C149.503 117.904 149.305 116.998 149.305 115.978C149.305 114.97 149.503 114.076 149.899 113.296C150.307 112.516 150.853 111.916 151.537 111.496C152.233 111.076 153.007 110.866 153.859 110.866ZM157.153 116.014C157.153 115.402 157.033 114.88 156.793 114.448C156.553 114.004 156.229 113.668 155.821 113.44C155.413 113.2 154.975 113.08 154.507 113.08C154.039 113.08 153.607 113.194 153.211 113.422C152.815 113.65 152.491 113.986 152.239 114.43C151.999 114.862 151.879 115.378 151.879 115.978C151.879 116.578 151.999 117.106 152.239 117.562C152.491 118.006 152.815 118.348 153.211 118.588C153.619 118.828 154.051 118.948 154.507 118.948C154.975 118.948 155.413 118.834 155.821 118.606C156.229 118.366 156.553 118.03 156.793 117.598C157.033 117.154 157.153 116.626 157.153 116.014Z" fill="#2E303A"/>
<path d="M10.976 151.312V161H9.702V153.776L6.482 161H5.586L2.352 153.762V161H1.078V151.312H2.45L6.034 159.32L9.618 151.312H10.976ZM12.6606 157.136C12.6606 156.352 12.8193 155.666 13.1366 155.078C13.4539 154.481 13.8879 154.019 14.4386 153.692C14.9986 153.365 15.6193 153.202 16.3006 153.202C16.9726 153.202 17.5559 153.347 18.0506 153.636C18.5453 153.925 18.9139 154.289 19.1566 154.728V153.328H20.4446V161H19.1566V159.572C18.9046 160.02 18.5266 160.393 18.0226 160.692C17.5279 160.981 16.9493 161.126 16.2866 161.126C15.6053 161.126 14.9893 160.958 14.4386 160.622C13.8879 160.286 13.4539 159.815 13.1366 159.208C12.8193 158.601 12.6606 157.911 12.6606 157.136ZM19.1566 157.15C19.1566 156.571 19.0399 156.067 18.8066 155.638C18.5733 155.209 18.2559 154.882 17.8546 154.658C17.4626 154.425 17.0286 154.308 16.5526 154.308C16.0766 154.308 15.6426 154.42 15.2506 154.644C14.8586 154.868 14.5459 155.195 14.3126 155.624C14.0793 156.053 13.9626 156.557 13.9626 157.136C13.9626 157.724 14.0793 158.237 14.3126 158.676C14.5459 159.105 14.8586 159.437 15.2506 159.67C15.6426 159.894 16.0766 160.006 16.5526 160.006C17.0286 160.006 17.4626 159.894 17.8546 159.67C18.2559 159.437 18.5733 159.105 18.8066 158.676C19.0399 158.237 19.1566 157.729 19.1566 157.15ZM23.8715 154.742C24.1235 154.303 24.4969 153.939 24.9915 153.65C25.4955 153.351 26.0789 153.202 26.7415 153.202C27.4229 153.202 28.0389 153.365 28.5895 153.692C29.1495 154.019 29.5882 154.481 29.9055 155.078C30.2229 155.666 30.3815 156.352 30.3815 157.136C30.3815 157.911 30.2229 158.601 29.9055 159.208C29.5882 159.815 29.1495 160.286 28.5895 160.622C28.0389 160.958 27.4229 161.126 26.7415 161.126C26.0882 161.126 25.5095 160.981 25.0055 160.692C24.5109 160.393 24.1329 160.025 23.8715 159.586V164.64H22.5975V153.328H23.8715V154.742ZM29.0795 157.136C29.0795 156.557 28.9629 156.053 28.7295 155.624C28.4962 155.195 28.1789 154.868 27.7775 154.644C27.3855 154.42 26.9515 154.308 26.4755 154.308C26.0089 154.308 25.5749 154.425 25.1735 154.658C24.7815 154.882 24.4642 155.213 24.2215 155.652C23.9882 156.081 23.8715 156.581 23.8715 157.15C23.8715 157.729 23.9882 158.237 24.2215 158.676C24.4642 159.105 24.7815 159.437 25.1735 159.67C25.5749 159.894 26.0089 160.006 26.4755 160.006C26.9515 160.006 27.3855 159.894 27.7775 159.67C28.1789 159.437 28.4962 159.105 28.7295 158.676C28.9629 158.237 29.0795 157.724 29.0795 157.136ZM33.3325 154.742C33.5845 154.303 33.9578 153.939 34.4525 153.65C34.9565 153.351 35.5398 153.202 36.2025 153.202C36.8838 153.202 37.4998 153.365 38.0505 153.692C38.6105 154.019 39.0491 154.481 39.3665 155.078C39.6838 155.666 39.8425 156.352 39.8425 157.136C39.8425 157.911 39.6838 158.601 39.3665 159.208C39.0491 159.815 38.6105 160.286 38.0505 160.622C37.4998 160.958 36.8838 161.126 36.2025 161.126C35.5491 161.126 34.9705 160.981 34.4665 160.692C33.9718 160.393 33.5938 160.025 33.3325 159.586V164.64H32.0585V153.328H33.3325V154.742ZM38.5405 157.136C38.5405 156.557 38.4238 156.053 38.1905 155.624C37.9571 155.195 37.6398 154.868 37.2385 154.644C36.8465 154.42 36.4125 154.308 35.9365 154.308C35.4698 154.308 35.0358 154.425 34.6345 154.658C34.2425 154.882 33.9251 155.213 33.6825 155.652C33.4491 156.081 33.3325 156.581 33.3325 157.15C33.3325 157.729 33.4491 158.237 33.6825 158.676C33.9251 159.105 34.2425 159.437 34.6345 159.67C35.0358 159.894 35.4698 160.006 35.9365 160.006C36.4125 160.006 36.8465 159.894 37.2385 159.67C37.6398 159.437 37.9571 159.105 38.1905 158.676C38.4238 158.237 38.5405 157.724 38.5405 157.136ZM42.1774 152.082C41.9347 152.082 41.7294 151.998 41.5614 151.83C41.3934 151.662 41.3094 151.457 41.3094 151.214C41.3094 150.971 41.3934 150.766 41.5614 150.598C41.7294 150.43 41.9347 150.346 42.1774 150.346C42.4107 150.346 42.6067 150.43 42.7654 150.598C42.9334 150.766 43.0174 150.971 43.0174 151.214C43.0174 151.457 42.9334 151.662 42.7654 151.83C42.6067 151.998 42.4107 152.082 42.1774 152.082ZM42.7934 153.328V161H41.5194V153.328H42.7934ZM48.7027 153.188C49.6361 153.188 50.3921 153.473 50.9707 154.042C51.5494 154.602 51.8387 155.414 51.8387 156.478V161H50.5787V156.66C50.5787 155.895 50.3874 155.311 50.0047 154.91C49.6221 154.499 49.0994 154.294 48.4367 154.294C47.7647 154.294 47.2281 154.504 46.8267 154.924C46.4347 155.344 46.2387 155.955 46.2387 156.758V161H44.9647V153.328H46.2387V154.42C46.4907 154.028 46.8314 153.725 47.2607 153.51C47.6994 153.295 48.1801 153.188 48.7027 153.188ZM57.0838 153.202C57.7465 153.202 58.3251 153.347 58.8198 153.636C59.3238 153.925 59.6971 154.289 59.9398 154.728V153.328H61.2278V161.168C61.2278 161.868 61.0785 162.489 60.7798 163.03C60.4811 163.581 60.0518 164.01 59.4918 164.318C58.9411 164.626 58.2971 164.78 57.5598 164.78C56.5518 164.78 55.7118 164.542 55.0398 164.066C54.3678 163.59 53.9711 162.941 53.8498 162.12H55.1098C55.2498 162.587 55.5391 162.96 55.9778 163.24C56.4165 163.529 56.9438 163.674 57.5598 163.674C58.2598 163.674 58.8291 163.455 59.2678 163.016C59.7158 162.577 59.9398 161.961 59.9398 161.168V159.558C59.6878 160.006 59.3145 160.379 58.8198 160.678C58.3251 160.977 57.7465 161.126 57.0838 161.126C56.4025 161.126 55.7818 160.958 55.2218 160.622C54.6711 160.286 54.2371 159.815 53.9198 159.208C53.6025 158.601 53.4438 157.911 53.4438 157.136C53.4438 156.352 53.6025 155.666 53.9198 155.078C54.2371 154.481 54.6711 154.019 55.2218 153.692C55.7818 153.365 56.4025 153.202 57.0838 153.202ZM59.9398 157.15C59.9398 156.571 59.8231 156.067 59.5898 155.638C59.3565 155.209 59.0391 154.882 58.6378 154.658C58.2458 154.425 57.8118 154.308 57.3358 154.308C56.8598 154.308 56.4258 154.42 56.0338 154.644C55.6418 154.868 55.3291 155.195 55.0958 155.624C54.8625 156.053 54.7458 156.557 54.7458 157.136C54.7458 157.724 54.8625 158.237 55.0958 158.676C55.3291 159.105 55.6418 159.437 56.0338 159.67C56.4258 159.894 56.8598 160.006 57.3358 160.006C57.8118 160.006 58.2458 159.894 58.6378 159.67C59.0391 159.437 59.3565 159.105 59.5898 158.676C59.8231 158.237 59.9398 157.729 59.9398 157.15ZM70.4592 161.126C69.7405 161.126 69.0872 160.963 68.4992 160.636C67.9205 160.309 67.4632 159.847 67.1272 159.25C66.8005 158.643 66.6372 157.943 66.6372 157.15C66.6372 156.366 66.8052 155.675 67.1412 155.078C67.4865 154.471 67.9532 154.009 68.5412 153.692C69.1292 153.365 69.7872 153.202 70.5152 153.202C71.2432 153.202 71.9012 153.365 72.4892 153.692C73.0772 154.009 73.5392 154.467 73.8752 155.064C74.2205 155.661 74.3932 156.357 74.3932 157.15C74.3932 157.943 74.2158 158.643 73.8612 159.25C73.5158 159.847 73.0445 160.309 72.4472 160.636C71.8498 160.963 71.1872 161.126 70.4592 161.126ZM70.4592 160.006C70.9165 160.006 71.3458 159.899 71.7472 159.684C72.1485 159.469 72.4705 159.147 72.7132 158.718C72.9652 158.289 73.0912 157.766 73.0912 157.15C73.0912 156.534 72.9698 156.011 72.7272 155.582C72.4845 155.153 72.1672 154.835 71.7752 154.63C71.3832 154.415 70.9585 154.308 70.5012 154.308C70.0345 154.308 69.6052 154.415 69.2132 154.63C68.8305 154.835 68.5225 155.153 68.2892 155.582C68.0558 156.011 67.9392 156.534 67.9392 157.15C67.9392 157.775 68.0512 158.303 68.2752 158.732C68.5085 159.161 68.8165 159.483 69.1992 159.698C69.5818 159.903 70.0018 160.006 70.4592 160.006ZM82.8722 153.328V161H81.5982V159.866C81.3556 160.258 81.0149 160.566 80.5762 160.79C80.1469 161.005 79.6709 161.112 79.1482 161.112C78.5509 161.112 78.0142 160.991 77.5382 160.748C77.0622 160.496 76.6842 160.123 76.4042 159.628C76.1336 159.133 75.9982 158.531 75.9982 157.822V153.328H77.2582V157.654C77.2582 158.41 77.4496 158.993 77.8322 159.404C78.2149 159.805 78.7376 160.006 79.4002 160.006C80.0816 160.006 80.6182 159.796 81.0102 159.376C81.4022 158.956 81.5982 158.345 81.5982 157.542V153.328H82.8722ZM86.5773 154.378V158.9C86.5773 159.273 86.6566 159.539 86.8153 159.698C86.974 159.847 87.2493 159.922 87.6413 159.922H88.5793V161H87.4313C86.722 161 86.19 160.837 85.8353 160.51C85.4806 160.183 85.3033 159.647 85.3033 158.9V154.378H84.3093V153.328H85.3033V151.396H86.5773V153.328H88.5793V154.378H86.5773ZM95.4093 154.378V158.9C95.4093 159.273 95.4887 159.539 95.6473 159.698C95.806 159.847 96.0813 159.922 96.4733 159.922H97.4113V161H96.2633C95.554 161 95.022 160.837 94.6673 160.51C94.3127 160.183 94.1353 159.647 94.1353 158.9V154.378H93.1413V153.328H94.1353V151.396H95.4093V153.328H97.4113V154.378H95.4093ZM102.763 153.188C103.342 153.188 103.864 153.314 104.331 153.566C104.798 153.809 105.162 154.177 105.423 154.672C105.694 155.167 105.829 155.769 105.829 156.478V161H104.569V156.66C104.569 155.895 104.378 155.311 103.995 154.91C103.612 154.499 103.09 154.294 102.427 154.294C101.755 154.294 101.218 154.504 100.817 154.924C100.425 155.344 100.229 155.955 100.229 156.758V161H98.955V150.64H100.229V154.42C100.481 154.028 100.826 153.725 101.265 153.51C101.713 153.295 102.212 153.188 102.763 153.188ZM114.91 156.87C114.91 157.113 114.896 157.369 114.868 157.64H108.736C108.783 158.396 109.039 158.989 109.506 159.418C109.982 159.838 110.556 160.048 111.228 160.048C111.779 160.048 112.236 159.922 112.6 159.67C112.973 159.409 113.235 159.063 113.384 158.634H114.756C114.551 159.371 114.14 159.973 113.524 160.44C112.908 160.897 112.143 161.126 111.228 161.126C110.5 161.126 109.847 160.963 109.268 160.636C108.699 160.309 108.251 159.847 107.924 159.25C107.597 158.643 107.434 157.943 107.434 157.15C107.434 156.357 107.593 155.661 107.91 155.064C108.227 154.467 108.671 154.009 109.24 153.692C109.819 153.365 110.481 153.202 111.228 153.202C111.956 153.202 112.6 153.361 113.16 153.678C113.72 153.995 114.149 154.434 114.448 154.994C114.756 155.545 114.91 156.17 114.91 156.87ZM113.594 156.604C113.594 156.119 113.487 155.703 113.272 155.358C113.057 155.003 112.763 154.737 112.39 154.56C112.026 154.373 111.62 154.28 111.172 154.28C110.528 154.28 109.977 154.485 109.52 154.896C109.072 155.307 108.815 155.876 108.75 156.604H113.594ZM119.848 157.136C119.848 156.352 120.007 155.666 120.324 155.078C120.641 154.481 121.075 154.019 121.626 153.692C122.186 153.365 122.807 153.202 123.488 153.202C124.16 153.202 124.743 153.347 125.238 153.636C125.733 153.925 126.101 154.289 126.344 154.728V153.328H127.632V161H126.344V159.572C126.092 160.02 125.714 160.393 125.21 160.692C124.715 160.981 124.137 161.126 123.474 161.126C122.793 161.126 122.177 160.958 121.626 160.622C121.075 160.286 120.641 159.815 120.324 159.208C120.007 158.601 119.848 157.911 119.848 157.136ZM126.344 157.15C126.344 156.571 126.227 156.067 125.994 155.638C125.761 155.209 125.443 154.882 125.042 154.658C124.65 154.425 124.216 154.308 123.74 154.308C123.264 154.308 122.83 154.42 122.438 154.644C122.046 154.868 121.733 155.195 121.5 155.624C121.267 156.053 121.15 156.557 121.15 157.136C121.15 157.724 121.267 158.237 121.5 158.676C121.733 159.105 122.046 159.437 122.438 159.67C122.83 159.894 123.264 160.006 123.74 160.006C124.216 160.006 124.65 159.894 125.042 159.67C125.443 159.437 125.761 159.105 125.994 158.676C126.227 158.237 126.344 157.729 126.344 157.15ZM129.309 157.15C129.309 156.357 129.468 155.666 129.785 155.078C130.102 154.481 130.541 154.019 131.101 153.692C131.67 153.365 132.319 153.202 133.047 153.202C133.99 153.202 134.764 153.431 135.371 153.888C135.987 154.345 136.393 154.98 136.589 155.792H135.217C135.086 155.325 134.83 154.957 134.447 154.686C134.074 154.415 133.607 154.28 133.047 154.28C132.319 154.28 131.731 154.532 131.283 155.036C130.835 155.531 130.611 156.235 130.611 157.15C130.611 158.074 130.835 158.788 131.283 159.292C131.731 159.796 132.319 160.048 133.047 160.048C133.607 160.048 134.074 159.917 134.447 159.656C134.82 159.395 135.077 159.021 135.217 158.536H136.589C136.384 159.32 135.973 159.95 135.357 160.426C134.741 160.893 133.971 161.126 133.047 161.126C132.319 161.126 131.67 160.963 131.101 160.636C130.541 160.309 130.102 159.847 129.785 159.25C129.468 158.653 129.309 157.953 129.309 157.15ZM137.813 157.15C137.813 156.357 137.972 155.666 138.289 155.078C138.606 154.481 139.045 154.019 139.605 153.692C140.174 153.365 140.823 153.202 141.551 153.202C142.494 153.202 143.268 153.431 143.875 153.888C144.491 154.345 144.897 154.98 145.093 155.792H143.721C143.59 155.325 143.334 154.957 142.951 154.686C142.578 154.415 142.111 154.28 141.551 154.28C140.823 154.28 140.235 154.532 139.787 155.036C139.339 155.531 139.115 156.235 139.115 157.15C139.115 158.074 139.339 158.788 139.787 159.292C140.235 159.796 140.823 160.048 141.551 160.048C142.111 160.048 142.578 159.917 142.951 159.656C143.324 159.395 143.581 159.021 143.721 158.536H145.093C144.888 159.32 144.477 159.95 143.861 160.426C143.245 160.893 142.475 161.126 141.551 161.126C140.823 161.126 140.174 160.963 139.605 160.636C139.045 160.309 138.606 159.847 138.289 159.25C137.972 158.653 137.813 157.953 137.813 157.15ZM153.793 156.87C153.793 157.113 153.779 157.369 153.751 157.64H147.619C147.666 158.396 147.922 158.989 148.389 159.418C148.865 159.838 149.439 160.048 150.111 160.048C150.662 160.048 151.119 159.922 151.483 159.67C151.856 159.409 152.118 159.063 152.267 158.634H153.639C153.434 159.371 153.023 159.973 152.407 160.44C151.791 160.897 151.026 161.126 150.111 161.126C149.383 161.126 148.73 160.963 148.151 160.636C147.582 160.309 147.134 159.847 146.807 159.25C146.48 158.643 146.317 157.943 146.317 157.15C146.317 156.357 146.476 155.661 146.793 155.064C147.11 154.467 147.554 154.009 148.123 153.692C148.702 153.365 149.364 153.202 150.111 153.202C150.839 153.202 151.483 153.361 152.043 153.678C152.603 153.995 153.032 154.434 153.331 154.994C153.639 155.545 153.793 156.17 153.793 156.87ZM152.477 156.604C152.477 156.119 152.37 155.703 152.155 155.358C151.94 155.003 151.646 154.737 151.273 154.56C150.909 154.373 150.503 154.28 150.055 154.28C149.411 154.28 148.86 154.485 148.403 154.896C147.955 155.307 147.698 155.876 147.633 156.604H152.477ZM158.19 161.126C157.602 161.126 157.075 161.028 156.608 160.832C156.142 160.627 155.773 160.347 155.502 159.992C155.232 159.628 155.082 159.213 155.054 158.746H156.37C156.408 159.129 156.585 159.441 156.902 159.684C157.229 159.927 157.654 160.048 158.176 160.048C158.662 160.048 159.044 159.941 159.324 159.726C159.604 159.511 159.744 159.241 159.744 158.914C159.744 158.578 159.595 158.331 159.296 158.172C158.998 158.004 158.536 157.841 157.91 157.682C157.341 157.533 156.874 157.383 156.51 157.234C156.156 157.075 155.848 156.847 155.586 156.548C155.334 156.24 155.208 155.839 155.208 155.344C155.208 154.952 155.325 154.593 155.558 154.266C155.792 153.939 156.123 153.683 156.552 153.496C156.982 153.3 157.472 153.202 158.022 153.202C158.872 153.202 159.558 153.417 160.08 153.846C160.603 154.275 160.883 154.863 160.92 155.61H159.646C159.618 155.209 159.455 154.887 159.156 154.644C158.867 154.401 158.475 154.28 157.98 154.28C157.523 154.28 157.159 154.378 156.888 154.574C156.618 154.77 156.482 155.027 156.482 155.344C156.482 155.596 156.562 155.806 156.72 155.974C156.888 156.133 157.094 156.263 157.336 156.366C157.588 156.459 157.934 156.567 158.372 156.688C158.923 156.837 159.371 156.987 159.716 157.136C160.062 157.276 160.356 157.491 160.598 157.78C160.85 158.069 160.981 158.447 160.99 158.914C160.99 159.334 160.874 159.712 160.64 160.048C160.407 160.384 160.076 160.65 159.646 160.846C159.226 161.033 158.741 161.126 158.19 161.126ZM165.505 161.126C164.917 161.126 164.39 161.028 163.923 160.832C163.456 160.627 163.088 160.347 162.817 159.992C162.546 159.628 162.397 159.213 162.369 158.746H163.685C163.722 159.129 163.9 159.441 164.217 159.684C164.544 159.927 164.968 160.048 165.491 160.048C165.976 160.048 166.359 159.941 166.639 159.726C166.919 159.511 167.059 159.241 167.059 158.914C167.059 158.578 166.91 158.331 166.611 158.172C166.312 158.004 165.85 157.841 165.225 157.682C164.656 157.533 164.189 157.383 163.825 157.234C163.47 157.075 163.162 156.847 162.901 156.548C162.649 156.24 162.523 155.839 162.523 155.344C162.523 154.952 162.64 154.593 162.873 154.266C163.106 153.939 163.438 153.683 163.867 153.496C164.296 153.3 164.786 153.202 165.337 153.202C166.186 153.202 166.872 153.417 167.395 153.846C167.918 154.275 168.198 154.863 168.235 155.61H166.961C166.933 155.209 166.77 154.887 166.471 154.644C166.182 154.401 165.79 154.28 165.295 154.28C164.838 154.28 164.474 154.378 164.203 154.574C163.932 154.77 163.797 155.027 163.797 155.344C163.797 155.596 163.876 155.806 164.035 155.974C164.203 156.133 164.408 156.263 164.651 156.366C164.903 156.459 165.248 156.567 165.687 156.688C166.238 156.837 166.686 156.987 167.031 157.136C167.376 157.276 167.67 157.491 167.913 157.78C168.165 158.069 168.296 158.447 168.305 158.914C168.305 159.334 168.188 159.712 167.955 160.048C167.722 160.384 167.39 160.65 166.961 160.846C166.541 161.033 166.056 161.126 165.505 161.126ZM173.36 157.136C173.36 156.352 173.518 155.666 173.836 155.078C174.153 154.481 174.587 154.019 175.138 153.692C175.698 153.365 176.318 153.202 177 153.202C177.672 153.202 178.255 153.347 178.75 153.636C179.244 153.925 179.613 154.289 179.856 154.728V153.328H181.144V161H179.856V159.572C179.604 160.02 179.226 160.393 178.722 160.692C178.227 160.981 177.648 161.126 176.986 161.126C176.304 161.126 175.688 160.958 175.138 160.622C174.587 160.286 174.153 159.815 173.836 159.208C173.518 158.601 173.36 157.911 173.36 157.136ZM179.856 157.15C179.856 156.571 179.739 156.067 179.506 155.638C179.272 155.209 178.955 154.882 178.554 154.658C178.162 154.425 177.728 154.308 177.252 154.308C176.776 154.308 176.342 154.42 175.95 154.644C175.558 154.868 175.245 155.195 175.012 155.624C174.778 156.053 174.662 156.557 174.662 157.136C174.662 157.724 174.778 158.237 175.012 158.676C175.245 159.105 175.558 159.437 175.95 159.67C176.342 159.894 176.776 160.006 177.252 160.006C177.728 160.006 178.162 159.894 178.554 159.67C178.955 159.437 179.272 159.105 179.506 158.676C179.739 158.237 179.856 157.729 179.856 157.15ZM187.035 153.188C187.968 153.188 188.724 153.473 189.303 154.042C189.881 154.602 190.171 155.414 190.171 156.478V161H188.911V156.66C188.911 155.895 188.719 155.311 188.337 154.91C187.954 154.499 187.431 154.294 186.769 154.294C186.097 154.294 185.56 154.504 185.159 154.924C184.767 155.344 184.571 155.955 184.571 156.758V161H183.297V153.328H184.571V154.42C184.823 154.028 185.163 153.725 185.593 153.51C186.031 153.295 186.512 153.188 187.035 153.188ZM191.776 157.136C191.776 156.352 191.934 155.666 192.252 155.078C192.569 154.481 193.003 154.019 193.554 153.692C194.114 153.365 194.739 153.202 195.43 153.202C196.027 153.202 196.582 153.342 197.096 153.622C197.609 153.893 198.001 154.252 198.272 154.7V150.64H199.56V161H198.272V159.558C198.02 160.015 197.646 160.393 197.152 160.692C196.657 160.981 196.078 161.126 195.416 161.126C194.734 161.126 194.114 160.958 193.554 160.622C193.003 160.286 192.569 159.815 192.252 159.208C191.934 158.601 191.776 157.911 191.776 157.136ZM198.272 157.15C198.272 156.571 198.155 156.067 197.922 155.638C197.688 155.209 197.371 154.882 196.97 154.658C196.578 154.425 196.144 154.308 195.668 154.308C195.192 154.308 194.758 154.42 194.366 154.644C193.974 154.868 193.661 155.195 193.428 155.624C193.194 156.053 193.078 156.557 193.078 157.136C193.078 157.724 193.194 158.237 193.428 158.676C193.661 159.105 193.974 159.437 194.366 159.67C194.758 159.894 195.192 160.006 195.668 160.006C196.144 160.006 196.578 159.894 196.97 159.67C197.371 159.437 197.688 159.105 197.922 158.676C198.155 158.237 198.272 157.729 198.272 157.15ZM0.602 182.136C0.602 181.352 0.760667 180.666 1.078 180.078C1.39533 179.481 1.82933 179.019 2.38 178.692C2.94 178.365 3.56067 178.202 4.242 178.202C4.914 178.202 5.49733 178.347 5.992 178.636C6.48667 178.925 6.85533 179.289 7.098 179.728V178.328H8.386V186H7.098V184.572C6.846 185.02 6.468 185.393 5.964 185.692C5.46933 185.981 4.89067 186.126 4.228 186.126C3.54667 186.126 2.93067 185.958 2.38 185.622C1.82933 185.286 1.39533 184.815 1.078 184.208C0.760667 183.601 0.602 182.911 0.602 182.136ZM7.098 182.15C7.098 181.571 6.98133 181.067 6.748 180.638C6.51467 180.209 6.19733 179.882 5.796 179.658C5.404 179.425 4.97 179.308 4.494 179.308C4.018 179.308 3.584 179.42 3.192 179.644C2.8 179.868 2.48733 180.195 2.254 180.624C2.02067 181.053 1.904 181.557 1.904 182.136C1.904 182.724 2.02067 183.237 2.254 183.676C2.48733 184.105 2.8 184.437 3.192 184.67C3.584 184.894 4.018 185.006 4.494 185.006C4.97 185.006 5.404 184.894 5.796 184.67C6.19733 184.437 6.51467 184.105 6.748 183.676C6.98133 183.237 7.098 182.729 7.098 182.15ZM10.0629 182.15C10.0629 181.357 10.2216 180.666 10.5389 180.078C10.8563 179.481 11.2949 179.019 11.8549 178.692C12.4243 178.365 13.0729 178.202 13.8009 178.202C14.7436 178.202 15.5183 178.431 16.1249 178.888C16.7409 179.345 17.1469 179.98 17.3429 180.792H15.9709C15.8403 180.325 15.5836 179.957 15.2009 179.686C14.8276 179.415 14.3609 179.28 13.8009 179.28C13.0729 179.28 12.4849 179.532 12.0369 180.036C11.5889 180.531 11.3649 181.235 11.3649 182.15C11.3649 183.074 11.5889 183.788 12.0369 184.292C12.4849 184.796 13.0729 185.048 13.8009 185.048C14.3609 185.048 14.8276 184.917 15.2009 184.656C15.5743 184.395 15.8309 184.021 15.9709 183.536H17.3429C17.1376 184.32 16.7269 184.95 16.1109 185.426C15.4949 185.893 14.7249 186.126 13.8009 186.126C13.0729 186.126 12.4243 185.963 11.8549 185.636C11.2949 185.309 10.8563 184.847 10.5389 184.25C10.2216 183.653 10.0629 182.953 10.0629 182.15ZM20.5968 179.378V183.9C20.5968 184.273 20.6762 184.539 20.8348 184.698C20.9935 184.847 21.2688 184.922 21.6608 184.922H22.5988V186H21.4508C20.7415 186 20.2095 185.837 19.8548 185.51C19.5002 185.183 19.3228 184.647 19.3228 183.9V179.378H18.3288V178.328H19.3228V176.396H20.5968V178.328H22.5988V179.378H20.5968ZM24.8005 177.082C24.5578 177.082 24.3525 176.998 24.1845 176.83C24.0165 176.662 23.9325 176.457 23.9325 176.214C23.9325 175.971 24.0165 175.766 24.1845 175.598C24.3525 175.43 24.5578 175.346 24.8005 175.346C25.0338 175.346 25.2298 175.43 25.3885 175.598C25.5565 175.766 25.6405 175.971 25.6405 176.214C25.6405 176.457 25.5565 176.662 25.3885 176.83C25.2298 176.998 25.0338 177.082 24.8005 177.082ZM25.4165 178.328V186H24.1425V178.328H25.4165ZM30.9338 186.126C30.2151 186.126 29.5618 185.963 28.9738 185.636C28.3951 185.309 27.9378 184.847 27.6018 184.25C27.2751 183.643 27.1118 182.943 27.1118 182.15C27.1118 181.366 27.2798 180.675 27.6158 180.078C27.9611 179.471 28.4278 179.009 29.0158 178.692C29.6038 178.365 30.2618 178.202 30.9898 178.202C31.7178 178.202 32.3758 178.365 32.9638 178.692C33.5518 179.009 34.0138 179.467 34.3498 180.064C34.6951 180.661 34.8678 181.357 34.8678 182.15C34.8678 182.943 34.6904 183.643 34.3358 184.25C33.9904 184.847 33.5191 185.309 32.9218 185.636C32.3244 185.963 31.6618 186.126 30.9338 186.126ZM30.9338 185.006C31.3911 185.006 31.8204 184.899 32.2218 184.684C32.6231 184.469 32.9451 184.147 33.1878 183.718C33.4398 183.289 33.5658 182.766 33.5658 182.15C33.5658 181.534 33.4444 181.011 33.2018 180.582C32.9591 180.153 32.6418 179.835 32.2498 179.63C31.8578 179.415 31.4331 179.308 30.9758 179.308C30.5091 179.308 30.0798 179.415 29.6878 179.63C29.3051 179.835 28.9971 180.153 28.7638 180.582C28.5304 181.011 28.4138 181.534 28.4138 182.15C28.4138 182.775 28.5258 183.303 28.7498 183.732C28.9831 184.161 29.2911 184.483 29.6738 184.698C30.0564 184.903 30.4764 185.006 30.9338 185.006ZM40.2808 178.188C41.2142 178.188 41.9702 178.473 42.5488 179.042C43.1275 179.602 43.4168 180.414 43.4168 181.478V186H42.1568V181.66C42.1568 180.895 41.9655 180.311 41.5828 179.91C41.2002 179.499 40.6775 179.294 40.0148 179.294C39.3428 179.294 38.8062 179.504 38.4048 179.924C38.0128 180.344 37.8168 180.955 37.8168 181.758V186H36.5428V178.328H37.8168V179.42C38.0688 179.028 38.4095 178.725 38.8388 178.51C39.2775 178.295 39.7582 178.188 40.2808 178.188ZM48.2139 186.126C47.6259 186.126 47.0986 186.028 46.6319 185.832C46.1653 185.627 45.7966 185.347 45.5259 184.992C45.2553 184.628 45.1059 184.213 45.0779 183.746H46.3939C46.4313 184.129 46.6086 184.441 46.9259 184.684C47.2526 184.927 47.6773 185.048 48.1999 185.048C48.6853 185.048 49.0679 184.941 49.3479 184.726C49.6279 184.511 49.7679 184.241 49.7679 183.914C49.7679 183.578 49.6186 183.331 49.3199 183.172C49.0213 183.004 48.5593 182.841 47.9339 182.682C47.3646 182.533 46.8979 182.383 46.5339 182.234C46.1793 182.075 45.8713 181.847 45.6099 181.548C45.3579 181.24 45.2319 180.839 45.2319 180.344C45.2319 179.952 45.3486 179.593 45.5819 179.266C45.8153 178.939 46.1466 178.683 46.5759 178.496C47.0053 178.3 47.4953 178.202 48.0459 178.202C48.8953 178.202 49.5813 178.417 50.1039 178.846C50.6266 179.275 50.9066 179.863 50.9439 180.61H49.6699C49.6419 180.209 49.4786 179.887 49.1799 179.644C48.8906 179.401 48.4986 179.28 48.0039 179.28C47.5466 179.28 47.1826 179.378 46.9119 179.574C46.6413 179.77 46.5059 180.027 46.5059 180.344C46.5059 180.596 46.5853 180.806 46.7439 180.974C46.9119 181.133 47.1173 181.263 47.3599 181.366C47.6119 181.459 47.9573 181.567 48.3959 181.688C48.9466 181.837 49.3946 181.987 49.7399 182.136C50.0853 182.276 50.3793 182.491 50.6219 182.78C50.8739 183.069 51.0046 183.447 51.0139 183.914C51.0139 184.334 50.8973 184.712 50.6639 185.048C50.4306 185.384 50.0993 185.65 49.6699 185.846C49.2499 186.033 48.7646 186.126 48.2139 186.126ZM59.6668 179.378H58.0568V186H56.7828V179.378H55.7888V178.328H56.7828V177.782C56.7828 176.923 57.0021 176.298 57.4408 175.906C57.8888 175.505 58.6028 175.304 59.5828 175.304V176.368C59.0228 176.368 58.6261 176.48 58.3928 176.704C58.1688 176.919 58.0568 177.278 58.0568 177.782V178.328H59.6668V179.378ZM64.4982 186.126C63.7796 186.126 63.1262 185.963 62.5382 185.636C61.9596 185.309 61.5022 184.847 61.1662 184.25C60.8396 183.643 60.6762 182.943 60.6762 182.15C60.6762 181.366 60.8442 180.675 61.1802 180.078C61.5256 179.471 61.9922 179.009 62.5802 178.692C63.1682 178.365 63.8262 178.202 64.5542 178.202C65.2822 178.202 65.9402 178.365 66.5282 178.692C67.1162 179.009 67.5782 179.467 67.9142 180.064C68.2596 180.661 68.4322 181.357 68.4322 182.15C68.4322 182.943 68.2549 183.643 67.9002 184.25C67.5549 184.847 67.0836 185.309 66.4862 185.636C65.8889 185.963 65.2262 186.126 64.4982 186.126ZM64.4982 185.006C64.9556 185.006 65.3849 184.899 65.7862 184.684C66.1876 184.469 66.5096 184.147 66.7522 183.718C67.0042 183.289 67.1302 182.766 67.1302 182.15C67.1302 181.534 67.0089 181.011 66.7662 180.582C66.5236 180.153 66.2062 179.835 65.8142 179.63C65.4222 179.415 64.9976 179.308 64.5402 179.308C64.0736 179.308 63.6442 179.415 63.2522 179.63C62.8696 179.835 62.5616 180.153 62.3282 180.582C62.0949 181.011 61.9782 181.534 61.9782 182.15C61.9782 182.775 62.0902 183.303 62.3142 183.732C62.5476 184.161 62.8556 184.483 63.2382 184.698C63.6209 184.903 64.0409 185.006 64.4982 185.006ZM71.3813 179.574C71.6053 179.135 71.9226 178.795 72.3333 178.552C72.7533 178.309 73.262 178.188 73.8593 178.188V179.504H73.5233C72.0953 179.504 71.3813 180.279 71.3813 181.828V186H70.1073V178.328H71.3813V179.574ZM86.0624 181.87C86.0624 182.113 86.0484 182.369 86.0204 182.64H79.8884C79.935 183.396 80.1917 183.989 80.6584 184.418C81.1344 184.838 81.7084 185.048 82.3804 185.048C82.931 185.048 83.3884 184.922 83.7524 184.67C84.1257 184.409 84.387 184.063 84.5364 183.634H85.9084C85.703 184.371 85.2924 184.973 84.6764 185.44C84.0604 185.897 83.295 186.126 82.3804 186.126C81.6524 186.126 80.999 185.963 80.4204 185.636C79.851 185.309 79.403 184.847 79.0764 184.25C78.7497 183.643 78.5864 182.943 78.5864 182.15C78.5864 181.357 78.745 180.661 79.0624 180.064C79.3797 179.467 79.823 179.009 80.3924 178.692C80.971 178.365 81.6337 178.202 82.3804 178.202C83.1084 178.202 83.7524 178.361 84.3124 178.678C84.8724 178.995 85.3017 179.434 85.6004 179.994C85.9084 180.545 86.0624 181.17 86.0624 181.87ZM84.7464 181.604C84.7464 181.119 84.639 180.703 84.4244 180.358C84.2097 180.003 83.9157 179.737 83.5424 179.56C83.1784 179.373 82.7724 179.28 82.3244 179.28C81.6804 179.28 81.1297 179.485 80.6724 179.896C80.2244 180.307 79.9677 180.876 79.9024 181.604H84.7464ZM87.268 182.136C87.268 181.352 87.4267 180.666 87.744 180.078C88.0613 179.481 88.4953 179.019 89.046 178.692C89.606 178.365 90.2267 178.202 90.908 178.202C91.58 178.202 92.1633 178.347 92.658 178.636C93.1527 178.925 93.5213 179.289 93.764 179.728V178.328H95.052V186H93.764V184.572C93.512 185.02 93.134 185.393 92.63 185.692C92.1353 185.981 91.5567 186.126 90.894 186.126C90.2127 186.126 89.5967 185.958 89.046 185.622C88.4953 185.286 88.0613 184.815 87.744 184.208C87.4267 183.601 87.268 182.911 87.268 182.136ZM93.764 182.15C93.764 181.571 93.6473 181.067 93.414 180.638C93.1807 180.209 92.8633 179.882 92.462 179.658C92.07 179.425 91.636 179.308 91.16 179.308C90.684 179.308 90.25 179.42 89.858 179.644C89.466 179.868 89.1533 180.195 88.92 180.624C88.6867 181.053 88.57 181.557 88.57 182.136C88.57 182.724 88.6867 183.237 88.92 183.676C89.1533 184.105 89.466 184.437 89.858 184.67C90.25 184.894 90.684 185.006 91.16 185.006C91.636 185.006 92.07 184.894 92.462 184.67C92.8633 184.437 93.1807 184.105 93.414 183.676C93.6473 183.237 93.764 182.729 93.764 182.15ZM96.729 182.15C96.729 181.357 96.8876 180.666 97.205 180.078C97.5223 179.481 97.961 179.019 98.521 178.692C99.0903 178.365 99.739 178.202 100.467 178.202C101.41 178.202 102.184 178.431 102.791 178.888C103.407 179.345 103.813 179.98 104.009 180.792H102.637C102.506 180.325 102.25 179.957 101.867 179.686C101.494 179.415 101.027 179.28 100.467 179.28C99.739 179.28 99.151 179.532 98.703 180.036C98.255 180.531 98.031 181.235 98.031 182.15C98.031 183.074 98.255 183.788 98.703 184.292C99.151 184.796 99.739 185.048 100.467 185.048C101.027 185.048 101.494 184.917 101.867 184.656C102.24 184.395 102.497 184.021 102.637 183.536H104.009C103.804 184.32 103.393 184.95 102.777 185.426C102.161 185.893 101.391 186.126 100.467 186.126C99.739 186.126 99.0903 185.963 98.521 185.636C97.961 185.309 97.5223 184.847 97.205 184.25C96.8876 183.653 96.729 182.953 96.729 182.15ZM109.517 178.188C110.096 178.188 110.618 178.314 111.085 178.566C111.552 178.809 111.916 179.177 112.177 179.672C112.448 180.167 112.583 180.769 112.583 181.478V186H111.323V181.66C111.323 180.895 111.132 180.311 110.749 179.91C110.366 179.499 109.844 179.294 109.181 179.294C108.509 179.294 107.972 179.504 107.571 179.924C107.179 180.344 106.983 180.955 106.983 181.758V186H105.709V175.64H106.983V179.42C107.235 179.028 107.58 178.725 108.019 178.51C108.467 178.295 108.966 178.188 109.517 178.188ZM125.2 178.328V186H123.926V184.866C123.684 185.258 123.343 185.566 122.904 185.79C122.475 186.005 121.999 186.112 121.476 186.112C120.879 186.112 120.342 185.991 119.866 185.748C119.39 185.496 119.012 185.123 118.732 184.628C118.462 184.133 118.326 183.531 118.326 182.822V178.328H119.586V182.654C119.586 183.41 119.778 183.993 120.16 184.404C120.543 184.805 121.066 185.006 121.728 185.006C122.41 185.006 122.946 184.796 123.338 184.376C123.73 183.956 123.926 183.345 123.926 182.542V178.328H125.2ZM130.067 186.126C129.479 186.126 128.952 186.028 128.485 185.832C128.019 185.627 127.65 185.347 127.379 184.992C127.109 184.628 126.959 184.213 126.931 183.746H128.247C128.285 184.129 128.462 184.441 128.779 184.684C129.106 184.927 129.531 185.048 130.053 185.048C130.539 185.048 130.921 184.941 131.201 184.726C131.481 184.511 131.621 184.241 131.621 183.914C131.621 183.578 131.472 183.331 131.173 183.172C130.875 183.004 130.413 182.841 129.787 182.682C129.218 182.533 128.751 182.383 128.387 182.234C128.033 182.075 127.725 181.847 127.463 181.548C127.211 181.24 127.085 180.839 127.085 180.344C127.085 179.952 127.202 179.593 127.435 179.266C127.669 178.939 128 178.683 128.429 178.496C128.859 178.3 129.349 178.202 129.899 178.202C130.749 178.202 131.435 178.417 131.957 178.846C132.48 179.275 132.76 179.863 132.797 180.61H131.523C131.495 180.209 131.332 179.887 131.033 179.644C130.744 179.401 130.352 179.28 129.857 179.28C129.4 179.28 129.036 179.378 128.765 179.574C128.495 179.77 128.359 180.027 128.359 180.344C128.359 180.596 128.439 180.806 128.597 180.974C128.765 181.133 128.971 181.263 129.213 181.366C129.465 181.459 129.811 181.567 130.249 181.688C130.8 181.837 131.248 181.987 131.593 182.136C131.939 182.276 132.233 182.491 132.475 182.78C132.727 183.069 132.858 183.447 132.867 183.914C132.867 184.334 132.751 184.712 132.517 185.048C132.284 185.384 131.953 185.65 131.523 185.846C131.103 186.033 130.618 186.126 130.067 186.126ZM141.666 181.87C141.666 182.113 141.652 182.369 141.624 182.64H135.492C135.539 183.396 135.795 183.989 136.262 184.418C136.738 184.838 137.312 185.048 137.984 185.048C138.535 185.048 138.992 184.922 139.356 184.67C139.729 184.409 139.991 184.063 140.14 183.634H141.512C141.307 184.371 140.896 184.973 140.28 185.44C139.664 185.897 138.899 186.126 137.984 186.126C137.256 186.126 136.603 185.963 136.024 185.636C135.455 185.309 135.007 184.847 134.68 184.25C134.353 183.643 134.19 182.943 134.19 182.15C134.19 181.357 134.349 180.661 134.666 180.064C134.983 179.467 135.427 179.009 135.996 178.692C136.575 178.365 137.237 178.202 137.984 178.202C138.712 178.202 139.356 178.361 139.916 178.678C140.476 178.995 140.905 179.434 141.204 179.994C141.512 180.545 141.666 181.17 141.666 181.87ZM140.35 181.604C140.35 181.119 140.243 180.703 140.028 180.358C139.813 180.003 139.519 179.737 139.146 179.56C138.782 179.373 138.376 179.28 137.928 179.28C137.284 179.28 136.733 179.485 136.276 179.896C135.828 180.307 135.571 180.876 135.506 181.604H140.35ZM144.622 179.574C144.846 179.135 145.163 178.795 145.574 178.552C145.994 178.309 146.502 178.188 147.1 178.188V179.504H146.764C145.336 179.504 144.622 180.279 144.622 181.828V186H143.348V178.328H144.622V179.574ZM155.579 188.604C154.683 187.727 153.983 186.611 153.479 185.258C152.984 183.905 152.737 182.444 152.737 180.876C152.737 179.271 152.998 177.773 153.521 176.382C154.053 174.982 154.809 173.829 155.789 172.924H157.119V173.05C156.073 174.03 155.285 175.211 154.753 176.592C154.23 177.964 153.969 179.392 153.969 180.876C153.969 182.323 154.216 183.704 154.711 185.02C155.215 186.336 155.947 187.489 156.909 188.478V188.604H155.579ZM161.916 181.114C161.916 180.162 162.131 179.308 162.56 178.552C162.99 177.787 163.573 177.189 164.31 176.76C165.057 176.331 165.883 176.116 166.788 176.116C167.852 176.116 168.781 176.373 169.574 176.886C170.368 177.399 170.946 178.127 171.31 179.07H169.784C169.514 178.482 169.122 178.029 168.608 177.712C168.104 177.395 167.498 177.236 166.788 177.236C166.107 177.236 165.496 177.395 164.954 177.712C164.413 178.029 163.988 178.482 163.68 179.07C163.372 179.649 163.218 180.33 163.218 181.114C163.218 181.889 163.372 182.57 163.68 183.158C163.988 183.737 164.413 184.185 164.954 184.502C165.496 184.819 166.107 184.978 166.788 184.978C167.498 184.978 168.104 184.824 168.608 184.516C169.122 184.199 169.514 183.746 169.784 183.158H171.31C170.946 184.091 170.368 184.815 169.574 185.328C168.781 185.832 167.852 186.084 166.788 186.084C165.883 186.084 165.057 185.874 164.31 185.454C163.573 185.025 162.99 184.432 162.56 183.676C162.131 182.92 161.916 182.066 161.916 181.114ZM174.481 175.64V186H173.207V175.64H174.481ZM177.31 177.082C177.068 177.082 176.862 176.998 176.694 176.83C176.526 176.662 176.442 176.457 176.442 176.214C176.442 175.971 176.526 175.766 176.694 175.598C176.862 175.43 177.068 175.346 177.31 175.346C177.544 175.346 177.74 175.43 177.898 175.598C178.066 175.766 178.15 175.971 178.15 176.214C178.15 176.457 178.066 176.662 177.898 176.83C177.74 176.998 177.544 177.082 177.31 177.082ZM177.926 178.328V186H176.652V178.328H177.926ZM187.098 181.87C187.098 182.113 187.084 182.369 187.056 182.64H180.924C180.97 183.396 181.227 183.989 181.694 184.418C182.17 184.838 182.744 185.048 183.416 185.048C183.966 185.048 184.424 184.922 184.788 184.67C185.161 184.409 185.422 184.063 185.572 183.634H186.944C186.738 184.371 186.328 184.973 185.712 185.44C185.096 185.897 184.33 186.126 183.416 186.126C182.688 186.126 182.034 185.963 181.456 185.636C180.886 185.309 180.438 184.847 180.112 184.25C179.785 183.643 179.622 182.943 179.622 182.15C179.622 181.357 179.78 180.661 180.098 180.064C180.415 179.467 180.858 179.009 181.428 178.692C182.006 178.365 182.669 178.202 183.416 178.202C184.144 178.202 184.788 178.361 185.348 178.678C185.908 178.995 186.337 179.434 186.636 179.994C186.944 180.545 187.098 181.17 187.098 181.87ZM185.782 181.604C185.782 181.119 185.674 180.703 185.46 180.358C185.245 180.003 184.951 179.737 184.578 179.56C184.214 179.373 183.808 179.28 183.36 179.28C182.716 179.28 182.165 179.485 181.708 179.896C181.26 180.307 181.003 180.876 180.938 181.604H185.782ZM192.517 178.188C193.451 178.188 194.207 178.473 194.785 179.042C195.364 179.602 195.653 180.414 195.653 181.478V186H194.393V181.66C194.393 180.895 194.202 180.311 193.819 179.91C193.437 179.499 192.914 179.294 192.251 179.294C191.579 179.294 191.043 179.504 190.641 179.924C190.249 180.344 190.053 180.955 190.053 181.758V186H188.779V178.328H190.053V179.42C190.305 179.028 190.646 178.725 191.075 178.51C191.514 178.295 191.995 178.188 192.517 178.188ZM199.288 179.378V183.9C199.288 184.273 199.368 184.539 199.526 184.698C199.685 184.847 199.96 184.922 200.352 184.922H201.29V186H200.142C199.433 186 198.901 185.837 198.546 185.51C198.192 185.183 198.014 184.647 198.014 183.9V179.378H197.02V178.328H198.014V176.396H199.288V178.328H201.29V179.378H199.288ZM204.15 184.236L202.582 188.002H201.728L202.75 184.236H204.15ZM0.602 207.136C0.602 206.352 0.760667 205.666 1.078 205.078C1.39533 204.481 1.82933 204.019 2.38 203.692C2.94 203.365 3.56067 203.202 4.242 203.202C4.914 203.202 5.49733 203.347 5.992 203.636C6.48667 203.925 6.85533 204.289 7.098 204.728V203.328H8.386V211H7.098V209.572C6.846 210.02 6.468 210.393 5.964 210.692C5.46933 210.981 4.89067 211.126 4.228 211.126C3.54667 211.126 2.93067 210.958 2.38 210.622C1.82933 210.286 1.39533 209.815 1.078 209.208C0.760667 208.601 0.602 207.911 0.602 207.136ZM7.098 207.15C7.098 206.571 6.98133 206.067 6.748 205.638C6.51467 205.209 6.19733 204.882 5.796 204.658C5.404 204.425 4.97 204.308 4.494 204.308C4.018 204.308 3.584 204.42 3.192 204.644C2.8 204.868 2.48733 205.195 2.254 205.624C2.02067 206.053 1.904 206.557 1.904 207.136C1.904 207.724 2.02067 208.237 2.254 208.676C2.48733 209.105 2.8 209.437 3.192 209.67C3.584 209.894 4.018 210.006 4.494 210.006C4.97 210.006 5.404 209.894 5.796 209.67C6.19733 209.437 6.51467 209.105 6.748 208.676C6.98133 208.237 7.098 207.729 7.098 207.15ZM14.2769 203.188C15.2103 203.188 15.9663 203.473 16.5449 204.042C17.1236 204.602 17.4129 205.414 17.4129 206.478V211H16.1529V206.66C16.1529 205.895 15.9616 205.311 15.5789 204.91C15.1963 204.499 14.6736 204.294 14.0109 204.294C13.3389 204.294 12.8023 204.504 12.4009 204.924C12.0089 205.344 11.8129 205.955 11.8129 206.758V211H10.5389V203.328H11.8129V204.42C12.0649 204.028 12.4056 203.725 12.8349 203.51C13.2736 203.295 13.7543 203.188 14.2769 203.188ZM19.018 207.136C19.018 206.352 19.1767 205.666 19.494 205.078C19.8113 204.481 20.2453 204.019 20.796 203.692C21.356 203.365 21.9813 203.202 22.672 203.202C23.2693 203.202 23.8247 203.342 24.338 203.622C24.8513 203.893 25.2433 204.252 25.514 204.7V200.64H26.802V211H25.514V209.558C25.262 210.015 24.8887 210.393 24.394 210.692C23.8993 210.981 23.3207 211.126 22.658 211.126C21.9767 211.126 21.356 210.958 20.796 210.622C20.2453 210.286 19.8113 209.815 19.494 209.208C19.1767 208.601 19.018 207.911 19.018 207.136ZM25.514 207.15C25.514 206.571 25.3973 206.067 25.164 205.638C24.9307 205.209 24.6133 204.882 24.212 204.658C23.82 204.425 23.386 204.308 22.91 204.308C22.434 204.308 22 204.42 21.608 204.644C21.216 204.868 20.9033 205.195 20.67 205.624C20.4367 206.053 20.32 206.557 20.32 207.136C20.32 207.724 20.4367 208.237 20.67 208.676C20.9033 209.105 21.216 209.437 21.608 209.67C22 209.894 22.434 210.006 22.91 210.006C23.386 210.006 23.82 209.894 24.212 209.67C24.6133 209.437 24.9307 209.105 25.164 208.676C25.3973 208.237 25.514 207.729 25.514 207.15ZM35.7814 211.098C35.1374 211.098 34.5587 210.986 34.0454 210.762C33.5414 210.529 33.1447 210.211 32.8554 209.81C32.566 209.399 32.4167 208.928 32.4074 208.396H33.7654C33.812 208.853 33.9987 209.241 34.3254 209.558C34.6614 209.866 35.1467 210.02 35.7814 210.02C36.388 210.02 36.864 209.871 37.2094 209.572C37.564 209.264 37.7414 208.872 37.7414 208.396C37.7414 208.023 37.6387 207.719 37.4334 207.486C37.228 207.253 36.9714 207.075 36.6634 206.954C36.3554 206.833 35.94 206.702 35.4174 206.562C34.7734 206.394 34.2554 206.226 33.8634 206.058C33.4807 205.89 33.1494 205.629 32.8694 205.274C32.5987 204.91 32.4634 204.425 32.4634 203.818C32.4634 203.286 32.5987 202.815 32.8694 202.404C33.14 201.993 33.518 201.676 34.0034 201.452C34.498 201.228 35.0627 201.116 35.6974 201.116C36.612 201.116 37.3587 201.345 37.9374 201.802C38.5254 202.259 38.8567 202.866 38.9314 203.622H37.5314C37.4847 203.249 37.2887 202.922 36.9434 202.642C36.598 202.353 36.1407 202.208 35.5714 202.208C35.0394 202.208 34.6054 202.348 34.2694 202.628C33.9334 202.899 33.7654 203.281 33.7654 203.776C33.7654 204.131 33.8634 204.42 34.0594 204.644C34.2647 204.868 34.512 205.041 34.8014 205.162C35.1 205.274 35.5154 205.405 36.0474 205.554C36.6914 205.731 37.2094 205.909 37.6014 206.086C37.9934 206.254 38.3294 206.52 38.6094 206.884C38.8894 207.239 39.0294 207.724 39.0294 208.34C39.0294 208.816 38.9034 209.264 38.6514 209.684C38.3994 210.104 38.026 210.445 37.5314 210.706C37.0367 210.967 36.4534 211.098 35.7814 211.098ZM47.9042 206.87C47.9042 207.113 47.8902 207.369 47.8622 207.64H41.7302C41.7768 208.396 42.0335 208.989 42.5002 209.418C42.9762 209.838 43.5502 210.048 44.2222 210.048C44.7728 210.048 45.2302 209.922 45.5942 209.67C45.9675 209.409 46.2288 209.063 46.3782 208.634H47.7502C47.5448 209.371 47.1342 209.973 46.5182 210.44C45.9022 210.897 45.1368 211.126 44.2222 211.126C43.4942 211.126 42.8408 210.963 42.2622 210.636C41.6928 210.309 41.2448 209.847 40.9182 209.25C40.5915 208.643 40.4282 207.943 40.4282 207.15C40.4282 206.357 40.5868 205.661 40.9042 205.064C41.2215 204.467 41.6648 204.009 42.2342 203.692C42.8128 203.365 43.4755 203.202 44.2222 203.202C44.9502 203.202 45.5942 203.361 46.1542 203.678C46.7142 203.995 47.1435 204.434 47.4422 204.994C47.7502 205.545 47.9042 206.17 47.9042 206.87ZM46.5882 206.604C46.5882 206.119 46.4808 205.703 46.2662 205.358C46.0515 205.003 45.7575 204.737 45.3842 204.56C45.0202 204.373 44.6142 204.28 44.1662 204.28C43.5222 204.28 42.9715 204.485 42.5142 204.896C42.0662 205.307 41.8095 205.876 41.7442 206.604H46.5882ZM50.8598 204.574C51.0838 204.135 51.4011 203.795 51.8118 203.552C52.2318 203.309 52.7405 203.188 53.3378 203.188V204.504H53.0018C51.5738 204.504 50.8598 205.279 50.8598 206.828V211H49.5858V203.328H50.8598V204.574ZM57.6645 209.824L60.0445 203.328H61.4025L58.3925 211H56.9085L53.8985 203.328H55.2705L57.6645 209.824ZM63.3141 202.082C63.0715 202.082 62.8661 201.998 62.6981 201.83C62.5301 201.662 62.4461 201.457 62.4461 201.214C62.4461 200.971 62.5301 200.766 62.6981 200.598C62.8661 200.43 63.0715 200.346 63.3141 200.346C63.5475 200.346 63.7435 200.43 63.9021 200.598C64.0701 200.766 64.1541 200.971 64.1541 201.214C64.1541 201.457 64.0701 201.662 63.9021 201.83C63.7435 201.998 63.5475 202.082 63.3141 202.082ZM63.9301 203.328V211H62.6561V203.328H63.9301ZM65.6254 207.15C65.6254 206.357 65.7841 205.666 66.1014 205.078C66.4188 204.481 66.8574 204.019 67.4174 203.692C67.9868 203.365 68.6354 203.202 69.3634 203.202C70.3061 203.202 71.0808 203.431 71.6874 203.888C72.3034 204.345 72.7094 204.98 72.9054 205.792H71.5334C71.4028 205.325 71.1461 204.957 70.7634 204.686C70.3901 204.415 69.9234 204.28 69.3634 204.28C68.6354 204.28 68.0474 204.532 67.5994 205.036C67.1514 205.531 66.9274 206.235 66.9274 207.15C66.9274 208.074 67.1514 208.788 67.5994 209.292C68.0474 209.796 68.6354 210.048 69.3634 210.048C69.9234 210.048 70.3901 209.917 70.7634 209.656C71.1368 209.395 71.3934 209.021 71.5334 208.536H72.9054C72.7001 209.32 72.2894 209.95 71.6734 210.426C71.0574 210.893 70.2874 211.126 69.3634 211.126C68.6354 211.126 67.9868 210.963 67.4174 210.636C66.8574 210.309 66.4188 209.847 66.1014 209.25C65.7841 208.653 65.6254 207.953 65.6254 207.15ZM81.6053 206.87C81.6053 207.113 81.5913 207.369 81.5633 207.64H75.4313C75.478 208.396 75.7347 208.989 76.2013 209.418C76.6773 209.838 77.2513 210.048 77.9233 210.048C78.474 210.048 78.9313 209.922 79.2953 209.67C79.6687 209.409 79.93 209.063 80.0793 208.634H81.4513C81.246 209.371 80.8353 209.973 80.2193 210.44C79.6033 210.897 78.838 211.126 77.9233 211.126C77.1953 211.126 76.542 210.963 75.9633 210.636C75.394 210.309 74.946 209.847 74.6193 209.25C74.2927 208.643 74.1293 207.943 74.1293 207.15C74.1293 206.357 74.288 205.661 74.6053 205.064C74.9227 204.467 75.366 204.009 75.9353 203.692C76.514 203.365 77.1767 203.202 77.9233 203.202C78.6513 203.202 79.2953 203.361 79.8553 203.678C80.4153 203.995 80.8447 204.434 81.1433 204.994C81.4513 205.545 81.6053 206.17 81.6053 206.87ZM80.2893 206.604C80.2893 206.119 80.182 205.703 79.9673 205.358C79.7527 205.003 79.4587 204.737 79.0853 204.56C78.7213 204.373 78.3153 204.28 77.8673 204.28C77.2233 204.28 76.6727 204.485 76.2153 204.896C75.7673 205.307 75.5107 205.876 75.4453 206.604H80.2893ZM93.5434 204.098C93.5434 204.91 93.2634 205.587 92.7034 206.128C92.1527 206.66 91.3081 206.926 90.1694 206.926H88.2934V211H87.0194V201.242H90.1694C91.2707 201.242 92.1061 201.508 92.6754 202.04C93.2541 202.572 93.5434 203.258 93.5434 204.098ZM90.1694 205.876C90.8787 205.876 91.4014 205.722 91.7374 205.414C92.0734 205.106 92.2414 204.667 92.2414 204.098C92.2414 202.894 91.5507 202.292 90.1694 202.292H88.2934V205.876H90.1694ZM96.4008 204.574C96.6248 204.135 96.9422 203.795 97.3528 203.552C97.7728 203.309 98.2815 203.188 98.8788 203.188V204.504H98.5428C97.1148 204.504 96.4008 205.279 96.4008 206.828V211H95.1268V203.328H96.4008V204.574ZM103.695 211.126C102.977 211.126 102.323 210.963 101.735 210.636C101.157 210.309 100.699 209.847 100.363 209.25C100.037 208.643 99.8735 207.943 99.8735 207.15C99.8735 206.366 100.041 205.675 100.377 205.078C100.723 204.471 101.189 204.009 101.777 203.692C102.365 203.365 103.023 203.202 103.751 203.202C104.479 203.202 105.137 203.365 105.725 203.692C106.313 204.009 106.775 204.467 107.111 205.064C107.457 205.661 107.629 206.357 107.629 207.15C107.629 207.943 107.452 208.643 107.097 209.25C106.752 209.847 106.281 210.309 105.683 210.636C105.086 210.963 104.423 211.126 103.695 211.126ZM103.695 210.006C104.153 210.006 104.582 209.899 104.983 209.684C105.385 209.469 105.707 209.147 105.949 208.718C106.201 208.289 106.327 207.766 106.327 207.15C106.327 206.534 106.206 206.011 105.963 205.582C105.721 205.153 105.403 204.835 105.011 204.63C104.619 204.415 104.195 204.308 103.737 204.308C103.271 204.308 102.841 204.415 102.449 204.63C102.067 204.835 101.759 205.153 101.525 205.582C101.292 206.011 101.175 206.534 101.175 207.15C101.175 207.775 101.287 208.303 101.511 208.732C101.745 209.161 102.053 209.483 102.435 209.698C102.818 209.903 103.238 210.006 103.695 210.006ZM112.161 209.824L114.541 203.328H115.899L112.889 211H111.405L108.395 203.328H109.767L112.161 209.824ZM117.81 202.082C117.568 202.082 117.362 201.998 117.194 201.83C117.026 201.662 116.942 201.457 116.942 201.214C116.942 200.971 117.026 200.766 117.194 200.598C117.362 200.43 117.568 200.346 117.81 200.346C118.044 200.346 118.24 200.43 118.398 200.598C118.566 200.766 118.65 200.971 118.65 201.214C118.65 201.457 118.566 201.662 118.398 201.83C118.24 201.998 118.044 202.082 117.81 202.082ZM118.426 203.328V211H117.152V203.328H118.426ZM120.122 207.136C120.122 206.352 120.28 205.666 120.598 205.078C120.915 204.481 121.349 204.019 121.9 203.692C122.46 203.365 123.085 203.202 123.776 203.202C124.373 203.202 124.928 203.342 125.442 203.622C125.955 203.893 126.347 204.252 126.618 204.7V200.64H127.906V211H126.618V209.558C126.366 210.015 125.992 210.393 125.498 210.692C125.003 210.981 124.424 211.126 123.762 211.126C123.08 211.126 122.46 210.958 121.9 210.622C121.349 210.286 120.915 209.815 120.598 209.208C120.28 208.601 120.122 207.911 120.122 207.136ZM126.618 207.15C126.618 206.571 126.501 206.067 126.268 205.638C126.034 205.209 125.717 204.882 125.316 204.658C124.924 204.425 124.49 204.308 124.014 204.308C123.538 204.308 123.104 204.42 122.712 204.644C122.32 204.868 122.007 205.195 121.774 205.624C121.54 206.053 121.424 206.557 121.424 207.136C121.424 207.724 121.54 208.237 121.774 208.676C122.007 209.105 122.32 209.437 122.712 209.67C123.104 209.894 123.538 210.006 124.014 210.006C124.49 210.006 124.924 209.894 125.316 209.67C125.717 209.437 126.034 209.105 126.268 208.676C126.501 208.237 126.618 207.729 126.618 207.15ZM137.058 206.87C137.058 207.113 137.044 207.369 137.016 207.64H130.884C130.931 208.396 131.188 208.989 131.654 209.418C132.13 209.838 132.704 210.048 133.376 210.048C133.927 210.048 134.384 209.922 134.748 209.67C135.122 209.409 135.383 209.063 135.532 208.634H136.904C136.699 209.371 136.288 209.973 135.672 210.44C135.056 210.897 134.291 211.126 133.376 211.126C132.648 211.126 131.995 210.963 131.416 210.636C130.847 210.309 130.399 209.847 130.072 209.25C129.746 208.643 129.582 207.943 129.582 207.15C129.582 206.357 129.741 205.661 130.058 205.064C130.376 204.467 130.819 204.009 131.388 203.692C131.967 203.365 132.63 203.202 133.376 203.202C134.104 203.202 134.748 203.361 135.308 203.678C135.868 203.995 136.298 204.434 136.596 204.994C136.904 205.545 137.058 206.17 137.058 206.87ZM135.742 206.604C135.742 206.119 135.635 205.703 135.42 205.358C135.206 205.003 134.912 204.737 134.538 204.56C134.174 204.373 133.768 204.28 133.32 204.28C132.676 204.28 132.126 204.485 131.668 204.896C131.22 205.307 130.964 205.876 130.898 206.604H135.742ZM140.014 204.574C140.238 204.135 140.555 203.795 140.966 203.552C141.386 203.309 141.895 203.188 142.492 203.188V204.504H142.156C140.728 204.504 140.014 205.279 140.014 206.828V211H138.74V203.328H140.014V204.574ZM143.557 213.604V213.478C144.518 212.489 145.246 211.336 145.741 210.02C146.245 208.704 146.497 207.323 146.497 205.876C146.497 204.392 146.231 202.964 145.699 201.592C145.176 200.211 144.392 199.03 143.347 198.05V197.924H144.677C145.657 198.829 146.408 199.982 146.931 201.382C147.463 202.773 147.729 204.271 147.729 205.876C147.729 207.444 147.477 208.905 146.973 210.258C146.478 211.611 145.783 212.727 144.887 213.604H143.557ZM150.726 211.084C150.484 211.084 150.278 211 150.11 210.832C149.942 210.664 149.858 210.459 149.858 210.216C149.858 209.973 149.942 209.768 150.11 209.6C150.278 209.432 150.484 209.348 150.726 209.348C150.96 209.348 151.156 209.432 151.314 209.6C151.482 209.768 151.566 209.973 151.566 210.216C151.566 210.459 151.482 210.664 151.314 210.832C151.156 211 150.96 211.084 150.726 211.084Z" fill="#6B6B6E"/>
<rect width="80" height="80" rx="40" fill="#DADADC"/>
<path d="M32.1819 33.816C32.2885 31.6827 33.0352 30.04 34.4219 28.888C35.8299 27.7147 37.6752 27.128 39.9579 27.128C41.5152 27.128 42.8485 27.4053 43.9579 27.96C45.0672 28.4933 45.8992 29.2293 46.4539 30.168C47.0299 31.0853 47.3179 32.1307 47.3179 33.304C47.3179 34.648 46.9659 35.7893 46.2619 36.728C45.5792 37.6453 44.7579 38.264 43.7979 38.584V38.712C45.0352 39.096 45.9952 39.7787 46.6779 40.76C47.3819 41.7413 47.7339 43 47.7339 44.536C47.7339 45.816 47.4352 46.9573 46.8379 47.96C46.2619 48.9627 45.3979 49.752 44.2459 50.328C43.1152 50.8827 41.7499 51.16 40.1499 51.16C37.7392 51.16 35.7765 50.552 34.2619 49.336C32.7472 48.12 31.9472 46.328 31.8619 43.96H36.2139C36.2565 45.0053 36.6085 45.848 37.2699 46.488C37.9525 47.1067 38.8805 47.416 40.0539 47.416C41.1419 47.416 41.9739 47.1173 42.5499 46.52C43.1472 45.9013 43.4459 45.112 43.4459 44.152C43.4459 42.872 43.0405 41.9547 42.2299 41.4C41.4192 40.8453 40.1605 40.568 38.4539 40.568H37.5259V36.888H38.4539C41.4832 36.888 42.9979 35.8747 42.9979 33.848C42.9979 32.9307 42.7205 32.216 42.1659 31.704C41.6325 31.192 40.8539 30.936 39.8299 30.936C38.8272 30.936 38.0485 31.2133 37.4939 31.768C36.9605 32.3013 36.6512 32.984 36.5659 33.816H32.1819Z" fill="#2E303A"/>
</svg>
