<svg width="218" height="219" viewBox="0 0 218 219" fill="none" xmlns="http://www.w3.org/2000/svg">
<path d="M18.036 108.436L14.526 121H11.556L9.198 112.054L6.732 121L3.78 121.018L0.396 108.436H3.096L5.31 118.192L7.866 108.436H10.674L13.086 118.138L15.318 108.436H18.036ZM20.9595 109.84C20.5155 109.84 20.1435 109.702 19.8435 109.426C19.5555 109.138 19.4115 108.784 19.4115 108.364C19.4115 107.944 19.5555 107.596 19.8435 107.32C20.1435 107.032 20.5155 106.888 20.9595 106.888C21.4035 106.888 21.7695 107.032 22.0575 107.32C22.3575 107.596 22.5075 107.944 22.5075 108.364C22.5075 108.784 22.3575 109.138 22.0575 109.426C21.7695 109.702 21.4035 109.84 20.9595 109.84ZM22.2015 111.028V121H19.6815V111.028H22.2015ZM27.2112 112.576C27.5352 112.048 27.9552 111.634 28.4712 111.334C28.9992 111.034 29.5992 110.884 30.2712 110.884V113.53H29.6052C28.8132 113.53 28.2132 113.716 27.8052 114.088C27.4092 114.46 27.2112 115.108 27.2112 116.032V121H24.6912V111.028H27.2112V112.576ZM41.2386 115.798C41.2386 116.158 41.2146 116.482 41.1666 116.77H33.8766C33.9366 117.49 34.1886 118.054 34.6326 118.462C35.0766 118.87 35.6226 119.074 36.2706 119.074C37.2066 119.074 37.8726 118.672 38.2686 117.868H40.9866C40.6986 118.828 40.1466 119.62 39.3306 120.244C38.5146 120.856 37.5126 121.162 36.3246 121.162C35.3646 121.162 34.5006 120.952 33.7326 120.532C32.9766 120.1 32.3826 119.494 31.9506 118.714C31.5306 117.934 31.3206 117.034 31.3206 116.014C31.3206 114.982 31.5306 114.076 31.9506 113.296C32.3706 112.516 32.9586 111.916 33.7146 111.496C34.4706 111.076 35.3406 110.866 36.3246 110.866C37.2726 110.866 38.1186 111.07 38.8626 111.478C39.6186 111.886 40.2006 112.468 40.6086 113.224C41.0286 113.968 41.2386 114.826 41.2386 115.798ZM38.6286 115.078C38.6166 114.43 38.3826 113.914 37.9266 113.53C37.4706 113.134 36.9126 112.936 36.2526 112.936C35.6286 112.936 35.1006 113.128 34.6686 113.512C34.2486 113.884 33.9906 114.406 33.8946 115.078H38.6286ZM47.6499 113.098H45.9039V121H43.3479V113.098H42.2139V111.028H43.3479V110.524C43.3479 109.3 43.6959 108.4 44.3919 107.824C45.0879 107.248 46.1379 106.978 47.5419 107.014V109.138C46.9299 109.126 46.5039 109.228 46.2639 109.444C46.0239 109.66 45.9039 110.05 45.9039 110.614V111.028H47.6499V113.098ZM51.803 112.576C52.127 112.048 52.547 111.634 53.063 111.334C53.591 111.034 54.191 110.884 54.863 110.884V113.53H54.197C53.405 113.53 52.805 113.716 52.397 114.088C52.001 114.46 51.803 115.108 51.803 116.032V121H49.283V111.028H51.803V112.576ZM55.9124 115.978C55.9124 114.97 56.1104 114.076 56.5064 113.296C56.9144 112.516 57.4604 111.916 58.1444 111.496C58.8404 111.076 59.6144 110.866 60.4664 110.866C61.2104 110.866 61.8584 111.016 62.4104 111.316C62.9744 111.616 63.4244 111.994 63.7604 112.45V111.028H66.2984V121H63.7604V119.542C63.4364 120.01 62.9864 120.4 62.4104 120.712C61.8464 121.012 61.1924 121.162 60.4484 121.162C59.6084 121.162 58.8404 120.946 58.1444 120.514C57.4604 120.082 56.9144 119.476 56.5064 118.696C56.1104 117.904 55.9124 116.998 55.9124 115.978ZM63.7604 116.014C63.7604 115.402 63.6404 114.88 63.4004 114.448C63.1604 114.004 62.8364 113.668 62.4284 113.44C62.0204 113.2 61.5824 113.08 61.1144 113.08C60.6464 113.08 60.2144 113.194 59.8184 113.422C59.4224 113.65 59.0984 113.986 58.8464 114.43C58.6064 114.862 58.4864 115.378 58.4864 115.978C58.4864 116.578 58.6064 117.106 58.8464 117.562C59.0984 118.006 59.4224 118.348 59.8184 118.588C60.2264 118.828 60.6584 118.948 61.1144 118.948C61.5824 118.948 62.0204 118.834 62.4284 118.606C62.8364 118.366 63.1604 118.03 63.4004 117.598C63.6404 117.154 63.7604 116.626 63.7604 116.014ZM81.1436 110.884C82.3676 110.884 83.3516 111.262 84.0956 112.018C84.8516 112.762 85.2296 113.806 85.2296 115.15V121H82.7096V115.492C82.7096 114.712 82.5116 114.118 82.1156 113.71C81.7196 113.29 81.1796 113.08 80.4956 113.08C79.8116 113.08 79.2656 113.29 78.8576 113.71C78.4616 114.118 78.2636 114.712 78.2636 115.492V121H75.7436V115.492C75.7436 114.712 75.5456 114.118 75.1496 113.71C74.7536 113.29 74.2136 113.08 73.5296 113.08C72.8336 113.08 72.2816 113.29 71.8736 113.71C71.4776 114.118 71.2796 114.712 71.2796 115.492V121H68.7596V111.028H71.2796V112.234C71.6036 111.814 72.0176 111.484 72.5216 111.244C73.0376 111.004 73.6016 110.884 74.2136 110.884C74.9936 110.884 75.6896 111.052 76.3016 111.388C76.9136 111.712 77.3876 112.18 77.7236 112.792C78.0476 112.216 78.5156 111.754 79.1276 111.406C79.7516 111.058 80.4236 110.884 81.1436 110.884ZM96.8909 115.798C96.8909 116.158 96.8669 116.482 96.8189 116.77H89.5289C89.5889 117.49 89.8409 118.054 90.2849 118.462C90.7289 118.87 91.2749 119.074 91.9229 119.074C92.8589 119.074 93.5249 118.672 93.9209 117.868H96.6389C96.3509 118.828 95.7989 119.62 94.9829 120.244C94.1669 120.856 93.1649 121.162 91.9769 121.162C91.0169 121.162 90.1529 120.952 89.3849 120.532C88.6289 120.1 88.0349 119.494 87.6029 118.714C87.1829 117.934 86.9729 117.034 86.9729 116.014C86.9729 114.982 87.1829 114.076 87.6029 113.296C88.0229 112.516 88.6109 111.916 89.3669 111.496C90.1229 111.076 90.9929 110.866 91.9769 110.866C92.9249 110.866 93.7709 111.07 94.5149 111.478C95.2709 111.886 95.8529 112.468 96.2609 113.224C96.6809 113.968 96.8909 114.826 96.8909 115.798ZM94.2809 115.078C94.2689 114.43 94.0349 113.914 93.5789 113.53C93.1229 113.134 92.5649 112.936 91.9049 112.936C91.2809 112.936 90.7529 113.128 90.3209 113.512C89.9009 113.884 89.6429 114.406 89.5469 115.078H94.2809ZM112.685 121L111.317 119.65C110.153 120.694 108.731 121.216 107.051 121.216C106.127 121.216 105.311 121.06 104.603 120.748C103.907 120.424 103.367 119.974 102.983 119.398C102.599 118.81 102.407 118.132 102.407 117.364C102.407 116.536 102.641 115.792 103.109 115.132C103.577 114.472 104.267 113.938 105.179 113.53C104.855 113.134 104.621 112.756 104.477 112.396C104.333 112.024 104.261 111.628 104.261 111.208C104.261 110.632 104.411 110.116 104.711 109.66C105.011 109.192 105.437 108.826 105.989 108.562C106.553 108.298 107.207 108.166 107.951 108.166C108.707 108.166 109.355 108.31 109.895 108.598C110.435 108.886 110.837 109.27 111.101 109.75C111.365 110.23 111.479 110.764 111.443 111.352H108.995C109.007 110.956 108.911 110.656 108.707 110.452C108.503 110.236 108.227 110.128 107.879 110.128C107.543 110.128 107.261 110.23 107.033 110.434C106.817 110.626 106.709 110.878 106.709 111.19C106.709 111.49 106.799 111.79 106.979 112.09C107.159 112.378 107.453 112.738 107.861 113.17L111.029 116.302C111.053 116.278 111.071 116.254 111.083 116.23C111.095 116.206 111.107 116.182 111.119 116.158L112.145 114.448H114.773L113.513 116.662C113.273 117.13 113.015 117.574 112.739 117.994L115.781 121H112.685ZM107.123 119.128C108.107 119.128 108.977 118.78 109.733 118.084L106.637 115.024C105.473 115.54 104.891 116.272 104.891 117.22C104.891 117.76 105.095 118.216 105.503 118.588C105.911 118.948 106.451 119.128 107.123 119.128ZM129.868 108.436V110.47H126.52V121H124V110.47H120.652V108.436H129.868ZM140.977 115.798C140.977 116.158 140.953 116.482 140.905 116.77H133.615C133.675 117.49 133.927 118.054 134.371 118.462C134.815 118.87 135.361 119.074 136.009 119.074C136.945 119.074 137.611 118.672 138.007 117.868H140.725C140.437 118.828 139.885 119.62 139.069 120.244C138.253 120.856 137.251 121.162 136.063 121.162C135.103 121.162 134.239 120.952 133.471 120.532C132.715 120.1 132.121 119.494 131.689 118.714C131.269 117.934 131.059 117.034 131.059 116.014C131.059 114.982 131.269 114.076 131.689 113.296C132.109 112.516 132.697 111.916 133.453 111.496C134.209 111.076 135.079 110.866 136.063 110.866C137.011 110.866 137.857 111.07 138.601 111.478C139.357 111.886 139.939 112.468 140.347 113.224C140.767 113.968 140.977 114.826 140.977 115.798ZM138.367 115.078C138.355 114.43 138.121 113.914 137.665 113.53C137.209 113.134 136.651 112.936 135.991 112.936C135.367 112.936 134.839 113.128 134.407 113.512C133.987 113.884 133.729 114.406 133.633 115.078H138.367ZM146.632 121.162C145.816 121.162 145.084 121.018 144.436 120.73C143.788 120.43 143.272 120.028 142.888 119.524C142.516 119.02 142.312 118.462 142.276 117.85H144.814C144.862 118.234 145.048 118.552 145.372 118.804C145.708 119.056 146.122 119.182 146.614 119.182C147.094 119.182 147.466 119.086 147.73 118.894C148.006 118.702 148.144 118.456 148.144 118.156C148.144 117.832 147.976 117.592 147.64 117.436C147.316 117.268 146.794 117.088 146.074 116.896C145.33 116.716 144.718 116.53 144.238 116.338C143.77 116.146 143.362 115.852 143.014 115.456C142.678 115.06 142.51 114.526 142.51 113.854C142.51 113.302 142.666 112.798 142.978 112.342C143.302 111.886 143.758 111.526 144.346 111.262C144.946 110.998 145.648 110.866 146.452 110.866C147.64 110.866 148.588 111.166 149.296 111.766C150.004 112.354 150.394 113.152 150.466 114.16H148.054C148.018 113.764 147.85 113.452 147.55 113.224C147.262 112.984 146.872 112.864 146.38 112.864C145.924 112.864 145.57 112.948 145.318 113.116C145.078 113.284 144.958 113.518 144.958 113.818C144.958 114.154 145.126 114.412 145.462 114.592C145.798 114.76 146.32 114.934 147.028 115.114C147.748 115.294 148.342 115.48 148.81 115.672C149.278 115.864 149.68 116.164 150.016 116.572C150.364 116.968 150.544 117.496 150.556 118.156C150.556 118.732 150.394 119.248 150.07 119.704C149.758 120.16 149.302 120.52 148.702 120.784C148.114 121.036 147.424 121.162 146.632 121.162ZM155.559 113.098V117.922C155.559 118.258 155.637 118.504 155.793 118.66C155.961 118.804 156.237 118.876 156.621 118.876H157.791V121H156.207C154.083 121 153.021 119.968 153.021 117.904V113.098H151.833V111.028H153.021V108.562H155.559V111.028H157.791V113.098H155.559Z" fill="#2E303A"/>
<path d="M0.602 156.114C0.602 155.162 0.816667 154.308 1.246 153.552C1.67533 152.787 2.25867 152.189 2.996 151.76C3.74267 151.331 4.56867 151.116 5.474 151.116C6.538 151.116 7.46667 151.373 8.26 151.886C9.05333 152.399 9.632 153.127 9.996 154.07H8.47C8.19933 153.482 7.80733 153.029 7.294 152.712C6.79 152.395 6.18333 152.236 5.474 152.236C4.79267 152.236 4.18133 152.395 3.64 152.712C3.09867 153.029 2.674 153.482 2.366 154.07C2.058 154.649 1.904 155.33 1.904 156.114C1.904 156.889 2.058 157.57 2.366 158.158C2.674 158.737 3.09867 159.185 3.64 159.502C4.18133 159.819 4.79267 159.978 5.474 159.978C6.18333 159.978 6.79 159.824 7.294 159.516C7.80733 159.199 8.19933 158.746 8.47 158.158H9.996C9.632 159.091 9.05333 159.815 8.26 160.328C7.46667 160.832 6.538 161.084 5.474 161.084C4.56867 161.084 3.74267 160.874 2.996 160.454C2.25867 160.025 1.67533 159.432 1.246 158.676C0.816667 157.92 0.602 157.066 0.602 156.114ZM13.1665 154.574C13.3905 154.135 13.7078 153.795 14.1185 153.552C14.5385 153.309 15.0471 153.188 15.6445 153.188V154.504H15.3085C13.8805 154.504 13.1665 155.279 13.1665 156.828V161H11.8925V153.328H13.1665V154.574ZM24.1151 156.87C24.1151 157.113 24.1011 157.369 24.0731 157.64H17.9411C17.9878 158.396 18.2444 158.989 18.7111 159.418C19.1871 159.838 19.7611 160.048 20.4331 160.048C20.9838 160.048 21.4411 159.922 21.8051 159.67C22.1784 159.409 22.4398 159.063 22.5891 158.634H23.9611C23.7558 159.371 23.3451 159.973 22.7291 160.44C22.1131 160.897 21.3478 161.126 20.4331 161.126C19.7051 161.126 19.0518 160.963 18.4731 160.636C17.9038 160.309 17.4558 159.847 17.1291 159.25C16.8024 158.643 16.6391 157.943 16.6391 157.15C16.6391 156.357 16.7978 155.661 17.1151 155.064C17.4324 154.467 17.8758 154.009 18.4451 153.692C19.0238 153.365 19.6864 153.202 20.4331 153.202C21.1611 153.202 21.8051 153.361 22.3651 153.678C22.9251 153.995 23.3544 154.434 23.6531 154.994C23.9611 155.545 24.1151 156.17 24.1151 156.87ZM22.7991 156.604C22.7991 156.119 22.6918 155.703 22.4771 155.358C22.2624 155.003 21.9684 154.737 21.5951 154.56C21.2311 154.373 20.8251 154.28 20.3771 154.28C19.7331 154.28 19.1824 154.485 18.7251 154.896C18.2771 155.307 18.0204 155.876 17.9551 156.604H22.7991ZM25.3208 157.136C25.3208 156.352 25.4794 155.666 25.7968 155.078C26.1141 154.481 26.5481 154.019 27.0988 153.692C27.6588 153.365 28.2794 153.202 28.9608 153.202C29.6328 153.202 30.2161 153.347 30.7108 153.636C31.2054 153.925 31.5741 154.289 31.8168 154.728V153.328H33.1048V161H31.8168V159.572C31.5648 160.02 31.1868 160.393 30.6828 160.692C30.1881 160.981 29.6094 161.126 28.9468 161.126C28.2654 161.126 27.6494 160.958 27.0988 160.622C26.5481 160.286 26.1141 159.815 25.7968 159.208C25.4794 158.601 25.3208 157.911 25.3208 157.136ZM31.8168 157.15C31.8168 156.571 31.7001 156.067 31.4668 155.638C31.2334 155.209 30.9161 154.882 30.5148 154.658C30.1228 154.425 29.6888 154.308 29.2128 154.308C28.7368 154.308 28.3028 154.42 27.9108 154.644C27.5188 154.868 27.2061 155.195 26.9728 155.624C26.7394 156.053 26.6228 156.557 26.6228 157.136C26.6228 157.724 26.7394 158.237 26.9728 158.676C27.2061 159.105 27.5188 159.437 27.9108 159.67C28.3028 159.894 28.7368 160.006 29.2128 160.006C29.6888 160.006 30.1228 159.894 30.5148 159.67C30.9161 159.437 31.2334 159.105 31.4668 158.676C31.7001 158.237 31.8168 157.729 31.8168 157.15ZM36.8117 154.378V158.9C36.8117 159.273 36.891 159.539 37.0497 159.698C37.2084 159.847 37.4837 159.922 37.8757 159.922H38.8137V161H37.6657C36.9564 161 36.4244 160.837 36.0697 160.51C35.715 160.183 35.5377 159.647 35.5377 158.9V154.378H34.5437V153.328H35.5377V151.396H36.8117V153.328H38.8137V154.378H36.8117ZM47.3573 156.87C47.3573 157.113 47.3433 157.369 47.3153 157.64H41.1833C41.23 158.396 41.4866 158.989 41.9533 159.418C42.4293 159.838 43.0033 160.048 43.6753 160.048C44.226 160.048 44.6833 159.922 45.0473 159.67C45.4206 159.409 45.682 159.063 45.8313 158.634H47.2033C46.998 159.371 46.5873 159.973 45.9713 160.44C45.3553 160.897 44.59 161.126 43.6753 161.126C42.9473 161.126 42.294 160.963 41.7153 160.636C41.146 160.309 40.698 159.847 40.3713 159.25C40.0446 158.643 39.8813 157.943 39.8813 157.15C39.8813 156.357 40.04 155.661 40.3573 155.064C40.6746 154.467 41.118 154.009 41.6873 153.692C42.266 153.365 42.9286 153.202 43.6753 153.202C44.4033 153.202 45.0473 153.361 45.6073 153.678C46.1673 153.995 46.5966 154.434 46.8953 154.994C47.2033 155.545 47.3573 156.17 47.3573 156.87ZM46.0413 156.604C46.0413 156.119 45.934 155.703 45.7193 155.358C45.5046 155.003 45.2106 154.737 44.8373 154.56C44.4733 154.373 44.0673 154.28 43.6193 154.28C42.9753 154.28 42.4246 154.485 41.9673 154.896C41.5193 155.307 41.2626 155.876 41.1973 156.604H46.0413ZM62.9914 153.328L60.5974 161H59.2814L57.4334 154.91L55.5854 161H54.2694L51.8614 153.328H53.1634L54.9274 159.768L56.8314 153.328H58.1334L59.9954 159.782L61.7314 153.328H62.9914ZM64.9137 152.082C64.6711 152.082 64.4657 151.998 64.2977 151.83C64.1297 151.662 64.0457 151.457 64.0457 151.214C64.0457 150.971 64.1297 150.766 64.2977 150.598C64.4657 150.43 64.6711 150.346 64.9137 150.346C65.1471 150.346 65.3431 150.43 65.5017 150.598C65.6697 150.766 65.7537 150.971 65.7537 151.214C65.7537 151.457 65.6697 151.662 65.5017 151.83C65.3431 151.998 65.1471 152.082 64.9137 152.082ZM65.5297 153.328V161H64.2557V153.328H65.5297ZM68.975 154.574C69.199 154.135 69.5164 153.795 69.927 153.552C70.347 153.309 70.8557 153.188 71.453 153.188V154.504H71.117C69.689 154.504 68.975 155.279 68.975 156.828V161H67.701V153.328H68.975V154.574ZM79.9237 156.87C79.9237 157.113 79.9097 157.369 79.8817 157.64H73.7497C73.7964 158.396 74.053 158.989 74.5197 159.418C74.9957 159.838 75.5697 160.048 76.2417 160.048C76.7924 160.048 77.2497 159.922 77.6137 159.67C77.987 159.409 78.2484 159.063 78.3977 158.634H79.7697C79.5644 159.371 79.1537 159.973 78.5377 160.44C77.9217 160.897 77.1564 161.126 76.2417 161.126C75.5137 161.126 74.8604 160.963 74.2817 160.636C73.7124 160.309 73.2644 159.847 72.9377 159.25C72.611 158.643 72.4477 157.943 72.4477 157.15C72.4477 156.357 72.6064 155.661 72.9237 155.064C73.241 154.467 73.6844 154.009 74.2537 153.692C74.8324 153.365 75.495 153.202 76.2417 153.202C76.9697 153.202 77.6137 153.361 78.1737 153.678C78.7337 153.995 79.163 154.434 79.4617 154.994C79.7697 155.545 79.9237 156.17 79.9237 156.87ZM78.6077 156.604C78.6077 156.119 78.5004 155.703 78.2857 155.358C78.071 155.003 77.777 154.737 77.4037 154.56C77.0397 154.373 76.6337 154.28 76.1857 154.28C75.5417 154.28 74.991 154.485 74.5337 154.896C74.0857 155.307 73.829 155.876 73.7637 156.604H78.6077ZM84.7273 154.378H83.1173V161H81.8433V154.378H80.8493V153.328H81.8433V152.782C81.8433 151.923 82.0627 151.298 82.5013 150.906C82.9493 150.505 83.6633 150.304 84.6433 150.304V151.368C84.0833 151.368 83.6867 151.48 83.4533 151.704C83.2293 151.919 83.1173 152.278 83.1173 152.782V153.328H84.7273V154.378ZM87.4868 154.574C87.7108 154.135 88.0281 153.795 88.4388 153.552C88.8588 153.309 89.3674 153.188 89.9648 153.188V154.504H89.6288C88.2008 154.504 87.4868 155.279 87.4868 156.828V161H86.2128V153.328H87.4868V154.574ZM90.9594 157.136C90.9594 156.352 91.1181 155.666 91.4354 155.078C91.7528 154.481 92.1868 154.019 92.7374 153.692C93.2974 153.365 93.9181 153.202 94.5994 153.202C95.2714 153.202 95.8548 153.347 96.3494 153.636C96.8441 153.925 97.2128 154.289 97.4554 154.728V153.328H98.7434V161H97.4554V159.572C97.2034 160.02 96.8254 160.393 96.3214 160.692C95.8268 160.981 95.2481 161.126 94.5854 161.126C93.9041 161.126 93.2881 160.958 92.7374 160.622C92.1868 160.286 91.7528 159.815 91.4354 159.208C91.1181 158.601 90.9594 157.911 90.9594 157.136ZM97.4554 157.15C97.4554 156.571 97.3388 156.067 97.1054 155.638C96.8721 155.209 96.5548 154.882 96.1534 154.658C95.7614 154.425 95.3274 154.308 94.8514 154.308C94.3754 154.308 93.9414 154.42 93.5494 154.644C93.1574 154.868 92.8448 155.195 92.6114 155.624C92.3781 156.053 92.2614 156.557 92.2614 157.136C92.2614 157.724 92.3781 158.237 92.6114 158.676C92.8448 159.105 93.1574 159.437 93.5494 159.67C93.9414 159.894 94.3754 160.006 94.8514 160.006C95.3274 160.006 95.7614 159.894 96.1534 159.67C96.5548 159.437 96.8721 159.105 97.1054 158.676C97.3388 158.237 97.4554 157.729 97.4554 157.15ZM110.122 153.188C110.72 153.188 111.252 153.314 111.718 153.566C112.185 153.809 112.554 154.177 112.824 154.672C113.095 155.167 113.23 155.769 113.23 156.478V161H111.97V156.66C111.97 155.895 111.779 155.311 111.396 154.91C111.023 154.499 110.514 154.294 109.87 154.294C109.208 154.294 108.68 154.509 108.288 154.938C107.896 155.358 107.7 155.969 107.7 156.772V161H106.44V156.66C106.44 155.895 106.249 155.311 105.866 154.91C105.493 154.499 104.984 154.294 104.34 154.294C103.678 154.294 103.15 154.509 102.758 154.938C102.366 155.358 102.17 155.969 102.17 156.772V161H100.896V153.328H102.17V154.434C102.422 154.033 102.758 153.725 103.178 153.51C103.608 153.295 104.079 153.188 104.592 153.188C105.236 153.188 105.806 153.333 106.3 153.622C106.795 153.911 107.164 154.336 107.406 154.896C107.621 154.355 107.976 153.935 108.47 153.636C108.965 153.337 109.516 153.188 110.122 153.188ZM122.32 156.87C122.32 157.113 122.306 157.369 122.278 157.64H116.146C116.193 158.396 116.45 158.989 116.916 159.418C117.392 159.838 117.966 160.048 118.638 160.048C119.189 160.048 119.646 159.922 120.01 159.67C120.384 159.409 120.645 159.063 120.794 158.634H122.166C121.961 159.371 121.55 159.973 120.934 160.44C120.318 160.897 119.553 161.126 118.638 161.126C117.91 161.126 117.257 160.963 116.678 160.636C116.109 160.309 115.661 159.847 115.334 159.25C115.008 158.643 114.844 157.943 114.844 157.15C114.844 156.357 115.003 155.661 115.32 155.064C115.638 154.467 116.081 154.009 116.65 153.692C117.229 153.365 117.892 153.202 118.638 153.202C119.366 153.202 120.01 153.361 120.57 153.678C121.13 153.995 121.56 154.434 121.858 154.994C122.166 155.545 122.32 156.17 122.32 156.87ZM121.004 156.604C121.004 156.119 120.897 155.703 120.682 155.358C120.468 155.003 120.174 154.737 119.8 154.56C119.436 154.373 119.03 154.28 118.582 154.28C117.938 154.28 117.388 154.485 116.93 154.896C116.482 155.307 116.226 155.876 116.16 156.604H121.004ZM126.718 161.126C126.13 161.126 125.602 161.028 125.136 160.832C124.669 160.627 124.3 160.347 124.03 159.992C123.759 159.628 123.61 159.213 123.582 158.746H124.898C124.935 159.129 125.112 159.441 125.43 159.684C125.756 159.927 126.181 160.048 126.704 160.048C127.189 160.048 127.572 159.941 127.852 159.726C128.132 159.511 128.272 159.241 128.272 158.914C128.272 158.578 128.122 158.331 127.824 158.172C127.525 158.004 127.063 157.841 126.438 157.682C125.868 157.533 125.402 157.383 125.038 157.234C124.683 157.075 124.375 156.847 124.114 156.548C123.862 156.24 123.736 155.839 123.736 155.344C123.736 154.952 123.852 154.593 124.086 154.266C124.319 153.939 124.65 153.683 125.08 153.496C125.509 153.3 125.999 153.202 126.55 153.202C127.399 153.202 128.085 153.417 128.608 153.846C129.13 154.275 129.41 154.863 129.448 155.61H128.174C128.146 155.209 127.982 154.887 127.684 154.644C127.394 154.401 127.002 154.28 126.508 154.28C126.05 154.28 125.686 154.378 125.416 154.574C125.145 154.77 125.01 155.027 125.01 155.344C125.01 155.596 125.089 155.806 125.248 155.974C125.416 156.133 125.621 156.263 125.864 156.366C126.116 156.459 126.461 156.567 126.9 156.688C127.45 156.837 127.898 156.987 128.244 157.136C128.589 157.276 128.883 157.491 129.126 157.78C129.378 158.069 129.508 158.447 129.518 158.914C129.518 159.334 129.401 159.712 129.168 160.048C128.934 160.384 128.603 160.65 128.174 160.846C127.754 161.033 127.268 161.126 126.718 161.126ZM132.632 159.236L131.064 163.002H130.21L131.232 159.236H132.632ZM139.378 154.378V158.9C139.378 159.273 139.457 159.539 139.616 159.698C139.775 159.847 140.05 159.922 140.442 159.922H141.38V161H140.232C139.523 161 138.991 160.837 138.636 160.51C138.281 160.183 138.104 159.647 138.104 158.9V154.378H137.11V153.328H138.104V151.396H139.378V153.328H141.38V154.378H139.378ZM149.728 153.328V161H148.454V159.866C148.211 160.258 147.87 160.566 147.432 160.79C147.002 161.005 146.526 161.112 146.004 161.112C145.406 161.112 144.87 160.991 144.394 160.748C143.918 160.496 143.54 160.123 143.26 159.628C142.989 159.133 142.854 158.531 142.854 157.822V153.328H144.114V157.654C144.114 158.41 144.305 158.993 144.688 159.404C145.07 159.805 145.593 160.006 146.256 160.006C146.937 160.006 147.474 159.796 147.866 159.376C148.258 158.956 148.454 158.345 148.454 157.542V153.328H149.728ZM153.153 154.574C153.377 154.135 153.694 153.795 154.105 153.552C154.525 153.309 155.033 153.188 155.631 153.188V154.504H155.295C153.867 154.504 153.153 155.279 153.153 156.828V161H151.879V153.328H153.153V154.574ZM160.839 153.188C161.773 153.188 162.529 153.473 163.107 154.042C163.686 154.602 163.975 155.414 163.975 156.478V161H162.715V156.66C162.715 155.895 162.524 155.311 162.141 154.91C161.759 154.499 161.236 154.294 160.573 154.294C159.901 154.294 159.365 154.504 158.963 154.924C158.571 155.344 158.375 155.955 158.375 156.758V161H157.101V153.328H158.375V154.42C158.627 154.028 158.968 153.725 159.397 153.51C159.836 153.295 160.317 153.188 160.839 153.188ZM170.447 152.082C170.204 152.082 169.999 151.998 169.831 151.83C169.663 151.662 169.579 151.457 169.579 151.214C169.579 150.971 169.663 150.766 169.831 150.598C169.999 150.43 170.204 150.346 170.447 150.346C170.68 150.346 170.876 150.43 171.035 150.598C171.203 150.766 171.287 150.971 171.287 151.214C171.287 151.457 171.203 151.662 171.035 151.83C170.876 151.998 170.68 152.082 170.447 152.082ZM171.063 153.328V161H169.789V153.328H171.063ZM176.972 153.188C177.906 153.188 178.662 153.473 179.24 154.042C179.819 154.602 180.108 155.414 180.108 156.478V161H178.848V156.66C178.848 155.895 178.657 155.311 178.274 154.91C177.892 154.499 177.369 154.294 176.706 154.294C176.034 154.294 175.498 154.504 175.096 154.924C174.704 155.344 174.508 155.955 174.508 156.758V161H173.234V153.328H174.508V154.42C174.76 154.028 175.101 153.725 175.53 153.51C175.969 153.295 176.45 153.188 176.972 153.188ZM183.743 154.378V158.9C183.743 159.273 183.823 159.539 183.981 159.698C184.14 159.847 184.415 159.922 184.807 159.922H185.745V161H184.597C183.888 161 183.356 160.837 183.001 160.51C182.647 160.183 182.469 159.647 182.469 158.9V154.378H181.475V153.328H182.469V151.396H183.743V153.328H185.745V154.378H183.743ZM190.635 161.126C189.916 161.126 189.263 160.963 188.675 160.636C188.096 160.309 187.639 159.847 187.303 159.25C186.976 158.643 186.813 157.943 186.813 157.15C186.813 156.366 186.981 155.675 187.317 155.078C187.662 154.471 188.129 154.009 188.717 153.692C189.305 153.365 189.963 153.202 190.691 153.202C191.419 153.202 192.077 153.365 192.665 153.692C193.253 154.009 193.715 154.467 194.051 155.064C194.396 155.661 194.569 156.357 194.569 157.15C194.569 157.943 194.392 158.643 194.037 159.25C193.692 159.847 193.22 160.309 192.623 160.636C192.026 160.963 191.363 161.126 190.635 161.126ZM190.635 160.006C191.092 160.006 191.522 159.899 191.923 159.684C192.324 159.469 192.646 159.147 192.889 158.718C193.141 158.289 193.267 157.766 193.267 157.15C193.267 156.534 193.146 156.011 192.903 155.582C192.66 155.153 192.343 154.835 191.951 154.63C191.559 154.415 191.134 154.308 190.677 154.308C190.21 154.308 189.781 154.415 189.389 154.63C189.006 154.835 188.698 155.153 188.465 155.582C188.232 156.011 188.115 156.534 188.115 157.15C188.115 157.775 188.227 158.303 188.451 158.732C188.684 159.161 188.992 159.483 189.375 159.698C189.758 159.903 190.178 160.006 190.635 160.006ZM4.886 178.188C5.46467 178.188 5.98733 178.314 6.454 178.566C6.92067 178.809 7.28467 179.177 7.546 179.672C7.81667 180.167 7.952 180.769 7.952 181.478V186H6.692V181.66C6.692 180.895 6.50067 180.311 6.118 179.91C5.73533 179.499 5.21267 179.294 4.55 179.294C3.878 179.294 3.34133 179.504 2.94 179.924C2.548 180.344 2.352 180.955 2.352 181.758V186H1.078V175.64H2.352V179.42C2.604 179.028 2.94933 178.725 3.388 178.51C3.836 178.295 4.33533 178.188 4.886 178.188ZM10.6911 177.082C10.4484 177.082 10.2431 176.998 10.0751 176.83C9.90708 176.662 9.82308 176.457 9.82308 176.214C9.82308 175.971 9.90708 175.766 10.0751 175.598C10.2431 175.43 10.4484 175.346 10.6911 175.346C10.9244 175.346 11.1204 175.43 11.2791 175.598C11.4471 175.766 11.5311 175.971 11.5311 176.214C11.5311 176.457 11.4471 176.662 11.2791 176.83C11.1204 176.998 10.9244 177.082 10.6911 177.082ZM11.3071 178.328V186H10.0331V178.328H11.3071ZM18.7984 180.33V181.408H13.2124V180.33H18.7984ZM24.3113 179.378H22.7013V186H21.4273V179.378H20.4333V178.328H21.4273V177.782C21.4273 176.923 21.6467 176.298 22.0853 175.906C22.5333 175.505 23.2473 175.304 24.2273 175.304V176.368C23.6673 176.368 23.2707 176.48 23.0373 176.704C22.8133 176.919 22.7013 177.278 22.7013 177.782V178.328H24.3113V179.378ZM26.4548 177.082C26.2121 177.082 26.0068 176.998 25.8388 176.83C25.6708 176.662 25.5868 176.457 25.5868 176.214C25.5868 175.971 25.6708 175.766 25.8388 175.598C26.0068 175.43 26.2121 175.346 26.4548 175.346C26.6881 175.346 26.8841 175.43 27.0428 175.598C27.2108 175.766 27.2948 175.971 27.2948 176.214C27.2948 176.457 27.2108 176.662 27.0428 176.83C26.8841 176.998 26.6881 177.082 26.4548 177.082ZM27.0708 178.328V186H25.7968V178.328H27.0708ZM34.2485 179.742C34.5005 179.303 34.8738 178.939 35.3685 178.65C35.8725 178.351 36.4558 178.202 37.1185 178.202C37.7998 178.202 38.4158 178.365 38.9665 178.692C39.5265 179.019 39.9652 179.481 40.2825 180.078C40.5998 180.666 40.7585 181.352 40.7585 182.136C40.7585 182.911 40.5998 183.601 40.2825 184.208C39.9652 184.815 39.5265 185.286 38.9665 185.622C38.4158 185.958 37.7998 186.126 37.1185 186.126C36.4652 186.126 35.8865 185.981 35.3825 185.692C34.8878 185.393 34.5098 185.025 34.2485 184.586V189.64H32.9745V178.328H34.2485V179.742ZM39.4565 182.136C39.4565 181.557 39.3398 181.053 39.1065 180.624C38.8732 180.195 38.5558 179.868 38.1545 179.644C37.7625 179.42 37.3285 179.308 36.8525 179.308C36.3858 179.308 35.9518 179.425 35.5505 179.658C35.1585 179.882 34.8412 180.213 34.5985 180.652C34.3652 181.081 34.2485 181.581 34.2485 182.15C34.2485 182.729 34.3652 183.237 34.5985 183.676C34.8412 184.105 35.1585 184.437 35.5505 184.67C35.9518 184.894 36.3858 185.006 36.8525 185.006C37.3285 185.006 37.7625 184.894 38.1545 184.67C38.5558 184.437 38.8732 184.105 39.1065 183.676C39.3398 183.237 39.4565 182.724 39.4565 182.136ZM43.7094 179.574C43.9334 179.135 44.2508 178.795 44.6614 178.552C45.0814 178.309 45.5901 178.188 46.1874 178.188V179.504H45.8514C44.4234 179.504 43.7094 180.279 43.7094 181.828V186H42.4354V178.328H43.7094V179.574ZM51.0041 186.126C50.2854 186.126 49.6321 185.963 49.0441 185.636C48.4654 185.309 48.0081 184.847 47.6721 184.25C47.3454 183.643 47.1821 182.943 47.1821 182.15C47.1821 181.366 47.3501 180.675 47.6861 180.078C48.0314 179.471 48.4981 179.009 49.0861 178.692C49.6741 178.365 50.3321 178.202 51.0601 178.202C51.7881 178.202 52.4461 178.365 53.0341 178.692C53.6221 179.009 54.0841 179.467 54.4201 180.064C54.7654 180.661 54.9381 181.357 54.9381 182.15C54.9381 182.943 54.7607 183.643 54.4061 184.25C54.0607 184.847 53.5894 185.309 52.9921 185.636C52.3947 185.963 51.7321 186.126 51.0041 186.126ZM51.0041 185.006C51.4614 185.006 51.8907 184.899 52.2921 184.684C52.6934 184.469 53.0154 184.147 53.2581 183.718C53.5101 183.289 53.6361 182.766 53.6361 182.15C53.6361 181.534 53.5147 181.011 53.2721 180.582C53.0294 180.153 52.7121 179.835 52.3201 179.63C51.9281 179.415 51.5034 179.308 51.0461 179.308C50.5794 179.308 50.1501 179.415 49.7581 179.63C49.3754 179.835 49.0674 180.153 48.8341 180.582C48.6007 181.011 48.4841 181.534 48.4841 182.15C48.4841 182.775 48.5961 183.303 48.8201 183.732C49.0534 184.161 49.3614 184.483 49.7441 184.698C50.1267 184.903 50.5467 185.006 51.0041 185.006ZM58.1672 179.378V183.9C58.1672 184.273 58.2465 184.539 58.4052 184.698C58.5638 184.847 58.8392 184.922 59.2312 184.922H60.1692V186H59.0212C58.3118 186 57.7798 185.837 57.4252 185.51C57.0705 185.183 56.8932 184.647 56.8932 183.9V179.378H55.8992V178.328H56.8932V176.396H58.1672V178.328H60.1692V179.378H58.1672ZM65.0588 186.126C64.3401 186.126 63.6868 185.963 63.0988 185.636C62.5201 185.309 62.0628 184.847 61.7268 184.25C61.4001 183.643 61.2368 182.943 61.2368 182.15C61.2368 181.366 61.4048 180.675 61.7408 180.078C62.0861 179.471 62.5528 179.009 63.1408 178.692C63.7288 178.365 64.3868 178.202 65.1148 178.202C65.8428 178.202 66.5008 178.365 67.0888 178.692C67.6768 179.009 68.1388 179.467 68.4748 180.064C68.8201 180.661 68.9928 181.357 68.9928 182.15C68.9928 182.943 68.8154 183.643 68.4608 184.25C68.1154 184.847 67.6441 185.309 67.0468 185.636C66.4494 185.963 65.7868 186.126 65.0588 186.126ZM65.0588 185.006C65.5161 185.006 65.9454 184.899 66.3468 184.684C66.7481 184.469 67.0701 184.147 67.3128 183.718C67.5648 183.289 67.6908 182.766 67.6908 182.15C67.6908 181.534 67.5694 181.011 67.3268 180.582C67.0841 180.153 66.7668 179.835 66.3748 179.63C65.9828 179.415 65.5581 179.308 65.1008 179.308C64.6341 179.308 64.2048 179.415 63.8128 179.63C63.4301 179.835 63.1221 180.153 62.8888 180.582C62.6554 181.011 62.5388 181.534 62.5388 182.15C62.5388 182.775 62.6508 183.303 62.8748 183.732C63.1081 184.161 63.4161 184.483 63.7988 184.698C64.1814 184.903 64.6014 185.006 65.0588 185.006ZM72.2218 179.378V183.9C72.2218 184.273 72.3012 184.539 72.4598 184.698C72.6185 184.847 72.8938 184.922 73.2858 184.922H74.2238V186H73.0758C72.3665 186 71.8345 185.837 71.4798 185.51C71.1252 185.183 70.9478 184.647 70.9478 183.9V179.378H69.9538V178.328H70.9478V176.396H72.2218V178.328H74.2238V179.378H72.2218ZM82.3755 178.328L77.7555 189.612H76.4395L77.9515 185.916L74.8575 178.328H76.2715L78.6795 184.544L81.0595 178.328H82.3755ZM84.9301 179.742C85.1821 179.303 85.5555 178.939 86.0501 178.65C86.5541 178.351 87.1375 178.202 87.8001 178.202C88.4815 178.202 89.0975 178.365 89.6481 178.692C90.2081 179.019 90.6468 179.481 90.9641 180.078C91.2815 180.666 91.4401 181.352 91.4401 182.136C91.4401 182.911 91.2815 183.601 90.9641 184.208C90.6468 184.815 90.2081 185.286 89.6481 185.622C89.0975 185.958 88.4815 186.126 87.8001 186.126C87.1468 186.126 86.5681 185.981 86.0641 185.692C85.5695 185.393 85.1915 185.025 84.9301 184.586V189.64H83.6561V178.328H84.9301V179.742ZM90.1381 182.136C90.1381 181.557 90.0215 181.053 89.7881 180.624C89.5548 180.195 89.2375 179.868 88.8361 179.644C88.4441 179.42 88.0101 179.308 87.5341 179.308C87.0675 179.308 86.6335 179.425 86.2321 179.658C85.8401 179.882 85.5228 180.213 85.2801 180.652C85.0468 181.081 84.9301 181.581 84.9301 182.15C84.9301 182.729 85.0468 183.237 85.2801 183.676C85.5228 184.105 85.8401 184.437 86.2321 184.67C86.6335 184.894 87.0675 185.006 87.5341 185.006C88.0101 185.006 88.4441 184.894 88.8361 184.67C89.2375 184.437 89.5548 184.105 89.7881 183.676C90.0215 183.237 90.1381 182.724 90.1381 182.136ZM100.117 181.87C100.117 182.113 100.103 182.369 100.075 182.64H93.9431C93.9897 183.396 94.2464 183.989 94.7131 184.418C95.1891 184.838 95.7631 185.048 96.4351 185.048C96.9857 185.048 97.4431 184.922 97.8071 184.67C98.1804 184.409 98.4417 184.063 98.5911 183.634H99.9631C99.7577 184.371 99.3471 184.973 98.7311 185.44C98.1151 185.897 97.3497 186.126 96.4351 186.126C95.7071 186.126 95.0537 185.963 94.4751 185.636C93.9057 185.309 93.4577 184.847 93.1311 184.25C92.8044 183.643 92.6411 182.943 92.6411 182.15C92.6411 181.357 92.7997 180.661 93.1171 180.064C93.4344 179.467 93.8777 179.009 94.4471 178.692C95.0257 178.365 95.6884 178.202 96.4351 178.202C97.1631 178.202 97.8071 178.361 98.3671 178.678C98.9271 178.995 99.3564 179.434 99.6551 179.994C99.9631 180.545 100.117 181.17 100.117 181.87ZM98.8011 181.604C98.8011 181.119 98.6937 180.703 98.4791 180.358C98.2644 180.003 97.9704 179.737 97.5971 179.56C97.2331 179.373 96.8271 179.28 96.3791 179.28C95.7351 179.28 95.1844 179.485 94.7271 179.896C94.2791 180.307 94.0224 180.876 93.9571 181.604H98.8011ZM104.515 186.126C103.927 186.126 103.399 186.028 102.933 185.832C102.466 185.627 102.097 185.347 101.827 184.992C101.556 184.628 101.407 184.213 101.379 183.746H102.695C102.732 184.129 102.909 184.441 103.227 184.684C103.553 184.927 103.978 185.048 104.501 185.048C104.986 185.048 105.369 184.941 105.649 184.726C105.929 184.511 106.069 184.241 106.069 183.914C106.069 183.578 105.919 183.331 105.621 183.172C105.322 183.004 104.86 182.841 104.235 182.682C103.665 182.533 103.199 182.383 102.835 182.234C102.48 182.075 102.172 181.847 101.911 181.548C101.659 181.24 101.533 180.839 101.533 180.344C101.533 179.952 101.649 179.593 101.883 179.266C102.116 178.939 102.447 178.683 102.877 178.496C103.306 178.3 103.796 178.202 104.347 178.202C105.196 178.202 105.882 178.417 106.405 178.846C106.927 179.275 107.207 179.863 107.245 180.61H105.971C105.943 180.209 105.779 179.887 105.481 179.644C105.191 179.401 104.799 179.28 104.305 179.28C103.847 179.28 103.483 179.378 103.213 179.574C102.942 179.77 102.807 180.027 102.807 180.344C102.807 180.596 102.886 180.806 103.045 180.974C103.213 181.133 103.418 181.263 103.661 181.366C103.913 181.459 104.258 181.567 104.697 181.688C105.247 181.837 105.695 181.987 106.041 182.136C106.386 182.276 106.68 182.491 106.923 182.78C107.175 183.069 107.305 183.447 107.315 183.914C107.315 184.334 107.198 184.712 106.965 185.048C106.731 185.384 106.4 185.65 105.971 185.846C105.551 186.033 105.065 186.126 104.515 186.126ZM110.429 184.236L108.861 188.002H108.007L109.029 184.236H110.429ZM117.175 179.378V183.9C117.175 184.273 117.254 184.539 117.413 184.698C117.572 184.847 117.847 184.922 118.239 184.922H119.177V186H118.029C117.32 186 116.788 185.837 116.433 185.51C116.078 185.183 115.901 184.647 115.901 183.9V179.378H114.907V178.328H115.901V176.396H117.175V178.328H119.177V179.378H117.175ZM127.721 181.87C127.721 182.113 127.707 182.369 127.679 182.64H121.547C121.593 183.396 121.85 183.989 122.317 184.418C122.793 184.838 123.367 185.048 124.039 185.048C124.589 185.048 125.047 184.922 125.411 184.67C125.784 184.409 126.045 184.063 126.195 183.634H127.567C127.361 184.371 126.951 184.973 126.335 185.44C125.719 185.897 124.953 186.126 124.039 186.126C123.311 186.126 122.657 185.963 122.079 185.636C121.509 185.309 121.061 184.847 120.735 184.25C120.408 183.643 120.245 182.943 120.245 182.15C120.245 181.357 120.403 180.661 120.721 180.064C121.038 179.467 121.481 179.009 122.051 178.692C122.629 178.365 123.292 178.202 124.039 178.202C124.767 178.202 125.411 178.361 125.971 178.678C126.531 178.995 126.96 179.434 127.259 179.994C127.567 180.545 127.721 181.17 127.721 181.87ZM126.405 181.604C126.405 181.119 126.297 180.703 126.083 180.358C125.868 180.003 125.574 179.737 125.201 179.56C124.837 179.373 124.431 179.28 123.983 179.28C123.339 179.28 122.788 179.485 122.331 179.896C121.883 180.307 121.626 180.876 121.561 181.604H126.405ZM132.118 186.126C131.53 186.126 131.003 186.028 130.536 185.832C130.07 185.627 129.701 185.347 129.43 184.992C129.16 184.628 129.01 184.213 128.982 183.746H130.298C130.336 184.129 130.513 184.441 130.83 184.684C131.157 184.927 131.582 185.048 132.104 185.048C132.59 185.048 132.972 184.941 133.252 184.726C133.532 184.511 133.672 184.241 133.672 183.914C133.672 183.578 133.523 183.331 133.224 183.172C132.926 183.004 132.464 182.841 131.838 182.682C131.269 182.533 130.802 182.383 130.438 182.234C130.084 182.075 129.776 181.847 129.514 181.548C129.262 181.24 129.136 180.839 129.136 180.344C129.136 179.952 129.253 179.593 129.486 179.266C129.72 178.939 130.051 178.683 130.48 178.496C130.91 178.3 131.4 178.202 131.95 178.202C132.8 178.202 133.486 178.417 134.008 178.846C134.531 179.275 134.811 179.863 134.848 180.61H133.574C133.546 180.209 133.383 179.887 133.084 179.644C132.795 179.401 132.403 179.28 131.908 179.28C131.451 179.28 131.087 179.378 130.816 179.574C130.546 179.77 130.41 180.027 130.41 180.344C130.41 180.596 130.49 180.806 130.648 180.974C130.816 181.133 131.022 181.263 131.264 181.366C131.516 181.459 131.862 181.567 132.3 181.688C132.851 181.837 133.299 181.987 133.644 182.136C133.99 182.276 134.284 182.491 134.526 182.78C134.778 183.069 134.909 183.447 134.918 183.914C134.918 184.334 134.802 184.712 134.568 185.048C134.335 185.384 134.004 185.65 133.574 185.846C133.154 186.033 132.669 186.126 132.118 186.126ZM138.271 179.378V183.9C138.271 184.273 138.35 184.539 138.509 184.698C138.667 184.847 138.943 184.922 139.335 184.922H140.273V186H139.125C138.415 186 137.883 185.837 137.529 185.51C137.174 185.183 136.997 184.647 136.997 183.9V179.378H136.003V178.328H136.997V176.396H138.271V178.328H140.273V179.378H138.271ZM155.769 178.328L153.375 186H152.059L150.211 179.91L148.363 186H147.047L144.639 178.328H145.941L147.705 184.768L149.609 178.328H150.911L152.773 184.782L154.509 178.328H155.769ZM157.691 177.082C157.448 177.082 157.243 176.998 157.075 176.83C156.907 176.662 156.823 176.457 156.823 176.214C156.823 175.971 156.907 175.766 157.075 175.598C157.243 175.43 157.448 175.346 157.691 175.346C157.924 175.346 158.12 175.43 158.279 175.598C158.447 175.766 158.531 175.971 158.531 176.214C158.531 176.457 158.447 176.662 158.279 176.83C158.12 176.998 157.924 177.082 157.691 177.082ZM158.307 178.328V186H157.033V178.328H158.307ZM162.032 179.378V183.9C162.032 184.273 162.112 184.539 162.27 184.698C162.429 184.847 162.704 184.922 163.096 184.922H164.034V186H162.886C162.177 186 161.645 185.837 161.29 185.51C160.936 185.183 160.758 184.647 160.758 183.9V179.378H159.764V178.328H160.758V176.396H162.032V178.328H164.034V179.378H162.032ZM169.386 178.188C169.965 178.188 170.487 178.314 170.954 178.566C171.421 178.809 171.785 179.177 172.046 179.672C172.317 180.167 172.452 180.769 172.452 181.478V186H171.192V181.66C171.192 180.895 171.001 180.311 170.618 179.91C170.235 179.499 169.713 179.294 169.05 179.294C168.378 179.294 167.841 179.504 167.44 179.924C167.048 180.344 166.852 180.955 166.852 181.758V186H165.578V175.64H166.852V179.42C167.104 179.028 167.449 178.725 167.888 178.51C168.336 178.295 168.835 178.188 169.386 178.188ZM185.07 178.328V186H183.796V184.866C183.553 185.258 183.212 185.566 182.774 185.79C182.344 186.005 181.868 186.112 181.346 186.112C180.748 186.112 180.212 185.991 179.736 185.748C179.26 185.496 178.882 185.123 178.602 184.628C178.331 184.133 178.196 183.531 178.196 182.822V178.328H179.456V182.654C179.456 183.41 179.647 183.993 180.03 184.404C180.412 184.805 180.935 185.006 181.598 185.006C182.279 185.006 182.816 184.796 183.208 184.376C183.6 183.956 183.796 183.345 183.796 182.542V178.328H185.07ZM189.937 186.126C189.349 186.126 188.821 186.028 188.355 185.832C187.888 185.627 187.519 185.347 187.249 184.992C186.978 184.628 186.829 184.213 186.801 183.746H188.117C188.154 184.129 188.331 184.441 188.649 184.684C188.975 184.927 189.4 185.048 189.923 185.048C190.408 185.048 190.791 184.941 191.071 184.726C191.351 184.511 191.491 184.241 191.491 183.914C191.491 183.578 191.341 183.331 191.043 183.172C190.744 183.004 190.282 182.841 189.657 182.682C189.087 182.533 188.621 182.383 188.257 182.234C187.902 182.075 187.594 181.847 187.333 181.548C187.081 181.24 186.955 180.839 186.955 180.344C186.955 179.952 187.071 179.593 187.305 179.266C187.538 178.939 187.869 178.683 188.299 178.496C188.728 178.3 189.218 178.202 189.769 178.202C190.618 178.202 191.304 178.417 191.827 178.846C192.349 179.275 192.629 179.863 192.667 180.61H191.393C191.365 180.209 191.201 179.887 190.903 179.644C190.613 179.401 190.221 179.28 189.727 179.28C189.269 179.28 188.905 179.378 188.635 179.574C188.364 179.77 188.229 180.027 188.229 180.344C188.229 180.596 188.308 180.806 188.467 180.974C188.635 181.133 188.84 181.263 189.083 181.366C189.335 181.459 189.68 181.567 190.119 181.688C190.669 181.837 191.117 181.987 191.463 182.136C191.808 182.276 192.102 182.491 192.345 182.78C192.597 183.069 192.727 183.447 192.737 183.914C192.737 184.334 192.62 184.712 192.387 185.048C192.153 185.384 191.822 185.65 191.393 185.846C190.973 186.033 190.487 186.126 189.937 186.126ZM201.535 181.87C201.535 182.113 201.521 182.369 201.493 182.64H195.361C195.408 183.396 195.664 183.989 196.131 184.418C196.607 184.838 197.181 185.048 197.853 185.048C198.404 185.048 198.861 184.922 199.225 184.67C199.598 184.409 199.86 184.063 200.009 183.634H201.381C201.176 184.371 200.765 184.973 200.149 185.44C199.533 185.897 198.768 186.126 197.853 186.126C197.125 186.126 196.472 185.963 195.893 185.636C195.324 185.309 194.876 184.847 194.549 184.25C194.222 183.643 194.059 182.943 194.059 182.15C194.059 181.357 194.218 180.661 194.535 180.064C194.852 179.467 195.296 179.009 195.865 178.692C196.444 178.365 197.106 178.202 197.853 178.202C198.581 178.202 199.225 178.361 199.785 178.678C200.345 178.995 200.774 179.434 201.073 179.994C201.381 180.545 201.535 181.17 201.535 181.87ZM200.219 181.604C200.219 181.119 200.112 180.703 199.897 180.358C199.682 180.003 199.388 179.737 199.015 179.56C198.651 179.373 198.245 179.28 197.797 179.28C197.153 179.28 196.602 179.485 196.145 179.896C195.697 180.307 195.44 180.876 195.375 181.604H200.219ZM204.491 179.574C204.715 179.135 205.032 178.795 205.443 178.552C205.863 178.309 206.371 178.188 206.969 178.188V179.504H206.633C205.205 179.504 204.491 180.279 204.491 181.828V186H203.217V178.328H204.491V179.574ZM211.155 186.126C210.567 186.126 210.04 186.028 209.573 185.832C209.107 185.627 208.738 185.347 208.467 184.992C208.197 184.628 208.047 184.213 208.019 183.746H209.335C209.373 184.129 209.55 184.441 209.867 184.684C210.194 184.927 210.619 185.048 211.141 185.048C211.627 185.048 212.009 184.941 212.289 184.726C212.569 184.511 212.709 184.241 212.709 183.914C212.709 183.578 212.56 183.331 212.261 183.172C211.963 183.004 211.501 182.841 210.875 182.682C210.306 182.533 209.839 182.383 209.475 182.234C209.121 182.075 208.813 181.847 208.551 181.548C208.299 181.24 208.173 180.839 208.173 180.344C208.173 179.952 208.29 179.593 208.523 179.266C208.757 178.939 209.088 178.683 209.517 178.496C209.947 178.3 210.437 178.202 210.987 178.202C211.837 178.202 212.523 178.417 213.045 178.846C213.568 179.275 213.848 179.863 213.885 180.61H212.611C212.583 180.209 212.42 179.887 212.121 179.644C211.832 179.401 211.44 179.28 210.945 179.28C210.488 179.28 210.124 179.378 209.853 179.574C209.583 179.77 209.447 180.027 209.447 180.344C209.447 180.596 209.527 180.806 209.685 180.974C209.853 181.133 210.059 181.263 210.301 181.366C210.553 181.459 210.899 181.567 211.337 181.688C211.888 181.837 212.336 181.987 212.681 182.136C213.027 182.276 213.321 182.491 213.563 182.78C213.815 183.069 213.946 183.447 213.955 183.914C213.955 184.334 213.839 184.712 213.605 185.048C213.372 185.384 213.041 185.65 212.611 185.846C212.191 186.033 211.706 186.126 211.155 186.126ZM217.07 184.236L215.502 188.002H214.648L215.67 184.236H217.07ZM4.242 203.202C4.90467 203.202 5.48333 203.347 5.978 203.636C6.482 203.925 6.85533 204.289 7.098 204.728V203.328H8.386V211.168C8.386 211.868 8.23667 212.489 7.938 213.03C7.63933 213.581 7.21 214.01 6.65 214.318C6.09933 214.626 5.45533 214.78 4.718 214.78C3.71 214.78 2.87 214.542 2.198 214.066C1.526 213.59 1.12933 212.941 1.008 212.12H2.268C2.408 212.587 2.69733 212.96 3.136 213.24C3.57467 213.529 4.102 213.674 4.718 213.674C5.418 213.674 5.98733 213.455 6.426 213.016C6.874 212.577 7.098 211.961 7.098 211.168V209.558C6.846 210.006 6.47267 210.379 5.978 210.678C5.48333 210.977 4.90467 211.126 4.242 211.126C3.56067 211.126 2.94 210.958 2.38 210.622C1.82933 210.286 1.39533 209.815 1.078 209.208C0.760667 208.601 0.602 207.911 0.602 207.136C0.602 206.352 0.760667 205.666 1.078 205.078C1.39533 204.481 1.82933 204.019 2.38 203.692C2.94 203.365 3.56067 203.202 4.242 203.202ZM7.098 207.15C7.098 206.571 6.98133 206.067 6.748 205.638C6.51467 205.209 6.19733 204.882 5.796 204.658C5.404 204.425 4.97 204.308 4.494 204.308C4.018 204.308 3.584 204.42 3.192 204.644C2.8 204.868 2.48733 205.195 2.254 205.624C2.02067 206.053 1.904 206.557 1.904 207.136C1.904 207.724 2.02067 208.237 2.254 208.676C2.48733 209.105 2.8 209.437 3.192 209.67C3.584 209.894 4.018 210.006 4.494 210.006C4.97 210.006 5.404 209.894 5.796 209.67C6.19733 209.437 6.51467 209.105 6.748 208.676C6.98133 208.237 7.098 207.729 7.098 207.15ZM10.0629 207.136C10.0629 206.352 10.2216 205.666 10.5389 205.078C10.8563 204.481 11.2903 204.019 11.8409 203.692C12.4009 203.365 13.0216 203.202 13.7029 203.202C14.3749 203.202 14.9583 203.347 15.4529 203.636C15.9476 203.925 16.3163 204.289 16.5589 204.728V203.328H17.8469V211H16.5589V209.572C16.3069 210.02 15.9289 210.393 15.4249 210.692C14.9303 210.981 14.3516 211.126 13.6889 211.126C13.0076 211.126 12.3916 210.958 11.8409 210.622C11.2903 210.286 10.8563 209.815 10.5389 209.208C10.2216 208.601 10.0629 207.911 10.0629 207.136ZM16.5589 207.15C16.5589 206.571 16.4423 206.067 16.2089 205.638C15.9756 205.209 15.6583 204.882 15.2569 204.658C14.8649 204.425 14.4309 204.308 13.9549 204.308C13.4789 204.308 13.0449 204.42 12.6529 204.644C12.2609 204.868 11.9483 205.195 11.7149 205.624C11.4816 206.053 11.3649 206.557 11.3649 207.136C11.3649 207.724 11.4816 208.237 11.7149 208.676C11.9483 209.105 12.2609 209.437 12.6529 209.67C13.0449 209.894 13.4789 210.006 13.9549 210.006C14.4309 210.006 14.8649 209.894 15.2569 209.67C15.6583 209.437 15.9756 209.105 16.2089 208.676C16.4423 208.237 16.5589 207.729 16.5589 207.15ZM21.5539 204.378V208.9C21.5539 209.273 21.6332 209.539 21.7919 209.698C21.9505 209.847 22.2259 209.922 22.6179 209.922H23.5559V211H22.4079C21.6985 211 21.1665 210.837 20.8119 210.51C20.4572 210.183 20.2799 209.647 20.2799 208.9V204.378H19.2859V203.328H20.2799V201.396H21.5539V203.328H23.5559V204.378H21.5539ZM28.9075 203.188C29.4862 203.188 30.0088 203.314 30.4755 203.566C30.9422 203.809 31.3062 204.177 31.5675 204.672C31.8382 205.167 31.9735 205.769 31.9735 206.478V211H30.7135V206.66C30.7135 205.895 30.5222 205.311 30.1395 204.91C29.7568 204.499 29.2342 204.294 28.5715 204.294C27.8995 204.294 27.3628 204.504 26.9615 204.924C26.5695 205.344 26.3735 205.955 26.3735 206.758V211H25.0995V200.64H26.3735V204.42C26.6255 204.028 26.9708 203.725 27.4095 203.51C27.8575 203.295 28.3568 203.188 28.9075 203.188ZM41.0546 206.87C41.0546 207.113 41.0406 207.369 41.0126 207.64H34.8806C34.9272 208.396 35.1839 208.989 35.6506 209.418C36.1266 209.838 36.7006 210.048 37.3726 210.048C37.9232 210.048 38.3806 209.922 38.7446 209.67C39.1179 209.409 39.3792 209.063 39.5286 208.634H40.9006C40.6952 209.371 40.2846 209.973 39.6686 210.44C39.0526 210.897 38.2872 211.126 37.3726 211.126C36.6446 211.126 35.9912 210.963 35.4126 210.636C34.8432 210.309 34.3952 209.847 34.0686 209.25C33.7419 208.643 33.5786 207.943 33.5786 207.15C33.5786 206.357 33.7372 205.661 34.0546 205.064C34.3719 204.467 34.8152 204.009 35.3846 203.692C35.9632 203.365 36.6259 203.202 37.3726 203.202C38.1006 203.202 38.7446 203.361 39.3046 203.678C39.8646 203.995 40.2939 204.434 40.5926 204.994C40.9006 205.545 41.0546 206.17 41.0546 206.87ZM39.7386 206.604C39.7386 206.119 39.6312 205.703 39.4166 205.358C39.2019 205.003 38.9079 204.737 38.5346 204.56C38.1706 204.373 37.7646 204.28 37.3166 204.28C36.6726 204.28 36.1219 204.485 35.6646 204.896C35.2166 205.307 34.9599 205.876 34.8946 206.604H39.7386ZM44.0102 204.574C44.2342 204.135 44.5515 203.795 44.9622 203.552C45.3822 203.309 45.8909 203.188 46.4882 203.188V204.504H46.1522C44.7242 204.504 44.0102 205.279 44.0102 206.828V211H42.7362V203.328H44.0102V204.574ZM54.8133 204.378H53.2033V211H51.9293V204.378H50.9353V203.328H51.9293V202.782C51.9293 201.923 52.1486 201.298 52.5873 200.906C53.0353 200.505 53.7493 200.304 54.7293 200.304V201.368C54.1693 201.368 53.7726 201.48 53.5393 201.704C53.3153 201.919 53.2033 202.278 53.2033 202.782V203.328H54.8133V204.378ZM63.2987 206.87C63.2987 207.113 63.2847 207.369 63.2567 207.64H57.1247C57.1714 208.396 57.428 208.989 57.8947 209.418C58.3707 209.838 58.9447 210.048 59.6167 210.048C60.1674 210.048 60.6247 209.922 60.9887 209.67C61.362 209.409 61.6234 209.063 61.7727 208.634H63.1447C62.9394 209.371 62.5287 209.973 61.9127 210.44C61.2967 210.897 60.5314 211.126 59.6167 211.126C58.8887 211.126 58.2354 210.963 57.6567 210.636C57.0874 210.309 56.6394 209.847 56.3127 209.25C55.986 208.643 55.8227 207.943 55.8227 207.15C55.8227 206.357 55.9814 205.661 56.2987 205.064C56.616 204.467 57.0594 204.009 57.6287 203.692C58.2074 203.365 58.87 203.202 59.6167 203.202C60.3447 203.202 60.9887 203.361 61.5487 203.678C62.1087 203.995 62.538 204.434 62.8367 204.994C63.1447 205.545 63.2987 206.17 63.2987 206.87ZM61.9827 206.604C61.9827 206.119 61.8754 205.703 61.6607 205.358C61.446 205.003 61.152 204.737 60.7787 204.56C60.4147 204.373 60.0087 204.28 59.5607 204.28C58.9167 204.28 58.366 204.485 57.9087 204.896C57.4607 205.307 57.204 205.876 57.1387 206.604H61.9827ZM71.9803 206.87C71.9803 207.113 71.9663 207.369 71.9383 207.64H65.8063C65.853 208.396 66.1097 208.989 66.5763 209.418C67.0523 209.838 67.6263 210.048 68.2983 210.048C68.849 210.048 69.3063 209.922 69.6703 209.67C70.0437 209.409 70.305 209.063 70.4543 208.634H71.8263C71.621 209.371 71.2103 209.973 70.5943 210.44C69.9783 210.897 69.213 211.126 68.2983 211.126C67.5703 211.126 66.917 210.963 66.3383 210.636C65.769 210.309 65.321 209.847 64.9943 209.25C64.6677 208.643 64.5043 207.943 64.5043 207.15C64.5043 206.357 64.663 205.661 64.9803 205.064C65.2977 204.467 65.741 204.009 66.3103 203.692C66.889 203.365 67.5517 203.202 68.2983 203.202C69.0263 203.202 69.6703 203.361 70.2303 203.678C70.7903 203.995 71.2197 204.434 71.5183 204.994C71.8263 205.545 71.9803 206.17 71.9803 206.87ZM70.6643 206.604C70.6643 206.119 70.557 205.703 70.3423 205.358C70.1277 205.003 69.8337 204.737 69.4603 204.56C69.0963 204.373 68.6903 204.28 68.2423 204.28C67.5983 204.28 67.0477 204.485 66.5903 204.896C66.1423 205.307 65.8857 205.876 65.8203 206.604H70.6643ZM73.186 207.136C73.186 206.352 73.3447 205.666 73.662 205.078C73.9793 204.481 74.4133 204.019 74.964 203.692C75.524 203.365 76.1493 203.202 76.84 203.202C77.4373 203.202 77.9927 203.342 78.506 203.622C79.0193 203.893 79.4113 204.252 79.682 204.7V200.64H80.97V211H79.682V209.558C79.43 210.015 79.0567 210.393 78.562 210.692C78.0673 210.981 77.4887 211.126 76.826 211.126C76.1447 211.126 75.524 210.958 74.964 210.622C74.4133 210.286 73.9793 209.815 73.662 209.208C73.3447 208.601 73.186 207.911 73.186 207.136ZM79.682 207.15C79.682 206.571 79.5653 206.067 79.332 205.638C79.0987 205.209 78.7813 204.882 78.38 204.658C77.988 204.425 77.554 204.308 77.078 204.308C76.602 204.308 76.168 204.42 75.776 204.644C75.384 204.868 75.0713 205.195 74.838 205.624C74.6047 206.053 74.488 206.557 74.488 207.136C74.488 207.724 74.6047 208.237 74.838 208.676C75.0713 209.105 75.384 209.437 75.776 209.67C76.168 209.894 76.602 210.006 77.078 210.006C77.554 210.006 77.988 209.894 78.38 209.67C78.7813 209.437 79.0987 209.105 79.332 208.676C79.5653 208.237 79.682 207.729 79.682 207.15ZM84.3969 204.756C84.6583 204.299 85.0409 203.925 85.5449 203.636C86.0489 203.347 86.6229 203.202 87.2669 203.202C87.9576 203.202 88.5783 203.365 89.1289 203.692C89.6796 204.019 90.1136 204.481 90.4309 205.078C90.7483 205.666 90.9069 206.352 90.9069 207.136C90.9069 207.911 90.7483 208.601 90.4309 209.208C90.1136 209.815 89.6749 210.286 89.1149 210.622C88.5643 210.958 87.9483 211.126 87.2669 211.126C86.6043 211.126 86.0209 210.981 85.5169 210.692C85.0223 210.403 84.6489 210.034 84.3969 209.586V211H83.1229V200.64H84.3969V204.756ZM89.6049 207.136C89.6049 206.557 89.4883 206.053 89.2549 205.624C89.0216 205.195 88.7043 204.868 88.3029 204.644C87.9109 204.42 87.4769 204.308 87.0009 204.308C86.5343 204.308 86.1003 204.425 85.6989 204.658C85.3069 204.882 84.9896 205.213 84.7469 205.652C84.5136 206.081 84.3969 206.581 84.3969 207.15C84.3969 207.729 84.5136 208.237 84.7469 208.676C84.9896 209.105 85.3069 209.437 85.6989 209.67C86.1003 209.894 86.5343 210.006 87.0009 210.006C87.4769 210.006 87.9109 209.894 88.3029 209.67C88.7043 209.437 89.0216 209.105 89.2549 208.676C89.4883 208.237 89.6049 207.724 89.6049 207.136ZM92.1079 207.136C92.1079 206.352 92.2665 205.666 92.5839 205.078C92.9012 204.481 93.3352 204.019 93.8859 203.692C94.4459 203.365 95.0665 203.202 95.7479 203.202C96.4199 203.202 97.0032 203.347 97.4979 203.636C97.9925 203.925 98.3612 204.289 98.6039 204.728V203.328H99.8919V211H98.6039V209.572C98.3519 210.02 97.9739 210.393 97.4699 210.692C96.9752 210.981 96.3965 211.126 95.7339 211.126C95.0525 211.126 94.4365 210.958 93.8859 210.622C93.3352 210.286 92.9012 209.815 92.5839 209.208C92.2665 208.601 92.1079 207.911 92.1079 207.136ZM98.6039 207.15C98.6039 206.571 98.4872 206.067 98.2539 205.638C98.0205 205.209 97.7032 204.882 97.3019 204.658C96.9099 204.425 96.4759 204.308 95.9999 204.308C95.5239 204.308 95.0899 204.42 94.6979 204.644C94.3059 204.868 93.9932 205.195 93.7599 205.624C93.5265 206.053 93.4099 206.557 93.4099 207.136C93.4099 207.724 93.5265 208.237 93.7599 208.676C93.9932 209.105 94.3059 209.437 94.6979 209.67C95.0899 209.894 95.5239 210.006 95.9999 210.006C96.4759 210.006 96.9099 209.894 97.3019 209.67C97.7032 209.437 98.0205 209.105 98.2539 208.676C98.4872 208.237 98.6039 207.729 98.6039 207.15ZM101.569 207.15C101.569 206.357 101.727 205.666 102.045 205.078C102.362 204.481 102.801 204.019 103.361 203.692C103.93 203.365 104.579 203.202 105.307 203.202C106.249 203.202 107.024 203.431 107.631 203.888C108.247 204.345 108.653 204.98 108.849 205.792H107.477C107.346 205.325 107.089 204.957 106.707 204.686C106.333 204.415 105.867 204.28 105.307 204.28C104.579 204.28 103.991 204.532 103.543 205.036C103.095 205.531 102.871 206.235 102.871 207.15C102.871 208.074 103.095 208.788 103.543 209.292C103.991 209.796 104.579 210.048 105.307 210.048C105.867 210.048 106.333 209.917 106.707 209.656C107.08 209.395 107.337 209.021 107.477 208.536H108.849C108.643 209.32 108.233 209.95 107.617 210.426C107.001 210.893 106.231 211.126 105.307 211.126C104.579 211.126 103.93 210.963 103.361 210.636C102.801 210.309 102.362 209.847 102.045 209.25C101.727 208.653 101.569 207.953 101.569 207.15ZM114.833 211L111.823 207.612V211H110.549V200.64H111.823V206.73L114.777 203.328H116.555L112.943 207.15L116.569 211H114.833ZM119.07 209.236L117.502 213.002H116.648L117.67 209.236H119.07ZM123.786 207.136C123.786 206.352 123.944 205.666 124.262 205.078C124.579 204.481 125.013 204.019 125.564 203.692C126.124 203.365 126.744 203.202 127.426 203.202C128.098 203.202 128.681 203.347 129.176 203.636C129.67 203.925 130.039 204.289 130.282 204.728V203.328H131.57V211H130.282V209.572C130.03 210.02 129.652 210.393 129.148 210.692C128.653 210.981 128.074 211.126 127.412 211.126C126.73 211.126 126.114 210.958 125.564 210.622C125.013 210.286 124.579 209.815 124.262 209.208C123.944 208.601 123.786 207.911 123.786 207.136ZM130.282 207.15C130.282 206.571 130.165 206.067 129.932 205.638C129.698 205.209 129.381 204.882 128.98 204.658C128.588 204.425 128.154 204.308 127.678 204.308C127.202 204.308 126.768 204.42 126.376 204.644C125.984 204.868 125.671 205.195 125.438 205.624C125.204 206.053 125.088 206.557 125.088 207.136C125.088 207.724 125.204 208.237 125.438 208.676C125.671 209.105 125.984 209.437 126.376 209.67C126.768 209.894 127.202 210.006 127.678 210.006C128.154 210.006 128.588 209.894 128.98 209.67C129.381 209.437 129.698 209.105 129.932 208.676C130.165 208.237 130.282 207.729 130.282 207.15ZM137.461 203.188C138.394 203.188 139.15 203.473 139.729 204.042C140.307 204.602 140.597 205.414 140.597 206.478V211H139.337V206.66C139.337 205.895 139.145 205.311 138.763 204.91C138.38 204.499 137.857 204.294 137.195 204.294C136.523 204.294 135.986 204.504 135.585 204.924C135.193 205.344 134.997 205.955 134.997 206.758V211H133.723V203.328H134.997V204.42C135.249 204.028 135.589 203.725 136.019 203.51C136.457 203.295 136.938 203.188 137.461 203.188ZM142.202 207.136C142.202 206.352 142.36 205.666 142.678 205.078C142.995 204.481 143.429 204.019 143.98 203.692C144.54 203.365 145.165 203.202 145.856 203.202C146.453 203.202 147.008 203.342 147.522 203.622C148.035 203.893 148.427 204.252 148.698 204.7V200.64H149.986V211H148.698V209.558C148.446 210.015 148.072 210.393 147.578 210.692C147.083 210.981 146.504 211.126 145.842 211.126C145.16 211.126 144.54 210.958 143.98 210.622C143.429 210.286 142.995 209.815 142.678 209.208C142.36 208.601 142.202 207.911 142.202 207.136ZM148.698 207.15C148.698 206.571 148.581 206.067 148.348 205.638C148.114 205.209 147.797 204.882 147.396 204.658C147.004 204.425 146.57 204.308 146.094 204.308C145.618 204.308 145.184 204.42 144.792 204.644C144.4 204.868 144.087 205.195 143.854 205.624C143.62 206.053 143.504 206.557 143.504 207.136C143.504 207.724 143.62 208.237 143.854 208.676C144.087 209.105 144.4 209.437 144.792 209.67C145.184 209.894 145.618 210.006 146.094 210.006C146.57 210.006 147.004 209.894 147.396 209.67C147.797 209.437 148.114 209.105 148.348 208.676C148.581 208.237 148.698 207.729 148.698 207.15ZM156.529 202.082C156.286 202.082 156.081 201.998 155.913 201.83C155.745 201.662 155.661 201.457 155.661 201.214C155.661 200.971 155.745 200.766 155.913 200.598C156.081 200.43 156.286 200.346 156.529 200.346C156.762 200.346 156.958 200.43 157.117 200.598C157.285 200.766 157.369 200.971 157.369 201.214C157.369 201.457 157.285 201.662 157.117 201.83C156.958 201.998 156.762 202.082 156.529 202.082ZM157.145 203.328V211H155.871V203.328H157.145ZM160.87 204.378V208.9C160.87 209.273 160.95 209.539 161.108 209.698C161.267 209.847 161.542 209.922 161.934 209.922H162.872V211H161.724C161.015 211 160.483 210.837 160.128 210.51C159.774 210.183 159.596 209.647 159.596 208.9V204.378H158.602V203.328H159.596V201.396H160.87V203.328H162.872V204.378H160.87ZM171.416 206.87C171.416 207.113 171.402 207.369 171.374 207.64H165.242C165.289 208.396 165.545 208.989 166.012 209.418C166.488 209.838 167.062 210.048 167.734 210.048C168.285 210.048 168.742 209.922 169.106 209.67C169.479 209.409 169.741 209.063 169.89 208.634H171.262C171.057 209.371 170.646 209.973 170.03 210.44C169.414 210.897 168.649 211.126 167.734 211.126C167.006 211.126 166.353 210.963 165.774 210.636C165.205 210.309 164.757 209.847 164.43 209.25C164.103 208.643 163.94 207.943 163.94 207.15C163.94 206.357 164.099 205.661 164.416 205.064C164.733 204.467 165.177 204.009 165.746 203.692C166.325 203.365 166.987 203.202 167.734 203.202C168.462 203.202 169.106 203.361 169.666 203.678C170.226 203.995 170.655 204.434 170.954 204.994C171.262 205.545 171.416 206.17 171.416 206.87ZM170.1 206.604C170.1 206.119 169.993 205.703 169.778 205.358C169.563 205.003 169.269 204.737 168.896 204.56C168.532 204.373 168.126 204.28 167.678 204.28C167.034 204.28 166.483 204.485 166.026 204.896C165.578 205.307 165.321 205.876 165.256 206.604H170.1ZM174.372 204.574C174.596 204.135 174.913 203.795 175.324 203.552C175.744 203.309 176.252 203.188 176.85 203.188V204.504H176.514C175.086 204.504 174.372 205.279 174.372 206.828V211H173.098V203.328H174.372V204.574ZM177.844 207.136C177.844 206.352 178.003 205.666 178.32 205.078C178.638 204.481 179.072 204.019 179.622 203.692C180.182 203.365 180.803 203.202 181.484 203.202C182.156 203.202 182.74 203.347 183.234 203.636C183.729 203.925 184.098 204.289 184.34 204.728V203.328H185.628V211H184.34V209.572C184.088 210.02 183.71 210.393 183.206 210.692C182.712 210.981 182.133 211.126 181.47 211.126C180.789 211.126 180.173 210.958 179.622 210.622C179.072 210.286 178.638 209.815 178.32 209.208C178.003 208.601 177.844 207.911 177.844 207.136ZM184.34 207.15C184.34 206.571 184.224 206.067 183.99 205.638C183.757 205.209 183.44 204.882 183.038 204.658C182.646 204.425 182.212 204.308 181.736 204.308C181.26 204.308 180.826 204.42 180.434 204.644C180.042 204.868 179.73 205.195 179.496 205.624C179.263 206.053 179.146 206.557 179.146 207.136C179.146 207.724 179.263 208.237 179.496 208.676C179.73 209.105 180.042 209.437 180.434 209.67C180.826 209.894 181.26 210.006 181.736 210.006C182.212 210.006 182.646 209.894 183.038 209.67C183.44 209.437 183.757 209.105 183.99 208.676C184.224 208.237 184.34 207.729 184.34 207.15ZM189.335 204.378V208.9C189.335 209.273 189.414 209.539 189.573 209.698C189.732 209.847 190.007 209.922 190.399 209.922H191.337V211H190.189C189.48 211 188.948 210.837 188.593 210.51C188.238 210.183 188.061 209.647 188.061 208.9V204.378H187.067V203.328H188.061V201.396H189.335V203.328H191.337V204.378H189.335ZM199.881 206.87C199.881 207.113 199.867 207.369 199.839 207.64H193.707C193.753 208.396 194.01 208.989 194.477 209.418C194.953 209.838 195.527 210.048 196.199 210.048C196.749 210.048 197.207 209.922 197.571 209.67C197.944 209.409 198.205 209.063 198.355 208.634H199.727C199.521 209.371 199.111 209.973 198.495 210.44C197.879 210.897 197.113 211.126 196.199 211.126C195.471 211.126 194.817 210.963 194.239 210.636C193.669 210.309 193.221 209.847 192.895 209.25C192.568 208.643 192.405 207.943 192.405 207.15C192.405 206.357 192.563 205.661 192.881 205.064C193.198 204.467 193.641 204.009 194.211 203.692C194.789 203.365 195.452 203.202 196.199 203.202C196.927 203.202 197.571 203.361 198.131 203.678C198.691 203.995 199.12 204.434 199.419 204.994C199.727 205.545 199.881 206.17 199.881 206.87ZM198.565 206.604C198.565 206.119 198.457 205.703 198.243 205.358C198.028 205.003 197.734 204.737 197.361 204.56C196.997 204.373 196.591 204.28 196.143 204.28C195.499 204.28 194.948 204.485 194.491 204.896C194.043 205.307 193.786 205.876 193.721 206.604H198.565ZM201.968 211.084C201.726 211.084 201.52 211 201.352 210.832C201.184 210.664 201.1 210.459 201.1 210.216C201.1 209.973 201.184 209.768 201.352 209.6C201.52 209.432 201.726 209.348 201.968 209.348C202.202 209.348 202.398 209.432 202.556 209.6C202.724 209.768 202.808 209.973 202.808 210.216C202.808 210.459 202.724 210.664 202.556 210.832C202.398 211 202.202 211.084 201.968 211.084Z" fill="#6B6B6E"/>
<rect width="80" height="80" rx="40" fill="#DADADC"/>
<path d="M30.9259 46.456V42.936L41.3899 27.96H46.6059V42.552H49.4219V46.456H46.6059V51H42.1259V46.456H30.9259ZM42.4139 32.76L35.8539 42.552H42.4139V32.76Z" fill="#2E303A"/>
</svg>
