<svg width="197" height="219" viewBox="0 0 197 219" fill="none" xmlns="http://www.w3.org/2000/svg">
<path d="M3.762 108.436V121H1.242V108.436H3.762ZM11.7778 110.884C12.9658 110.884 13.9258 111.262 14.6578 112.018C15.3898 112.762 15.7558 113.806 15.7558 115.15V121H13.2358V115.492C13.2358 114.7 13.0378 114.094 12.6418 113.674C12.2458 113.242 11.7058 113.026 11.0218 113.026C10.3258 113.026 9.77377 113.242 9.36577 113.674C8.96977 114.094 8.77177 114.7 8.77177 115.492V121H6.25177V111.028H8.77177V112.27C9.10777 111.838 9.53377 111.502 10.0498 111.262C10.5778 111.01 11.1538 110.884 11.7778 110.884ZM21.0862 113.098V117.922C21.0862 118.258 21.1642 118.504 21.3202 118.66C21.4882 118.804 21.7642 118.876 22.1482 118.876H23.3182V121H21.7342C19.6102 121 18.5482 119.968 18.5482 117.904V113.098H17.3602V111.028H18.5482V108.562H21.0862V111.028H23.3182V113.098H21.0862ZM34.4007 115.798C34.4007 116.158 34.3767 116.482 34.3287 116.77H27.0387C27.0987 117.49 27.3507 118.054 27.7947 118.462C28.2387 118.87 28.7847 119.074 29.4327 119.074C30.3687 119.074 31.0347 118.672 31.4307 117.868H34.1487C33.8607 118.828 33.3087 119.62 32.4927 120.244C31.6767 120.856 30.6747 121.162 29.4867 121.162C28.5267 121.162 27.6627 120.952 26.8947 120.532C26.1387 120.1 25.5447 119.494 25.1127 118.714C24.6927 117.934 24.4827 117.034 24.4827 116.014C24.4827 114.982 24.6927 114.076 25.1127 113.296C25.5327 112.516 26.1207 111.916 26.8767 111.496C27.6327 111.076 28.5027 110.866 29.4867 110.866C30.4347 110.866 31.2807 111.07 32.0247 111.478C32.7807 111.886 33.3627 112.468 33.7707 113.224C34.1907 113.968 34.4007 114.826 34.4007 115.798ZM31.7907 115.078C31.7787 114.43 31.5447 113.914 31.0887 113.53C30.6327 113.134 30.0747 112.936 29.4147 112.936C28.7907 112.936 28.2627 113.128 27.8307 113.512C27.4107 113.884 27.1527 114.406 27.0567 115.078H31.7907ZM38.76 112.576C39.084 112.048 39.504 111.634 40.02 111.334C40.548 111.034 41.148 110.884 41.82 110.884V113.53H41.154C40.362 113.53 39.762 113.716 39.354 114.088C38.958 114.46 38.76 115.108 38.76 116.032V121H36.24V111.028H38.76V112.576ZM47.6754 118.678L50.1954 111.028H52.8774L49.1874 121H46.1274L42.4554 111.028H45.1554L47.6754 118.678ZM55.5708 109.84C55.1268 109.84 54.7548 109.702 54.4548 109.426C54.1668 109.138 54.0228 108.784 54.0228 108.364C54.0228 107.944 54.1668 107.596 54.4548 107.32C54.7548 107.032 55.1268 106.888 55.5708 106.888C56.0148 106.888 56.3808 107.032 56.6688 107.32C56.9688 107.596 57.1188 107.944 57.1188 108.364C57.1188 108.784 56.9688 109.138 56.6688 109.426C56.3808 109.702 56.0148 109.84 55.5708 109.84ZM56.8128 111.028V121H54.2928V111.028H56.8128ZM68.5725 115.798C68.5725 116.158 68.5485 116.482 68.5005 116.77H61.2105C61.2705 117.49 61.5225 118.054 61.9665 118.462C62.4105 118.87 62.9565 119.074 63.6045 119.074C64.5405 119.074 65.2065 118.672 65.6025 117.868H68.3205C68.0325 118.828 67.4805 119.62 66.6645 120.244C65.8485 120.856 64.8465 121.162 63.6585 121.162C62.6985 121.162 61.8345 120.952 61.0665 120.532C60.3105 120.1 59.7165 119.494 59.2845 118.714C58.8645 117.934 58.6545 117.034 58.6545 116.014C58.6545 114.982 58.8645 114.076 59.2845 113.296C59.7045 112.516 60.2925 111.916 61.0485 111.496C61.8045 111.076 62.6745 110.866 63.6585 110.866C64.6065 110.866 65.4525 111.07 66.1965 111.478C66.9525 111.886 67.5345 112.468 67.9425 113.224C68.3625 113.968 68.5725 114.826 68.5725 115.798ZM65.9625 115.078C65.9505 114.43 65.7165 113.914 65.2605 113.53C64.8045 113.134 64.2465 112.936 63.5865 112.936C62.9625 112.936 62.4345 113.128 62.0025 113.512C61.5825 113.884 61.3245 114.406 61.2285 115.078H65.9625ZM84.2359 111.028L81.3199 121H78.6019L76.7839 114.034L74.9659 121H72.2299L69.2959 111.028H71.8519L73.6159 118.624L75.5239 111.028H78.1879L80.0599 118.606L81.8239 111.028H84.2359ZM89.4154 121.162C88.5994 121.162 87.8674 121.018 87.2194 120.73C86.5714 120.43 86.0554 120.028 85.6714 119.524C85.2994 119.02 85.0954 118.462 85.0594 117.85H87.5974C87.6454 118.234 87.8314 118.552 88.1554 118.804C88.4914 119.056 88.9054 119.182 89.3974 119.182C89.8774 119.182 90.2494 119.086 90.5134 118.894C90.7894 118.702 90.9274 118.456 90.9274 118.156C90.9274 117.832 90.7594 117.592 90.4234 117.436C90.0994 117.268 89.5774 117.088 88.8574 116.896C88.1134 116.716 87.5014 116.53 87.0214 116.338C86.5534 116.146 86.1454 115.852 85.7974 115.456C85.4614 115.06 85.2934 114.526 85.2934 113.854C85.2934 113.302 85.4494 112.798 85.7614 112.342C86.0854 111.886 86.5414 111.526 87.1294 111.262C87.7294 110.998 88.4314 110.866 89.2354 110.866C90.4234 110.866 91.3714 111.166 92.0794 111.766C92.7874 112.354 93.1774 113.152 93.2494 114.16H90.8374C90.8014 113.764 90.6334 113.452 90.3334 113.224C90.0454 112.984 89.6554 112.864 89.1634 112.864C88.7074 112.864 88.3534 112.948 88.1014 113.116C87.8614 113.284 87.7414 113.518 87.7414 113.818C87.7414 114.154 87.9094 114.412 88.2454 114.592C88.5814 114.76 89.1034 114.934 89.8114 115.114C90.5314 115.294 91.1254 115.48 91.5934 115.672C92.0614 115.864 92.4634 116.164 92.7994 116.572C93.1474 116.968 93.3274 117.496 93.3394 118.156C93.3394 118.732 93.1774 119.248 92.8534 119.704C92.5414 120.16 92.0854 120.52 91.4854 120.784C90.8974 121.036 90.2074 121.162 89.4154 121.162Z" fill="#2E303A"/>
<path d="M2.324 151.242V157.416C2.324 158.284 2.534 158.928 2.954 159.348C3.38333 159.768 3.976 159.978 4.732 159.978C5.47867 159.978 6.062 159.768 6.482 159.348C6.91133 158.928 7.126 158.284 7.126 157.416V151.242H8.4V157.402C8.4 158.214 8.23667 158.9 7.91 159.46C7.58333 160.011 7.14 160.421 6.58 160.692C6.02933 160.963 5.40867 161.098 4.718 161.098C4.02733 161.098 3.402 160.963 2.842 160.692C2.29133 160.421 1.85267 160.011 1.526 159.46C1.20867 158.9 1.05 158.214 1.05 157.402V151.242H2.324ZM14.2633 153.188C15.1966 153.188 15.9526 153.473 16.5313 154.042C17.1099 154.602 17.3993 155.414 17.3993 156.478V161H16.1393V156.66C16.1393 155.895 15.9479 155.311 15.5653 154.91C15.1826 154.499 14.6599 154.294 13.9973 154.294C13.3253 154.294 12.7886 154.504 12.3873 154.924C11.9953 155.344 11.7993 155.955 11.7993 156.758V161H10.5253V153.328H11.7993V154.42C12.0513 154.028 12.3919 153.725 12.8213 153.51C13.2599 153.295 13.7406 153.188 14.2633 153.188ZM19.0043 157.136C19.0043 156.352 19.163 155.666 19.4803 155.078C19.7977 154.481 20.2317 154.019 20.7823 153.692C21.3423 153.365 21.9677 153.202 22.6583 153.202C23.2557 153.202 23.811 153.342 24.3243 153.622C24.8377 153.893 25.2297 154.252 25.5003 154.7V150.64H26.7883V161H25.5003V159.558C25.2483 160.015 24.875 160.393 24.3803 160.692C23.8857 160.981 23.307 161.126 22.6443 161.126C21.963 161.126 21.3423 160.958 20.7823 160.622C20.2317 160.286 19.7977 159.815 19.4803 159.208C19.163 158.601 19.0043 157.911 19.0043 157.136ZM25.5003 157.15C25.5003 156.571 25.3837 156.067 25.1503 155.638C24.917 155.209 24.5997 154.882 24.1983 154.658C23.8063 154.425 23.3723 154.308 22.8963 154.308C22.4203 154.308 21.9863 154.42 21.5943 154.644C21.2023 154.868 20.8897 155.195 20.6563 155.624C20.423 156.053 20.3063 156.557 20.3063 157.136C20.3063 157.724 20.423 158.237 20.6563 158.676C20.8897 159.105 21.2023 159.437 21.5943 159.67C21.9863 159.894 22.4203 160.006 22.8963 160.006C23.3723 160.006 23.8063 159.894 24.1983 159.67C24.5997 159.437 24.917 159.105 25.1503 158.676C25.3837 158.237 25.5003 157.729 25.5003 157.15ZM35.9413 156.87C35.9413 157.113 35.9273 157.369 35.8993 157.64H29.7673C29.8139 158.396 30.0706 158.989 30.5373 159.418C31.0133 159.838 31.5873 160.048 32.2593 160.048C32.8099 160.048 33.2673 159.922 33.6313 159.67C34.0046 159.409 34.2659 159.063 34.4153 158.634H35.7873C35.5819 159.371 35.1713 159.973 34.5553 160.44C33.9393 160.897 33.1739 161.126 32.2593 161.126C31.5313 161.126 30.8779 160.963 30.2993 160.636C29.7299 160.309 29.2819 159.847 28.9553 159.25C28.6286 158.643 28.4653 157.943 28.4653 157.15C28.4653 156.357 28.6239 155.661 28.9413 155.064C29.2586 154.467 29.7019 154.009 30.2713 153.692C30.8499 153.365 31.5126 153.202 32.2593 153.202C32.9873 153.202 33.6313 153.361 34.1913 153.678C34.7513 153.995 35.1806 154.434 35.4793 154.994C35.7873 155.545 35.9413 156.17 35.9413 156.87ZM34.6253 156.604C34.6253 156.119 34.5179 155.703 34.3033 155.358C34.0886 155.003 33.7946 154.737 33.4213 154.56C33.0573 154.373 32.6513 154.28 32.2033 154.28C31.5593 154.28 31.0086 154.485 30.5513 154.896C30.1033 155.307 29.8466 155.876 29.7813 156.604H34.6253ZM38.8969 154.574C39.1209 154.135 39.4383 153.795 39.8489 153.552C40.2689 153.309 40.7776 153.188 41.3749 153.188V154.504H41.0389C39.6109 154.504 38.8969 155.279 38.8969 156.828V161H37.6229V153.328H38.8969V154.574ZM45.5616 161.126C44.9736 161.126 44.4462 161.028 43.9796 160.832C43.5129 160.627 43.1442 160.347 42.8736 159.992C42.6029 159.628 42.4536 159.213 42.4256 158.746H43.7416C43.7789 159.129 43.9562 159.441 44.2736 159.684C44.6002 159.927 45.0249 160.048 45.5476 160.048C46.0329 160.048 46.4156 159.941 46.6956 159.726C46.9756 159.511 47.1156 159.241 47.1156 158.914C47.1156 158.578 46.9662 158.331 46.6676 158.172C46.3689 158.004 45.9069 157.841 45.2816 157.682C44.7122 157.533 44.2456 157.383 43.8816 157.234C43.5269 157.075 43.2189 156.847 42.9576 156.548C42.7056 156.24 42.5796 155.839 42.5796 155.344C42.5796 154.952 42.6962 154.593 42.9296 154.266C43.1629 153.939 43.4942 153.683 43.9236 153.496C44.3529 153.3 44.8429 153.202 45.3936 153.202C46.2429 153.202 46.9289 153.417 47.4516 153.846C47.9742 154.275 48.2542 154.863 48.2916 155.61H47.0176C46.9896 155.209 46.8262 154.887 46.5276 154.644C46.2382 154.401 45.8462 154.28 45.3516 154.28C44.8942 154.28 44.5302 154.378 44.2596 154.574C43.9889 154.77 43.8536 155.027 43.8536 155.344C43.8536 155.596 43.9329 155.806 44.0916 155.974C44.2596 156.133 44.4649 156.263 44.7076 156.366C44.9596 156.459 45.3049 156.567 45.7436 156.688C46.2942 156.837 46.7422 156.987 47.0876 157.136C47.4329 157.276 47.7269 157.491 47.9696 157.78C48.2216 158.069 48.3522 158.447 48.3616 158.914C48.3616 159.334 48.2449 159.712 48.0116 160.048C47.7782 160.384 47.4469 160.65 47.0176 160.846C46.5976 161.033 46.1122 161.126 45.5616 161.126ZM51.714 154.378V158.9C51.714 159.273 51.7934 159.539 51.952 159.698C52.1107 159.847 52.386 159.922 52.778 159.922H53.716V161H52.568C51.8587 161 51.3267 160.837 50.972 160.51C50.6174 160.183 50.44 159.647 50.44 158.9V154.378H49.446V153.328H50.44V151.396H51.714V153.328H53.716V154.378H51.714ZM54.7836 157.136C54.7836 156.352 54.9423 155.666 55.2596 155.078C55.577 154.481 56.011 154.019 56.5616 153.692C57.1216 153.365 57.7423 153.202 58.4236 153.202C59.0956 153.202 59.679 153.347 60.1736 153.636C60.6683 153.925 61.037 154.289 61.2796 154.728V153.328H62.5676V161H61.2796V159.572C61.0276 160.02 60.6496 160.393 60.1456 160.692C59.651 160.981 59.0723 161.126 58.4096 161.126C57.7283 161.126 57.1123 160.958 56.5616 160.622C56.011 160.286 55.577 159.815 55.2596 159.208C54.9423 158.601 54.7836 157.911 54.7836 157.136ZM61.2796 157.15C61.2796 156.571 61.163 156.067 60.9296 155.638C60.6963 155.209 60.379 154.882 59.9776 154.658C59.5856 154.425 59.1516 154.308 58.6756 154.308C58.1996 154.308 57.7656 154.42 57.3736 154.644C56.9816 154.868 56.669 155.195 56.4356 155.624C56.2023 156.053 56.0856 156.557 56.0856 157.136C56.0856 157.724 56.2023 158.237 56.4356 158.676C56.669 159.105 56.9816 159.437 57.3736 159.67C57.7656 159.894 58.1996 160.006 58.6756 160.006C59.1516 160.006 59.5856 159.894 59.9776 159.67C60.379 159.437 60.6963 159.105 60.9296 158.676C61.163 158.237 61.2796 157.729 61.2796 157.15ZM68.4586 153.188C69.3919 153.188 70.1479 153.473 70.7266 154.042C71.3052 154.602 71.5946 155.414 71.5946 156.478V161H70.3346V156.66C70.3346 155.895 70.1432 155.311 69.7606 154.91C69.3779 154.499 68.8552 154.294 68.1926 154.294C67.5206 154.294 66.9839 154.504 66.5826 154.924C66.1906 155.344 65.9946 155.955 65.9946 156.758V161H64.7206V153.328H65.9946V154.42C66.2466 154.028 66.5872 153.725 67.0166 153.51C67.4552 153.295 67.9359 153.188 68.4586 153.188ZM73.1997 157.136C73.1997 156.352 73.3583 155.666 73.6757 155.078C73.993 154.481 74.427 154.019 74.9777 153.692C75.5377 153.365 76.163 153.202 76.8537 153.202C77.451 153.202 78.0063 153.342 78.5197 153.622C79.033 153.893 79.425 154.252 79.6957 154.7V150.64H80.9837V161H79.6957V159.558C79.4437 160.015 79.0703 160.393 78.5757 160.692C78.081 160.981 77.5023 161.126 76.8397 161.126C76.1583 161.126 75.5377 160.958 74.9777 160.622C74.427 160.286 73.993 159.815 73.6757 159.208C73.3583 158.601 73.1997 157.911 73.1997 157.136ZM79.6957 157.15C79.6957 156.571 79.579 156.067 79.3457 155.638C79.1123 155.209 78.795 154.882 78.3937 154.658C78.0017 154.425 77.5677 154.308 77.0917 154.308C76.6157 154.308 76.1817 154.42 75.7897 154.644C75.3977 154.868 75.085 155.195 74.8517 155.624C74.6183 156.053 74.5017 156.557 74.5017 157.136C74.5017 157.724 74.6183 158.237 74.8517 158.676C75.085 159.105 75.3977 159.437 75.7897 159.67C76.1817 159.894 76.6157 160.006 77.0917 160.006C77.5677 160.006 78.0017 159.894 78.3937 159.67C78.795 159.437 79.1123 159.105 79.3457 158.676C79.579 158.237 79.6957 157.729 79.6957 157.15ZM83.7946 152.082C83.5519 152.082 83.3466 151.998 83.1786 151.83C83.0106 151.662 82.9266 151.457 82.9266 151.214C82.9266 150.971 83.0106 150.766 83.1786 150.598C83.3466 150.43 83.5519 150.346 83.7946 150.346C84.0279 150.346 84.2239 150.43 84.3826 150.598C84.5506 150.766 84.6346 150.971 84.6346 151.214C84.6346 151.457 84.5506 151.662 84.3826 151.83C84.2239 151.998 84.0279 152.082 83.7946 152.082ZM84.4106 153.328V161H83.1366V153.328H84.4106ZM90.3199 153.188C91.2532 153.188 92.0092 153.473 92.5879 154.042C93.1666 154.602 93.4559 155.414 93.4559 156.478V161H92.1959V156.66C92.1959 155.895 92.0046 155.311 91.6219 154.91C91.2392 154.499 90.7166 154.294 90.0539 154.294C89.3819 154.294 88.8452 154.504 88.4439 154.924C88.0519 155.344 87.8559 155.955 87.8559 156.758V161H86.5819V153.328H87.8559V154.42C88.1079 154.028 88.4486 153.725 88.8779 153.51C89.3166 153.295 89.7972 153.188 90.3199 153.188ZM98.701 153.202C99.3637 153.202 99.9423 153.347 100.437 153.636C100.941 153.925 101.314 154.289 101.557 154.728V153.328H102.845V161.168C102.845 161.868 102.696 162.489 102.397 163.03C102.098 163.581 101.669 164.01 101.109 164.318C100.558 164.626 99.9143 164.78 99.177 164.78C98.169 164.78 97.329 164.542 96.657 164.066C95.985 163.59 95.5883 162.941 95.467 162.12H96.727C96.867 162.587 97.1563 162.96 97.595 163.24C98.0337 163.529 98.561 163.674 99.177 163.674C99.877 163.674 100.446 163.455 100.885 163.016C101.333 162.577 101.557 161.961 101.557 161.168V159.558C101.305 160.006 100.932 160.379 100.437 160.678C99.9423 160.977 99.3637 161.126 98.701 161.126C98.0197 161.126 97.399 160.958 96.839 160.622C96.2883 160.286 95.8543 159.815 95.537 159.208C95.2197 158.601 95.061 157.911 95.061 157.136C95.061 156.352 95.2197 155.666 95.537 155.078C95.8543 154.481 96.2883 154.019 96.839 153.692C97.399 153.365 98.0197 153.202 98.701 153.202ZM101.557 157.15C101.557 156.571 101.44 156.067 101.207 155.638C100.974 155.209 100.656 154.882 100.255 154.658C99.863 154.425 99.429 154.308 98.953 154.308C98.477 154.308 98.043 154.42 97.651 154.644C97.259 154.868 96.9463 155.195 96.713 155.624C96.4797 156.053 96.363 156.557 96.363 157.136C96.363 157.724 96.4797 158.237 96.713 158.676C96.9463 159.105 97.259 159.437 97.651 159.67C98.043 159.894 98.477 160.006 98.953 160.006C99.429 160.006 99.863 159.894 100.255 159.67C100.656 159.437 100.974 159.105 101.207 158.676C101.44 158.237 101.557 157.729 101.557 157.15ZM110.284 154.378V158.9C110.284 159.273 110.364 159.539 110.522 159.698C110.681 159.847 110.956 159.922 111.348 159.922H112.286V161H111.138C110.429 161 109.897 160.837 109.542 160.51C109.188 160.183 109.01 159.647 109.01 158.9V154.378H108.016V153.328H109.01V151.396H110.284V153.328H112.286V154.378H110.284ZM117.638 153.188C118.217 153.188 118.739 153.314 119.206 153.566C119.673 153.809 120.037 154.177 120.298 154.672C120.569 155.167 120.704 155.769 120.704 156.478V161H119.444V156.66C119.444 155.895 119.253 155.311 118.87 154.91C118.487 154.499 117.965 154.294 117.302 154.294C116.63 154.294 116.093 154.504 115.692 154.924C115.3 155.344 115.104 155.955 115.104 156.758V161H113.83V150.64H115.104V154.42C115.356 154.028 115.701 153.725 116.14 153.51C116.588 153.295 117.087 153.188 117.638 153.188ZM129.785 156.87C129.785 157.113 129.771 157.369 129.743 157.64H123.611C123.658 158.396 123.914 158.989 124.381 159.418C124.857 159.838 125.431 160.048 126.103 160.048C126.654 160.048 127.111 159.922 127.475 159.67C127.848 159.409 128.11 159.063 128.259 158.634H129.631C129.426 159.371 129.015 159.973 128.399 160.44C127.783 160.897 127.018 161.126 126.103 161.126C125.375 161.126 124.722 160.963 124.143 160.636C123.574 160.309 123.126 159.847 122.799 159.25C122.472 158.643 122.309 157.943 122.309 157.15C122.309 156.357 122.468 155.661 122.785 155.064C123.102 154.467 123.546 154.009 124.115 153.692C124.694 153.365 125.356 153.202 126.103 153.202C126.831 153.202 127.475 153.361 128.035 153.678C128.595 153.995 129.024 154.434 129.323 154.994C129.631 155.545 129.785 156.17 129.785 156.87ZM128.469 156.604C128.469 156.119 128.362 155.703 128.147 155.358C127.932 155.003 127.638 154.737 127.265 154.56C126.901 154.373 126.495 154.28 126.047 154.28C125.403 154.28 124.852 154.485 124.395 154.896C123.947 155.307 123.69 155.876 123.625 156.604H128.469ZM2.352 179.574C2.576 179.135 2.89333 178.795 3.304 178.552C3.724 178.309 4.23267 178.188 4.83 178.188V179.504H4.494C3.066 179.504 2.352 180.279 2.352 181.828V186H1.078V178.328H2.352V179.574ZM13.3007 181.87C13.3007 182.113 13.2867 182.369 13.2587 182.64H7.12666C7.17332 183.396 7.42999 183.989 7.89666 184.418C8.37266 184.838 8.94666 185.048 9.61866 185.048C10.1693 185.048 10.6267 184.922 10.9907 184.67C11.364 184.409 11.6253 184.063 11.7747 183.634H13.1467C12.9413 184.371 12.5307 184.973 11.9147 185.44C11.2987 185.897 10.5333 186.126 9.61866 186.126C8.89066 186.126 8.23732 185.963 7.65866 185.636C7.08932 185.309 6.64132 184.847 6.31466 184.25C5.98799 183.643 5.82466 182.943 5.82466 182.15C5.82466 181.357 5.98332 180.661 6.30066 180.064C6.61799 179.467 7.06132 179.009 7.63066 178.692C8.20932 178.365 8.87199 178.202 9.61866 178.202C10.3467 178.202 10.9907 178.361 11.5507 178.678C12.1107 178.995 12.54 179.434 12.8387 179.994C13.1467 180.545 13.3007 181.17 13.3007 181.87ZM11.9847 181.604C11.9847 181.119 11.8773 180.703 11.6627 180.358C11.448 180.003 11.154 179.737 10.7807 179.56C10.4167 179.373 10.0107 179.28 9.56266 179.28C8.91866 179.28 8.36799 179.485 7.91066 179.896C7.46266 180.307 7.20599 180.876 7.14066 181.604H11.9847ZM14.5063 182.136C14.5063 181.352 14.665 180.666 14.9823 180.078C15.2996 179.481 15.7336 179.019 16.2843 178.692C16.8443 178.365 17.4696 178.202 18.1603 178.202C18.823 178.202 19.4016 178.351 19.8963 178.65C20.4003 178.939 20.769 179.299 21.0023 179.728V178.328H22.2903V189.64H21.0023V184.586C20.7596 185.015 20.3863 185.379 19.8823 185.678C19.3783 185.977 18.7903 186.126 18.1183 186.126C17.4463 186.126 16.835 185.958 16.2843 185.622C15.7336 185.286 15.2996 184.815 14.9823 184.208C14.665 183.601 14.5063 182.911 14.5063 182.136ZM21.0023 182.15C21.0023 181.571 20.8856 181.067 20.6523 180.638C20.419 180.209 20.1016 179.882 19.7003 179.658C19.3083 179.425 18.8743 179.308 18.3983 179.308C17.9223 179.308 17.4883 179.42 17.0963 179.644C16.7043 179.868 16.3916 180.195 16.1583 180.624C15.925 181.053 15.8083 181.557 15.8083 182.136C15.8083 182.724 15.925 183.237 16.1583 183.676C16.3916 184.105 16.7043 184.437 17.0963 184.67C17.4883 184.894 17.9223 185.006 18.3983 185.006C18.8743 185.006 19.3083 184.894 19.7003 184.67C20.1016 184.437 20.419 184.105 20.6523 183.676C20.8856 183.237 21.0023 182.729 21.0023 182.15ZM31.2472 178.328V186H29.9732V184.866C29.7306 185.258 29.3899 185.566 28.9512 185.79C28.5219 186.005 28.0459 186.112 27.5232 186.112C26.9259 186.112 26.3892 185.991 25.9132 185.748C25.4372 185.496 25.0592 185.123 24.7792 184.628C24.5086 184.133 24.3732 183.531 24.3732 182.822V178.328H25.6332V182.654C25.6332 183.41 25.8246 183.993 26.2072 184.404C26.5899 184.805 27.1126 185.006 27.7752 185.006C28.4566 185.006 28.9932 184.796 29.3852 184.376C29.7772 183.956 29.9732 183.345 29.9732 182.542V178.328H31.2472ZM34.0563 177.082C33.8136 177.082 33.6083 176.998 33.4403 176.83C33.2723 176.662 33.1883 176.457 33.1883 176.214C33.1883 175.971 33.2723 175.766 33.4403 175.598C33.6083 175.43 33.8136 175.346 34.0563 175.346C34.2896 175.346 34.4856 175.43 34.6443 175.598C34.8123 175.766 34.8963 175.971 34.8963 176.214C34.8963 176.457 34.8123 176.662 34.6443 176.83C34.4856 176.998 34.2896 177.082 34.0563 177.082ZM34.6723 178.328V186H33.3983V178.328H34.6723ZM38.1176 179.574C38.3416 179.135 38.659 178.795 39.0696 178.552C39.4896 178.309 39.9983 178.188 40.5956 178.188V179.504H40.2596C38.8316 179.504 38.1176 180.279 38.1176 181.828V186H36.8436V178.328H38.1176V179.574ZM49.0663 181.87C49.0663 182.113 49.0523 182.369 49.0243 182.64H42.8923C42.9389 183.396 43.1956 183.989 43.6623 184.418C44.1383 184.838 44.7123 185.048 45.3843 185.048C45.9349 185.048 46.3923 184.922 46.7563 184.67C47.1296 184.409 47.3909 184.063 47.5403 183.634H48.9123C48.7069 184.371 48.2963 184.973 47.6803 185.44C47.0643 185.897 46.2989 186.126 45.3843 186.126C44.6563 186.126 44.0029 185.963 43.4243 185.636C42.8549 185.309 42.4069 184.847 42.0803 184.25C41.7536 183.643 41.5903 182.943 41.5903 182.15C41.5903 181.357 41.7489 180.661 42.0663 180.064C42.3836 179.467 42.8269 179.009 43.3963 178.692C43.9749 178.365 44.6376 178.202 45.3843 178.202C46.1123 178.202 46.7563 178.361 47.3163 178.678C47.8763 178.995 48.3056 179.434 48.6043 179.994C48.9123 180.545 49.0663 181.17 49.0663 181.87ZM47.7503 181.604C47.7503 181.119 47.6429 180.703 47.4283 180.358C47.2136 180.003 46.9196 179.737 46.5463 179.56C46.1823 179.373 45.7763 179.28 45.3283 179.28C44.6843 179.28 44.1336 179.485 43.6763 179.896C43.2283 180.307 42.9716 180.876 42.9063 181.604H47.7503ZM59.9739 178.188C60.5713 178.188 61.1033 178.314 61.5699 178.566C62.0366 178.809 62.4053 179.177 62.6759 179.672C62.9466 180.167 63.0819 180.769 63.0819 181.478V186H61.8219V181.66C61.8219 180.895 61.6306 180.311 61.2479 179.91C60.8746 179.499 60.3659 179.294 59.7219 179.294C59.0593 179.294 58.5319 179.509 58.1399 179.938C57.7479 180.358 57.5519 180.969 57.5519 181.772V186H56.2919V181.66C56.2919 180.895 56.1006 180.311 55.7179 179.91C55.3446 179.499 54.8359 179.294 54.1919 179.294C53.5293 179.294 53.0019 179.509 52.6099 179.938C52.2179 180.358 52.0219 180.969 52.0219 181.772V186H50.7479V178.328H52.0219V179.434C52.2739 179.033 52.6099 178.725 53.0299 178.51C53.4593 178.295 53.9306 178.188 54.4439 178.188C55.0879 178.188 55.6573 178.333 56.1519 178.622C56.6466 178.911 57.0153 179.336 57.2579 179.896C57.4726 179.355 57.8273 178.935 58.3219 178.636C58.8166 178.337 59.3673 178.188 59.9739 178.188ZM72.1718 181.87C72.1718 182.113 72.1578 182.369 72.1298 182.64H65.9978C66.0444 183.396 66.3011 183.989 66.7678 184.418C67.2438 184.838 67.8178 185.048 68.4898 185.048C69.0404 185.048 69.4978 184.922 69.8618 184.67C70.2351 184.409 70.4964 184.063 70.6458 183.634H72.0178C71.8124 184.371 71.4018 184.973 70.7858 185.44C70.1698 185.897 69.4044 186.126 68.4898 186.126C67.7618 186.126 67.1084 185.963 66.5298 185.636C65.9604 185.309 65.5124 184.847 65.1858 184.25C64.8591 183.643 64.6958 182.943 64.6958 182.15C64.6958 181.357 64.8544 180.661 65.1718 180.064C65.4891 179.467 65.9324 179.009 66.5018 178.692C67.0804 178.365 67.7431 178.202 68.4898 178.202C69.2178 178.202 69.8618 178.361 70.4218 178.678C70.9818 178.995 71.4111 179.434 71.7098 179.994C72.0178 180.545 72.1718 181.17 72.1718 181.87ZM70.8558 181.604C70.8558 181.119 70.7484 180.703 70.5338 180.358C70.3191 180.003 70.0251 179.737 69.6518 179.56C69.2878 179.373 68.8818 179.28 68.4338 179.28C67.7898 179.28 67.2391 179.485 66.7818 179.896C66.3338 180.307 66.0771 180.876 66.0118 181.604H70.8558ZM77.5914 178.188C78.5247 178.188 79.2807 178.473 79.8594 179.042C80.4381 179.602 80.7274 180.414 80.7274 181.478V186H79.4674V181.66C79.4674 180.895 79.2761 180.311 78.8934 179.91C78.5107 179.499 77.9881 179.294 77.3254 179.294C76.6534 179.294 76.1167 179.504 75.7154 179.924C75.3234 180.344 75.1274 180.955 75.1274 181.758V186H73.8534V178.328H75.1274V179.42C75.3794 179.028 75.7201 178.725 76.1494 178.51C76.5881 178.295 77.0687 178.188 77.5914 178.188ZM84.3625 179.378V183.9C84.3625 184.273 84.4418 184.539 84.6005 184.698C84.7591 184.847 85.0345 184.922 85.4265 184.922H86.3645V186H85.2165C84.5071 186 83.9751 185.837 83.6205 185.51C83.2658 185.183 83.0885 184.647 83.0885 183.9V179.378H82.0945V178.328H83.0885V176.396H84.3625V178.328H86.3645V179.378H84.3625ZM90.6241 186.126C90.0361 186.126 89.5087 186.028 89.0421 185.832C88.5754 185.627 88.2067 185.347 87.9361 184.992C87.6654 184.628 87.5161 184.213 87.4881 183.746H88.8041C88.8414 184.129 89.0187 184.441 89.3361 184.684C89.6627 184.927 90.0874 185.048 90.6101 185.048C91.0954 185.048 91.4781 184.941 91.7581 184.726C92.0381 184.511 92.1781 184.241 92.1781 183.914C92.1781 183.578 92.0287 183.331 91.7301 183.172C91.4314 183.004 90.9694 182.841 90.3441 182.682C89.7747 182.533 89.3081 182.383 88.9441 182.234C88.5894 182.075 88.2814 181.847 88.0201 181.548C87.7681 181.24 87.6421 180.839 87.6421 180.344C87.6421 179.952 87.7587 179.593 87.9921 179.266C88.2254 178.939 88.5567 178.683 88.9861 178.496C89.4154 178.3 89.9054 178.202 90.4561 178.202C91.3054 178.202 91.9914 178.417 92.5141 178.846C93.0367 179.275 93.3167 179.863 93.3541 180.61H92.0801C92.0521 180.209 91.8887 179.887 91.5901 179.644C91.3007 179.401 90.9087 179.28 90.4141 179.28C89.9567 179.28 89.5927 179.378 89.3221 179.574C89.0514 179.77 88.9161 180.027 88.9161 180.344C88.9161 180.596 88.9954 180.806 89.1541 180.974C89.3221 181.133 89.5274 181.263 89.7701 181.366C90.0221 181.459 90.3674 181.567 90.8061 181.688C91.3567 181.837 91.8047 181.987 92.1501 182.136C92.4954 182.276 92.7894 182.491 93.0321 182.78C93.2841 183.069 93.4147 183.447 93.4241 183.914C93.4241 184.334 93.3074 184.712 93.0741 185.048C92.8407 185.384 92.5094 185.65 92.0801 185.846C91.6601 186.033 91.1747 186.126 90.6241 186.126ZM96.5385 184.236L94.9705 188.002H94.1165L95.1385 184.236H96.5385ZM108.534 178.328V186H107.26V184.866C107.018 185.258 106.677 185.566 106.238 185.79C105.809 186.005 105.333 186.112 104.81 186.112C104.213 186.112 103.676 185.991 103.2 185.748C102.724 185.496 102.346 185.123 102.066 184.628C101.796 184.133 101.66 183.531 101.66 182.822V178.328H102.92V182.654C102.92 183.41 103.112 183.993 103.494 184.404C103.877 184.805 104.4 185.006 105.062 185.006C105.744 185.006 106.28 184.796 106.672 184.376C107.064 183.956 107.26 183.345 107.26 182.542V178.328H108.534ZM113.401 186.126C112.813 186.126 112.286 186.028 111.819 185.832C111.353 185.627 110.984 185.347 110.713 184.992C110.443 184.628 110.293 184.213 110.265 183.746H111.581C111.619 184.129 111.796 184.441 112.113 184.684C112.44 184.927 112.865 185.048 113.387 185.048C113.873 185.048 114.255 184.941 114.535 184.726C114.815 184.511 114.955 184.241 114.955 183.914C114.955 183.578 114.806 183.331 114.507 183.172C114.209 183.004 113.747 182.841 113.121 182.682C112.552 182.533 112.085 182.383 111.721 182.234C111.367 182.075 111.059 181.847 110.797 181.548C110.545 181.24 110.419 180.839 110.419 180.344C110.419 179.952 110.536 179.593 110.769 179.266C111.003 178.939 111.334 178.683 111.763 178.496C112.193 178.3 112.683 178.202 113.233 178.202C114.083 178.202 114.769 178.417 115.291 178.846C115.814 179.275 116.094 179.863 116.131 180.61H114.857C114.829 180.209 114.666 179.887 114.367 179.644C114.078 179.401 113.686 179.28 113.191 179.28C112.734 179.28 112.37 179.378 112.099 179.574C111.829 179.77 111.693 180.027 111.693 180.344C111.693 180.596 111.773 180.806 111.931 180.974C112.099 181.133 112.305 181.263 112.547 181.366C112.799 181.459 113.145 181.567 113.583 181.688C114.134 181.837 114.582 181.987 114.927 182.136C115.273 182.276 115.567 182.491 115.809 182.78C116.061 183.069 116.192 183.447 116.201 183.914C116.201 184.334 116.085 184.712 115.851 185.048C115.618 185.384 115.287 185.65 114.857 185.846C114.437 186.033 113.952 186.126 113.401 186.126ZM125 181.87C125 182.113 124.986 182.369 124.958 182.64H118.826C118.873 183.396 119.129 183.989 119.596 184.418C120.072 184.838 120.646 185.048 121.318 185.048C121.869 185.048 122.326 184.922 122.69 184.67C123.063 184.409 123.325 184.063 123.474 183.634H124.846C124.641 184.371 124.23 184.973 123.614 185.44C122.998 185.897 122.233 186.126 121.318 186.126C120.59 186.126 119.937 185.963 119.358 185.636C118.789 185.309 118.341 184.847 118.014 184.25C117.687 183.643 117.524 182.943 117.524 182.15C117.524 181.357 117.683 180.661 118 180.064C118.317 179.467 118.761 179.009 119.33 178.692C119.909 178.365 120.571 178.202 121.318 178.202C122.046 178.202 122.69 178.361 123.25 178.678C123.81 178.995 124.239 179.434 124.538 179.994C124.846 180.545 125 181.17 125 181.87ZM123.684 181.604C123.684 181.119 123.577 180.703 123.362 180.358C123.147 180.003 122.853 179.737 122.48 179.56C122.116 179.373 121.71 179.28 121.262 179.28C120.618 179.28 120.067 179.485 119.61 179.896C119.162 180.307 118.905 180.876 118.84 181.604H123.684ZM127.956 179.574C128.18 179.135 128.497 178.795 128.908 178.552C129.328 178.309 129.836 178.188 130.434 178.188V179.504H130.098C128.67 179.504 127.956 180.279 127.956 181.828V186H126.682V178.328H127.956V179.574ZM136.323 177.082C136.08 177.082 135.875 176.998 135.707 176.83C135.548 176.662 135.469 176.457 135.469 176.214C135.469 175.971 135.548 175.766 135.707 175.598C135.875 175.43 136.08 175.346 136.323 175.346C136.565 175.346 136.766 175.43 136.925 175.598C137.093 175.766 137.177 175.971 137.177 176.214C137.177 176.457 137.093 176.662 136.925 176.83C136.766 176.998 136.565 177.082 136.323 177.082ZM136.953 187.666C136.953 188.347 136.78 188.847 136.435 189.164C136.089 189.481 135.585 189.64 134.923 189.64H134.181V188.562H134.713C135.067 188.562 135.315 188.492 135.455 188.352C135.604 188.212 135.679 187.974 135.679 187.638V178.328H136.953V187.666ZM142.455 186.126C141.737 186.126 141.083 185.963 140.495 185.636C139.917 185.309 139.459 184.847 139.123 184.25C138.797 183.643 138.633 182.943 138.633 182.15C138.633 181.366 138.801 180.675 139.137 180.078C139.483 179.471 139.949 179.009 140.537 178.692C141.125 178.365 141.783 178.202 142.511 178.202C143.239 178.202 143.897 178.365 144.485 178.692C145.073 179.009 145.535 179.467 145.871 180.064C146.217 180.661 146.389 181.357 146.389 182.15C146.389 182.943 146.212 183.643 145.857 184.25C145.512 184.847 145.041 185.309 144.443 185.636C143.846 185.963 143.183 186.126 142.455 186.126ZM142.455 185.006C142.913 185.006 143.342 184.899 143.743 184.684C144.145 184.469 144.467 184.147 144.709 183.718C144.961 183.289 145.087 182.766 145.087 182.15C145.087 181.534 144.966 181.011 144.723 180.582C144.481 180.153 144.163 179.835 143.771 179.63C143.379 179.415 142.955 179.308 142.497 179.308C142.031 179.308 141.601 179.415 141.209 179.63C140.827 179.835 140.519 180.153 140.285 180.582C140.052 181.011 139.935 181.534 139.935 182.15C139.935 182.775 140.047 183.303 140.271 183.732C140.505 184.161 140.813 184.483 141.195 184.698C141.578 184.903 141.998 185.006 142.455 185.006ZM154.868 178.328V186H153.594V184.866C153.352 185.258 153.011 185.566 152.572 185.79C152.143 186.005 151.667 186.112 151.144 186.112C150.547 186.112 150.01 185.991 149.534 185.748C149.058 185.496 148.68 185.123 148.4 184.628C148.13 184.133 147.994 183.531 147.994 182.822V178.328H149.254V182.654C149.254 183.41 149.446 183.993 149.828 184.404C150.211 184.805 150.734 185.006 151.396 185.006C152.078 185.006 152.614 184.796 153.006 184.376C153.398 183.956 153.594 183.345 153.594 182.542V178.328H154.868ZM158.293 179.574C158.517 179.135 158.835 178.795 159.245 178.552C159.665 178.309 160.174 178.188 160.771 178.188V179.504H160.435C159.007 179.504 158.293 180.279 158.293 181.828V186H157.019V178.328H158.293V179.574ZM165.98 178.188C166.913 178.188 167.669 178.473 168.248 179.042C168.827 179.602 169.116 180.414 169.116 181.478V186H167.856V181.66C167.856 180.895 167.665 180.311 167.282 179.91C166.899 179.499 166.377 179.294 165.714 179.294C165.042 179.294 164.505 179.504 164.104 179.924C163.712 180.344 163.516 180.955 163.516 181.758V186H162.242V178.328H163.516V179.42C163.768 179.028 164.109 178.725 164.538 178.51C164.977 178.295 165.457 178.188 165.98 178.188ZM178.197 181.87C178.197 182.113 178.183 182.369 178.155 182.64H172.023C172.07 183.396 172.326 183.989 172.793 184.418C173.269 184.838 173.843 185.048 174.515 185.048C175.066 185.048 175.523 184.922 175.887 184.67C176.26 184.409 176.522 184.063 176.671 183.634H178.043C177.838 184.371 177.427 184.973 176.811 185.44C176.195 185.897 175.43 186.126 174.515 186.126C173.787 186.126 173.134 185.963 172.555 185.636C171.986 185.309 171.538 184.847 171.211 184.25C170.884 183.643 170.721 182.943 170.721 182.15C170.721 181.357 170.88 180.661 171.197 180.064C171.514 179.467 171.958 179.009 172.527 178.692C173.106 178.365 173.768 178.202 174.515 178.202C175.243 178.202 175.887 178.361 176.447 178.678C177.007 178.995 177.436 179.434 177.735 179.994C178.043 180.545 178.197 181.17 178.197 181.87ZM176.881 181.604C176.881 181.119 176.774 180.703 176.559 180.358C176.344 180.003 176.05 179.737 175.677 179.56C175.313 179.373 174.907 179.28 174.459 179.28C173.815 179.28 173.264 179.485 172.807 179.896C172.359 180.307 172.102 180.876 172.037 181.604H176.881ZM186.487 178.328L181.867 189.612H180.551L182.063 185.916L178.969 178.328H180.383L182.791 184.544L185.171 178.328H186.487ZM189.083 184.236L187.515 188.002H186.661L187.683 184.236H189.083ZM7.882 203.328V211H6.608V209.866C6.36533 210.258 6.02467 210.566 5.586 210.79C5.15667 211.005 4.68067 211.112 4.158 211.112C3.56067 211.112 3.024 210.991 2.548 210.748C2.072 210.496 1.694 210.123 1.414 209.628C1.14333 209.133 1.008 208.531 1.008 207.822V203.328H2.268V207.654C2.268 208.41 2.45933 208.993 2.842 209.404C3.22467 209.805 3.74733 210.006 4.41 210.006C5.09133 210.006 5.628 209.796 6.02 209.376C6.412 208.956 6.608 208.345 6.608 207.542V203.328H7.882ZM12.7491 211.126C12.1611 211.126 11.6337 211.028 11.1671 210.832C10.7004 210.627 10.3317 210.347 10.0611 209.992C9.79041 209.628 9.64108 209.213 9.61308 208.746H10.9291C10.9664 209.129 11.1437 209.441 11.4611 209.684C11.7877 209.927 12.2124 210.048 12.7351 210.048C13.2204 210.048 13.6031 209.941 13.8831 209.726C14.1631 209.511 14.3031 209.241 14.3031 208.914C14.3031 208.578 14.1537 208.331 13.8551 208.172C13.5564 208.004 13.0944 207.841 12.4691 207.682C11.8997 207.533 11.4331 207.383 11.0691 207.234C10.7144 207.075 10.4064 206.847 10.1451 206.548C9.89308 206.24 9.76708 205.839 9.76708 205.344C9.76708 204.952 9.88374 204.593 10.1171 204.266C10.3504 203.939 10.6817 203.683 11.1111 203.496C11.5404 203.3 12.0304 203.202 12.5811 203.202C13.4304 203.202 14.1164 203.417 14.6391 203.846C15.1617 204.275 15.4417 204.863 15.4791 205.61H14.2051C14.1771 205.209 14.0137 204.887 13.7151 204.644C13.4257 204.401 13.0337 204.28 12.5391 204.28C12.0817 204.28 11.7177 204.378 11.4471 204.574C11.1764 204.77 11.0411 205.027 11.0411 205.344C11.0411 205.596 11.1204 205.806 11.2791 205.974C11.4471 206.133 11.6524 206.263 11.8951 206.366C12.1471 206.459 12.4924 206.567 12.9311 206.688C13.4817 206.837 13.9297 206.987 14.2751 207.136C14.6204 207.276 14.9144 207.491 15.1571 207.78C15.4091 208.069 15.5397 208.447 15.5491 208.914C15.5491 209.334 15.4324 209.712 15.1991 210.048C14.9657 210.384 14.6344 210.65 14.2051 210.846C13.7851 211.033 13.2997 211.126 12.7491 211.126ZM24.3475 206.87C24.3475 207.113 24.3335 207.369 24.3055 207.64H18.1735C18.2202 208.396 18.4769 208.989 18.9435 209.418C19.4195 209.838 19.9935 210.048 20.6655 210.048C21.2162 210.048 21.6735 209.922 22.0375 209.67C22.4109 209.409 22.6722 209.063 22.8215 208.634H24.1935C23.9882 209.371 23.5775 209.973 22.9615 210.44C22.3455 210.897 21.5802 211.126 20.6655 211.126C19.9375 211.126 19.2842 210.963 18.7055 210.636C18.1362 210.309 17.6882 209.847 17.3615 209.25C17.0349 208.643 16.8715 207.943 16.8715 207.15C16.8715 206.357 17.0302 205.661 17.3475 205.064C17.6649 204.467 18.1082 204.009 18.6775 203.692C19.2562 203.365 19.9189 203.202 20.6655 203.202C21.3935 203.202 22.0375 203.361 22.5975 203.678C23.1575 203.995 23.5869 204.434 23.8855 204.994C24.1935 205.545 24.3475 206.17 24.3475 206.87ZM23.0315 206.604C23.0315 206.119 22.9242 205.703 22.7095 205.358C22.4949 205.003 22.2009 204.737 21.8275 204.56C21.4635 204.373 21.0575 204.28 20.6095 204.28C19.9655 204.28 19.4149 204.485 18.9575 204.896C18.5095 205.307 18.2529 205.876 18.1875 206.604H23.0315ZM27.3032 204.574C27.5272 204.135 27.8445 203.795 28.2552 203.552C28.6752 203.309 29.1838 203.188 29.7812 203.188V204.504H29.4452C28.0172 204.504 27.3032 205.279 27.3032 206.828V211H26.0292V203.328H27.3032V204.574ZM38.7223 203.188C39.6556 203.188 40.4116 203.473 40.9903 204.042C41.5689 204.602 41.8583 205.414 41.8583 206.478V211H40.5983V206.66C40.5983 205.895 40.4069 205.311 40.0243 204.91C39.6416 204.499 39.1189 204.294 38.4563 204.294C37.7843 204.294 37.2476 204.504 36.8463 204.924C36.4543 205.344 36.2583 205.955 36.2583 206.758V211H34.9843V203.328H36.2583V204.42C36.5103 204.028 36.8509 203.725 37.2803 203.51C37.7189 203.295 38.1996 203.188 38.7223 203.188ZM50.9393 206.87C50.9393 207.113 50.9253 207.369 50.8973 207.64H44.7653C44.812 208.396 45.0687 208.989 45.5353 209.418C46.0113 209.838 46.5853 210.048 47.2573 210.048C47.808 210.048 48.2653 209.922 48.6293 209.67C49.0027 209.409 49.264 209.063 49.4133 208.634H50.7853C50.58 209.371 50.1693 209.973 49.5533 210.44C48.9373 210.897 48.172 211.126 47.2573 211.126C46.5293 211.126 45.876 210.963 45.2973 210.636C44.728 210.309 44.28 209.847 43.9533 209.25C43.6267 208.643 43.4633 207.943 43.4633 207.15C43.4633 206.357 43.622 205.661 43.9393 205.064C44.2567 204.467 44.7 204.009 45.2693 203.692C45.848 203.365 46.5107 203.202 47.2573 203.202C47.9853 203.202 48.6293 203.361 49.1893 203.678C49.7493 203.995 50.1787 204.434 50.4773 204.994C50.7853 205.545 50.9393 206.17 50.9393 206.87ZM49.6233 206.604C49.6233 206.119 49.516 205.703 49.3013 205.358C49.0867 205.003 48.7927 204.737 48.4193 204.56C48.0553 204.373 47.6493 204.28 47.2013 204.28C46.5573 204.28 46.0067 204.485 45.5493 204.896C45.1013 205.307 44.8447 205.876 44.7793 206.604H49.6233ZM59.621 206.87C59.621 207.113 59.607 207.369 59.579 207.64H53.447C53.4936 208.396 53.7503 208.989 54.217 209.418C54.693 209.838 55.267 210.048 55.939 210.048C56.4896 210.048 56.947 209.922 57.311 209.67C57.6843 209.409 57.9456 209.063 58.095 208.634H59.467C59.2616 209.371 58.851 209.973 58.235 210.44C57.619 210.897 56.8536 211.126 55.939 211.126C55.211 211.126 54.5576 210.963 53.979 210.636C53.4096 210.309 52.9616 209.847 52.635 209.25C52.3083 208.643 52.145 207.943 52.145 207.15C52.145 206.357 52.3036 205.661 52.621 205.064C52.9383 204.467 53.3816 204.009 53.951 203.692C54.5296 203.365 55.1923 203.202 55.939 203.202C56.667 203.202 57.311 203.361 57.871 203.678C58.431 203.995 58.8603 204.434 59.159 204.994C59.467 205.545 59.621 206.17 59.621 206.87ZM58.305 206.604C58.305 206.119 58.1976 205.703 57.983 205.358C57.7683 205.003 57.4743 204.737 57.101 204.56C56.737 204.373 56.331 204.28 55.883 204.28C55.239 204.28 54.6883 204.485 54.231 204.896C53.783 205.307 53.5263 205.876 53.461 206.604H58.305ZM60.8266 207.136C60.8266 206.352 60.9853 205.666 61.3026 205.078C61.6199 204.481 62.0539 204.019 62.6046 203.692C63.1646 203.365 63.7899 203.202 64.4806 203.202C65.0779 203.202 65.6333 203.342 66.1466 203.622C66.6599 203.893 67.0519 204.252 67.3226 204.7V200.64H68.6106V211H67.3226V209.558C67.0706 210.015 66.6973 210.393 66.2026 210.692C65.7079 210.981 65.1293 211.126 64.4666 211.126C63.7853 211.126 63.1646 210.958 62.6046 210.622C62.0539 210.286 61.6199 209.815 61.3026 209.208C60.9853 208.601 60.8266 207.911 60.8266 207.136ZM67.3226 207.15C67.3226 206.571 67.2059 206.067 66.9726 205.638C66.7393 205.209 66.4219 204.882 66.0206 204.658C65.6286 204.425 65.1946 204.308 64.7186 204.308C64.2426 204.308 63.8086 204.42 63.4166 204.644C63.0246 204.868 62.7119 205.195 62.4786 205.624C62.2453 206.053 62.1286 206.557 62.1286 207.136C62.1286 207.724 62.2453 208.237 62.4786 208.676C62.7119 209.105 63.0246 209.437 63.4166 209.67C63.8086 209.894 64.2426 210.006 64.7186 210.006C65.1946 210.006 65.6286 209.894 66.0206 209.67C66.4219 209.437 66.7393 209.105 66.9726 208.676C67.2059 208.237 67.3226 207.729 67.3226 207.15ZM73.4795 211.126C72.8915 211.126 72.3642 211.028 71.8975 210.832C71.4309 210.627 71.0622 210.347 70.7915 209.992C70.5209 209.628 70.3715 209.213 70.3435 208.746H71.6595C71.6969 209.129 71.8742 209.441 72.1915 209.684C72.5182 209.927 72.9429 210.048 73.4655 210.048C73.9509 210.048 74.3335 209.941 74.6135 209.726C74.8935 209.511 75.0335 209.241 75.0335 208.914C75.0335 208.578 74.8842 208.331 74.5855 208.172C74.2869 208.004 73.8249 207.841 73.1995 207.682C72.6302 207.533 72.1635 207.383 71.7995 207.234C71.4449 207.075 71.1369 206.847 70.8755 206.548C70.6235 206.24 70.4975 205.839 70.4975 205.344C70.4975 204.952 70.6142 204.593 70.8475 204.266C71.0809 203.939 71.4122 203.683 71.8415 203.496C72.2709 203.3 72.7609 203.202 73.3115 203.202C74.1609 203.202 74.8469 203.417 75.3695 203.846C75.8922 204.275 76.1722 204.863 76.2095 205.61H74.9355C74.9075 205.209 74.7442 204.887 74.4455 204.644C74.1562 204.401 73.7642 204.28 73.2695 204.28C72.8122 204.28 72.4482 204.378 72.1775 204.574C71.9069 204.77 71.7715 205.027 71.7715 205.344C71.7715 205.596 71.8509 205.806 72.0095 205.974C72.1775 206.133 72.3829 206.263 72.6255 206.366C72.8775 206.459 73.2229 206.567 73.6615 206.688C74.2122 206.837 74.6602 206.987 75.0055 207.136C75.3509 207.276 75.6449 207.491 75.8875 207.78C76.1395 208.069 76.2702 208.447 76.2795 208.914C76.2795 209.334 76.1629 209.712 75.9295 210.048C75.6962 210.384 75.3649 210.65 74.9355 210.846C74.5155 211.033 74.0302 211.126 73.4795 211.126ZM79.394 209.236L77.826 213.002H76.972L77.994 209.236H79.394ZM84.1098 207.136C84.1098 206.352 84.2685 205.666 84.5858 205.078C84.9031 204.481 85.3371 204.019 85.8878 203.692C86.4478 203.365 87.0685 203.202 87.7498 203.202C88.4218 203.202 89.0051 203.347 89.4998 203.636C89.9945 203.925 90.3631 204.289 90.6058 204.728V203.328H91.8938V211H90.6058V209.572C90.3538 210.02 89.9758 210.393 89.4718 210.692C88.9771 210.981 88.3985 211.126 87.7358 211.126C87.0545 211.126 86.4385 210.958 85.8878 210.622C85.3371 210.286 84.9031 209.815 84.5858 209.208C84.2685 208.601 84.1098 207.911 84.1098 207.136ZM90.6058 207.15C90.6058 206.571 90.4891 206.067 90.2558 205.638C90.0225 205.209 89.7051 204.882 89.3038 204.658C88.9118 204.425 88.4778 204.308 88.0018 204.308C87.5258 204.308 87.0918 204.42 86.6998 204.644C86.3078 204.868 85.9951 205.195 85.7618 205.624C85.5285 206.053 85.4118 206.557 85.4118 207.136C85.4118 207.724 85.5285 208.237 85.7618 208.676C85.9951 209.105 86.3078 209.437 86.6998 209.67C87.0918 209.894 87.5258 210.006 88.0018 210.006C88.4778 210.006 88.9118 209.894 89.3038 209.67C89.7051 209.437 90.0225 209.105 90.2558 208.676C90.4891 208.237 90.6058 207.729 90.6058 207.15ZM97.7848 203.188C98.7181 203.188 99.4741 203.473 100.053 204.042C100.631 204.602 100.921 205.414 100.921 206.478V211H99.6608V206.66C99.6608 205.895 99.4694 205.311 99.0868 204.91C98.7041 204.499 98.1814 204.294 97.5188 204.294C96.8468 204.294 96.3101 204.504 95.9088 204.924C95.5168 205.344 95.3208 205.955 95.3208 206.758V211H94.0468V203.328H95.3208V204.42C95.5728 204.028 95.9134 203.725 96.3428 203.51C96.7814 203.295 97.2621 203.188 97.7848 203.188ZM102.526 207.136C102.526 206.352 102.684 205.666 103.002 205.078C103.319 204.481 103.753 204.019 104.304 203.692C104.864 203.365 105.489 203.202 106.18 203.202C106.777 203.202 107.332 203.342 107.846 203.622C108.359 203.893 108.751 204.252 109.022 204.7V200.64H110.31V211H109.022V209.558C108.77 210.015 108.396 210.393 107.902 210.692C107.407 210.981 106.828 211.126 106.166 211.126C105.484 211.126 104.864 210.958 104.304 210.622C103.753 210.286 103.319 209.815 103.002 209.208C102.684 208.601 102.526 207.911 102.526 207.136ZM109.022 207.15C109.022 206.571 108.905 206.067 108.672 205.638C108.438 205.209 108.121 204.882 107.72 204.658C107.328 204.425 106.894 204.308 106.418 204.308C105.942 204.308 105.508 204.42 105.116 204.644C104.724 204.868 104.411 205.195 104.178 205.624C103.944 206.053 103.828 206.557 103.828 207.136C103.828 207.724 103.944 208.237 104.178 208.676C104.411 209.105 104.724 209.437 105.116 209.67C105.508 209.894 105.942 210.006 106.418 210.006C106.894 210.006 107.328 209.894 107.72 209.67C108.121 209.437 108.438 209.105 108.672 208.676C108.905 208.237 109.022 207.729 109.022 207.15ZM117.469 204.742C117.721 204.303 118.095 203.939 118.589 203.65C119.093 203.351 119.677 203.202 120.339 203.202C121.021 203.202 121.637 203.365 122.187 203.692C122.747 204.019 123.186 204.481 123.503 205.078C123.821 205.666 123.979 206.352 123.979 207.136C123.979 207.911 123.821 208.601 123.503 209.208C123.186 209.815 122.747 210.286 122.187 210.622C121.637 210.958 121.021 211.126 120.339 211.126C119.686 211.126 119.107 210.981 118.603 210.692C118.109 210.393 117.731 210.025 117.469 209.586V214.64H116.195V203.328H117.469V204.742ZM122.677 207.136C122.677 206.557 122.561 206.053 122.327 205.624C122.094 205.195 121.777 204.868 121.375 204.644C120.983 204.42 120.549 204.308 120.073 204.308C119.607 204.308 119.173 204.425 118.771 204.658C118.379 204.882 118.062 205.213 117.819 205.652C117.586 206.081 117.469 206.581 117.469 207.15C117.469 207.729 117.586 208.237 117.819 208.676C118.062 209.105 118.379 209.437 118.771 209.67C119.173 209.894 119.607 210.006 120.073 210.006C120.549 210.006 120.983 209.894 121.375 209.67C121.777 209.437 122.094 209.105 122.327 208.676C122.561 208.237 122.677 207.724 122.677 207.136ZM125.18 207.136C125.18 206.352 125.339 205.666 125.656 205.078C125.973 204.481 126.407 204.019 126.958 203.692C127.518 203.365 128.139 203.202 128.82 203.202C129.492 203.202 130.075 203.347 130.57 203.636C131.065 203.925 131.433 204.289 131.676 204.728V203.328H132.964V211H131.676V209.572C131.424 210.02 131.046 210.393 130.542 210.692C130.047 210.981 129.469 211.126 128.806 211.126C128.125 211.126 127.509 210.958 126.958 210.622C126.407 210.286 125.973 209.815 125.656 209.208C125.339 208.601 125.18 207.911 125.18 207.136ZM131.676 207.15C131.676 206.571 131.559 206.067 131.326 205.638C131.093 205.209 130.775 204.882 130.374 204.658C129.982 204.425 129.548 204.308 129.072 204.308C128.596 204.308 128.162 204.42 127.77 204.644C127.378 204.868 127.065 205.195 126.832 205.624C126.599 206.053 126.482 206.557 126.482 207.136C126.482 207.724 126.599 208.237 126.832 208.676C127.065 209.105 127.378 209.437 127.77 209.67C128.162 209.894 128.596 210.006 129.072 210.006C129.548 210.006 129.982 209.894 130.374 209.67C130.775 209.437 131.093 209.105 131.326 208.676C131.559 208.237 131.676 207.729 131.676 207.15ZM135.775 202.082C135.532 202.082 135.327 201.998 135.159 201.83C134.991 201.662 134.907 201.457 134.907 201.214C134.907 200.971 134.991 200.766 135.159 200.598C135.327 200.43 135.532 200.346 135.775 200.346C136.008 200.346 136.204 200.43 136.363 200.598C136.531 200.766 136.615 200.971 136.615 201.214C136.615 201.457 136.531 201.662 136.363 201.83C136.204 201.998 136.008 202.082 135.775 202.082ZM136.391 203.328V211H135.117V203.328H136.391ZM142.3 203.188C143.234 203.188 143.99 203.473 144.568 204.042C145.147 204.602 145.436 205.414 145.436 206.478V211H144.176V206.66C144.176 205.895 143.985 205.311 143.602 204.91C143.22 204.499 142.697 204.294 142.034 204.294C141.362 204.294 140.826 204.504 140.424 204.924C140.032 205.344 139.836 205.955 139.836 206.758V211H138.562V203.328H139.836V204.42C140.088 204.028 140.429 203.725 140.858 203.51C141.297 203.295 141.778 203.188 142.3 203.188ZM152.524 204.742C152.776 204.303 153.149 203.939 153.644 203.65C154.148 203.351 154.731 203.202 155.394 203.202C156.075 203.202 156.691 203.365 157.242 203.692C157.802 204.019 158.241 204.481 158.558 205.078C158.875 205.666 159.034 206.352 159.034 207.136C159.034 207.911 158.875 208.601 158.558 209.208C158.241 209.815 157.802 210.286 157.242 210.622C156.691 210.958 156.075 211.126 155.394 211.126C154.741 211.126 154.162 210.981 153.658 210.692C153.163 210.393 152.785 210.025 152.524 209.586V214.64H151.25V203.328H152.524V204.742ZM157.732 207.136C157.732 206.557 157.615 206.053 157.382 205.624C157.149 205.195 156.831 204.868 156.43 204.644C156.038 204.42 155.604 204.308 155.128 204.308C154.661 204.308 154.227 204.425 153.826 204.658C153.434 204.882 153.117 205.213 152.874 205.652C152.641 206.081 152.524 206.581 152.524 207.15C152.524 207.729 152.641 208.237 152.874 208.676C153.117 209.105 153.434 209.437 153.826 209.67C154.227 209.894 154.661 210.006 155.128 210.006C155.604 210.006 156.038 209.894 156.43 209.67C156.831 209.437 157.149 209.105 157.382 208.676C157.615 208.237 157.732 207.724 157.732 207.136ZM164.057 211.126C163.338 211.126 162.685 210.963 162.097 210.636C161.518 210.309 161.061 209.847 160.725 209.25C160.398 208.643 160.235 207.943 160.235 207.15C160.235 206.366 160.403 205.675 160.739 205.078C161.084 204.471 161.551 204.009 162.139 203.692C162.727 203.365 163.385 203.202 164.113 203.202C164.841 203.202 165.499 203.365 166.087 203.692C166.675 204.009 167.137 204.467 167.473 205.064C167.818 205.661 167.991 206.357 167.991 207.15C167.991 207.943 167.813 208.643 167.459 209.25C167.113 209.847 166.642 210.309 166.045 210.636C165.447 210.963 164.785 211.126 164.057 211.126ZM164.057 210.006C164.514 210.006 164.943 209.899 165.345 209.684C165.746 209.469 166.068 209.147 166.311 208.718C166.563 208.289 166.689 207.766 166.689 207.15C166.689 206.534 166.567 206.011 166.325 205.582C166.082 205.153 165.765 204.835 165.373 204.63C164.981 204.415 164.556 204.308 164.099 204.308C163.632 204.308 163.203 204.415 162.811 204.63C162.428 204.835 162.12 205.153 161.887 205.582C161.653 206.011 161.537 206.534 161.537 207.15C161.537 207.775 161.649 208.303 161.873 208.732C162.106 209.161 162.414 209.483 162.797 209.698C163.179 209.903 163.599 210.006 164.057 210.006ZM170.324 202.082C170.081 202.082 169.876 201.998 169.708 201.83C169.54 201.662 169.456 201.457 169.456 201.214C169.456 200.971 169.54 200.766 169.708 200.598C169.876 200.43 170.081 200.346 170.324 200.346C170.557 200.346 170.753 200.43 170.912 200.598C171.08 200.766 171.164 200.971 171.164 201.214C171.164 201.457 171.08 201.662 170.912 201.83C170.753 201.998 170.557 202.082 170.324 202.082ZM170.94 203.328V211H169.666V203.328H170.94ZM176.849 203.188C177.783 203.188 178.539 203.473 179.117 204.042C179.696 204.602 179.985 205.414 179.985 206.478V211H178.725V206.66C178.725 205.895 178.534 205.311 178.151 204.91C177.769 204.499 177.246 204.294 176.583 204.294C175.911 204.294 175.375 204.504 174.973 204.924C174.581 205.344 174.385 205.955 174.385 206.758V211H173.111V203.328H174.385V204.42C174.637 204.028 174.978 203.725 175.407 203.51C175.846 203.295 176.327 203.188 176.849 203.188ZM183.62 204.378V208.9C183.62 209.273 183.7 209.539 183.858 209.698C184.017 209.847 184.292 209.922 184.684 209.922H185.622V211H184.474C183.765 211 183.233 210.837 182.878 210.51C182.524 210.183 182.346 209.647 182.346 208.9V204.378H181.352V203.328H182.346V201.396H183.62V203.328H185.622V204.378H183.62ZM189.882 211.126C189.294 211.126 188.767 211.028 188.3 210.832C187.833 210.627 187.465 210.347 187.194 209.992C186.923 209.628 186.774 209.213 186.746 208.746H188.062C188.099 209.129 188.277 209.441 188.594 209.684C188.921 209.927 189.345 210.048 189.868 210.048C190.353 210.048 190.736 209.941 191.016 209.726C191.296 209.511 191.436 209.241 191.436 208.914C191.436 208.578 191.287 208.331 190.988 208.172C190.689 208.004 190.227 207.841 189.602 207.682C189.033 207.533 188.566 207.383 188.202 207.234C187.847 207.075 187.539 206.847 187.278 206.548C187.026 206.24 186.9 205.839 186.9 205.344C186.9 204.952 187.017 204.593 187.25 204.266C187.483 203.939 187.815 203.683 188.244 203.496C188.673 203.3 189.163 203.202 189.714 203.202C190.563 203.202 191.249 203.417 191.772 203.846C192.295 204.275 192.575 204.863 192.612 205.61H191.338C191.31 205.209 191.147 204.887 190.848 204.644C190.559 204.401 190.167 204.28 189.672 204.28C189.215 204.28 188.851 204.378 188.58 204.574C188.309 204.77 188.174 205.027 188.174 205.344C188.174 205.596 188.253 205.806 188.412 205.974C188.58 206.133 188.785 206.263 189.028 206.366C189.28 206.459 189.625 206.567 190.064 206.688C190.615 206.837 191.063 206.987 191.408 207.136C191.753 207.276 192.047 207.491 192.29 207.78C192.542 208.069 192.673 208.447 192.682 208.914C192.682 209.334 192.565 209.712 192.332 210.048C192.099 210.384 191.767 210.65 191.338 210.846C190.918 211.033 190.433 211.126 189.882 211.126ZM194.886 211.084C194.644 211.084 194.438 211 194.27 210.832C194.102 210.664 194.018 210.459 194.018 210.216C194.018 209.973 194.102 209.768 194.27 209.6C194.438 209.432 194.644 209.348 194.886 209.348C195.12 209.348 195.316 209.432 195.474 209.6C195.642 209.768 195.726 209.973 195.726 210.216C195.726 210.459 195.642 210.664 195.474 210.832C195.316 211 195.12 211.084 194.886 211.084Z" fill="#6B6B6E"/>
<rect width="80" height="80" rx="40" fill="#DADADC"/>
<path d="M34.4165 45.944C36.4645 44.2373 38.0965 42.8187 39.3125 41.688C40.5285 40.536 41.5418 39.3413 42.3525 38.104C43.1632 36.8667 43.5685 35.6507 43.5685 34.456C43.5685 33.368 43.3125 32.5147 42.8005 31.896C42.2885 31.2773 41.4992 30.968 40.4325 30.968C39.3658 30.968 38.5445 31.3307 37.9685 32.056C37.3925 32.76 37.0938 33.7307 37.0725 34.968H32.7205C32.8058 32.408 33.5632 30.4667 34.9925 29.144C36.4432 27.8213 38.2778 27.16 40.4965 27.16C42.9285 27.16 44.7952 27.8107 46.0965 29.112C47.3978 30.392 48.0485 32.088 48.0485 34.2C48.0485 35.864 47.6005 37.4533 46.7045 38.968C45.8085 40.4827 44.7845 41.8053 43.6325 42.936C42.4805 44.0453 40.9765 45.3893 39.1205 46.968H48.5605V50.68H32.7525V47.352L34.4165 45.944Z" fill="#2E303A"/>
</svg>
