<svg width="211" height="219" viewBox="0 0 211 219" fill="none" xmlns="http://www.w3.org/2000/svg">
<path d="M0.63 114.7C0.63 113.464 0.906 112.36 1.458 111.388C2.022 110.404 2.784 109.642 3.744 109.102C4.716 108.55 5.802 108.274 7.002 108.274C8.406 108.274 9.636 108.634 10.692 109.354C11.748 110.074 12.486 111.07 12.906 112.342H10.008C9.72 111.742 9.312 111.292 8.784 110.992C8.268 110.692 7.668 110.542 6.984 110.542C6.252 110.542 5.598 110.716 5.022 111.064C4.458 111.4 4.014 111.88 3.69 112.504C3.378 113.128 3.222 113.86 3.222 114.7C3.222 115.528 3.378 116.26 3.69 116.896C4.014 117.52 4.458 118.006 5.022 118.354C5.598 118.69 6.252 118.858 6.984 118.858C7.668 118.858 8.268 118.708 8.784 118.408C9.312 118.096 9.72 117.64 10.008 117.04H12.906C12.486 118.324 11.748 119.326 10.692 120.046C9.648 120.754 8.418 121.108 7.002 121.108C5.802 121.108 4.716 120.838 3.744 120.298C2.784 119.746 2.022 118.984 1.458 118.012C0.906 117.04 0.63 115.936 0.63 114.7ZM19.4864 121.162C18.5264 121.162 17.6624 120.952 16.8944 120.532C16.1264 120.1 15.5204 119.494 15.0764 118.714C14.6444 117.934 14.4284 117.034 14.4284 116.014C14.4284 114.994 14.6504 114.094 15.0944 113.314C15.5504 112.534 16.1684 111.934 16.9484 111.514C17.7284 111.082 18.5984 110.866 19.5584 110.866C20.5184 110.866 21.3884 111.082 22.1684 111.514C22.9484 111.934 23.5604 112.534 24.0044 113.314C24.4604 114.094 24.6884 114.994 24.6884 116.014C24.6884 117.034 24.4544 117.934 23.9864 118.714C23.5304 119.494 22.9064 120.1 22.1144 120.532C21.3344 120.952 20.4584 121.162 19.4864 121.162ZM19.4864 118.966C19.9424 118.966 20.3684 118.858 20.7644 118.642C21.1724 118.414 21.4964 118.078 21.7364 117.634C21.9764 117.19 22.0964 116.65 22.0964 116.014C22.0964 115.066 21.8444 114.34 21.3404 113.836C20.8484 113.32 20.2424 113.062 19.5224 113.062C18.8024 113.062 18.1964 113.32 17.7044 113.836C17.2244 114.34 16.9844 115.066 16.9844 116.014C16.9844 116.962 17.2184 117.694 17.6864 118.21C18.1664 118.714 18.7664 118.966 19.4864 118.966ZM38.9209 110.884C40.1449 110.884 41.1289 111.262 41.8729 112.018C42.6289 112.762 43.0069 113.806 43.0069 115.15V121H40.4869V115.492C40.4869 114.712 40.2889 114.118 39.8929 113.71C39.4969 113.29 38.9569 113.08 38.2729 113.08C37.5889 113.08 37.0429 113.29 36.6349 113.71C36.2389 114.118 36.0409 114.712 36.0409 115.492V121H33.5209V115.492C33.5209 114.712 33.3229 114.118 32.9269 113.71C32.5309 113.29 31.9909 113.08 31.3069 113.08C30.6109 113.08 30.0589 113.29 29.6509 113.71C29.2549 114.118 29.0569 114.712 29.0569 115.492V121H26.5369V111.028H29.0569V112.234C29.3809 111.814 29.7949 111.484 30.2989 111.244C30.8149 111.004 31.3789 110.884 31.9909 110.884C32.7709 110.884 33.4669 111.052 34.0789 111.388C34.6909 111.712 35.1649 112.18 35.5009 112.792C35.8249 112.216 36.2929 111.754 36.9049 111.406C37.5289 111.058 38.2009 110.884 38.9209 110.884ZM47.9183 112.468C48.2423 112.012 48.6863 111.634 49.2503 111.334C49.8263 111.022 50.4803 110.866 51.2123 110.866C52.0643 110.866 52.8323 111.076 53.5163 111.496C54.2123 111.916 54.7583 112.516 55.1543 113.296C55.5623 114.064 55.7663 114.958 55.7663 115.978C55.7663 116.998 55.5623 117.904 55.1543 118.696C54.7583 119.476 54.2123 120.082 53.5163 120.514C52.8323 120.946 52.0643 121.162 51.2123 121.162C50.4803 121.162 49.8323 121.012 49.2683 120.712C48.7163 120.412 48.2663 120.034 47.9183 119.578V125.752H45.3983V111.028H47.9183V112.468ZM53.1923 115.978C53.1923 115.378 53.0663 114.862 52.8143 114.43C52.5743 113.986 52.2503 113.65 51.8423 113.422C51.4463 113.194 51.0143 113.08 50.5463 113.08C50.0903 113.08 49.6583 113.2 49.2503 113.44C48.8543 113.668 48.5303 114.004 48.2783 114.448C48.0383 114.892 47.9183 115.414 47.9183 116.014C47.9183 116.614 48.0383 117.136 48.2783 117.58C48.5303 118.024 48.8543 118.366 49.2503 118.606C49.6583 118.834 50.0903 118.948 50.5463 118.948C51.0143 118.948 51.4463 118.828 51.8423 118.588C52.2503 118.348 52.5743 118.006 52.8143 117.562C53.0663 117.118 53.1923 116.59 53.1923 115.978ZM66.8675 115.798C66.8675 116.158 66.8435 116.482 66.7955 116.77H59.5055C59.5655 117.49 59.8175 118.054 60.2615 118.462C60.7055 118.87 61.2515 119.074 61.8995 119.074C62.8355 119.074 63.5015 118.672 63.8975 117.868H66.6155C66.3275 118.828 65.7755 119.62 64.9595 120.244C64.1435 120.856 63.1415 121.162 61.9535 121.162C60.9935 121.162 60.1295 120.952 59.3615 120.532C58.6055 120.1 58.0115 119.494 57.5795 118.714C57.1595 117.934 56.9495 117.034 56.9495 116.014C56.9495 114.982 57.1595 114.076 57.5795 113.296C57.9995 112.516 58.5875 111.916 59.3435 111.496C60.0995 111.076 60.9695 110.866 61.9535 110.866C62.9015 110.866 63.7475 111.07 64.4915 111.478C65.2475 111.886 65.8295 112.468 66.2375 113.224C66.6575 113.968 66.8675 114.826 66.8675 115.798ZM64.2575 115.078C64.2455 114.43 64.0115 113.914 63.5555 113.53C63.0995 113.134 62.5415 112.936 61.8815 112.936C61.2575 112.936 60.7295 113.128 60.2975 113.512C59.8775 113.884 59.6195 114.406 59.5235 115.078H64.2575ZM71.6408 113.098V117.922C71.6408 118.258 71.7188 118.504 71.8748 118.66C72.0428 118.804 72.3188 118.876 72.7028 118.876H73.8728V121H72.2888C70.1648 121 69.1028 119.968 69.1028 117.904V113.098H67.9148V111.028H69.1028V108.562H71.6408V111.028H73.8728V113.098H71.6408ZM76.9634 109.84C76.5194 109.84 76.1474 109.702 75.8474 109.426C75.5594 109.138 75.4154 108.784 75.4154 108.364C75.4154 107.944 75.5594 107.596 75.8474 107.32C76.1474 107.032 76.5194 106.888 76.9634 106.888C77.4074 106.888 77.7734 107.032 78.0614 107.32C78.3614 107.596 78.5114 107.944 78.5114 108.364C78.5114 108.784 78.3614 109.138 78.0614 109.426C77.7734 109.702 77.4074 109.84 76.9634 109.84ZM78.2054 111.028V121H75.6854V111.028H78.2054ZM83.6291 113.098V117.922C83.6291 118.258 83.7071 118.504 83.8631 118.66C84.0311 118.804 84.3071 118.876 84.6911 118.876H85.8611V121H84.2771C82.1531 121 81.0911 119.968 81.0911 117.904V113.098H79.9031V111.028H81.0911V108.562H83.6291V111.028H85.8611V113.098H83.6291ZM88.9516 109.84C88.5076 109.84 88.1356 109.702 87.8356 109.426C87.5476 109.138 87.4036 108.784 87.4036 108.364C87.4036 107.944 87.5476 107.596 87.8356 107.32C88.1356 107.032 88.5076 106.888 88.9516 106.888C89.3956 106.888 89.7616 107.032 90.0496 107.32C90.3496 107.596 90.4996 107.944 90.4996 108.364C90.4996 108.784 90.3496 109.138 90.0496 109.426C89.7616 109.702 89.3956 109.84 88.9516 109.84ZM90.1936 111.028V121H87.6736V111.028H90.1936ZM96.8414 118.678L99.3614 111.028H102.043L98.3534 121H95.2934L91.6214 111.028H94.3214L96.8414 118.678ZM112.729 115.798C112.729 116.158 112.705 116.482 112.657 116.77H105.367C105.427 117.49 105.679 118.054 106.123 118.462C106.567 118.87 107.113 119.074 107.761 119.074C108.697 119.074 109.363 118.672 109.759 117.868H112.477C112.189 118.828 111.637 119.62 110.821 120.244C110.005 120.856 109.003 121.162 107.815 121.162C106.855 121.162 105.991 120.952 105.223 120.532C104.467 120.1 103.873 119.494 103.441 118.714C103.021 117.934 102.811 117.034 102.811 116.014C102.811 114.982 103.021 114.076 103.441 113.296C103.861 112.516 104.449 111.916 105.205 111.496C105.961 111.076 106.831 110.866 107.815 110.866C108.763 110.866 109.609 111.07 110.353 111.478C111.109 111.886 111.691 112.468 112.099 113.224C112.519 113.968 112.729 114.826 112.729 115.798ZM110.119 115.078C110.107 114.43 109.873 113.914 109.417 113.53C108.961 113.134 108.403 112.936 107.743 112.936C107.119 112.936 106.591 113.128 106.159 113.512C105.739 113.884 105.481 114.406 105.385 115.078H110.119ZM126.561 118.606H121.557L120.729 121H118.083L122.601 108.418H125.535L130.053 121H127.389L126.561 118.606ZM125.877 116.59L124.059 111.334L122.241 116.59H125.877ZM137.268 110.884C138.456 110.884 139.416 111.262 140.148 112.018C140.88 112.762 141.246 113.806 141.246 115.15V121H138.726V115.492C138.726 114.7 138.528 114.094 138.132 113.674C137.736 113.242 137.196 113.026 136.512 113.026C135.816 113.026 135.264 113.242 134.856 113.674C134.46 114.094 134.262 114.7 134.262 115.492V121H131.742V111.028H134.262V112.27C134.598 111.838 135.024 111.502 135.54 111.262C136.068 111.01 136.644 110.884 137.268 110.884ZM142.994 115.978C142.994 114.97 143.192 114.076 143.588 113.296C143.996 112.516 144.542 111.916 145.226 111.496C145.922 111.076 146.696 110.866 147.548 110.866C148.292 110.866 148.94 111.016 149.492 111.316C150.056 111.616 150.506 111.994 150.842 112.45V111.028H153.38V121H150.842V119.542C150.518 120.01 150.068 120.4 149.492 120.712C148.928 121.012 148.274 121.162 147.53 121.162C146.69 121.162 145.922 120.946 145.226 120.514C144.542 120.082 143.996 119.476 143.588 118.696C143.192 117.904 142.994 116.998 142.994 115.978ZM150.842 116.014C150.842 115.402 150.722 114.88 150.482 114.448C150.242 114.004 149.918 113.668 149.51 113.44C149.102 113.2 148.664 113.08 148.196 113.08C147.728 113.08 147.296 113.194 146.9 113.422C146.504 113.65 146.18 113.986 145.928 114.43C145.688 114.862 145.568 115.378 145.568 115.978C145.568 116.578 145.688 117.106 145.928 117.562C146.18 118.006 146.504 118.348 146.9 118.588C147.308 118.828 147.74 118.948 148.196 118.948C148.664 118.948 149.102 118.834 149.51 118.606C149.918 118.366 150.242 118.03 150.482 117.598C150.722 117.154 150.842 116.626 150.842 116.014ZM158.362 107.68V121H155.842V107.68H158.362ZM170.391 111.028L164.217 125.716H161.535L163.695 120.748L159.699 111.028H162.525L165.099 117.994L167.709 111.028H170.391ZM175.566 121.162C174.75 121.162 174.018 121.018 173.37 120.73C172.722 120.43 172.206 120.028 171.822 119.524C171.45 119.02 171.246 118.462 171.21 117.85H173.748C173.796 118.234 173.982 118.552 174.306 118.804C174.642 119.056 175.056 119.182 175.548 119.182C176.028 119.182 176.4 119.086 176.664 118.894C176.94 118.702 177.078 118.456 177.078 118.156C177.078 117.832 176.91 117.592 176.574 117.436C176.25 117.268 175.728 117.088 175.008 116.896C174.264 116.716 173.652 116.53 173.172 116.338C172.704 116.146 172.296 115.852 171.948 115.456C171.612 115.06 171.444 114.526 171.444 113.854C171.444 113.302 171.6 112.798 171.912 112.342C172.236 111.886 172.692 111.526 173.28 111.262C173.88 110.998 174.582 110.866 175.386 110.866C176.574 110.866 177.522 111.166 178.23 111.766C178.938 112.354 179.328 113.152 179.4 114.16H176.988C176.952 113.764 176.784 113.452 176.484 113.224C176.196 112.984 175.806 112.864 175.314 112.864C174.858 112.864 174.504 112.948 174.252 113.116C174.012 113.284 173.892 113.518 173.892 113.818C173.892 114.154 174.06 114.412 174.396 114.592C174.732 114.76 175.254 114.934 175.962 115.114C176.682 115.294 177.276 115.48 177.744 115.672C178.212 115.864 178.614 116.164 178.95 116.572C179.298 116.968 179.478 117.496 179.49 118.156C179.49 118.732 179.328 119.248 179.004 119.704C178.692 120.16 178.236 120.52 177.636 120.784C177.048 121.036 176.358 121.162 175.566 121.162ZM182.836 109.84C182.392 109.84 182.02 109.702 181.72 109.426C181.432 109.138 181.288 108.784 181.288 108.364C181.288 107.944 181.432 107.596 181.72 107.32C182.02 107.032 182.392 106.888 182.836 106.888C183.28 106.888 183.646 107.032 183.934 107.32C184.234 107.596 184.384 107.944 184.384 108.364C184.384 108.784 184.234 109.138 183.934 109.426C183.646 109.702 183.28 109.84 182.836 109.84ZM184.078 111.028V121H181.558V111.028H184.078ZM190.384 121.162C189.568 121.162 188.836 121.018 188.188 120.73C187.54 120.43 187.024 120.028 186.64 119.524C186.268 119.02 186.064 118.462 186.028 117.85H188.566C188.614 118.234 188.8 118.552 189.124 118.804C189.46 119.056 189.874 119.182 190.366 119.182C190.846 119.182 191.218 119.086 191.482 118.894C191.758 118.702 191.896 118.456 191.896 118.156C191.896 117.832 191.728 117.592 191.392 117.436C191.068 117.268 190.546 117.088 189.826 116.896C189.082 116.716 188.47 116.53 187.99 116.338C187.522 116.146 187.114 115.852 186.766 115.456C186.43 115.06 186.262 114.526 186.262 113.854C186.262 113.302 186.418 112.798 186.73 112.342C187.054 111.886 187.51 111.526 188.098 111.262C188.698 110.998 189.4 110.866 190.204 110.866C191.392 110.866 192.34 111.166 193.048 111.766C193.756 112.354 194.146 113.152 194.218 114.16H191.806C191.77 113.764 191.602 113.452 191.302 113.224C191.014 112.984 190.624 112.864 190.132 112.864C189.676 112.864 189.322 112.948 189.07 113.116C188.83 113.284 188.71 113.518 188.71 113.818C188.71 114.154 188.878 114.412 189.214 114.592C189.55 114.76 190.072 114.934 190.78 115.114C191.5 115.294 192.094 115.48 192.562 115.672C193.03 115.864 193.432 116.164 193.768 116.572C194.116 116.968 194.296 117.496 194.308 118.156C194.308 118.732 194.146 119.248 193.822 119.704C193.51 120.16 193.054 120.52 192.454 120.784C191.866 121.036 191.176 121.162 190.384 121.162Z" fill="#2E303A"/>
<path d="M6.846 158.83H2.59L1.806 161H0.462L3.99 151.298H5.46L8.974 161H7.63L6.846 158.83ZM6.482 157.794L4.718 152.866L2.954 157.794H6.482ZM14.2496 153.188C15.1829 153.188 15.9389 153.473 16.5176 154.042C17.0963 154.602 17.3856 155.414 17.3856 156.478V161H16.1256V156.66C16.1256 155.895 15.9343 155.311 15.5516 154.91C15.1689 154.499 14.6463 154.294 13.9836 154.294C13.3116 154.294 12.7749 154.504 12.3736 154.924C11.9816 155.344 11.7856 155.955 11.7856 156.758V161H10.5116V153.328H11.7856V154.42C12.0376 154.028 12.3783 153.725 12.8076 153.51C13.2463 153.295 13.7269 153.188 14.2496 153.188ZM18.9907 157.136C18.9907 156.352 19.1493 155.666 19.4667 155.078C19.784 154.481 20.218 154.019 20.7687 153.692C21.3287 153.365 21.9493 153.202 22.6307 153.202C23.3027 153.202 23.886 153.347 24.3807 153.636C24.8753 153.925 25.244 154.289 25.4867 154.728V153.328H26.7747V161H25.4867V159.572C25.2347 160.02 24.8567 160.393 24.3527 160.692C23.858 160.981 23.2793 161.126 22.6167 161.126C21.9353 161.126 21.3193 160.958 20.7687 160.622C20.218 160.286 19.784 159.815 19.4667 159.208C19.1493 158.601 18.9907 157.911 18.9907 157.136ZM25.4867 157.15C25.4867 156.571 25.37 156.067 25.1367 155.638C24.9033 155.209 24.586 154.882 24.1847 154.658C23.7927 154.425 23.3587 154.308 22.8827 154.308C22.4067 154.308 21.9727 154.42 21.5807 154.644C21.1887 154.868 20.876 155.195 20.6427 155.624C20.4093 156.053 20.2927 156.557 20.2927 157.136C20.2927 157.724 20.4093 158.237 20.6427 158.676C20.876 159.105 21.1887 159.437 21.5807 159.67C21.9727 159.894 22.4067 160.006 22.8827 160.006C23.3587 160.006 23.7927 159.894 24.1847 159.67C24.586 159.437 24.9033 159.105 25.1367 158.676C25.37 158.237 25.4867 157.729 25.4867 157.15ZM30.2016 150.64V161H28.9276V150.64H30.2016ZM38.9809 153.328L34.3609 164.612H33.0449L34.5569 160.916L31.4629 153.328H32.8769L35.2849 159.544L37.6649 153.328H38.9809ZM41.2136 159.95H44.9796V161H39.7576V159.95L43.4816 154.364H39.7856V153.328H44.9516V154.364L41.2136 159.95ZM47.2907 152.082C47.048 152.082 46.8427 151.998 46.6747 151.83C46.5067 151.662 46.4227 151.457 46.4227 151.214C46.4227 150.971 46.5067 150.766 46.6747 150.598C46.8427 150.43 47.048 150.346 47.2907 150.346C47.524 150.346 47.72 150.43 47.8787 150.598C48.0467 150.766 48.1307 150.971 48.1307 151.214C48.1307 151.457 48.0467 151.662 47.8787 151.83C47.72 151.998 47.524 152.082 47.2907 152.082ZM47.9067 153.328V161H46.6327V153.328H47.9067ZM53.816 153.188C54.7493 153.188 55.5053 153.473 56.084 154.042C56.6627 154.602 56.952 155.414 56.952 156.478V161H55.692V156.66C55.692 155.895 55.5007 155.311 55.118 154.91C54.7353 154.499 54.2127 154.294 53.55 154.294C52.878 154.294 52.3413 154.504 51.94 154.924C51.548 155.344 51.352 155.955 51.352 156.758V161H50.078V153.328H51.352V154.42C51.604 154.028 51.9447 153.725 52.374 153.51C52.8127 153.295 53.2933 153.188 53.816 153.188ZM62.1971 153.202C62.8597 153.202 63.4384 153.347 63.9331 153.636C64.4371 153.925 64.8104 154.289 65.0531 154.728V153.328H66.3411V161.168C66.3411 161.868 66.1917 162.489 65.8931 163.03C65.5944 163.581 65.1651 164.01 64.6051 164.318C64.0544 164.626 63.4104 164.78 62.6731 164.78C61.6651 164.78 60.8251 164.542 60.1531 164.066C59.4811 163.59 59.0844 162.941 58.9631 162.12H60.2231C60.3631 162.587 60.6524 162.96 61.0911 163.24C61.5297 163.529 62.0571 163.674 62.6731 163.674C63.3731 163.674 63.9424 163.455 64.3811 163.016C64.8291 162.577 65.0531 161.961 65.0531 161.168V159.558C64.8011 160.006 64.4277 160.379 63.9331 160.678C63.4384 160.977 62.8597 161.126 62.1971 161.126C61.5157 161.126 60.8951 160.958 60.3351 160.622C59.7844 160.286 59.3504 159.815 59.0331 159.208C58.7157 158.601 58.5571 157.911 58.5571 157.136C58.5571 156.352 58.7157 155.666 59.0331 155.078C59.3504 154.481 59.7844 154.019 60.3351 153.692C60.8951 153.365 61.5157 153.202 62.1971 153.202ZM65.0531 157.15C65.0531 156.571 64.9364 156.067 64.7031 155.638C64.4697 155.209 64.1524 154.882 63.7511 154.658C63.3591 154.425 62.9251 154.308 62.4491 154.308C61.9731 154.308 61.5391 154.42 61.1471 154.644C60.7551 154.868 60.4424 155.195 60.2091 155.624C59.9757 156.053 59.8591 156.557 59.8591 157.136C59.8591 157.724 59.9757 158.237 60.2091 158.676C60.4424 159.105 60.7551 159.437 61.1471 159.67C61.5391 159.894 61.9731 160.006 62.4491 160.006C62.9251 160.006 63.3591 159.894 63.7511 159.67C64.1524 159.437 64.4697 159.105 64.7031 158.676C64.9364 158.237 65.0531 157.729 65.0531 157.15ZM71.7504 157.15C71.7504 156.357 71.9091 155.666 72.2264 155.078C72.5438 154.481 72.9824 154.019 73.5424 153.692C74.1118 153.365 74.7604 153.202 75.4884 153.202C76.4311 153.202 77.2058 153.431 77.8124 153.888C78.4284 154.345 78.8344 154.98 79.0304 155.792H77.6584C77.5278 155.325 77.2711 154.957 76.8884 154.686C76.5151 154.415 76.0484 154.28 75.4884 154.28C74.7604 154.28 74.1724 154.532 73.7244 155.036C73.2764 155.531 73.0524 156.235 73.0524 157.15C73.0524 158.074 73.2764 158.788 73.7244 159.292C74.1724 159.796 74.7604 160.048 75.4884 160.048C76.0484 160.048 76.5151 159.917 76.8884 159.656C77.2618 159.395 77.5184 159.021 77.6584 158.536H79.0304C78.8251 159.32 78.4144 159.95 77.7984 160.426C77.1824 160.893 76.4124 161.126 75.4884 161.126C74.7604 161.126 74.1118 160.963 73.5424 160.636C72.9824 160.309 72.5438 159.847 72.2264 159.25C71.9091 158.653 71.7504 157.953 71.7504 157.15ZM84.0763 161.126C83.3577 161.126 82.7043 160.963 82.1163 160.636C81.5377 160.309 81.0803 159.847 80.7443 159.25C80.4177 158.643 80.2543 157.943 80.2543 157.15C80.2543 156.366 80.4223 155.675 80.7583 155.078C81.1037 154.471 81.5703 154.009 82.1583 153.692C82.7463 153.365 83.4043 153.202 84.1323 153.202C84.8603 153.202 85.5183 153.365 86.1063 153.692C86.6943 154.009 87.1563 154.467 87.4923 155.064C87.8377 155.661 88.0103 156.357 88.0103 157.15C88.0103 157.943 87.833 158.643 87.4783 159.25C87.133 159.847 86.6617 160.309 86.0643 160.636C85.467 160.963 84.8043 161.126 84.0763 161.126ZM84.0763 160.006C84.5337 160.006 84.963 159.899 85.3643 159.684C85.7657 159.469 86.0877 159.147 86.3303 158.718C86.5823 158.289 86.7083 157.766 86.7083 157.15C86.7083 156.534 86.587 156.011 86.3443 155.582C86.1017 155.153 85.7843 154.835 85.3923 154.63C85.0003 154.415 84.5757 154.308 84.1183 154.308C83.6517 154.308 83.2223 154.415 82.8303 154.63C82.4477 154.835 82.1397 155.153 81.9063 155.582C81.673 156.011 81.5563 156.534 81.5563 157.15C81.5563 157.775 81.6683 158.303 81.8923 158.732C82.1257 159.161 82.4337 159.483 82.8163 159.698C83.199 159.903 83.619 160.006 84.0763 160.006ZM98.9114 153.188C99.5088 153.188 100.041 153.314 100.507 153.566C100.974 153.809 101.343 154.177 101.613 154.672C101.884 155.167 102.019 155.769 102.019 156.478V161H100.759V156.66C100.759 155.895 100.568 155.311 100.185 154.91C99.8121 154.499 99.3034 154.294 98.6594 154.294C97.9968 154.294 97.4694 154.509 97.0774 154.938C96.6854 155.358 96.4894 155.969 96.4894 156.772V161H95.2294V156.66C95.2294 155.895 95.0381 155.311 94.6554 154.91C94.2821 154.499 93.7734 154.294 93.1294 154.294C92.4668 154.294 91.9394 154.509 91.5474 154.938C91.1554 155.358 90.9594 155.969 90.9594 156.772V161H89.6854V153.328H90.9594V154.434C91.2114 154.033 91.5474 153.725 91.9674 153.51C92.3968 153.295 92.8681 153.188 93.3814 153.188C94.0254 153.188 94.5948 153.333 95.0894 153.622C95.5841 153.911 95.9528 154.336 96.1954 154.896C96.4101 154.355 96.7648 153.935 97.2594 153.636C97.7541 153.337 98.3048 153.188 98.9114 153.188ZM105.383 154.742C105.635 154.303 106.009 153.939 106.503 153.65C107.007 153.351 107.591 153.202 108.253 153.202C108.935 153.202 109.551 153.365 110.101 153.692C110.661 154.019 111.1 154.481 111.417 155.078C111.735 155.666 111.893 156.352 111.893 157.136C111.893 157.911 111.735 158.601 111.417 159.208C111.1 159.815 110.661 160.286 110.101 160.622C109.551 160.958 108.935 161.126 108.253 161.126C107.6 161.126 107.021 160.981 106.517 160.692C106.023 160.393 105.645 160.025 105.383 159.586V164.64H104.109V153.328H105.383V154.742ZM110.591 157.136C110.591 156.557 110.475 156.053 110.241 155.624C110.008 155.195 109.691 154.868 109.289 154.644C108.897 154.42 108.463 154.308 107.987 154.308C107.521 154.308 107.087 154.425 106.685 154.658C106.293 154.882 105.976 155.213 105.733 155.652C105.5 156.081 105.383 156.581 105.383 157.15C105.383 157.729 105.5 158.237 105.733 158.676C105.976 159.105 106.293 159.437 106.685 159.67C107.087 159.894 107.521 160.006 107.987 160.006C108.463 160.006 108.897 159.894 109.289 159.67C109.691 159.437 110.008 159.105 110.241 158.676C110.475 158.237 110.591 157.724 110.591 157.136ZM120.57 156.87C120.57 157.113 120.556 157.369 120.528 157.64H114.396C114.443 158.396 114.7 158.989 115.166 159.418C115.642 159.838 116.216 160.048 116.888 160.048C117.439 160.048 117.896 159.922 118.26 159.67C118.634 159.409 118.895 159.063 119.044 158.634H120.416C120.211 159.371 119.8 159.973 119.184 160.44C118.568 160.897 117.803 161.126 116.888 161.126C116.16 161.126 115.507 160.963 114.928 160.636C114.359 160.309 113.911 159.847 113.584 159.25C113.258 158.643 113.094 157.943 113.094 157.15C113.094 156.357 113.253 155.661 113.57 155.064C113.888 154.467 114.331 154.009 114.9 153.692C115.479 153.365 116.142 153.202 116.888 153.202C117.616 153.202 118.26 153.361 118.82 153.678C119.38 153.995 119.81 154.434 120.108 154.994C120.416 155.545 120.57 156.17 120.57 156.87ZM119.254 156.604C119.254 156.119 119.147 155.703 118.932 155.358C118.718 155.003 118.424 154.737 118.05 154.56C117.686 154.373 117.28 154.28 116.832 154.28C116.188 154.28 115.638 154.485 115.18 154.896C114.732 155.307 114.476 155.876 114.41 156.604H119.254ZM123.806 154.378V158.9C123.806 159.273 123.885 159.539 124.044 159.698C124.202 159.847 124.478 159.922 124.87 159.922H125.808V161H124.66C123.95 161 123.418 160.837 123.064 160.51C122.709 160.183 122.532 159.647 122.532 158.9V154.378H121.538V153.328H122.532V151.396H123.806V153.328H125.808V154.378H123.806ZM128.009 152.082C127.767 152.082 127.561 151.998 127.393 151.83C127.225 151.662 127.141 151.457 127.141 151.214C127.141 150.971 127.225 150.766 127.393 150.598C127.561 150.43 127.767 150.346 128.009 150.346C128.243 150.346 128.439 150.43 128.597 150.598C128.765 150.766 128.849 150.971 128.849 151.214C128.849 151.457 128.765 151.662 128.597 151.83C128.439 151.998 128.243 152.082 128.009 152.082ZM128.625 153.328V161H127.351V153.328H128.625ZM132.351 154.378V158.9C132.351 159.273 132.43 159.539 132.589 159.698C132.747 159.847 133.023 159.922 133.415 159.922H134.353V161H133.205C132.495 161 131.963 160.837 131.609 160.51C131.254 160.183 131.077 159.647 131.077 158.9V154.378H130.083V153.328H131.077V151.396H132.351V153.328H134.353V154.378H132.351ZM139.242 161.126C138.524 161.126 137.87 160.963 137.282 160.636C136.704 160.309 136.246 159.847 135.91 159.25C135.584 158.643 135.42 157.943 135.42 157.15C135.42 156.366 135.588 155.675 135.924 155.078C136.27 154.471 136.736 154.009 137.324 153.692C137.912 153.365 138.57 153.202 139.298 153.202C140.026 153.202 140.684 153.365 141.272 153.692C141.86 154.009 142.322 154.467 142.658 155.064C143.004 155.661 143.176 156.357 143.176 157.15C143.176 157.943 142.999 158.643 142.644 159.25C142.299 159.847 141.828 160.309 141.23 160.636C140.633 160.963 139.97 161.126 139.242 161.126ZM139.242 160.006C139.7 160.006 140.129 159.899 140.53 159.684C140.932 159.469 141.254 159.147 141.496 158.718C141.748 158.289 141.874 157.766 141.874 157.15C141.874 156.534 141.753 156.011 141.51 155.582C141.268 155.153 140.95 154.835 140.558 154.63C140.166 154.415 139.742 154.308 139.284 154.308C138.818 154.308 138.388 154.415 137.996 154.63C137.614 154.835 137.306 155.153 137.072 155.582C136.839 156.011 136.722 156.534 136.722 157.15C136.722 157.775 136.834 158.303 137.058 158.732C137.292 159.161 137.6 159.483 137.982 159.698C138.365 159.903 138.785 160.006 139.242 160.006ZM146.125 154.574C146.349 154.135 146.667 153.795 147.077 153.552C147.497 153.309 148.006 153.188 148.603 153.188V154.504H148.267C146.839 154.504 146.125 155.279 146.125 156.828V161H144.851V153.328H146.125V154.574ZM152.79 161.126C152.202 161.126 151.675 161.028 151.208 160.832C150.741 160.627 150.373 160.347 150.102 159.992C149.831 159.628 149.682 159.213 149.654 158.746H150.97C151.007 159.129 151.185 159.441 151.502 159.684C151.829 159.927 152.253 160.048 152.776 160.048C153.261 160.048 153.644 159.941 153.924 159.726C154.204 159.511 154.344 159.241 154.344 158.914C154.344 158.578 154.195 158.331 153.896 158.172C153.597 158.004 153.135 157.841 152.51 157.682C151.941 157.533 151.474 157.383 151.11 157.234C150.755 157.075 150.447 156.847 150.186 156.548C149.934 156.24 149.808 155.839 149.808 155.344C149.808 154.952 149.925 154.593 150.158 154.266C150.391 153.939 150.723 153.683 151.152 153.496C151.581 153.3 152.071 153.202 152.622 153.202C153.471 153.202 154.157 153.417 154.68 153.846C155.203 154.275 155.483 154.863 155.52 155.61H154.246C154.218 155.209 154.055 154.887 153.756 154.644C153.467 154.401 153.075 154.28 152.58 154.28C152.123 154.28 151.759 154.378 151.488 154.574C151.217 154.77 151.082 155.027 151.082 155.344C151.082 155.596 151.161 155.806 151.32 155.974C151.488 156.133 151.693 156.263 151.936 156.366C152.188 156.459 152.533 156.567 152.972 156.688C153.523 156.837 153.971 156.987 154.316 157.136C154.661 157.276 154.955 157.491 155.198 157.78C155.45 158.069 155.581 158.447 155.59 158.914C155.59 159.334 155.473 159.712 155.24 160.048C155.007 160.384 154.675 160.65 154.246 160.846C153.826 161.033 153.341 161.126 152.79 161.126ZM3.794 186.126C3.206 186.126 2.67867 186.028 2.212 185.832C1.74533 185.627 1.37667 185.347 1.106 184.992C0.835333 184.628 0.686 184.213 0.658 183.746H1.974C2.01133 184.129 2.18867 184.441 2.506 184.684C2.83267 184.927 3.25733 185.048 3.78 185.048C4.26533 185.048 4.648 184.941 4.928 184.726C5.208 184.511 5.348 184.241 5.348 183.914C5.348 183.578 5.19867 183.331 4.9 183.172C4.60133 183.004 4.13933 182.841 3.514 182.682C2.94467 182.533 2.478 182.383 2.114 182.234C1.75933 182.075 1.45133 181.847 1.19 181.548C0.938 181.24 0.812 180.839 0.812 180.344C0.812 179.952 0.928667 179.593 1.162 179.266C1.39533 178.939 1.72667 178.683 2.156 178.496C2.58533 178.3 3.07533 178.202 3.626 178.202C4.47533 178.202 5.16133 178.417 5.684 178.846C6.20667 179.275 6.48667 179.863 6.524 180.61H5.25C5.222 180.209 5.05867 179.887 4.76 179.644C4.47067 179.401 4.07867 179.28 3.584 179.28C3.12667 179.28 2.76267 179.378 2.492 179.574C2.22133 179.77 2.086 180.027 2.086 180.344C2.086 180.596 2.16533 180.806 2.324 180.974C2.492 181.133 2.69733 181.263 2.94 181.366C3.192 181.459 3.53733 181.567 3.976 181.688C4.52667 181.837 4.97467 181.987 5.32 182.136C5.66533 182.276 5.95933 182.491 6.202 182.78C6.454 183.069 6.58467 183.447 6.594 183.914C6.594 184.334 6.47733 184.712 6.244 185.048C6.01067 185.384 5.67933 185.65 5.25 185.846C4.83 186.033 4.34467 186.126 3.794 186.126ZM15.1965 178.328V186H13.9225V184.866C13.6798 185.258 13.3391 185.566 12.9005 185.79C12.4711 186.005 11.9951 186.112 11.4725 186.112C10.8751 186.112 10.3385 185.991 9.86245 185.748C9.38645 185.496 9.00845 185.123 8.72845 184.628C8.45779 184.133 8.32245 183.531 8.32245 182.822V178.328H9.58245V182.654C9.58245 183.41 9.77379 183.993 10.1565 184.404C10.5391 184.805 11.0618 185.006 11.7245 185.006C12.4058 185.006 12.9425 184.796 13.3345 184.376C13.7265 183.956 13.9225 183.345 13.9225 182.542V178.328H15.1965ZM16.8715 182.15C16.8715 181.357 17.0302 180.666 17.3475 180.078C17.6649 179.481 18.1035 179.019 18.6635 178.692C19.2329 178.365 19.8815 178.202 20.6095 178.202C21.5522 178.202 22.3269 178.431 22.9335 178.888C23.5495 179.345 23.9555 179.98 24.1515 180.792H22.7795C22.6489 180.325 22.3922 179.957 22.0095 179.686C21.6362 179.415 21.1695 179.28 20.6095 179.28C19.8815 179.28 19.2935 179.532 18.8455 180.036C18.3975 180.531 18.1735 181.235 18.1735 182.15C18.1735 183.074 18.3975 183.788 18.8455 184.292C19.2935 184.796 19.8815 185.048 20.6095 185.048C21.1695 185.048 21.6362 184.917 22.0095 184.656C22.3829 184.395 22.6395 184.021 22.7795 183.536H24.1515C23.9462 184.32 23.5355 184.95 22.9195 185.426C22.3035 185.893 21.5335 186.126 20.6095 186.126C19.8815 186.126 19.2329 185.963 18.6635 185.636C18.1035 185.309 17.6649 184.847 17.3475 184.25C17.0302 183.653 16.8715 182.953 16.8715 182.15ZM29.6594 178.188C30.2381 178.188 30.7608 178.314 31.2274 178.566C31.6941 178.809 32.0581 179.177 32.3194 179.672C32.5901 180.167 32.7254 180.769 32.7254 181.478V186H31.4654V181.66C31.4654 180.895 31.2741 180.311 30.8914 179.91C30.5088 179.499 29.9861 179.294 29.3234 179.294C28.6514 179.294 28.1148 179.504 27.7134 179.924C27.3214 180.344 27.1254 180.955 27.1254 181.758V186H25.8514V175.64H27.1254V179.42C27.3774 179.028 27.7228 178.725 28.1614 178.51C28.6094 178.295 29.1088 178.188 29.6594 178.188ZM38.0629 182.136C38.0629 181.352 38.2216 180.666 38.5389 180.078C38.8563 179.481 39.2903 179.019 39.8409 178.692C40.4009 178.365 41.0216 178.202 41.7029 178.202C42.3749 178.202 42.9583 178.347 43.4529 178.636C43.9476 178.925 44.3163 179.289 44.5589 179.728V178.328H45.8469V186H44.5589V184.572C44.3069 185.02 43.9289 185.393 43.4249 185.692C42.9303 185.981 42.3516 186.126 41.6889 186.126C41.0076 186.126 40.3916 185.958 39.8409 185.622C39.2903 185.286 38.8563 184.815 38.5389 184.208C38.2216 183.601 38.0629 182.911 38.0629 182.136ZM44.5589 182.15C44.5589 181.571 44.4423 181.067 44.2089 180.638C43.9756 180.209 43.6583 179.882 43.2569 179.658C42.8649 179.425 42.4309 179.308 41.9549 179.308C41.4789 179.308 41.0449 179.42 40.6529 179.644C40.2609 179.868 39.9483 180.195 39.7149 180.624C39.4816 181.053 39.3649 181.557 39.3649 182.136C39.3649 182.724 39.4816 183.237 39.7149 183.676C39.9483 184.105 40.2609 184.437 40.6529 184.67C41.0449 184.894 41.4789 185.006 41.9549 185.006C42.4309 185.006 42.8649 184.894 43.2569 184.67C43.6583 184.437 43.9756 184.105 44.2089 183.676C44.4423 183.237 44.5589 182.729 44.5589 182.15ZM50.7159 186.126C50.1279 186.126 49.6005 186.028 49.1339 185.832C48.6672 185.627 48.2985 185.347 48.0279 184.992C47.7572 184.628 47.6079 184.213 47.5799 183.746H48.8959C48.9332 184.129 49.1105 184.441 49.4279 184.684C49.7545 184.927 50.1792 185.048 50.7019 185.048C51.1872 185.048 51.5699 184.941 51.8499 184.726C52.1299 184.511 52.2699 184.241 52.2699 183.914C52.2699 183.578 52.1205 183.331 51.8219 183.172C51.5232 183.004 51.0612 182.841 50.4359 182.682C49.8665 182.533 49.3999 182.383 49.0359 182.234C48.6812 182.075 48.3732 181.847 48.1119 181.548C47.8599 181.24 47.7339 180.839 47.7339 180.344C47.7339 179.952 47.8505 179.593 48.0839 179.266C48.3172 178.939 48.6485 178.683 49.0779 178.496C49.5072 178.3 49.9972 178.202 50.5479 178.202C51.3972 178.202 52.0832 178.417 52.6059 178.846C53.1285 179.275 53.4085 179.863 53.4459 180.61H52.1719C52.1439 180.209 51.9805 179.887 51.6819 179.644C51.3925 179.401 51.0005 179.28 50.5059 179.28C50.0485 179.28 49.6845 179.378 49.4139 179.574C49.1432 179.77 49.0079 180.027 49.0079 180.344C49.0079 180.596 49.0872 180.806 49.2459 180.974C49.4139 181.133 49.6192 181.263 49.8619 181.366C50.1139 181.459 50.4592 181.567 50.8979 181.688C51.4485 181.837 51.8965 181.987 52.2419 182.136C52.5872 182.276 52.8812 182.491 53.1239 182.78C53.3759 183.069 53.5065 183.447 53.5159 183.914C53.5159 184.334 53.3992 184.712 53.1659 185.048C52.9325 185.384 52.6012 185.65 52.1719 185.846C51.7519 186.033 51.2665 186.126 50.7159 186.126ZM66.4388 179.07C66.1681 178.501 65.7761 178.062 65.2628 177.754C64.7494 177.437 64.1521 177.278 63.4708 177.278C62.7894 177.278 62.1734 177.437 61.6228 177.754C61.0814 178.062 60.6521 178.51 60.3348 179.098C60.0268 179.677 59.8728 180.349 59.8728 181.114C59.8728 181.879 60.0268 182.551 60.3348 183.13C60.6521 183.709 61.0814 184.157 61.6228 184.474C62.1734 184.782 62.7894 184.936 63.4708 184.936C64.4228 184.936 65.2068 184.651 65.8228 184.082C66.4388 183.513 66.7981 182.743 66.9008 181.772H63.0088V180.736H68.2588V181.716C68.1841 182.519 67.9321 183.256 67.5028 183.928C67.0734 184.591 66.5088 185.118 65.8088 185.51C65.1088 185.893 64.3294 186.084 63.4708 186.084C62.5654 186.084 61.7394 185.874 60.9928 185.454C60.2461 185.025 59.6534 184.432 59.2148 183.676C58.7854 182.92 58.5708 182.066 58.5708 181.114C58.5708 180.162 58.7854 179.308 59.2148 178.552C59.6534 177.787 60.2461 177.194 60.9928 176.774C61.7394 176.345 62.5654 176.13 63.4708 176.13C64.5068 176.13 65.4214 176.387 66.2148 176.9C67.0174 177.413 67.6008 178.137 67.9648 179.07H66.4388ZM73.2892 186.126C72.5706 186.126 71.9172 185.963 71.3292 185.636C70.7506 185.309 70.2932 184.847 69.9572 184.25C69.6306 183.643 69.4672 182.943 69.4672 182.15C69.4672 181.366 69.6352 180.675 69.9712 180.078C70.3166 179.471 70.7832 179.009 71.3712 178.692C71.9592 178.365 72.6172 178.202 73.3452 178.202C74.0732 178.202 74.7312 178.365 75.3192 178.692C75.9072 179.009 76.3692 179.467 76.7052 180.064C77.0506 180.661 77.2232 181.357 77.2232 182.15C77.2232 182.943 77.0459 183.643 76.6912 184.25C76.3459 184.847 75.8746 185.309 75.2772 185.636C74.6799 185.963 74.0172 186.126 73.2892 186.126ZM73.2892 185.006C73.7466 185.006 74.1759 184.899 74.5772 184.684C74.9786 184.469 75.3006 184.147 75.5432 183.718C75.7952 183.289 75.9212 182.766 75.9212 182.15C75.9212 181.534 75.7999 181.011 75.5572 180.582C75.3146 180.153 74.9972 179.835 74.6052 179.63C74.2132 179.415 73.7886 179.308 73.3312 179.308C72.8646 179.308 72.4352 179.415 72.0432 179.63C71.6606 179.835 71.3526 180.153 71.1192 180.582C70.8859 181.011 70.7692 181.534 70.7692 182.15C70.7692 182.775 70.8812 183.303 71.1052 183.732C71.3386 184.161 71.6466 184.483 72.0292 184.698C72.4119 184.903 72.8319 185.006 73.2892 185.006ZM78.4223 181.114C78.4223 180.162 78.637 179.308 79.0663 178.552C79.4956 177.787 80.079 177.189 80.8163 176.76C81.563 176.331 82.389 176.116 83.2943 176.116C84.3583 176.116 85.287 176.373 86.0803 176.886C86.8736 177.399 87.4523 178.127 87.8163 179.07H86.2903C86.0196 178.482 85.6276 178.029 85.1143 177.712C84.6103 177.395 84.0036 177.236 83.2943 177.236C82.613 177.236 82.0016 177.395 81.4603 177.712C80.919 178.029 80.4943 178.482 80.1863 179.07C79.8783 179.649 79.7243 180.33 79.7243 181.114C79.7243 181.889 79.8783 182.57 80.1863 183.158C80.4943 183.737 80.919 184.185 81.4603 184.502C82.0016 184.819 82.613 184.978 83.2943 184.978C84.0036 184.978 84.6103 184.824 85.1143 184.516C85.6276 184.199 86.0196 183.746 86.2903 183.158H87.8163C87.4523 184.091 86.8736 184.815 86.0803 185.328C85.287 185.832 84.3583 186.084 83.2943 186.084C82.389 186.084 81.563 185.874 80.8163 185.454C80.079 185.025 79.4956 184.432 79.0663 183.676C78.637 182.92 78.4223 182.066 78.4223 181.114ZM89.2368 182.136C89.2368 181.352 89.3954 180.666 89.7128 180.078C90.0301 179.481 90.4641 179.019 91.0148 178.692C91.5748 178.365 92.1954 178.202 92.8768 178.202C93.5488 178.202 94.1321 178.347 94.6268 178.636C95.1214 178.925 95.4901 179.289 95.7328 179.728V178.328H97.0208V186H95.7328V184.572C95.4808 185.02 95.1028 185.393 94.5988 185.692C94.1041 185.981 93.5254 186.126 92.8628 186.126C92.1814 186.126 91.5654 185.958 91.0148 185.622C90.4641 185.286 90.0301 184.815 89.7128 184.208C89.3954 183.601 89.2368 182.911 89.2368 182.136ZM95.7328 182.15C95.7328 181.571 95.6161 181.067 95.3828 180.638C95.1494 180.209 94.8321 179.882 94.4308 179.658C94.0388 179.425 93.6048 179.308 93.1288 179.308C92.6528 179.308 92.2188 179.42 91.8268 179.644C91.4348 179.868 91.1221 180.195 90.8888 180.624C90.6554 181.053 90.5388 181.557 90.5388 182.136C90.5388 182.724 90.6554 183.237 90.8888 183.676C91.1221 184.105 91.4348 184.437 91.8268 184.67C92.2188 184.894 92.6528 185.006 93.1288 185.006C93.6048 185.006 94.0388 184.894 94.4308 184.67C94.8321 184.437 95.1494 184.105 95.3828 183.676C95.6161 183.237 95.7328 182.729 95.7328 182.15ZM100.728 179.378V183.9C100.728 184.273 100.807 184.539 100.966 184.698C101.124 184.847 101.4 184.922 101.792 184.922H102.73V186H101.582C100.872 186 100.34 185.837 99.9857 185.51C99.631 185.183 99.4537 184.647 99.4537 183.9V179.378H98.4597V178.328H99.4537V176.396H100.728V178.328H102.73V179.378H100.728ZM103.797 182.136C103.797 181.352 103.956 180.666 104.273 180.078C104.591 179.481 105.025 179.019 105.575 178.692C106.135 178.365 106.756 178.202 107.437 178.202C108.109 178.202 108.693 178.347 109.187 178.636C109.682 178.925 110.051 179.289 110.293 179.728V178.328H111.581V186H110.293V184.572C110.041 185.02 109.663 185.393 109.159 185.692C108.665 185.981 108.086 186.126 107.423 186.126C106.742 186.126 106.126 185.958 105.575 185.622C105.025 185.286 104.591 184.815 104.273 184.208C103.956 183.601 103.797 182.911 103.797 182.136ZM110.293 182.15C110.293 181.571 110.177 181.067 109.943 180.638C109.71 180.209 109.393 179.882 108.991 179.658C108.599 179.425 108.165 179.308 107.689 179.308C107.213 179.308 106.779 179.42 106.387 179.644C105.995 179.868 105.683 180.195 105.449 180.624C105.216 181.053 105.099 181.557 105.099 182.136C105.099 182.724 105.216 183.237 105.449 183.676C105.683 184.105 105.995 184.437 106.387 184.67C106.779 184.894 107.213 185.006 107.689 185.006C108.165 185.006 108.599 184.894 108.991 184.67C109.393 184.437 109.71 184.105 109.943 183.676C110.177 183.237 110.293 182.729 110.293 182.15ZM115.008 175.64V186H113.734V175.64H115.008ZM116.704 182.136C116.704 181.352 116.862 180.666 117.18 180.078C117.497 179.481 117.931 179.019 118.482 178.692C119.042 178.365 119.662 178.202 120.344 178.202C121.016 178.202 121.599 178.347 122.094 178.636C122.588 178.925 122.957 179.289 123.2 179.728V178.328H124.488V186H123.2V184.572C122.948 185.02 122.57 185.393 122.066 185.692C121.571 185.981 120.992 186.126 120.33 186.126C119.648 186.126 119.032 185.958 118.482 185.622C117.931 185.286 117.497 184.815 117.18 184.208C116.862 183.601 116.704 182.911 116.704 182.136ZM123.2 182.15C123.2 181.571 123.083 181.067 122.85 180.638C122.616 180.209 122.299 179.882 121.898 179.658C121.506 179.425 121.072 179.308 120.596 179.308C120.12 179.308 119.686 179.42 119.294 179.644C118.902 179.868 118.589 180.195 118.356 180.624C118.122 181.053 118.006 181.557 118.006 182.136C118.006 182.724 118.122 183.237 118.356 183.676C118.589 184.105 118.902 184.437 119.294 184.67C119.686 184.894 120.12 185.006 120.596 185.006C121.072 185.006 121.506 184.894 121.898 184.67C122.299 184.437 122.616 184.105 122.85 183.676C123.083 183.237 123.2 182.729 123.2 182.15ZM130.379 178.188C131.312 178.188 132.068 178.473 132.647 179.042C133.225 179.602 133.515 180.414 133.515 181.478V186H132.255V181.66C132.255 180.895 132.063 180.311 131.681 179.91C131.298 179.499 130.775 179.294 130.113 179.294C129.441 179.294 128.904 179.504 128.503 179.924C128.111 180.344 127.915 180.955 127.915 181.758V186H126.641V178.328H127.915V179.42C128.167 179.028 128.507 178.725 128.937 178.51C129.375 178.295 129.856 178.188 130.379 178.188ZM137.15 179.378V183.9C137.15 184.273 137.229 184.539 137.388 184.698C137.546 184.847 137.822 184.922 138.214 184.922H139.152V186H138.004C137.294 186 136.762 185.837 136.408 185.51C136.053 185.183 135.876 184.647 135.876 183.9V179.378H134.882V178.328H135.876V176.396H137.15V178.328H139.152V179.378H137.15ZM142.011 184.236L140.443 188.002H139.589L140.611 184.236H142.011ZM148.449 176.242V182.416C148.449 183.284 148.659 183.928 149.079 184.348C149.508 184.768 150.101 184.978 150.857 184.978C151.604 184.978 152.187 184.768 152.607 184.348C153.036 183.928 153.251 183.284 153.251 182.416V176.242H154.525V182.402C154.525 183.214 154.362 183.9 154.035 184.46C153.708 185.011 153.265 185.421 152.705 185.692C152.154 185.963 151.534 186.098 150.843 186.098C150.152 186.098 149.527 185.963 148.967 185.692C148.416 185.421 147.978 185.011 147.651 184.46C147.334 183.9 147.175 183.214 147.175 182.402V176.242H148.449ZM157.924 179.742C158.176 179.303 158.55 178.939 159.044 178.65C159.548 178.351 160.132 178.202 160.794 178.202C161.476 178.202 162.092 178.365 162.642 178.692C163.202 179.019 163.641 179.481 163.958 180.078C164.276 180.666 164.434 181.352 164.434 182.136C164.434 182.911 164.276 183.601 163.958 184.208C163.641 184.815 163.202 185.286 162.642 185.622C162.092 185.958 161.476 186.126 160.794 186.126C160.141 186.126 159.562 185.981 159.058 185.692C158.564 185.393 158.186 185.025 157.924 184.586V189.64H156.65V178.328H157.924V179.742ZM163.132 182.136C163.132 181.557 163.016 181.053 162.782 180.624C162.549 180.195 162.232 179.868 161.83 179.644C161.438 179.42 161.004 179.308 160.528 179.308C160.062 179.308 159.628 179.425 159.226 179.658C158.834 179.882 158.517 180.213 158.274 180.652C158.041 181.081 157.924 181.581 157.924 182.15C157.924 182.729 158.041 183.237 158.274 183.676C158.517 184.105 158.834 184.437 159.226 184.67C159.628 184.894 160.062 185.006 160.528 185.006C161.004 185.006 161.438 184.894 161.83 184.67C162.232 184.437 162.549 184.105 162.782 183.676C163.016 183.237 163.132 182.724 163.132 182.136ZM178.375 176.242L175.547 186H174.119L171.851 178.146L169.499 186L168.085 186.014L165.355 176.242H166.713L168.841 184.516L171.193 176.242H172.621L174.861 184.488L177.003 176.242H178.375ZM183.115 186.126C182.397 186.126 181.743 185.963 181.155 185.636C180.577 185.309 180.119 184.847 179.783 184.25C179.457 183.643 179.293 182.943 179.293 182.15C179.293 181.366 179.461 180.675 179.797 180.078C180.143 179.471 180.609 179.009 181.197 178.692C181.785 178.365 182.443 178.202 183.171 178.202C183.899 178.202 184.557 178.365 185.145 178.692C185.733 179.009 186.195 179.467 186.531 180.064C186.877 180.661 187.049 181.357 187.049 182.15C187.049 182.943 186.872 183.643 186.517 184.25C186.172 184.847 185.701 185.309 185.103 185.636C184.506 185.963 183.843 186.126 183.115 186.126ZM183.115 185.006C183.573 185.006 184.002 184.899 184.403 184.684C184.805 184.469 185.127 184.147 185.369 183.718C185.621 183.289 185.747 182.766 185.747 182.15C185.747 181.534 185.626 181.011 185.383 180.582C185.141 180.153 184.823 179.835 184.431 179.63C184.039 179.415 183.615 179.308 183.157 179.308C182.691 179.308 182.261 179.415 181.869 179.63C181.487 179.835 181.179 180.153 180.945 180.582C180.712 181.011 180.595 181.534 180.595 182.15C180.595 182.775 180.707 183.303 180.931 183.732C181.165 184.161 181.473 184.483 181.855 184.698C182.238 184.903 182.658 185.006 183.115 185.006ZM189.998 179.574C190.222 179.135 190.54 178.795 190.95 178.552C191.37 178.309 191.879 178.188 192.476 178.188V179.504H192.14C190.712 179.504 189.998 180.279 189.998 181.828V186H188.724V178.328H189.998V179.574ZM198.231 186L195.221 182.612V186H193.947V175.64H195.221V181.73L198.175 178.328H199.953L196.341 182.15L199.967 186H198.231ZM202.468 184.236L200.9 188.002H200.046L201.068 184.236H202.468ZM6.594 201.242V202.278H2.352V205.568H5.796V206.604H2.352V211H1.078V201.242H6.594ZM9.40669 204.574C9.63069 204.135 9.94802 203.795 10.3587 203.552C10.7787 203.309 11.2874 203.188 11.8847 203.188V204.504H11.5487C10.1207 204.504 9.40669 205.279 9.40669 206.828V211H8.13269V203.328H9.40669V204.574ZM20.3553 206.87C20.3553 207.113 20.3413 207.369 20.3133 207.64H14.1813C14.228 208.396 14.4847 208.989 14.9513 209.418C15.4273 209.838 16.0013 210.048 16.6733 210.048C17.224 210.048 17.6813 209.922 18.0453 209.67C18.4187 209.409 18.68 209.063 18.8293 208.634H20.2013C19.996 209.371 19.5853 209.973 18.9693 210.44C18.3533 210.897 17.588 211.126 16.6733 211.126C15.9453 211.126 15.292 210.963 14.7133 210.636C14.144 210.309 13.696 209.847 13.3693 209.25C13.0427 208.643 12.8793 207.943 12.8793 207.15C12.8793 206.357 13.038 205.661 13.3553 205.064C13.6727 204.467 14.116 204.009 14.6853 203.692C15.264 203.365 15.9267 203.202 16.6733 203.202C17.4013 203.202 18.0453 203.361 18.6053 203.678C19.1653 203.995 19.5947 204.434 19.8933 204.994C20.2013 205.545 20.3553 206.17 20.3553 206.87ZM19.0393 206.604C19.0393 206.119 18.932 205.703 18.7173 205.358C18.5027 205.003 18.2087 204.737 17.8353 204.56C17.4713 204.373 17.0653 204.28 16.6173 204.28C15.9733 204.28 15.4227 204.485 14.9653 204.896C14.5173 205.307 14.2607 205.876 14.1953 206.604H19.0393ZM29.037 206.87C29.037 207.113 29.023 207.369 28.995 207.64H22.863C22.9097 208.396 23.1663 208.989 23.633 209.418C24.109 209.838 24.683 210.048 25.355 210.048C25.9057 210.048 26.363 209.922 26.727 209.67C27.1003 209.409 27.3617 209.063 27.511 208.634H28.883C28.6777 209.371 28.267 209.973 27.651 210.44C27.035 210.897 26.2697 211.126 25.355 211.126C24.627 211.126 23.9737 210.963 23.395 210.636C22.8257 210.309 22.3777 209.847 22.051 209.25C21.7243 208.643 21.561 207.943 21.561 207.15C21.561 206.357 21.7197 205.661 22.037 205.064C22.3543 204.467 22.7977 204.009 23.367 203.692C23.9457 203.365 24.6083 203.202 25.355 203.202C26.083 203.202 26.727 203.361 27.287 203.678C27.847 203.995 28.2763 204.434 28.575 204.994C28.883 205.545 29.037 206.17 29.037 206.87ZM27.721 206.604C27.721 206.119 27.6137 205.703 27.399 205.358C27.1843 205.003 26.8903 204.737 26.517 204.56C26.153 204.373 25.747 204.28 25.299 204.28C24.655 204.28 24.1043 204.485 23.647 204.896C23.199 205.307 22.9423 205.876 22.877 206.604H27.721ZM31.9926 200.64V211H30.7186V200.64H31.9926ZM33.6879 207.136C33.6879 206.352 33.8466 205.666 34.1639 205.078C34.4813 204.481 34.9153 204.019 35.4659 203.692C36.0259 203.365 36.6466 203.202 37.3279 203.202C37.9999 203.202 38.5833 203.347 39.0779 203.636C39.5726 203.925 39.9413 204.289 40.1839 204.728V203.328H41.4719V211H40.1839V209.572C39.9319 210.02 39.5539 210.393 39.0499 210.692C38.5553 210.981 37.9766 211.126 37.3139 211.126C36.6326 211.126 36.0166 210.958 35.4659 210.622C34.9153 210.286 34.4813 209.815 34.1639 209.208C33.8466 208.601 33.6879 207.911 33.6879 207.136ZM40.1839 207.15C40.1839 206.571 40.0673 206.067 39.8339 205.638C39.6006 205.209 39.2833 204.882 38.8819 204.658C38.4899 204.425 38.0559 204.308 37.5799 204.308C37.1039 204.308 36.6699 204.42 36.2779 204.644C35.8859 204.868 35.5733 205.195 35.3399 205.624C35.1066 206.053 34.9899 206.557 34.9899 207.136C34.9899 207.724 35.1066 208.237 35.3399 208.676C35.5733 209.105 35.8859 209.437 36.2779 209.67C36.6699 209.894 37.1039 210.006 37.5799 210.006C38.0559 210.006 38.4899 209.894 38.8819 209.67C39.2833 209.437 39.6006 209.105 39.8339 208.676C40.0673 208.237 40.1839 207.729 40.1839 207.15ZM47.3629 203.188C48.2962 203.188 49.0522 203.473 49.6309 204.042C50.2095 204.602 50.4989 205.414 50.4989 206.478V211H49.2389V206.66C49.2389 205.895 49.0475 205.311 48.6649 204.91C48.2822 204.499 47.7595 204.294 47.0969 204.294C46.4249 204.294 45.8882 204.504 45.4869 204.924C45.0949 205.344 44.8989 205.955 44.8989 206.758V211H43.6249V203.328H44.8989V204.42C45.1509 204.028 45.4915 203.725 45.9209 203.51C46.3595 203.295 46.8402 203.188 47.3629 203.188ZM52.104 207.15C52.104 206.357 52.2626 205.666 52.58 205.078C52.8973 204.481 53.336 204.019 53.896 203.692C54.4653 203.365 55.114 203.202 55.842 203.202C56.7846 203.202 57.5593 203.431 58.166 203.888C58.782 204.345 59.188 204.98 59.384 205.792H58.012C57.8813 205.325 57.6246 204.957 57.242 204.686C56.8686 204.415 56.402 204.28 55.842 204.28C55.114 204.28 54.526 204.532 54.078 205.036C53.63 205.531 53.406 206.235 53.406 207.15C53.406 208.074 53.63 208.788 54.078 209.292C54.526 209.796 55.114 210.048 55.842 210.048C56.402 210.048 56.8686 209.917 57.242 209.656C57.6153 209.395 57.872 209.021 58.012 208.536H59.384C59.1786 209.32 58.768 209.95 58.152 210.426C57.536 210.893 56.766 211.126 55.842 211.126C55.114 211.126 54.4653 210.963 53.896 210.636C53.336 210.309 52.8973 209.847 52.58 209.25C52.2626 208.653 52.104 207.953 52.104 207.15ZM68.0839 206.87C68.0839 207.113 68.0699 207.369 68.0419 207.64H61.9099C61.9565 208.396 62.2132 208.989 62.6799 209.418C63.1559 209.838 63.7299 210.048 64.4019 210.048C64.9525 210.048 65.4099 209.922 65.7739 209.67C66.1472 209.409 66.4085 209.063 66.5579 208.634H67.9299C67.7245 209.371 67.3139 209.973 66.6979 210.44C66.0819 210.897 65.3165 211.126 64.4019 211.126C63.6739 211.126 63.0205 210.963 62.4419 210.636C61.8725 210.309 61.4245 209.847 61.0979 209.25C60.7712 208.643 60.6079 207.943 60.6079 207.15C60.6079 206.357 60.7665 205.661 61.0839 205.064C61.4012 204.467 61.8445 204.009 62.4139 203.692C62.9925 203.365 63.6552 203.202 64.4019 203.202C65.1299 203.202 65.7739 203.361 66.3339 203.678C66.8939 203.995 67.3232 204.434 67.6219 204.994C67.9299 205.545 68.0839 206.17 68.0839 206.87ZM66.7679 206.604C66.7679 206.119 66.6605 205.703 66.4459 205.358C66.2312 205.003 65.9372 204.737 65.5639 204.56C65.1999 204.373 64.7939 204.28 64.3459 204.28C63.7019 204.28 63.1512 204.485 62.6939 204.896C62.2459 205.307 61.9892 205.876 61.9239 206.604H66.7679ZM71.0395 204.574C71.2635 204.135 71.5808 203.795 71.9915 203.552C72.4115 203.309 72.9202 203.188 73.5175 203.188V204.504H73.1815C71.7535 204.504 71.0395 205.279 71.0395 206.828V211H69.7655V203.328H71.0395V204.574ZM76.3042 209.236L74.7362 213.002H73.8822L74.9042 209.236H76.3042ZM81.02 207.136C81.02 206.352 81.1786 205.666 81.496 205.078C81.8133 204.481 82.2473 204.019 82.798 203.692C83.358 203.365 83.9786 203.202 84.66 203.202C85.332 203.202 85.9153 203.347 86.41 203.636C86.9046 203.925 87.2733 204.289 87.516 204.728V203.328H88.804V211H87.516V209.572C87.264 210.02 86.886 210.393 86.382 210.692C85.8873 210.981 85.3086 211.126 84.646 211.126C83.9646 211.126 83.3486 210.958 82.798 210.622C82.2473 210.286 81.8133 209.815 81.496 209.208C81.1786 208.601 81.02 207.911 81.02 207.136ZM87.516 207.15C87.516 206.571 87.3993 206.067 87.166 205.638C86.9326 205.209 86.6153 204.882 86.214 204.658C85.822 204.425 85.388 204.308 84.912 204.308C84.436 204.308 84.002 204.42 83.61 204.644C83.218 204.868 82.9053 205.195 82.672 205.624C82.4386 206.053 82.322 206.557 82.322 207.136C82.322 207.724 82.4386 208.237 82.672 208.676C82.9053 209.105 83.218 209.437 83.61 209.67C84.002 209.894 84.436 210.006 84.912 210.006C85.388 210.006 85.822 209.894 86.214 209.67C86.6153 209.437 86.9326 209.105 87.166 208.676C87.3993 208.237 87.516 207.729 87.516 207.15ZM94.6949 203.188C95.6282 203.188 96.3842 203.473 96.9629 204.042C97.5416 204.602 97.8309 205.414 97.8309 206.478V211H96.5709V206.66C96.5709 205.895 96.3796 205.311 95.9969 204.91C95.6142 204.499 95.0916 204.294 94.4289 204.294C93.7569 204.294 93.2202 204.504 92.8189 204.924C92.4269 205.344 92.2309 205.955 92.2309 206.758V211H90.9569V203.328H92.2309V204.42C92.4829 204.028 92.8236 203.725 93.2529 203.51C93.6916 203.295 94.1722 203.188 94.6949 203.188ZM99.436 207.136C99.436 206.352 99.5947 205.666 99.912 205.078C100.229 204.481 100.663 204.019 101.214 203.692C101.774 203.365 102.399 203.202 103.09 203.202C103.687 203.202 104.243 203.342 104.756 203.622C105.269 203.893 105.661 204.252 105.932 204.7V200.64H107.22V211H105.932V209.558C105.68 210.015 105.307 210.393 104.812 210.692C104.317 210.981 103.739 211.126 103.076 211.126C102.395 211.126 101.774 210.958 101.214 210.622C100.663 210.286 100.229 209.815 99.912 209.208C99.5947 208.601 99.436 207.911 99.436 207.136ZM105.932 207.15C105.932 206.571 105.815 206.067 105.582 205.638C105.349 205.209 105.031 204.882 104.63 204.658C104.238 204.425 103.804 204.308 103.328 204.308C102.852 204.308 102.418 204.42 102.026 204.644C101.634 204.868 101.321 205.195 101.088 205.624C100.855 206.053 100.738 206.557 100.738 207.136C100.738 207.724 100.855 208.237 101.088 208.676C101.321 209.105 101.634 209.437 102.026 209.67C102.418 209.894 102.852 210.006 103.328 210.006C103.804 210.006 104.238 209.894 104.63 209.67C105.031 209.437 105.349 209.105 105.582 208.676C105.815 208.237 105.932 207.729 105.932 207.15ZM114.183 209.894H118.943V211H112.671V209.992L117.403 202.348H112.727V201.242H118.915V202.25L114.183 209.894ZM124.026 211.126C123.307 211.126 122.654 210.963 122.066 210.636C121.487 210.309 121.03 209.847 120.694 209.25C120.367 208.643 120.204 207.943 120.204 207.15C120.204 206.366 120.372 205.675 120.708 205.078C121.053 204.471 121.52 204.009 122.108 203.692C122.696 203.365 123.354 203.202 124.082 203.202C124.81 203.202 125.468 203.365 126.056 203.692C126.644 204.009 127.106 204.467 127.442 205.064C127.787 205.661 127.96 206.357 127.96 207.15C127.96 207.943 127.782 208.643 127.428 209.25C127.082 209.847 126.611 210.309 126.014 210.636C125.416 210.963 124.754 211.126 124.026 211.126ZM124.026 210.006C124.483 210.006 124.912 209.899 125.314 209.684C125.715 209.469 126.037 209.147 126.28 208.718C126.532 208.289 126.658 207.766 126.658 207.15C126.658 206.534 126.536 206.011 126.294 205.582C126.051 205.153 125.734 204.835 125.342 204.63C124.95 204.415 124.525 204.308 124.068 204.308C123.601 204.308 123.172 204.415 122.78 204.63C122.397 204.835 122.089 205.153 121.856 205.582C121.622 206.011 121.506 206.534 121.506 207.15C121.506 207.775 121.618 208.303 121.842 208.732C122.075 209.161 122.383 209.483 122.766 209.698C123.148 209.903 123.568 210.006 124.026 210.006ZM133.443 203.188C134.021 203.188 134.544 203.314 135.011 203.566C135.477 203.809 135.841 204.177 136.103 204.672C136.373 205.167 136.509 205.769 136.509 206.478V211H135.249V206.66C135.249 205.895 135.057 205.311 134.675 204.91C134.292 204.499 133.769 204.294 133.107 204.294C132.435 204.294 131.898 204.504 131.497 204.924C131.105 205.344 130.909 205.955 130.909 206.758V211H129.635V200.64H130.909V204.42C131.161 204.028 131.506 203.725 131.945 203.51C132.393 203.295 132.892 203.188 133.443 203.188ZM141.936 211.126C141.217 211.126 140.564 210.963 139.976 210.636C139.397 210.309 138.94 209.847 138.604 209.25C138.277 208.643 138.114 207.943 138.114 207.15C138.114 206.366 138.282 205.675 138.618 205.078C138.963 204.471 139.43 204.009 140.018 203.692C140.606 203.365 141.264 203.202 141.992 203.202C142.72 203.202 143.378 203.365 143.966 203.692C144.554 204.009 145.016 204.467 145.352 205.064C145.697 205.661 145.87 206.357 145.87 207.15C145.87 207.943 145.692 208.643 145.338 209.25C144.992 209.847 144.521 210.309 143.924 210.636C143.326 210.963 142.664 211.126 141.936 211.126ZM141.936 210.006C142.393 210.006 142.822 209.899 143.224 209.684C143.625 209.469 143.947 209.147 144.19 208.718C144.442 208.289 144.568 207.766 144.568 207.15C144.568 206.534 144.446 206.011 144.204 205.582C143.961 205.153 143.644 204.835 143.252 204.63C142.86 204.415 142.435 204.308 141.978 204.308C141.511 204.308 141.082 204.415 140.69 204.63C140.307 204.835 139.999 205.153 139.766 205.582C139.532 206.011 139.416 206.534 139.416 207.15C139.416 207.775 139.528 208.303 139.752 208.732C139.985 209.161 140.293 209.483 140.676 209.698C141.058 209.903 141.478 210.006 141.936 210.006ZM156.415 211L154.091 207.01H152.551V211H151.277V201.242H154.427C155.165 201.242 155.785 201.368 156.289 201.62C156.803 201.872 157.185 202.213 157.437 202.642C157.689 203.071 157.815 203.561 157.815 204.112C157.815 204.784 157.619 205.377 157.227 205.89C156.845 206.403 156.266 206.744 155.491 206.912L157.941 211H156.415ZM152.551 205.988H154.427C155.118 205.988 155.636 205.82 155.981 205.484C156.327 205.139 156.499 204.681 156.499 204.112C156.499 203.533 156.327 203.085 155.981 202.768C155.645 202.451 155.127 202.292 154.427 202.292H152.551V205.988ZM166.795 206.87C166.795 207.113 166.781 207.369 166.753 207.64H160.621C160.667 208.396 160.924 208.989 161.391 209.418C161.867 209.838 162.441 210.048 163.113 210.048C163.663 210.048 164.121 209.922 164.485 209.67C164.858 209.409 165.119 209.063 165.269 208.634H166.641C166.435 209.371 166.025 209.973 165.409 210.44C164.793 210.897 164.027 211.126 163.113 211.126C162.385 211.126 161.731 210.963 161.153 210.636C160.583 210.309 160.135 209.847 159.809 209.25C159.482 208.643 159.319 207.943 159.319 207.15C159.319 206.357 159.477 205.661 159.795 205.064C160.112 204.467 160.555 204.009 161.125 203.692C161.703 203.365 162.366 203.202 163.113 203.202C163.841 203.202 164.485 203.361 165.045 203.678C165.605 203.995 166.034 204.434 166.333 204.994C166.641 205.545 166.795 206.17 166.795 206.87ZM165.479 206.604C165.479 206.119 165.371 205.703 165.157 205.358C164.942 205.003 164.648 204.737 164.275 204.56C163.911 204.373 163.505 204.28 163.057 204.28C162.413 204.28 161.862 204.485 161.405 204.896C160.957 205.307 160.7 205.876 160.635 206.604H165.479ZM168 207.15C168 206.357 168.159 205.666 168.476 205.078C168.794 204.481 169.232 204.019 169.792 203.692C170.362 203.365 171.01 203.202 171.738 203.202C172.681 203.202 173.456 203.431 174.062 203.888C174.678 204.345 175.084 204.98 175.28 205.792H173.908C173.778 205.325 173.521 204.957 173.138 204.686C172.765 204.415 172.298 204.28 171.738 204.28C171.01 204.28 170.422 204.532 169.974 205.036C169.526 205.531 169.302 206.235 169.302 207.15C169.302 208.074 169.526 208.788 169.974 209.292C170.422 209.796 171.01 210.048 171.738 210.048C172.298 210.048 172.765 209.917 173.138 209.656C173.512 209.395 173.768 209.021 173.908 208.536H175.28C175.075 209.32 174.664 209.95 174.048 210.426C173.432 210.893 172.662 211.126 171.738 211.126C171.01 211.126 170.362 210.963 169.792 210.636C169.232 210.309 168.794 209.847 168.476 209.25C168.159 208.653 168 207.953 168 207.15ZM178.254 204.574C178.478 204.135 178.796 203.795 179.206 203.552C179.626 203.309 180.135 203.188 180.732 203.188V204.504H180.396C178.968 204.504 178.254 205.279 178.254 206.828V211H176.98V203.328H178.254V204.574ZM189.007 203.328V211H187.733V209.866C187.49 210.258 187.15 210.566 186.711 210.79C186.282 211.005 185.806 211.112 185.283 211.112C184.686 211.112 184.149 210.991 183.673 210.748C183.197 210.496 182.819 210.123 182.539 209.628C182.268 209.133 182.133 208.531 182.133 207.822V203.328H183.393V207.654C183.393 208.41 183.584 208.993 183.967 209.404C184.35 209.805 184.872 210.006 185.535 210.006C186.216 210.006 186.753 209.796 187.145 209.376C187.537 208.956 187.733 208.345 187.733 207.542V203.328H189.007ZM191.816 202.082C191.573 202.082 191.368 201.998 191.2 201.83C191.032 201.662 190.948 201.457 190.948 201.214C190.948 200.971 191.032 200.766 191.2 200.598C191.368 200.43 191.573 200.346 191.816 200.346C192.049 200.346 192.245 200.43 192.404 200.598C192.572 200.766 192.656 200.971 192.656 201.214C192.656 201.457 192.572 201.662 192.404 201.83C192.245 201.998 192.049 202.082 191.816 202.082ZM192.432 203.328V211H191.158V203.328H192.432ZM196.157 204.378V208.9C196.157 209.273 196.237 209.539 196.395 209.698C196.554 209.847 196.829 209.922 197.221 209.922H198.159V211H197.011C196.302 211 195.77 210.837 195.415 210.51C195.061 210.183 194.883 209.647 194.883 208.9V204.378H193.889V203.328H194.883V201.396H196.157V203.328H198.159V204.378H196.157ZM206.703 206.87C206.703 207.113 206.689 207.369 206.661 207.64H200.529C200.576 208.396 200.832 208.989 201.299 209.418C201.775 209.838 202.349 210.048 203.021 210.048C203.572 210.048 204.029 209.922 204.393 209.67C204.766 209.409 205.028 209.063 205.177 208.634H206.549C206.344 209.371 205.933 209.973 205.317 210.44C204.701 210.897 203.936 211.126 203.021 211.126C202.293 211.126 201.64 210.963 201.061 210.636C200.492 210.309 200.044 209.847 199.717 209.25C199.39 208.643 199.227 207.943 199.227 207.15C199.227 206.357 199.386 205.661 199.703 205.064C200.02 204.467 200.464 204.009 201.033 203.692C201.612 203.365 202.274 203.202 203.021 203.202C203.749 203.202 204.393 203.361 204.953 203.678C205.513 203.995 205.942 204.434 206.241 204.994C206.549 205.545 206.703 206.17 206.703 206.87ZM205.387 206.604C205.387 206.119 205.28 205.703 205.065 205.358C204.85 205.003 204.556 204.737 204.183 204.56C203.819 204.373 203.413 204.28 202.965 204.28C202.321 204.28 201.77 204.485 201.313 204.896C200.865 205.307 200.608 205.876 200.543 206.604H205.387ZM208.791 211.084C208.548 211.084 208.343 211 208.175 210.832C208.007 210.664 207.923 210.459 207.923 210.216C207.923 209.973 208.007 209.768 208.175 209.6C208.343 209.432 208.548 209.348 208.791 209.348C209.024 209.348 209.22 209.432 209.379 209.6C209.547 209.768 209.631 209.973 209.631 210.216C209.631 210.459 209.547 210.664 209.379 210.832C209.22 211 209.024 211.084 208.791 211.084Z" fill="#6B6B6E"/>
<rect width="80" height="80" rx="40" fill="#DADADC"/>
<path d="M35.3551 31.8V27.672H43.0671V51H38.4591V31.8H35.3551Z" fill="#2E303A"/>
</svg>
