<svg width="232" height="29" viewBox="0 0 232 29" fill="none" xmlns="http://www.w3.org/2000/svg">
<rect x="0.844238" y="0.984131" width="27.4073" height="27.4073" rx="13.7036" fill="#DADADC"/>
<path d="M12.1306 11.188V9.4202H15.4332V19.4102H13.4599V11.188H12.1306Z" fill="#2E303A"/>
<rect x="35.1035" y="0.984131" width="27.4073" height="27.4073" rx="13.7036" fill="#2E303A"/>
<path d="M45.7738 17.245C46.6509 16.5141 47.3497 15.9066 47.8705 15.4224C48.3912 14.9291 48.8252 14.4175 49.1723 13.8876C49.5195 13.3577 49.6931 12.837 49.6931 12.3254C49.6931 11.8594 49.5834 11.494 49.3642 11.2291C49.1449 10.9641 48.8069 10.8317 48.3501 10.8317C47.8933 10.8317 47.5416 10.987 47.2949 11.2976C47.0483 11.5991 46.9204 12.0148 46.9112 12.5446H45.0475C45.0841 11.4483 45.4084 10.617 46.0205 10.0506C46.6417 9.48415 47.4274 9.20094 48.3775 9.20094C49.419 9.20094 50.2184 9.47958 50.7757 10.0369C51.3329 10.585 51.6116 11.3113 51.6116 12.2157C51.6116 12.9283 51.4197 13.6089 51.036 14.2576C50.6523 14.9062 50.2138 15.4726 49.7205 15.9568C49.2271 16.4319 48.5831 17.0074 47.7883 17.6835H51.8308V19.2731H45.0612V17.8479L45.7738 17.245Z" fill="#F8F8F8"/>
<path d="M71.9528 9.46009V18.9841H70.3906V9.46009H71.9528ZM81.8286 18.9841H80.2664L75.566 11.8719V18.9841H74.0038V9.44639H75.566L80.2664 16.5449V9.44639H81.8286V18.9841ZM90.033 9.46009V10.7345H87.4979V18.9841H85.9356V10.7345H83.3868V9.46009H90.033ZM93.1774 10.7208V13.5164H96.4663V14.7908H93.1774V17.7097H96.8774V18.9841H91.6152V9.44639H96.8774V10.7208H93.1774ZM103.749 18.9841L101.556 15.1745H100.364V18.9841H98.8016V9.46009H102.09C102.821 9.46009 103.438 9.58799 103.94 9.8438C104.452 10.0996 104.831 10.4422 105.078 10.8716C105.334 11.301 105.462 11.7806 105.462 12.3105C105.462 12.9317 105.279 13.4981 104.913 14.0097C104.557 14.5122 104.004 14.8548 103.255 15.0375L105.612 18.9841H103.749ZM100.364 13.9275H102.09C102.675 13.9275 103.114 13.7813 103.406 13.489C103.707 13.1966 103.858 12.8038 103.858 12.3105C103.858 11.8171 103.712 11.4334 103.42 11.1593C103.127 10.8761 102.684 10.7345 102.09 10.7345H100.364V13.9275ZM115.668 9.46009L112.092 18.9841H110.283L106.693 9.46009H108.364L111.187 17.3808L114.024 9.46009H115.668ZM118.537 9.46009V18.9841H116.975V9.46009H118.537ZM122.15 10.7208V13.5164H125.439V14.7908H122.15V17.7097H125.85V18.9841H120.588V9.44639H125.85V10.7208H122.15ZM140.176 9.46009L137.353 18.9841H135.586L133.585 11.776L131.461 18.9841L129.707 18.9978L127.007 9.46009H128.665L130.639 17.2164L132.776 9.46009H134.53L136.518 17.1752L138.505 9.46009H140.176ZM144.603 19.0801C143.964 19.0801 143.388 18.9704 142.876 18.7512C142.365 18.5228 141.963 18.203 141.67 17.7919C141.378 17.3808 141.232 16.9012 141.232 16.353H142.904C142.94 16.7641 143.1 17.1022 143.383 17.3671C143.676 17.632 144.082 17.7645 144.603 17.7645C145.142 17.7645 145.562 17.6366 145.864 17.3808C146.165 17.1159 146.316 16.7778 146.316 16.3667C146.316 16.047 146.22 15.7866 146.028 15.5856C145.845 15.3846 145.613 15.2293 145.329 15.1197C145.055 15.0101 144.672 14.8913 144.178 14.7634C143.557 14.599 143.05 14.4345 142.657 14.2701C142.273 14.0965 141.944 13.8316 141.67 13.4753C141.396 13.119 141.259 12.6439 141.259 12.0501C141.259 11.5019 141.396 11.0223 141.67 10.6112C141.944 10.2001 142.328 9.88491 142.822 9.66565C143.315 9.44639 143.886 9.33676 144.534 9.33676C145.457 9.33676 146.211 9.56972 146.796 10.0356C147.389 10.4924 147.718 11.1228 147.782 11.9268H146.056C146.028 11.5796 145.864 11.2827 145.562 11.036C145.261 10.7893 144.863 10.666 144.37 10.666C143.922 10.666 143.557 10.7802 143.274 11.0086C142.991 11.237 142.849 11.5659 142.849 11.9953C142.849 12.2876 142.936 12.5297 143.109 12.7216C143.292 12.9043 143.52 13.0505 143.794 13.1601C144.069 13.2697 144.443 13.3885 144.918 13.5164C145.549 13.69 146.06 13.8635 146.453 14.0371C146.855 14.2107 147.193 14.4802 147.467 14.8456C147.75 15.2019 147.892 15.6816 147.892 16.2845C147.892 16.7687 147.759 17.2255 147.494 17.6549C147.239 18.0843 146.86 18.4314 146.357 18.6964C145.864 18.9522 145.279 19.0801 144.603 19.0801Z" fill="#2E303A"/>
<rect x="163.066" y="0.984131" width="27.4073" height="27.4073" rx="13.7036" fill="#DADADC"/>
<path d="M172.993 12.0513C173.039 11.1377 173.358 10.4343 173.952 9.94093C174.555 9.43847 175.345 9.18723 176.323 9.18723C176.99 9.18723 177.561 9.306 178.036 9.54353C178.511 9.77192 178.867 10.0871 179.105 10.4891C179.351 10.8819 179.475 11.3296 179.475 11.832C179.475 12.4076 179.324 12.8964 179.023 13.2983C178.73 13.6912 178.378 13.9561 177.967 14.0931V14.148C178.497 14.3124 178.908 14.6047 179.201 15.025C179.502 15.4452 179.653 15.9842 179.653 16.642C179.653 17.1902 179.525 17.6789 179.269 18.1083C179.023 18.5377 178.653 18.8757 178.159 19.1224C177.675 19.3599 177.09 19.4787 176.405 19.4787C175.373 19.4787 174.532 19.2183 173.884 18.6976C173.235 18.1768 172.892 17.4094 172.856 16.3954H174.72C174.738 16.843 174.889 17.2039 175.172 17.4779C175.464 17.7429 175.862 17.8753 176.364 17.8753C176.83 17.8753 177.186 17.7474 177.433 17.4916C177.689 17.2267 177.817 16.8887 177.817 16.4776C177.817 15.9294 177.643 15.5366 177.296 15.2991C176.949 15.0615 176.41 14.9428 175.679 14.9428H175.281V13.3668H175.679C176.976 13.3668 177.625 12.9329 177.625 12.065C177.625 11.6722 177.506 11.3661 177.268 11.1469C177.04 10.9276 176.707 10.818 176.268 10.818C175.839 10.818 175.505 10.9367 175.268 11.1743C175.039 11.4027 174.907 11.695 174.87 12.0513H172.993Z" fill="#2E303A"/>
<rect x="204.177" y="0.984131" width="27.4073" height="27.4073" rx="13.7036" fill="#DADADC"/>
<path d="M213.567 17.4642V15.9568L218.048 9.54353H220.282V15.7924H221.488V17.4642H220.282V19.4102H218.363V17.4642H213.567ZM218.486 11.5991L215.677 15.7924H218.486V11.5991Z" fill="#2E303A"/>
</svg>
