<svg width="266" height="32" viewBox="0 0 266 32" fill="none" xmlns="http://www.w3.org/2000/svg">
<rect width="32" height="32" rx="16" fill="#DADADC"/>
<path d="M13.1776 12.4V10.336H17.0336V22H14.7296V12.4H13.1776Z" fill="#2E303A"/>
<rect x="40" width="32" height="32" rx="16" fill="#F35050"/>
<path d="M52.4583 19.472C53.4823 18.6187 54.2983 17.9093 54.9062 17.344C55.5143 16.768 56.0209 16.1707 56.4263 15.552C56.8316 14.9333 57.0343 14.3253 57.0343 13.728C57.0343 13.184 56.9063 12.7573 56.6503 12.448C56.3943 12.1387 55.9996 11.984 55.4663 11.984C54.9329 11.984 54.5223 12.1653 54.2343 12.528C53.9463 12.88 53.7969 13.3653 53.7863 13.984H51.6103C51.6529 12.704 52.0316 11.7333 52.7463 11.072C53.4716 10.4107 54.3889 10.08 55.4983 10.08C56.7143 10.08 57.6476 10.4053 58.2983 11.056C58.9489 11.696 59.2743 12.544 59.2743 13.6C59.2743 14.432 59.0503 15.2267 58.6023 15.984C58.1543 16.7413 57.6423 17.4027 57.0663 17.968C56.4903 18.5227 55.7383 19.1947 54.8103 19.984H59.5303V21.84H51.6263V20.176L52.4583 19.472Z" fill="#F8F8F8"/>
<path d="M82.688 10.848V22H81.232V10.848H82.688ZM93.9375 22H92.4815L86.6255 13.12V22H85.1695V10.832H86.6255L92.4815 19.696V10.832H93.9375V22ZM103.284 10.848V12.032H100.244V22H98.7875V12.032H95.7315V10.848H103.284ZM106.532 12.032V15.76H110.596V16.96H106.532V20.8H111.076V22H105.076V10.832H111.076V12.032H106.532ZM119.151 22L116.495 17.44H114.735V22H113.279V10.848H116.879C117.722 10.848 118.431 10.992 119.007 11.28C119.594 11.568 120.031 11.9573 120.319 12.448C120.607 12.9387 120.751 13.4987 120.751 14.128C120.751 14.896 120.527 15.5733 120.079 16.16C119.642 16.7467 118.98 17.136 118.095 17.328L120.895 22H119.151ZM114.735 16.272H116.879C117.668 16.272 118.26 16.08 118.655 15.696C119.05 15.3013 119.247 14.7787 119.247 14.128C119.247 13.4667 119.05 12.9547 118.655 12.592C118.271 12.2293 117.679 12.048 116.879 12.048H114.735V16.272ZM132.229 10.848L128.021 22H126.341L122.133 10.848H123.685L127.189 20.464L130.693 10.848H132.229ZM135.282 10.848V22H133.826V10.848H135.282ZM139.219 12.032V15.76H143.283V16.96H139.219V20.8H143.763V22H137.763V10.832H143.763V12.032H139.219ZM159.982 10.848L156.75 22H155.118L152.526 13.024L149.838 22L148.222 22.016L145.102 10.848H146.654L149.086 20.304L151.774 10.848H153.406L155.966 20.272L158.414 10.848H159.982ZM165.112 22.112C164.376 22.112 163.714 21.984 163.128 21.728C162.552 21.4613 162.098 21.0987 161.768 20.64C161.437 20.1707 161.266 19.632 161.256 19.024H162.808C162.861 19.5467 163.074 19.9893 163.448 20.352C163.832 20.704 164.386 20.88 165.112 20.88C165.805 20.88 166.349 20.7093 166.744 20.368C167.149 20.016 167.352 19.568 167.352 19.024C167.352 18.5973 167.234 18.2507 167 17.984C166.765 17.7173 166.472 17.5147 166.12 17.376C165.768 17.2373 165.293 17.088 164.696 16.928C163.96 16.736 163.368 16.544 162.92 16.352C162.482 16.16 162.104 15.8613 161.784 15.456C161.474 15.04 161.32 14.4853 161.32 13.792C161.32 13.184 161.474 12.6453 161.784 12.176C162.093 11.7067 162.525 11.344 163.08 11.088C163.645 10.832 164.29 10.704 165.016 10.704C166.061 10.704 166.914 10.9653 167.576 11.488C168.248 12.0107 168.626 12.704 168.712 13.568H167.112C167.058 13.1413 166.834 12.768 166.44 12.448C166.045 12.1173 165.522 11.952 164.872 11.952C164.264 11.952 163.768 12.112 163.384 12.432C163 12.7413 162.808 13.1787 162.808 13.744C162.808 14.1493 162.92 14.48 163.144 14.736C163.378 14.992 163.661 15.1893 163.992 15.328C164.333 15.456 164.808 15.6053 165.416 15.776C166.152 15.9787 166.744 16.1813 167.192 16.384C167.64 16.576 168.024 16.88 168.344 17.296C168.664 17.7013 168.824 18.256 168.824 18.96C168.824 19.504 168.68 20.016 168.392 20.496C168.104 20.976 167.677 21.3653 167.112 21.664C166.546 21.9627 165.88 22.112 165.112 22.112Z" fill="#F35050"/>
<rect x="186" width="32" height="32" rx="16" fill="#DADADC"/>
<path d="M197.591 13.408C197.644 12.3413 198.018 11.52 198.711 10.944C199.415 10.3573 200.338 10.064 201.479 10.064C202.258 10.064 202.924 10.2027 203.479 10.48C204.034 10.7467 204.45 11.1147 204.727 11.584C205.015 12.0427 205.159 12.5653 205.159 13.152C205.159 13.824 204.983 14.3947 204.631 14.864C204.29 15.3227 203.879 15.632 203.399 15.792V15.856C204.018 16.048 204.498 16.3893 204.839 16.88C205.191 17.3707 205.367 18 205.367 18.768C205.367 19.408 205.218 19.9787 204.919 20.48C204.631 20.9813 204.199 21.376 203.623 21.664C203.058 21.9413 202.375 22.08 201.575 22.08C200.37 22.08 199.388 21.776 198.631 21.168C197.874 20.56 197.474 19.664 197.431 18.48H199.607C199.628 19.0027 199.804 19.424 200.135 19.744C200.476 20.0533 200.94 20.208 201.527 20.208C202.071 20.208 202.487 20.0587 202.775 19.76C203.074 19.4507 203.223 19.056 203.223 18.576C203.223 17.936 203.02 17.4773 202.615 17.2C202.21 16.9227 201.58 16.784 200.727 16.784H200.263V14.944H200.727C202.242 14.944 202.999 14.4373 202.999 13.424C202.999 12.9653 202.86 12.608 202.583 12.352C202.316 12.096 201.927 11.968 201.415 11.968C200.914 11.968 200.524 12.1067 200.247 12.384C199.98 12.6507 199.826 12.992 199.783 13.408H197.591Z" fill="#2E303A"/>
<rect x="234" width="32" height="32" rx="16" fill="#DADADC"/>
<path d="M244.963 19.728V17.968L250.195 10.48H252.803V17.776H254.211V19.728H252.803V22H250.563V19.728H244.963ZM250.707 12.88L247.427 17.776H250.707V12.88Z" fill="#2E303A"/>
</svg>
