<svg width="81" height="60" viewBox="0 0 81 60" fill="none" xmlns="http://www.w3.org/2000/svg">
<path d="M51.9307 3.92367V4.04063C51.9307 4.15759 52.0476 4.15759 52.0476 4.15759C52.0476 4.15759 53.5681 4.04063 56.0242 4.50846C65.6149 6.26285 70.878 12.6956 70.995 12.8126C70.995 12.8126 70.995 12.8126 71.1119 12.8126C71.2289 12.8126 71.2289 12.8126 71.2289 12.6956C71.2289 12.6956 71.5798 10.5903 73.5681 8.71899C75.5564 6.84764 77.4277 6.26285 77.4277 6.26285C77.4277 6.26285 77.4277 6.14589 77.5447 6.14589C77.5447 6.14589 77.5447 6.02893 77.4277 6.02893C77.4277 6.02893 70.995 1.35057 63.6266 1.35057C56.726 1.23361 52.0476 3.92367 51.9307 3.92367Z" fill="#009E4D"/>
<path d="M51.5789 4.39173C51.4619 4.50869 51.4619 4.62565 51.4619 4.62565C55.3216 11.6432 55.3216 11.6432 55.3216 11.6432C56.0233 12.8128 60.2338 19.9473 60.2338 19.9473C60.2338 19.9473 60.2338 20.0642 60.3508 20.0642C60.3508 20.0642 60.4678 20.0642 60.4678 19.9473C60.4678 19.9473 60.5847 19.4794 61.4034 18.6607C65.1461 14.2163 70.1754 14.3332 70.2923 14.3332H70.4093V14.2163C70.4093 14.2163 67.4853 10.0058 62.573 7.3157C56.1403 3.92389 51.6958 4.39173 51.5789 4.39173Z" fill="#FFD400"/>
<path d="M51.1113 4.74244C51.1113 4.74244 50.6434 5.32724 50.2926 5.91203C45.0294 15.3857 48.4212 24.8594 48.4212 24.9763C48.4212 24.9763 48.5382 24.9763 48.5382 25.0933C48.5382 25.0933 48.6551 25.0933 48.6551 24.9763C48.6551 24.9763 49.006 24.5085 49.8247 23.8068C53.8013 20.298 59.0645 20.8828 59.0645 20.8828H59.1814V20.7658C55.3218 13.1635 55.3218 13.1635 55.3218 13.1635C54.62 11.8769 51.3452 4.97636 51.3452 4.97636C51.3452 4.62548 51.2282 4.62548 51.1113 4.74244C51.1113 4.62548 51.1113 4.62548 51.1113 4.74244Z" fill="#0076D6"/>
<path d="M50.6431 4.62597C50.6431 4.62597 45.146 7.54994 41.4033 13.9827C37.4267 20.8833 38.2454 26.4973 38.2454 26.6143C38.2454 26.6143 38.2454 26.6143 38.3624 26.7312H38.4794C38.4794 26.7312 40.5846 24.8599 44.2103 24.8599C46.3156 24.8599 47.0174 25.2108 47.0174 25.3277C47.0174 25.3277 47.1343 25.3277 47.2513 25.3277C47.2513 25.3277 47.2513 25.3277 47.2513 25.2108C47.2513 25.2108 46.4326 22.5207 46.4326 18.661C46.4326 15.2692 47.1343 11.0587 49.5905 6.73123C50.1753 5.6786 50.7601 4.85989 50.7601 4.74293V4.62597H50.6431Z" fill="#ED1C24"/>
<path d="M57.0768 41.351C56.3751 41.8189 55.4393 42.1697 54.6207 42.1697C52.8663 42.1697 51.3458 40.7662 51.3458 38.661C51.3458 37.6083 51.6967 36.9066 52.3984 36.3218C53.568 38.0762 55.4393 39.8306 57.4277 41.0002C57.3107 41.2341 57.1937 41.351 57.0768 41.351ZM54.3867 30.3569C55.4393 30.3569 55.7902 31.1756 55.7902 32.1113C55.7902 33.2809 54.7376 33.9826 53.8019 34.4505C53.3341 33.5148 52.9832 32.6961 52.9832 31.8774C52.9832 31.0586 53.4511 30.3569 54.3867 30.3569ZM64.2113 43.1054C62.9247 42.7545 61.1703 41.7019 59.416 40.4154C59.7669 39.8306 60.1178 39.2458 60.3516 38.661C60.9364 37.2575 61.1703 36.5557 62.4569 36.4388C62.4569 35.854 62.4569 35.854 62.4569 35.854C61.7552 35.854 61.0534 35.854 60.3516 35.854C59.6499 35.854 58.9481 35.854 58.2464 35.854C58.2464 36.4388 58.2464 36.4388 58.2464 36.4388C58.7142 36.5557 59.1821 36.5557 59.6499 36.6727C59.6499 37.2575 59.299 38.1931 59.0651 38.8949C58.9481 39.2458 58.7142 39.4797 58.5973 39.7136C56.9598 38.4271 55.4393 36.9066 54.2698 35.3861C55.7902 34.6844 57.6616 33.8657 57.6616 31.8774C57.6616 30.123 56.3751 29.1873 54.6207 29.1873C52.6324 29.1873 50.9949 30.5908 50.9949 32.4622C50.9949 33.3978 51.3458 34.3335 51.8136 35.2692C50.0592 36.2048 48.8896 37.2575 48.8896 39.2458C48.8896 42.1697 51.2288 43.5733 53.9189 43.5733C55.7902 43.5733 57.3107 42.7545 58.3634 41.585C60.3516 42.7545 62.4569 43.4563 64.0943 43.5733L64.2113 43.1054Z" fill="black"/>
<path d="M56.8417 53.0473C56.7248 52.4625 56.4908 51.8777 55.6721 51.8777C55.2043 51.8777 54.5025 52.3455 54.1517 52.6964C54.1517 57.4917 54.1517 57.4917 54.1517 57.4917C54.1517 59.0122 54.8534 58.8952 56.1399 59.0122C56.1399 59.597 56.1399 59.597 56.1399 59.597C54.9704 59.597 53.9177 59.597 52.8651 59.597C52.0464 59.597 51.2277 59.597 50.409 59.597C50.409 59.0122 50.409 59.0122 50.409 59.0122C51.6955 58.7783 51.6955 58.7783 51.6955 58.7783C51.6955 52.9303 51.6955 52.9303 51.6955 52.9303C51.6955 52.2286 51.5785 51.7607 50.7598 51.7607C50.6429 51.7607 50.409 51.7607 50.292 51.7607C50.292 51.1759 50.292 51.1759 50.292 51.1759C50.8768 51.059 51.5785 50.825 52.1633 50.7081C52.6312 50.5911 53.216 50.3572 53.5668 50.3572C54.1516 50.3572 54.1516 51.1759 54.1516 51.6437C54.1516 51.8777 54.1516 51.8777 54.1516 51.8777C54.7364 51.1759 55.7891 50.3572 56.7248 50.3572C57.6604 50.3572 58.2452 50.825 58.2452 51.7607C58.2452 52.3455 57.5435 53.0473 56.8417 53.0473Z" fill="black"/>
<path d="M38.4785 59.3624C37.6598 59.3624 36.7241 59.3624 35.9054 59.3624C35.9054 58.7776 35.9054 58.7776 35.9054 58.7776C37.192 58.5437 37.192 58.5437 37.192 58.5437C37.192 53.9823 37.192 53.9823 37.192 53.9823C37.192 52.9297 37.192 51.6431 35.7884 51.6431C35.0867 51.6431 34.151 51.994 33.4493 52.3449C33.4493 57.608 33.4493 57.608 33.4493 57.608C33.4493 58.5437 33.8001 58.6607 34.6188 58.7776C34.6188 59.3624 34.6188 59.3624 34.6188 59.3624C33.8001 59.3624 32.8645 59.3624 32.0458 59.3624C31.227 59.3624 30.4083 59.3624 29.5896 59.3624C29.5896 58.7776 29.5896 58.7776 29.5896 58.7776C30.8762 58.5437 30.8762 58.5437 30.8762 58.5437C30.8762 52.8127 30.8762 52.8127 30.8762 52.8127C30.8762 52.111 30.8762 51.5262 29.9405 51.5262C29.8235 51.5262 29.5896 51.5262 29.4727 51.5262C29.4727 50.9414 29.4727 50.9414 29.4727 50.9414C30.1744 50.8244 30.7592 50.5905 31.461 50.4735C32.0458 50.3566 32.5136 50.1227 32.8645 50.1227C33.5662 50.1227 33.4493 51.0583 33.4493 51.6431C34.5019 51.0583 36.1393 50.1227 37.3089 50.1227C38.1276 50.1227 38.5955 50.2396 39.1802 50.9414C39.7651 51.6431 39.7651 52.8127 39.7651 53.6314C39.7651 57.608 39.7651 57.608 39.7651 57.608C39.7651 58.7776 40.4668 58.6607 41.4025 58.7776C41.4025 59.3624 41.4025 59.3624 41.4025 59.3624C40.3498 59.3624 39.4142 59.3624 38.4785 59.3624Z" fill="black"/>
<path d="M11.5789 43.3397C0 43.3397 0 43.3397 0 43.3397C0 42.7549 0 42.7549 0 42.7549C2.10526 42.404 2.10526 42.404 2.10526 42.404C2.10526 31.7607 2.10526 31.7607 2.10526 31.7607C2.10526 30.5911 1.75438 30.2403 0.116952 30.2403C0.116952 29.6555 0.116952 29.6555 0.116952 29.6555C6.90057 29.6555 6.90057 29.6555 6.90057 29.6555C6.90057 30.2403 6.90057 30.2403 6.90057 30.2403C4.91227 30.5911 4.91227 30.5911 4.91227 30.5911C4.91227 41.2344 4.91227 41.2344 4.91227 41.2344C4.91227 42.404 5.26314 42.521 6.90057 42.521C9.59063 42.521 10.5263 42.287 11.2281 39.597C11.9298 39.597 11.9298 39.597 11.9298 39.597L11.5789 43.3397Z" fill="black"/>
<path d="M20.0011 53.5145C19.0654 53.5145 18.7145 53.7485 18.7145 54.6841C18.7145 54.6841 18.7145 57.6081 18.7145 58.6607C17.311 59.2455 15.5566 59.7134 13.5683 59.7134C9.35779 59.7134 6.55078 56.7894 6.55078 52.6958C6.55078 48.7192 9.70868 45.4444 13.8022 45.4444C15.7905 45.4444 17.428 45.9122 18.5975 46.2631C18.5975 49.7719 18.5975 49.7719 18.5975 49.7719C18.0128 49.7719 18.0128 49.7719 18.0128 49.7719C17.8958 48.7192 17.428 47.7836 16.8432 47.1988C16.1414 46.614 15.3227 46.2631 14.2701 46.2631C10.7613 46.2631 9.94258 50.3567 9.94258 52.6958C9.94258 55.152 10.7613 58.6607 13.9192 58.6607C15.5566 58.6607 16.0245 58.0759 16.0245 56.3216C16.0245 53.6315 16.0245 53.6315 16.0245 53.6315C14.2701 53.5145 14.2701 53.5145 14.2701 53.5145C14.2701 52.8128 14.2701 52.8128 14.2701 52.8128C20.3519 52.8128 20.3519 52.8128 20.3519 52.8128C20.3519 53.5145 20.3519 53.5145 20.3519 53.5145H20.0011Z" fill="black"/>
<path d="M63.0411 54.9181C61.7545 54.9181 59.7662 55.152 59.7662 57.0233C59.7662 57.959 60.2341 58.5438 61.1697 58.5438C61.9884 58.5438 62.5732 57.959 62.8072 57.3742C63.0411 56.9064 63.0411 56.5555 63.0411 55.9707L63.0411 54.9181ZM65.1463 59.5964C64.2107 59.5964 63.5089 59.3625 63.158 58.4268C62.4563 59.3625 61.1698 59.5964 60.351 59.5964C58.5966 59.5964 57.0762 58.8947 57.0762 57.0233C57.0762 53.9824 61.0528 53.9824 63.158 53.9824C63.158 52.8128 63.158 52.8128 63.158 52.8128C63.158 51.6432 62.6902 51.2924 61.4037 51.2924C60.5849 51.2924 59.7662 51.5263 59.0645 51.7602C59.0645 50.5906 59.0645 50.5906 59.0645 50.5906C60.1171 50.3567 61.0528 50.1228 62.2224 50.1228C63.0411 50.1228 64.3276 50.2397 65.0294 50.9415C65.7311 51.6432 65.7311 52.4619 65.7311 53.2807C65.7311 57.4912 65.7311 57.4912 65.7311 57.4912C65.7311 58.1929 65.9651 58.7777 66.6668 58.7777C67.2516 58.7777 67.9534 58.7777 68.6551 58.6608C68.6551 48.2514 68.6551 48.2514 68.6551 48.2514C68.6551 47.4327 68.6551 46.8479 67.7194 46.8479C67.4855 46.8479 67.3686 46.8479 67.2516 46.8479C67.2516 46.2631 67.2516 46.2631 67.2516 46.2631C67.8364 46.1461 68.5381 45.9122 69.2399 45.7953C69.8247 45.6783 70.2925 45.4444 70.6434 45.4444C71.4621 45.4444 71.3452 46.3801 71.3452 46.8479C71.3452 57.6081 71.3452 57.6081 71.3452 57.6081C71.3452 58.5438 71.93 58.6608 73.4504 58.7777C73.4504 59.3625 73.4504 59.3625 73.4504 59.3625C70.4095 59.3625 67.8364 59.5964 65.1463 59.5964Z" fill="black"/>
<path d="M36.492 38.7777C35.0885 38.7777 33.2172 39.0116 33.2172 40.8829C33.2172 41.8186 33.5681 42.4034 34.6207 42.4034C35.4394 42.4034 36.1412 41.8186 36.3751 41.2338C36.492 40.766 36.609 40.2981 36.609 39.8303V38.7777H36.492ZM38.5973 43.456C37.6616 43.456 36.9599 43.2221 36.609 42.2864C35.9072 43.2221 34.6207 43.573 33.685 43.573C32.0476 43.573 30.4102 42.8712 30.4102 40.9999C30.4102 37.9589 34.2698 37.9589 36.492 37.9589C36.492 36.7893 36.492 36.7893 36.492 36.7893C36.492 35.6198 35.9072 35.2689 34.7376 35.2689C33.9189 35.2689 33.1002 35.5028 32.3985 35.7367C32.3985 34.5671 32.3985 34.5671 32.3985 34.5671C33.4511 34.2163 34.3868 34.0993 35.5564 34.0993C36.3751 34.0993 37.6616 34.2163 38.3634 34.918C39.0651 35.6198 39.0651 36.4385 39.0651 37.3741C39.0651 41.4677 39.0651 41.4677 39.0651 41.4677C39.0651 42.1695 39.299 42.7543 40.0008 42.7543C40.7026 42.7543 41.2874 42.7543 41.9891 42.6373C41.9891 32.228 41.9891 32.228 41.9891 32.228C41.9891 31.5262 41.9891 30.8244 41.0534 30.8244C40.9365 30.8244 40.7026 30.8244 40.5856 30.8244C40.5856 30.2396 40.5856 30.2396 40.5856 30.2396C41.1704 30.1227 41.8722 29.8888 42.4569 29.7718C43.0417 29.6549 43.5096 29.4209 43.8604 29.4209C44.5622 29.4209 44.4452 30.3566 44.4452 30.8244C44.4452 41.5847 44.4452 41.5847 44.4452 41.5847C44.4452 42.5203 45.03 42.6373 46.5505 42.7543C46.5505 43.3391 46.5505 43.3391 46.5505 43.3391C43.9774 43.3391 41.2874 43.456 38.5973 43.456Z" fill="black"/>
<path d="M45.8478 51.0583C44.4443 51.0583 43.8595 52.6957 43.8595 53.8653C46.3157 53.6314 46.3157 53.6314 46.3157 53.6314C47.0174 53.6314 47.3683 53.5145 47.3683 52.8127C47.2513 51.877 46.7835 51.0583 45.8478 51.0583ZM49.8244 54.684C43.7425 54.684 43.7425 54.684 43.7425 54.684C43.7425 57.0232 44.6782 58.4267 47.1344 58.4267C47.8361 58.4267 48.5379 58.3098 49.1227 58.0759C49.1227 58.8946 49.1227 58.8946 49.1227 58.8946C48.07 59.3624 47.1344 59.5963 45.9648 59.5963C43.1578 59.5963 40.9355 57.725 40.9355 54.801C40.9355 51.877 43.0408 50.1227 45.8478 50.1227C48.07 50.1227 49.8244 51.6431 49.8244 53.9823C49.9414 54.2162 49.9414 54.4501 49.8244 54.684Z" fill="black"/>
<path d="M26.7847 43.8069C25.966 43.8069 25.6151 43.9238 24.7964 43.9238C24.3285 43.9238 23.7438 43.9238 23.3929 43.6899C23.159 43.9238 22.925 44.3916 22.925 44.7425C22.925 45.9121 24.0946 46.4969 25.849 46.4969C27.8373 46.4969 29.0069 45.7952 29.0069 44.8595C29.0069 43.6899 27.6034 43.8069 26.7847 43.8069ZM26.0829 35.0349C25.0303 35.0349 24.4455 35.9706 24.4455 37.1402C24.4455 38.4267 24.7964 39.8303 26.1999 39.8303C27.2525 39.8303 27.7204 39.0115 27.7204 37.8419C27.7204 36.5554 27.3695 35.0349 26.0829 35.0349ZM31.3461 35.0349C30.9952 34.6841 30.5274 34.4501 29.9426 34.4501C29.5917 34.4501 29.3578 34.801 29.1239 35.1519C29.7087 35.6197 30.0595 36.5554 30.0595 37.2572C30.0595 39.4794 28.3052 40.7659 26.1999 40.7659C25.849 40.7659 25.3812 40.7659 24.9133 40.649C24.6794 40.9998 24.3286 41.2338 23.9777 41.3507C23.9777 41.7016 24.4455 41.8186 24.7964 41.8186C25.4981 41.8186 26.1999 41.8186 26.9016 41.8186C28.4221 41.8186 30.2935 42.2864 30.2935 44.1577C30.2935 46.8478 27.4864 48.0174 25.2642 48.0174C23.6268 48.0174 21.0537 47.1987 21.0537 45.3273C21.0537 44.3916 21.7555 43.8069 22.5742 43.456C21.9894 43.1051 21.7555 42.4033 21.7555 41.7016C21.7555 41.5846 21.7555 41.4677 21.7555 41.3507C22.3402 41.2338 23.5098 40.9998 23.9777 40.532C22.6911 40.0642 21.9894 39.0115 21.9894 37.725C21.9894 35.3858 23.9777 34.3332 26.0829 34.3332C26.9016 34.3332 27.8373 34.4501 28.4221 34.918C28.656 33.9823 29.4748 33.2805 30.4104 33.2805C30.7613 33.2805 31.697 33.3975 31.697 33.9823C31.8139 34.2162 31.58 34.6841 31.3461 35.0349Z" fill="black"/>
<path d="M17.1935 35.0356C15.6731 35.0356 15.2052 36.79 15.0883 37.9596C17.5444 37.7257 17.5444 37.7257 17.5444 37.7257C18.2461 37.7257 18.597 37.6087 18.597 36.907C18.714 35.9713 18.1292 35.0356 17.1935 35.0356ZM21.2871 38.6614C15.2052 38.7783 15.2052 38.7783 15.2052 38.7783C15.2052 41.0005 16.1409 42.521 18.597 42.521C19.2988 42.521 20.0005 42.4041 20.5853 42.1701C20.5853 42.9888 20.5853 42.9888 20.5853 42.9888C19.5327 43.4567 18.597 43.6906 17.4274 43.6906C14.6204 43.6906 12.2812 41.8193 12.2812 38.8953C12.2812 35.9713 14.3865 34.2169 17.1935 34.2169C19.5327 34.2169 21.1701 35.7374 21.1701 38.0766C21.2871 38.1935 21.2871 38.4274 21.2871 38.6614Z" fill="black"/>
<path d="M25.3798 51.0583C23.9763 51.0583 23.3915 52.6957 23.3915 53.8653C25.8477 53.6314 25.8477 53.6314 25.8477 53.6314C26.4324 53.6314 26.9003 53.5145 26.9003 52.8127C26.7833 51.877 26.3155 51.0583 25.3798 51.0583ZM29.3564 54.684C23.2746 54.684 23.2746 54.684 23.2746 54.684C23.2746 57.0232 24.3272 58.4267 26.6664 58.4267C27.3681 58.4267 28.0699 58.3098 28.6547 58.0759C28.6547 58.8946 28.6547 58.8946 28.6547 58.8946C27.602 59.3624 26.6664 59.5963 25.4968 59.5963C22.6898 59.5963 20.3506 57.725 20.3506 54.801C20.3506 51.877 22.4559 50.1227 25.2629 50.1227C27.602 50.1227 29.2395 51.6431 29.2395 53.9823C29.4734 54.2162 29.4734 54.4501 29.3564 54.684Z" fill="black"/>
<path d="M55.4387 11.5263C55.0878 10.9415 51.579 4.50878 51.579 4.50878C51.579 4.50878 56.0234 4.04094 62.4562 7.43275C67.4855 10.1228 70.2924 14.2164 70.2924 14.2164C70.2924 14.2164 65.1462 13.9825 61.2866 18.5439C60.4679 19.4795 60.3509 19.9474 60.3509 19.9474C60.3509 19.9474 56.1404 12.6959 55.4387 11.5263ZM49.8246 23.5731C48.889 24.3918 48.655 24.8596 48.655 24.8596C48.655 24.8596 45.1463 15.5029 50.4094 5.91228C50.7603 5.21053 51.2281 4.74269 51.2281 4.74269C51.2281 4.74269 54.503 11.6433 55.2047 12.9298C55.9065 14.3333 59.1813 20.5322 59.1813 20.5322C59.1813 20.5322 53.8012 20.0643 49.8246 23.5731ZM44.2106 24.7427C40.4679 24.7427 38.3626 26.614 38.3626 26.614C38.3626 26.614 37.427 21 41.5205 14.0994C45.3802 7.66667 50.7603 4.85965 50.7603 4.85965C50.7603 4.85965 49.9416 5.56141 49.4737 6.61404C44.0936 16.0877 47.2515 25.2105 47.2515 25.2105C47.2515 25.2105 46.4328 24.7427 44.2106 24.7427ZM63.6258 1.46784C70.9942 1.46784 77.427 6.1462 77.427 6.1462C77.427 6.1462 75.4387 6.731 73.4504 8.60234C71.462 10.5906 71.1112 12.6959 71.1112 12.6959C71.1112 12.6959 65.848 6.1462 56.0234 4.39182C53.5673 3.92398 52.0468 4.1579 52.0468 4.1579C52.0468 4.1579 56.7252 1.35088 63.6258 1.46784ZM74.0351 35.152C74.0351 35.152 73.8012 35.0351 73.2164 35.269C72.7486 35.5029 72.8655 35.8538 72.8655 35.8538C72.9825 36.0877 73.4504 37.0234 73.6842 37.4912C73.9182 38.076 73.9182 38.6608 73.0995 39.3626C72.6316 39.7134 71.8129 39.8304 71.1112 39.4795C70.9942 39.4795 70.7603 39.2456 70.5264 39.0117C70.2924 38.6608 66.7837 32.2281 66.7837 32.2281C60.9357 21.5848 60.9357 21.5848 60.9357 21.5848C60.9357 21.5848 60.8188 21.3509 60.8188 21.2339C60.8188 21 60.9357 20.883 60.9357 20.883C64.6784 14.8012 71.696 15.5029 71.696 15.5029C71.696 15.5029 71.696 14.6842 71.8129 13.6316C72.9825 7.78362 80 6.49707 80 6.49707C80 6.49707 77.193 4.27485 72.9825 2.75438C69.9416 1.58479 67.3685 1 63.5088 1C58.9474 1 54.8539 2.40351 54.503 2.52047C53.2164 2.87134 51.3451 3.92398 51.3451 3.92398C49.5907 1.23392 49.5907 1.23392 49.5907 1.23392C49.5907 1.23392 49.5907 1.23392 49.3568 1.23392C49.2398 1.23392 49.2398 1.35088 49.2398 1.35088C50.4094 4.27485 50.4094 4.27485 50.4094 4.27485C50.4094 4.27485 50.1755 4.39182 49.7077 4.74269C48.772 5.32749 47.2515 6.26316 44.9123 8.48538C43.3919 9.88889 41.4036 12.462 39.7661 15.269C36.1404 21.9357 36.9591 28.8362 36.9591 28.8362C36.9591 28.8362 39.8831 25.7953 44.2106 25.7953C46.9006 25.7953 48.5381 26.614 48.5381 26.614C48.5381 26.614 49.1229 25.4444 50.4094 24.3918C52.6316 22.4035 56.0234 21.5848 58.5965 21.5848C59.1813 21.5848 59.4152 21.5848 59.6492 21.7017C59.7661 21.7017 59.8831 21.9357 59.8831 21.9357C69.3568 39.3626 69.3568 39.3626 69.3568 39.3626C69.3568 39.3626 70.1755 41 72.1638 41C74.2691 40.883 75.3217 39.4795 75.3217 38.076C75.3217 37.0234 74.1521 35.5029 74.0351 35.152Z" fill="black"/>
<path d="M55.4387 11.5263C55.0878 10.9415 51.579 4.50878 51.579 4.50878C51.579 4.50878 56.0234 4.04094 62.4562 7.43275C67.4855 10.1228 70.2924 14.2164 70.2924 14.2164C70.2924 14.2164 65.1462 13.9825 61.2866 18.5439C60.4679 19.4795 60.3509 19.9474 60.3509 19.9474C60.3509 19.9474 56.1404 12.6959 55.4387 11.5263ZM49.8246 23.5731C48.889 24.3918 48.655 24.8596 48.655 24.8596C48.655 24.8596 45.1463 15.5029 50.4094 5.91228C50.7603 5.21053 51.2281 4.74269 51.2281 4.74269C51.2281 4.74269 54.503 11.6433 55.2047 12.9298C55.9065 14.3333 59.1813 20.5322 59.1813 20.5322C59.1813 20.5322 53.8012 20.0643 49.8246 23.5731ZM44.2106 24.7427C40.4679 24.7427 38.3626 26.614 38.3626 26.614C38.3626 26.614 37.427 21 41.5205 14.0994C45.3802 7.66667 50.7603 4.85965 50.7603 4.85965C50.7603 4.85965 49.9416 5.56141 49.4737 6.61404C44.0936 16.0877 47.2515 25.2105 47.2515 25.2105C47.2515 25.2105 46.4328 24.7427 44.2106 24.7427ZM63.6258 1.46784C70.9942 1.46784 77.427 6.1462 77.427 6.1462C77.427 6.1462 75.4387 6.731 73.4504 8.60234C71.462 10.5906 71.1112 12.6959 71.1112 12.6959C71.1112 12.6959 65.848 6.1462 56.0234 4.39182C53.5673 3.92398 52.0468 4.1579 52.0468 4.1579C52.0468 4.1579 56.7252 1.35088 63.6258 1.46784ZM74.0351 35.152C74.0351 35.152 73.8012 35.0351 73.2164 35.269C72.7486 35.5029 72.8655 35.8538 72.8655 35.8538C72.9825 36.0877 73.4504 37.0234 73.6842 37.4912C73.9182 38.076 73.9182 38.6608 73.0995 39.3626C72.6316 39.7134 71.8129 39.8304 71.1112 39.4795C70.9942 39.4795 70.7603 39.2456 70.5264 39.0117C70.2924 38.6608 66.7837 32.2281 66.7837 32.2281C60.9357 21.5848 60.9357 21.5848 60.9357 21.5848C60.9357 21.5848 60.8188 21.3509 60.8188 21.2339C60.8188 21 60.9357 20.883 60.9357 20.883C64.6784 14.8012 71.696 15.5029 71.696 15.5029C71.696 15.5029 71.696 14.6842 71.8129 13.6316C72.9825 7.78362 80 6.49707 80 6.49707C80 6.49707 77.193 4.27485 72.9825 2.75439C69.9416 1.58479 67.3685 1 63.5088 1C58.9474 1 54.8539 2.40351 54.503 2.52047C53.2164 2.87134 51.3451 3.92398 51.3451 3.92398C49.5907 1.23392 49.5907 1.23392 49.5907 1.23392C49.5907 1.23392 49.5907 1.23392 49.3568 1.23392C49.2398 1.23392 49.2398 1.35088 49.2398 1.35088C50.4094 4.27485 50.4094 4.27485 50.4094 4.27485C50.4094 4.27485 50.1755 4.39182 49.7077 4.74269C48.772 5.32749 47.2515 6.26316 44.9123 8.48538C43.3919 9.88889 41.4036 12.462 39.7661 15.269C36.1404 21.9357 36.9591 28.8362 36.9591 28.8362C36.9591 28.8362 39.8831 25.7953 44.2106 25.7953C46.9006 25.7953 48.5381 26.614 48.5381 26.614C48.5381 26.614 49.1229 25.4444 50.4094 24.3918C52.6316 22.4035 56.0234 21.5848 58.5965 21.5848C59.1813 21.5848 59.4152 21.5848 59.6492 21.7018C59.7661 21.7018 59.8831 21.9357 59.8831 21.9357C69.3568 39.3626 69.3568 39.3626 69.3568 39.3626C69.3568 39.3626 70.1755 41 72.1638 41C74.2691 40.883 75.3217 39.4795 75.3217 38.076C75.3217 37.0234 74.1521 35.5029 74.0351 35.152Z" stroke="#231F20" stroke-width="0.02056" stroke-linejoin="round"/>
</svg>
