<svg width="32" height="32" viewBox="0 0 32 32" fill="none" xmlns="http://www.w3.org/2000/svg">
<rect width="32" height="32" rx="16" fill="#DADADC"/>
<path d="M9.84348 16.138C9.84348 14.6387 10.0948 13.4687 10.5975 12.628C11.1088 11.7787 11.9841 11.354 13.2235 11.354C14.4628 11.354 15.3338 11.7787 15.8365 12.628C16.3478 13.4687 16.6035 14.6387 16.6035 16.138C16.6035 17.6547 16.3478 18.842 15.8365 19.7C15.3338 20.5493 14.4628 20.974 13.2235 20.974C11.9841 20.974 11.1088 20.5493 10.5975 19.7C10.0948 18.842 9.84348 17.6547 9.84348 16.138ZM15.1475 16.138C15.1475 15.436 15.0998 14.8423 15.0045 14.357C14.9178 13.8717 14.7358 13.4773 14.4585 13.174C14.1811 12.862 13.7695 12.706 13.2235 12.706C12.6775 12.706 12.2658 12.862 11.9885 13.174C11.7111 13.4773 11.5248 13.8717 11.4295 14.357C11.3428 14.8423 11.2995 15.436 11.2995 16.138C11.2995 16.866 11.3428 17.477 11.4295 17.971C11.5161 18.465 11.6981 18.8637 11.9755 19.167C12.2615 19.4703 12.6775 19.622 13.2235 19.622C13.7695 19.622 14.1811 19.4703 14.4585 19.167C14.7445 18.8637 14.9308 18.465 15.0175 17.971C15.1041 17.477 15.1475 16.866 15.1475 16.138ZM17.9766 12.875V11.523H20.6806V21H19.1856V12.875H17.9766Z" fill="#2E303A"/>
</svg>
