<svg width="84" height="38" viewBox="0 0 84 38" fill="none" xmlns="http://www.w3.org/2000/svg">
<path d="M11.0029 13.916C11.0029 11.8728 10.6988 10.3887 10.091 9.46357C9.48318 8.53846 8.51807 8.07582 7.19559 8.07582C5.83095 8.07582 4.82308 8.54116 4.17251 9.47126C3.52201 10.4013 3.19701 11.8421 3.19701 13.7937V22.3784H0.177246V5.60584H3.00411V7.57276C3.59108 6.82028 4.25526 6.25906 4.99739 5.88753C5.73885 5.51645 6.58509 5.3312 7.53483 5.3312C8.81563 5.3312 9.88272 5.56526 10.7366 6.03269C11.5904 6.50018 12.2897 7.23191 12.834 8.2282C13.3815 7.25216 14.106 6.52543 15.0081 6.04754C15.9096 5.57019 17.0101 5.3312 18.3096 5.3312C20.3067 5.3312 21.9059 5.9489 23.1089 7.18369C24.3113 8.41895 24.9125 10.0681 24.9125 12.132V22.3784H21.7163V12.6044C21.7163 11.1713 21.3852 10.0582 20.7243 9.26516C20.0628 8.47211 19.141 8.07582 17.9578 8.07582C16.5815 8.07582 15.5923 8.4979 14.9901 9.34132C14.3877 10.1854 14.0868 11.6087 14.0868 13.6106V22.3784H11.0029V13.916Z" fill="#29ABE2"/>
<path d="M25.0905 22.5565H21.5385V12.6044C21.5385 11.2206 21.219 10.1354 20.5881 9.37912C19.9562 8.62169 19.0964 8.25346 17.9581 8.25346C16.6487 8.25346 15.699 8.6541 15.135 9.44434C14.5574 10.2538 14.2647 11.6552 14.2647 13.6106V22.5565H10.8257V13.9159C10.8257 11.9178 10.5286 10.4522 9.94278 9.56107C9.36457 8.68142 8.46634 8.25346 7.19594 8.25346C5.88061 8.25346 4.9396 8.68471 4.31861 9.57256C3.69221 10.4681 3.37488 11.8887 3.37488 13.7937V22.5565H0V5.4276H3.18199V7.08275C3.70484 6.49916 4.28688 6.04475 4.91822 5.72851C5.68169 5.34706 6.56184 5.15365 7.53518 5.15365C8.8401 5.15365 9.94611 5.39693 10.8224 5.87652C11.6236 6.31552 12.3005 6.98743 12.8365 7.87518C13.3796 7.005 14.0805 6.33795 14.9251 5.89077C15.8492 5.40139 16.9875 5.15365 18.3099 5.15365C20.347 5.15365 22.0049 5.79492 23.2364 7.05972C24.4667 8.32353 25.0905 10.0302 25.0905 12.132V22.5565ZM21.8942 22.2009H24.7347V12.132C24.7347 10.1261 24.145 8.50281 22.9815 7.30748C21.8197 6.11379 20.2478 5.50876 18.3099 5.50876C17.0461 5.50876 15.9637 5.74277 15.0917 6.20477C14.2247 6.66406 13.5172 7.37431 12.9894 8.31532L12.8321 8.59483L12.6781 8.31322C12.153 7.35248 11.4713 6.63718 10.6514 6.18838C9.82823 5.73731 8.77927 5.50876 7.53518 5.50876C6.61775 5.50876 5.79073 5.68967 5.07716 6.04639C4.36252 6.40433 3.71249 6.95455 3.14472 7.68184L2.82688 8.08905V5.78337H0.355134V22.2009H3.01922V13.7937C3.01922 11.8141 3.35847 10.3256 4.02704 9.36931C4.70996 8.39316 5.77596 7.89827 7.19594 7.89827C8.57591 7.89827 9.59967 8.39205 10.2398 9.36602C10.8647 10.3163 11.1808 11.847 11.1808 13.9159V22.2009H13.9096V13.6106C13.9096 11.5802 14.2242 10.1086 14.8457 9.23828C15.4803 8.34882 16.5276 7.89827 17.9581 7.89827C19.1906 7.89827 20.1672 8.31979 20.8611 9.15117C21.5467 9.9732 21.8942 11.1351 21.8942 12.6044V22.2009Z" fill="#29ABE2"/>
<path d="M30.4558 3.63909H27.3071V0.177555H30.4558V3.63909ZM27.3071 22.3787V5.60606H30.4558V22.3787H27.3071Z" fill="#29ABE2"/>
<path d="M30.6335 22.5568H27.1299V5.42798H30.6335V22.5568ZM27.4856 22.2011H30.2778V5.78366H27.4856V22.2011ZM30.6335 3.81671H27.1299V0H30.6335V3.81671ZM27.4856 3.46093H30.2778V0.355175H27.4856V3.46093Z" fill="#29ABE2"/>
<path d="M32.9141 22.3787V0.177555H36.0621V22.3787H32.9141Z" fill="#29ABE2"/>
<path d="M36.2401 22.5568H32.7363V0H36.2401V22.5568ZM33.0915 22.2011H35.8844V0.355175H33.0915V22.2011Z" fill="#29ABE2"/>
<path d="M38.52 22.3787V0.177555H41.6681V22.3787H38.52Z" fill="#29ABE2"/>
<path d="M41.8454 22.5568H38.3423V0H41.8454V22.5568ZM38.6974 22.2011H41.4903V0.355175H38.6974V22.2011Z" fill="#29ABE2"/>
<path d="M47.2745 3.63909H44.1265V0.177555H47.2745V3.63909ZM44.1265 22.3787V5.60606H47.2745V22.3787H44.1265Z" fill="#29ABE2"/>
<path d="M47.4523 22.5568H43.9492V5.42798H47.4523V22.5568ZM44.3043 22.2011H47.0972V5.78366H44.3043V22.2011ZM47.4523 3.81671H43.9492V0H47.4523V3.81671ZM44.3043 3.46093H47.0972V0.355175H44.3043V3.46093Z" fill="#29ABE2"/>
<path d="M48.6753 14.0079C48.6753 12.8186 48.8869 11.7077 49.3099 10.6762C49.7324 9.64427 50.3561 8.71633 51.181 7.89323C52.0694 6.98839 53.0707 6.29229 54.1843 5.80406C55.298 5.31623 56.4543 5.07238 57.6541 5.07238C58.9387 5.07238 60.1302 5.29102 61.2279 5.72787C62.3252 6.16514 63.3181 6.81081 64.2072 7.6647C65.0747 8.50815 65.7412 9.45902 66.2069 10.5157C66.6728 11.5734 66.9057 12.6656 66.9057 13.7941C66.9057 14.9433 66.6887 16.0614 66.2553 17.1487C65.8211 18.2365 65.2133 19.1869 64.4318 20.0003C63.5325 20.9358 62.523 21.6444 61.4044 22.1272C60.2852 22.6101 59.0938 22.8517 57.8304 22.8517C56.5349 22.8517 55.3408 22.6304 54.249 22.1881C53.1567 21.7464 52.1769 21.093 51.3092 20.2288C50.4849 19.4056 49.8398 18.4476 49.3741 17.3548C48.9082 16.262 48.6753 15.1461 48.6753 14.0079ZM51.968 13.9771C51.968 15.6548 52.5276 17.0523 53.6467 18.1703C54.7653 19.2889 56.1601 19.8479 57.8304 19.8479C59.4686 19.8479 60.8421 19.2861 61.9502 18.1626C63.0591 17.0397 63.6131 15.6344 63.6131 13.9465C63.6131 12.2491 63.0591 10.8461 61.9502 9.73801C60.8421 8.63036 59.4583 8.07627 57.7982 8.07627C56.149 8.07627 54.7653 8.63797 53.6467 9.76101C52.5276 10.8845 51.968 12.2896 51.968 13.9771Z" fill="#29ABE2"/>
<path d="M57.8308 23.0294C56.5182 23.0294 55.2906 22.8019 54.1825 22.3531C53.0732 21.9042 52.0642 21.2318 51.1846 20.3549C50.3477 19.5197 49.6835 18.5337 49.2111 17.4244C48.7381 16.3146 48.498 15.1653 48.498 14.0079C48.498 12.8005 48.7156 11.6567 49.1458 10.6088C49.5755 9.5593 50.2184 8.60348 51.0558 7.76721C51.9552 6.85186 52.9844 6.13614 54.1134 5.64128C55.2446 5.14581 56.4355 4.89483 57.6543 4.89483C58.955 4.89483 60.1798 5.11952 61.2934 5.5629C62.4077 6.00629 63.4292 6.6705 64.3307 7.53649C65.2109 8.39307 65.8971 9.37136 66.3695 10.4444C66.8436 11.5192 67.0836 12.6465 67.0836 13.7941C67.0836 14.9603 66.8606 16.1114 66.4204 17.2145C65.9804 18.3183 65.3545 19.2971 64.5604 20.1235C63.649 21.0717 62.6105 21.8006 61.4749 22.2906C60.3387 22.7811 59.1122 23.0294 57.8308 23.0294ZM57.6543 5.24993C56.4853 5.24993 55.3422 5.49112 54.2559 5.96682C53.1686 6.44362 52.1766 7.13362 51.3079 8.01769C50.5028 8.82166 49.8868 9.73797 49.4747 10.7436C49.0626 11.7488 48.8531 12.8471 48.8531 14.0079C48.8531 15.1171 49.0839 16.2198 49.5376 17.2852C49.9925 18.3523 50.6311 19.3004 51.4356 20.1033C52.2818 20.9462 53.2507 21.5924 54.3156 22.0237C55.3815 22.455 56.5643 22.6737 57.8308 22.6737C59.0639 22.6737 60.2423 22.4353 61.3345 21.9645C62.4263 21.4932 63.4253 20.7912 64.3045 19.877C65.0663 19.084 65.6675 18.144 66.0901 17.083C66.5137 16.0214 66.728 14.9155 66.728 13.7941C66.728 12.6963 66.4983 11.6173 66.0446 10.5875C65.5902 9.5566 64.9303 8.61613 64.0836 7.79183C63.216 6.95883 62.2328 6.3198 61.1624 5.89286C60.0899 5.46644 58.9099 5.24993 57.6543 5.24993ZM57.8308 20.0255C56.1192 20.0255 54.6691 19.4435 53.521 18.2964C52.3728 17.1487 51.7908 15.6958 51.7908 13.9772C51.7908 12.2491 52.3728 10.788 53.521 9.63545C54.6691 8.48296 56.1082 7.89871 57.7985 7.89871C59.4992 7.89871 60.9388 8.47523 62.0767 9.61247C63.2138 10.7502 63.7909 12.2081 63.7909 13.9465C63.7909 15.675 63.2144 17.1357 62.0771 18.2876C60.9395 19.4408 59.5106 20.0255 57.8308 20.0255ZM57.7985 8.25387C56.2064 8.25387 54.8517 8.80303 53.7725 9.88653C52.6934 10.97 52.1459 12.3462 52.1459 13.9772C52.1459 15.5978 52.6934 16.9663 53.7725 18.0448C54.851 19.1234 56.2168 19.6703 57.8308 19.6703C59.4121 19.6703 60.7558 19.1212 61.8245 18.0382C62.8932 16.9548 63.4352 15.578 63.4352 13.9465C63.4352 12.3062 62.8938 10.9322 61.8251 9.86407C60.7563 8.79536 59.4016 8.25387 57.7985 8.25387Z" fill="#29ABE2"/>
<path d="M71.4401 22.3784H68.2598V5.60584H71.3113V7.51141C71.9751 6.75952 72.7062 6.2081 73.5041 5.85734C74.3015 5.50658 75.2146 5.3312 76.2422 5.3312C78.5555 5.3312 80.3301 5.97685 81.5671 7.26746C82.8034 8.55869 83.4222 10.409 83.4222 12.8182V22.3784H80.2259V13.4736C80.2259 11.6947 79.878 10.3761 79.1819 9.5167C78.4854 8.65796 77.4095 8.2282 75.9533 8.2282C74.3683 8.2282 73.2202 8.73406 72.5083 9.74528C71.7958 10.7569 71.4401 12.4269 71.4401 14.7544V22.3784Z" fill="#29ABE2"/>
<path d="M83.6001 22.5565H80.0481V13.4736C80.0481 11.745 79.7106 10.4512 79.044 9.6285C78.3864 8.81741 77.3468 8.40577 75.9536 8.40577C74.4372 8.40577 73.3274 8.89085 72.6538 9.84773C71.9665 10.8238 71.618 12.4745 71.618 14.7544V22.5565H68.0825V5.4276H71.4892V7.06146C72.086 6.45859 72.7376 5.99982 73.4325 5.69456C74.2491 5.33562 75.1945 5.15365 76.2424 5.15365C78.5952 5.15365 80.4295 5.82331 81.6956 7.14474C82.9593 8.46384 83.6001 10.3728 83.6001 12.8182V22.5565ZM80.4038 22.2009H83.2444V12.8182C83.2444 10.4676 82.6371 8.64143 81.4391 7.39082C80.2427 6.14169 78.4944 5.50876 76.2424 5.50876C75.2439 5.50876 74.3467 5.68087 73.5756 6.01955C72.8057 6.35826 72.0887 6.8997 71.4447 7.62921L71.134 7.9816V5.78337H68.4376V22.2009H71.2623V14.7544C71.2623 12.4 71.6328 10.6802 72.3627 9.64328C73.107 8.58612 74.315 8.05062 75.9536 8.05062C77.4591 8.05062 78.5914 8.50605 79.3203 9.40486C80.0392 10.2922 80.4038 11.6612 80.4038 13.4736V22.2009Z" fill="#29ABE2"/>
<path d="M7.15427 29.1889C7.07971 29.3084 7.0008 29.3983 6.9186 29.4586C6.83639 29.5182 6.73007 29.5478 6.60018 29.5478C6.48565 29.5478 6.36178 29.5123 6.22967 29.4394C6.09764 29.3671 5.948 29.2859 5.78083 29.1961C5.61371 29.1067 5.42243 29.0255 5.20815 28.9533C4.99332 28.8809 4.74887 28.8447 4.47429 28.8447C4.00019 28.8447 3.64725 28.9456 3.41545 29.1478C3.18305 29.35 3.0669 29.6229 3.0669 29.9671C3.0669 30.1869 3.137 30.3694 3.27679 30.5135C3.41653 30.6588 3.59959 30.7831 3.82704 30.8885C4.05393 30.9931 4.31368 31.089 4.6053 31.1761C4.89735 31.2638 5.19555 31.3609 5.50026 31.4682C5.80441 31.5756 6.10251 31.7017 6.39469 31.8464C6.68676 31.9911 6.94603 32.1757 7.17293 32.4004C7.40034 32.6247 7.58339 32.8981 7.72313 33.2199C7.86288 33.5421 7.93306 33.9301 7.93306 34.3839C7.93306 34.8881 7.84535 35.36 7.67108 35.7989C7.49625 36.238 7.24304 36.6211 6.91093 36.9477C6.57934 37.2749 6.16995 37.5319 5.68327 37.7188C5.19664 37.9062 4.64417 38 4.0254 38C3.68563 38 3.34035 37.9649 2.98849 37.8947C2.63668 37.8251 2.29577 37.7265 1.96641 37.5994C1.63703 37.4722 1.3279 37.3208 1.03853 37.1467C0.749191 36.9718 0.497041 36.7773 0.282227 36.5623L1.03087 35.3797C1.08565 35.2898 1.16293 35.2175 1.26325 35.1627C1.36298 35.1079 1.46984 35.0805 1.58495 35.0805C1.73456 35.0805 1.88529 35.1276 2.03766 35.2224C2.18996 35.3173 2.3621 35.4219 2.55445 35.537C2.74627 35.6516 2.96712 35.7568 3.21705 35.8516C3.46638 35.9465 3.76071 35.9935 4.09997 35.9935C4.55925 35.9935 4.91597 35.8926 5.17086 35.6904C5.42515 35.4883 5.55233 35.1676 5.55233 34.7287C5.55233 34.4738 5.48269 34.2666 5.34298 34.1071C5.20322 33.9477 5.01959 33.815 4.79267 33.7103C4.56526 33.6057 4.30713 33.513 4.01776 33.4336C3.72839 33.3536 3.43135 33.2647 3.12718 33.1678C2.82244 33.0703 2.52537 32.9507 2.23602 32.8082C1.94664 32.6657 1.68856 32.4789 1.46107 32.2471C1.2342 32.0147 1.05059 31.7253 0.91085 31.3784C0.771083 31.0315 0.701502 30.6035 0.701502 30.0948C0.701502 29.6855 0.783698 29.2859 0.948643 28.8967C1.11306 28.5077 1.3553 28.1607 1.67478 27.8565C1.99377 27.5518 2.38563 27.3085 2.84988 27.1266C3.31404 26.944 3.84566 26.8531 4.44467 26.8531C4.77902 26.8531 5.10456 26.8794 5.42132 26.932C5.73808 26.9841 6.03896 27.0619 6.32342 27.1638C6.60784 27.2664 6.87366 27.3885 7.12086 27.5305C7.368 27.673 7.58832 27.834 7.78341 28.0133L7.15427 29.1889Z" fill="#29ABE2"/>
<path d="M17.7818 34.2343V37.88H15.2515V26.9732H19.0993C19.8677 26.9732 20.5281 27.0642 21.0795 27.2462C21.6308 27.4287 22.0852 27.6791 22.4419 27.9987C22.7987 28.3181 23.0617 28.6946 23.2317 29.1293C23.401 29.5633 23.486 30.0325 23.486 30.5361C23.486 31.0803 23.3988 31.5796 23.224 32.0334C23.0492 32.4877 22.7823 32.8769 22.4233 33.2013C22.0637 33.5258 21.6083 33.7789 21.0569 33.961C20.5056 34.1434 19.8529 34.2343 19.0993 34.2343H17.7818ZM17.7818 32.3255H19.0993C19.758 32.3255 20.2322 32.1683 20.5215 31.8542C20.8109 31.5396 20.9556 31.1006 20.9556 30.5361C20.9556 30.2867 20.9183 30.0599 20.8438 29.8549C20.7687 29.6505 20.6552 29.4745 20.5029 29.327C20.3505 29.1802 20.1587 29.0667 19.9263 28.9868C19.6945 28.9074 19.4189 28.8667 19.0993 28.8667H17.7818V32.3255Z" fill="#29ABE2"/>
<path d="M39.7449 37.88H37.7835C37.5637 37.88 37.3829 37.8291 37.2409 37.7266C37.0984 37.6246 36.9998 37.4936 36.945 37.3336L36.3016 35.4324H32.1539L31.5105 37.3336C31.46 37.4734 31.3631 37.5994 31.2184 37.7118C31.0737 37.8241 30.8966 37.88 30.6868 37.88H28.7104L32.9327 26.9732H35.5227L39.7449 37.88ZM32.7381 33.7104H35.7173L34.7144 30.7235C34.6493 30.5339 34.5731 30.3109 34.4859 30.0533C34.3988 29.7968 34.3127 29.5185 34.2278 29.2186C34.1477 29.5233 34.0654 29.805 33.9806 30.0648C33.8957 30.324 33.8161 30.5487 33.7411 30.7383L32.7381 33.7104Z" fill="#29ABE2"/>
<path d="M53.5641 35.058C53.6238 35.058 53.6842 35.0689 53.7438 35.0915C53.8036 35.1139 53.8611 35.1528 53.916 35.2076L54.9189 36.2631C54.4799 36.837 53.9298 37.27 53.2687 37.562C52.6072 37.8536 51.8246 38 50.9214 38C50.0933 38 49.3506 37.8586 48.6946 37.5768C48.0381 37.2951 47.4818 36.9054 47.0252 36.4089C46.5688 35.9124 46.2181 35.3238 45.9735 34.6426C45.7286 33.9609 45.6064 33.2214 45.6064 32.4224C45.6064 31.6092 45.7461 30.8621 46.0257 30.1809C46.3051 29.4997 46.6959 28.9115 47.1974 28.4178C47.6989 27.9235 48.299 27.5392 48.9978 27.2646C49.6965 26.9907 50.4676 26.8531 51.3111 26.8531C51.7199 26.8531 52.1057 26.8893 52.4675 26.9616C52.8291 27.034 53.1673 27.1337 53.4819 27.2614C53.7965 27.3885 54.0858 27.5409 54.3501 27.7179C54.6147 27.8949 54.8493 28.0911 55.0537 28.3054L54.2004 29.4509C54.1456 29.521 54.0809 29.5846 54.0059 29.6416C53.9308 29.6991 53.8261 29.7276 53.6913 29.7276C53.6014 29.7276 53.5164 29.7079 53.4369 29.6679C53.3569 29.6278 53.272 29.5791 53.1821 29.5222C53.0928 29.4646 52.9942 29.4021 52.8867 29.3347C52.7793 29.2672 52.6521 29.2053 52.5048 29.1477C52.3578 29.0903 52.1852 29.0414 51.9884 29.0015C51.7911 28.962 51.5605 28.9417 51.2957 28.9417C50.8365 28.9417 50.4177 29.0228 50.0385 29.1851C49.6587 29.3473 49.3331 29.5791 49.0613 29.8811C48.7894 30.1831 48.5774 30.5486 48.425 30.9778C48.2726 31.4074 48.1965 31.8886 48.1965 32.4224C48.1965 32.982 48.2726 33.4785 48.425 33.9125C48.5774 34.3466 48.7846 34.7122 49.0465 35.0092C49.3085 35.3063 49.6143 35.532 49.9635 35.6866C50.3125 35.8411 50.6868 35.9184 51.0864 35.9184C51.316 35.9184 51.5254 35.9074 51.7151 35.8849C51.9046 35.8626 52.0805 35.8236 52.2428 35.7688C52.4049 35.714 52.5595 35.6428 52.7069 35.5556C52.8544 35.4685 53.0029 35.36 53.1526 35.2301C53.2123 35.1803 53.2769 35.1391 53.3471 35.1062C53.4167 35.0739 53.4896 35.058 53.5641 35.058Z" fill="#29ABE2"/>
<path d="M69.1555 26.9732V28.9194H64.6791V31.4645H68.1077V33.3362H64.6791V35.9339H69.1555V37.88H62.1338V26.9732H69.1555Z" fill="#29ABE2"/>
<path d="M82.7353 29.1889C82.6607 29.3084 82.5824 29.3983 82.4997 29.4586C82.4174 29.5182 82.3111 29.5478 82.1818 29.5478C82.0667 29.5478 81.9434 29.5122 81.8113 29.4394C81.6787 29.367 81.529 29.2859 81.3619 29.1961C81.1947 29.1067 81.004 29.0255 80.7892 28.9533C80.5744 28.8809 80.3299 28.8447 80.0555 28.8447C79.5812 28.8447 79.2283 28.9456 78.9965 29.1477C78.7641 29.35 78.6485 29.6229 78.6485 29.9671C78.6485 30.1869 78.7181 30.3694 78.8579 30.5135C78.9976 30.6588 79.1813 30.7831 79.408 30.8885C79.6351 30.993 79.8948 31.089 80.1869 31.1761C80.4784 31.2638 80.7767 31.3609 81.0813 31.4682C81.3855 31.5756 81.6836 31.7017 81.9756 31.8464C82.2679 31.9911 82.527 32.1757 82.7545 32.4004C82.9814 32.6247 83.1644 32.8981 83.3047 33.2199C83.444 33.5421 83.5141 33.9301 83.5141 34.3839C83.5141 34.8881 83.427 35.36 83.2522 35.7989C83.0773 36.238 82.8241 36.6211 82.492 36.9477C82.1604 37.2749 81.751 37.5319 81.2643 37.7188C80.7777 37.9062 80.2253 38 79.6065 38C79.2672 38 78.9215 37.9648 78.5695 37.8947C78.2177 37.8251 77.8773 37.7265 77.548 37.5994C77.2186 37.4722 76.909 37.3208 76.6197 37.1467C76.3303 36.9718 76.0782 36.7772 75.8633 36.5623L76.612 35.3797C76.6668 35.2898 76.744 35.2174 76.8443 35.1627C76.9441 35.1079 77.0509 35.0805 77.166 35.0805C77.3156 35.0805 77.4669 35.1276 77.6187 35.2224C77.7711 35.3173 77.9432 35.4219 78.1355 35.537C78.3274 35.6515 78.5481 35.7568 78.7982 35.8515C79.0475 35.9465 79.3418 35.9935 79.6815 35.9935C80.1403 35.9935 80.4971 35.8926 80.7519 35.6904C81.0062 35.4883 81.1333 35.1676 81.1333 34.7287C81.1333 34.4737 81.0638 34.2666 80.924 34.1071C80.7843 33.9477 80.6006 33.815 80.3738 33.7103C80.1469 33.6057 79.8882 33.513 79.5988 33.4336C79.3095 33.3536 79.0124 33.2647 78.7082 33.1678C78.4035 33.0703 78.1065 32.9507 77.817 32.8082C77.5277 32.6657 77.2695 32.4788 77.0427 32.2471C76.8153 32.0147 76.6317 31.7253 76.4925 31.3784C76.3526 31.0314 76.2826 30.6035 76.2826 30.0948C76.2826 29.6854 76.3647 29.2859 76.5298 28.8967C76.6941 28.5077 76.9364 28.1607 77.2559 27.8565C77.5753 27.5518 77.9667 27.3085 78.4309 27.1266C78.8951 26.944 79.4267 26.8531 80.0257 26.8531C80.3601 26.8531 80.6856 26.8794 81.0023 26.932C81.3192 26.9841 81.6201 27.0619 81.9045 27.1638C82.1889 27.2664 82.4548 27.3885 82.7019 27.5305C82.9491 27.673 83.1699 27.834 83.3644 28.0133L82.7353 29.1889Z" fill="#29ABE2"/>
</svg>
