<svg width="128" height="56" viewBox="0 0 128 56" fill="none" xmlns="http://www.w3.org/2000/svg">
<path d="M14.5232 44.4149C12.0642 44.4149 9.85116 43.8771 7.884 42.8013C5.91684 41.6947 4.36463 40.1425 3.22737 38.1446C2.12084 36.1467 1.56758 33.8415 1.56758 31.2288C1.56758 28.6162 2.13621 26.311 3.27347 24.3131C4.44147 22.3152 6.02442 20.7783 8.02231 19.7025C10.0202 18.596 12.2486 18.0427 14.7076 18.0427C17.1665 18.0427 19.3949 18.596 21.3928 19.7025C23.3907 20.7783 24.9583 22.3152 26.0956 24.3131C27.2636 26.311 27.8476 28.6162 27.8476 31.2288C27.8476 33.8415 27.2482 36.1467 26.0495 38.1446C24.8815 40.1425 23.2832 41.6947 21.2545 42.8013C19.2566 43.8771 17.0128 44.4149 14.5232 44.4149ZM14.5232 38.7901C15.6912 38.7901 16.7823 38.5135 17.7966 37.9602C18.8417 37.3762 19.6716 36.5156 20.2863 35.3783C20.901 34.2411 21.2084 32.8579 21.2084 31.2288C21.2084 28.8006 20.5629 26.9411 19.272 25.6501C18.0118 24.3284 16.4596 23.6676 14.6154 23.6676C12.7712 23.6676 11.2189 24.3284 9.95873 25.6501C8.72926 26.9411 8.11452 28.8006 8.11452 31.2288C8.11452 33.6571 8.71389 35.532 9.91263 36.8537C11.1421 38.1446 12.6789 38.7901 14.5232 38.7901Z" fill="black"/>
<path d="M84.9021 44.4149C82.4431 44.4149 80.2301 43.8771 78.2629 42.8013C76.2957 41.6947 74.7435 40.1425 73.6063 38.1446C72.4997 36.1467 71.9465 33.8415 71.9465 31.2288C71.9465 28.6162 72.5151 26.311 73.6524 24.3131C74.8204 22.3152 76.4033 20.7783 78.4012 19.7025C80.3991 18.596 82.6275 18.0427 85.0865 18.0427C87.5454 18.0427 89.7738 18.596 91.7717 19.7025C93.7696 20.7783 95.3372 22.3152 96.4745 24.3131C97.6425 26.311 98.2265 28.6162 98.2265 31.2288C98.2265 33.8415 97.6271 36.1467 96.4284 38.1446C95.2604 40.1425 93.6621 41.6947 91.6334 42.8013C89.6355 43.8771 87.3917 44.4149 84.9021 44.4149ZM84.9021 38.7901C86.0701 38.7901 87.1612 38.5135 88.1755 37.9602C89.2206 37.3762 90.0505 36.5156 90.6652 35.3783C91.28 34.2411 91.5873 32.8579 91.5873 31.2288C91.5873 28.8006 90.9418 26.9411 89.6509 25.6501C88.3907 24.3284 86.8385 23.6676 84.9943 23.6676C83.1501 23.6676 81.5979 24.3284 80.3376 25.6501C79.1082 26.9411 78.4934 28.8006 78.4934 31.2288C78.4934 33.6571 79.0928 35.532 80.2915 36.8537C81.521 38.1446 83.0579 38.7901 84.9021 38.7901Z" fill="black"/>
<path d="M101.311 31.2288C101.311 28.5855 101.848 26.2802 102.924 24.3131C104 22.3152 105.491 20.7783 107.396 19.7025C109.302 18.596 111.484 18.0427 113.943 18.0427C117.109 18.0427 119.722 18.8419 121.781 20.4402C123.871 22.0078 125.27 24.2208 125.977 27.0794H119.015C118.646 25.9728 118.016 25.1122 117.125 24.4975C116.264 23.852 115.188 23.5293 113.897 23.5293C112.053 23.5293 110.593 24.2055 109.517 25.5579C108.441 26.8796 107.904 28.7699 107.904 31.2288C107.904 33.6571 108.441 35.5474 109.517 36.8998C110.593 38.2215 112.053 38.8823 113.897 38.8823C116.51 38.8823 118.216 37.7143 119.015 35.3783H125.977C125.27 38.1446 123.871 40.3423 121.781 41.9714C119.691 43.6004 117.079 44.4149 113.943 44.4149C111.484 44.4149 109.302 43.8771 107.396 42.8013C105.491 41.6947 104 40.1579 102.924 38.1907C101.848 36.1928 101.311 33.8722 101.311 31.2288Z" fill="black"/>
<path d="M30.3103 23.479L30.3074 30.558C30.3064 30.038 30.3064 28.971 30.3083 26.055C30.3093 25.039 30.3103 24.246 30.3103 23.624C30.3114 22.475 30.3103 21.904 30.3103 21.569C30.3114 18.367 32.0323 15.292 34.8274 13.688C37.6134 12.087 41.0054 12.072 43.7933 13.679C49.4584 16.942 53.9913 19.553 64.1893 25.426C66.9784 27.033 68.6504 29.977 68.6483 33.179C68.6473 34.759 68.2284 36.306 67.4443 37.655C66.6614 39.005 65.5283 40.133 64.1554 40.922C56.8224 45.133 50.1433 48.97 43.7413 52.648C40.9534 54.248 37.5693 54.25 34.7823 52.645C31.9963 51.04 30.3043 48.125 30.3074 44.92C30.3074 43.781 30.3074 42.212 30.3074 38.191C30.3064 34.167 30.3064 32.598 30.3074 31.457L30.3103 23.479Z" fill="#23A7B6"/>
</svg>
