<svg width="322" height="32" viewBox="0 0 322 32" fill="none" xmlns="http://www.w3.org/2000/svg">
<rect width="32" height="32" rx="16" fill="#DADADC"/>
<path d="M13.1776 12.4V10.336H17.0336V22H14.7296V12.4H13.1776Z" fill="#2E303A"/>
<rect x="40" width="32" height="32" rx="16" fill="#DADADC"/>
<path d="M52.4583 19.472C53.4823 18.6187 54.2983 17.9093 54.9062 17.344C55.5143 16.768 56.0209 16.1707 56.4263 15.552C56.8316 14.9333 57.0343 14.3253 57.0343 13.728C57.0343 13.184 56.9063 12.7573 56.6503 12.448C56.3943 12.1387 55.9996 11.984 55.4663 11.984C54.9329 11.984 54.5223 12.1653 54.2343 12.528C53.9463 12.88 53.7969 13.3653 53.7863 13.984H51.6103C51.6529 12.704 52.0316 11.7333 52.7463 11.072C53.4716 10.4107 54.3889 10.08 55.4983 10.08C56.7143 10.08 57.6476 10.4053 58.2983 11.056C58.9489 11.696 59.2743 12.544 59.2743 13.6C59.2743 14.432 59.0503 15.2267 58.6023 15.984C58.1543 16.7413 57.6423 17.4027 57.0663 17.968C56.4903 18.5227 55.7383 19.1947 54.8103 19.984H59.5303V21.84H51.6263V20.176L52.4583 19.472Z" fill="#2E303A"/>
<rect x="80" width="32" height="32" rx="16" fill="#F35050"/>
<path d="M91.5909 13.408C91.6443 12.3413 92.0176 11.52 92.7109 10.944C93.4149 10.3573 94.3376 10.064 95.4789 10.064C96.2576 10.064 96.9243 10.2027 97.4789 10.48C98.0336 10.7467 98.4496 11.1147 98.7269 11.584C99.0149 12.0427 99.1589 12.5653 99.1589 13.152C99.1589 13.824 98.9829 14.3947 98.6309 14.864C98.2896 15.3227 97.8789 15.632 97.3989 15.792V15.856C98.0176 16.048 98.4976 16.3893 98.8389 16.88C99.1909 17.3707 99.3669 18 99.3669 18.768C99.3669 19.408 99.2176 19.9787 98.9189 20.48C98.6309 20.9813 98.1989 21.376 97.6229 21.664C97.0576 21.9413 96.3749 22.08 95.5749 22.08C94.3696 22.08 93.3883 21.776 92.6309 21.168C91.8736 20.56 91.4736 19.664 91.4309 18.48H93.6069C93.6283 19.0027 93.8043 19.424 94.1349 19.744C94.4763 20.0533 94.9403 20.208 95.5269 20.208C96.0709 20.208 96.4869 20.0587 96.7749 19.76C97.0736 19.4507 97.2229 19.056 97.2229 18.576C97.2229 17.936 97.0203 17.4773 96.6149 17.2C96.2096 16.9227 95.5803 16.784 94.7269 16.784H94.2629V14.944H94.7269C96.2416 14.944 96.9989 14.4373 96.9989 13.424C96.9989 12.9653 96.8603 12.608 96.5829 12.352C96.3163 12.096 95.9269 11.968 95.4149 11.968C94.9136 11.968 94.5243 12.1067 94.2469 12.384C93.9803 12.6507 93.8256 12.992 93.7829 13.408H91.5909Z" fill="#F8F8F8"/>
<path d="M128.688 14.112C128.688 15.04 128.368 15.8133 127.728 16.432C127.099 17.04 126.133 17.344 124.832 17.344H122.688V22H121.232V10.848H124.832C126.091 10.848 127.045 11.152 127.696 11.76C128.357 12.368 128.688 13.152 128.688 14.112ZM124.832 16.144C125.643 16.144 126.24 15.968 126.624 15.616C127.008 15.264 127.2 14.7627 127.2 14.112C127.2 12.736 126.411 12.048 124.832 12.048H122.688V16.144H124.832ZM131.954 12.032V15.76H136.018V16.96H131.954V20.8H136.498V22H130.498V10.832H136.498V12.032H131.954ZM144.573 22L141.917 17.44H140.157V22H138.701V10.848H142.301C143.143 10.848 143.853 10.992 144.429 11.28C145.015 11.568 145.453 11.9573 145.741 12.448C146.029 12.9387 146.173 13.4987 146.173 14.128C146.173 14.896 145.949 15.5733 145.501 16.16C145.063 16.7467 144.402 17.136 143.517 17.328L146.317 22H144.573ZM140.157 16.272H142.301C143.09 16.272 143.682 16.08 144.077 15.696C144.471 15.3013 144.669 14.7787 144.669 14.128C144.669 13.4667 144.471 12.9547 144.077 12.592C143.693 12.2293 143.101 12.048 142.301 12.048H140.157V16.272ZM151.971 22.112C151.235 22.112 150.574 21.984 149.987 21.728C149.411 21.4613 148.958 21.0987 148.627 20.64C148.296 20.1707 148.126 19.632 148.115 19.024H149.667C149.72 19.5467 149.934 19.9893 150.307 20.352C150.691 20.704 151.246 20.88 151.971 20.88C152.664 20.88 153.208 20.7093 153.603 20.368C154.008 20.016 154.211 19.568 154.211 19.024C154.211 18.5973 154.094 18.2507 153.859 17.984C153.624 17.7173 153.331 17.5147 152.979 17.376C152.627 17.2373 152.152 17.088 151.555 16.928C150.819 16.736 150.227 16.544 149.779 16.352C149.342 16.16 148.963 15.8613 148.643 15.456C148.334 15.04 148.179 14.4853 148.179 13.792C148.179 13.184 148.334 12.6453 148.643 12.176C148.952 11.7067 149.384 11.344 149.939 11.088C150.504 10.832 151.15 10.704 151.875 10.704C152.92 10.704 153.774 10.9653 154.435 11.488C155.107 12.0107 155.486 12.704 155.571 13.568H153.971C153.918 13.1413 153.694 12.768 153.299 12.448C152.904 12.1173 152.382 11.952 151.731 11.952C151.123 11.952 150.627 12.112 150.243 12.432C149.859 12.7413 149.667 13.1787 149.667 13.744C149.667 14.1493 149.779 14.48 150.003 14.736C150.238 14.992 150.52 15.1893 150.851 15.328C151.192 15.456 151.667 15.6053 152.275 15.776C153.011 15.9787 153.603 16.1813 154.051 16.384C154.499 16.576 154.883 16.88 155.203 17.296C155.523 17.7013 155.683 18.256 155.683 18.96C155.683 19.504 155.539 20.016 155.251 20.496C154.963 20.976 154.536 21.3653 153.971 21.664C153.406 21.9627 152.739 22.112 151.971 22.112ZM162.882 22.112C161.847 22.112 160.903 21.872 160.05 21.392C159.196 20.9013 158.519 20.224 158.018 19.36C157.527 18.4853 157.282 17.504 157.282 16.416C157.282 15.328 157.527 14.352 158.018 13.488C158.519 12.6133 159.196 11.936 160.05 11.456C160.903 10.9653 161.847 10.72 162.882 10.72C163.927 10.72 164.876 10.9653 165.73 11.456C166.583 11.936 167.255 12.608 167.746 13.472C168.236 14.336 168.482 15.3173 168.482 16.416C168.482 17.5147 168.236 18.496 167.746 19.36C167.255 20.224 166.583 20.9013 165.73 21.392C164.876 21.872 163.927 22.112 162.882 22.112ZM162.882 20.848C163.66 20.848 164.359 20.6667 164.978 20.304C165.607 19.9413 166.098 19.424 166.45 18.752C166.812 18.08 166.994 17.3013 166.994 16.416C166.994 15.52 166.812 14.7413 166.45 14.08C166.098 13.408 165.612 12.8907 164.994 12.528C164.375 12.1653 163.671 11.984 162.882 11.984C162.092 11.984 161.388 12.1653 160.77 12.528C160.151 12.8907 159.66 13.408 159.298 14.08C158.946 14.7413 158.77 15.52 158.77 16.416C158.77 17.3013 158.946 18.08 159.298 18.752C159.66 19.424 160.151 19.9413 160.77 20.304C161.399 20.6667 162.103 20.848 162.882 20.848ZM179.172 22H177.716L171.86 13.12V22H170.404V10.832H171.86L177.716 19.696V10.832H179.172V22ZM188.246 19.52H183.382L182.486 22H180.95L184.982 10.912H186.662L190.678 22H189.142L188.246 19.52ZM187.83 18.336L185.814 12.704L183.798 18.336H187.83ZM193.891 20.816H197.795V22H192.435V10.848H193.891V20.816ZM214.919 10.928V22H213.463V13.744L209.783 22H208.759L205.063 13.728V22H203.607V10.928H205.175L209.271 20.08L213.367 10.928H214.919ZM223.98 19.52H219.116L218.22 22H216.684L220.716 10.912H222.396L226.412 22H224.876L223.98 19.52ZM223.564 18.336L221.548 12.704L219.532 18.336H223.564ZM235.626 14.112C235.626 15.04 235.306 15.8133 234.666 16.432C234.036 17.04 233.071 17.344 231.77 17.344H229.626V22H228.17V10.848H231.77C233.028 10.848 233.983 11.152 234.634 11.76C235.295 12.368 235.626 13.152 235.626 14.112ZM231.77 16.144C232.58 16.144 233.178 15.968 233.562 15.616C233.946 15.264 234.138 14.7627 234.138 14.112C234.138 12.736 233.348 12.048 231.77 12.048H229.626V16.144H231.77ZM244.891 14.112C244.891 15.04 244.571 15.8133 243.931 16.432C243.302 17.04 242.336 17.344 241.035 17.344H238.891V22H237.435V10.848H241.035C242.294 10.848 243.248 11.152 243.899 11.76C244.56 12.368 244.891 13.152 244.891 14.112ZM241.035 16.144C241.846 16.144 242.443 15.968 242.827 15.616C243.211 15.264 243.403 14.7627 243.403 14.112C243.403 12.736 242.614 12.048 241.035 12.048H238.891V16.144H241.035ZM248.157 10.848V22H246.701V10.848H248.157ZM259.406 22H257.95L252.094 13.12V22H250.638V10.832H252.094L257.95 19.696V10.832H259.406V22ZM270.336 14.08C270.027 13.4293 269.579 12.928 268.992 12.576C268.406 12.2133 267.723 12.032 266.944 12.032C266.166 12.032 265.462 12.2133 264.832 12.576C264.214 12.928 263.723 13.44 263.36 14.112C263.008 14.7733 262.832 15.5413 262.832 16.416C262.832 17.2907 263.008 18.0587 263.36 18.72C263.723 19.3813 264.214 19.8933 264.832 20.256C265.462 20.608 266.166 20.784 266.944 20.784C268.032 20.784 268.928 20.4587 269.632 19.808C270.336 19.1573 270.747 18.2773 270.864 17.168H266.416V15.984H272.416V17.104C272.331 18.0213 272.043 18.864 271.552 19.632C271.062 20.3893 270.416 20.992 269.616 21.44C268.816 21.8773 267.926 22.096 266.944 22.096C265.91 22.096 264.966 21.856 264.112 21.376C263.259 20.8853 262.582 20.208 262.08 19.344C261.59 18.48 261.344 17.504 261.344 16.416C261.344 15.328 261.59 14.352 262.08 13.488C262.582 12.6133 263.259 11.936 264.112 11.456C264.966 10.9653 265.91 10.72 266.944 10.72C268.128 10.72 269.174 11.0133 270.08 11.6C270.998 12.1867 271.664 13.0133 272.08 14.08H270.336Z" fill="#F35050"/>
<rect x="290" width="32" height="32" rx="16" fill="#DADADC"/>
<path d="M300.963 19.728V17.968L306.195 10.48H308.803V17.776H310.211V19.728H308.803V22H306.563V19.728H300.963ZM306.707 12.88L303.427 17.776H306.707V12.88Z" fill="#2E303A"/>
</svg>
