<svg width="311" height="29" viewBox="0 0 311 29" fill="none" xmlns="http://www.w3.org/2000/svg">
<rect x="0.844238" y="0.120605" width="27.4073" height="27.4073" rx="13.7036" fill="#DADADC"/>
<path d="M12.1306 10.3244V8.55667H15.4332V18.5466H13.4599V10.3244H12.1306Z" fill="#2E303A"/>
<rect x="35.1035" y="0.120605" width="27.4073" height="27.4073" rx="13.7036" fill="#DADADC"/>
<path d="M45.7738 16.3815C46.6509 15.6506 47.3497 15.0431 47.8705 14.5589C48.3912 14.0655 48.8252 13.5539 49.1723 13.0241C49.5195 12.4942 49.6931 11.9734 49.6931 11.4618C49.6931 10.9959 49.5834 10.6305 49.3642 10.3656C49.1449 10.1006 48.8069 9.96815 48.3501 9.96815C47.8933 9.96815 47.5416 10.1235 47.2949 10.4341C47.0483 10.7356 46.9204 11.1512 46.9112 11.6811H45.0475C45.0841 10.5848 45.4084 9.75346 46.0205 9.18704C46.6417 8.62062 47.4274 8.33741 48.3775 8.33741C49.419 8.33741 50.2184 8.61605 50.7757 9.17333C51.3329 9.72148 51.6116 10.4478 51.6116 11.3522C51.6116 12.0648 51.4197 12.7454 51.036 13.3941C50.6523 14.0427 50.2138 14.6091 49.7205 15.0933C49.2271 15.5684 48.5831 16.1439 47.7883 16.82H51.8308V18.4096H45.0612V16.9844L45.7738 16.3815Z" fill="#2E303A"/>
<rect x="69.3628" y="0.120605" width="27.4073" height="27.4073" rx="13.7036" fill="#2E303A"/>
<path d="M79.2903 11.1878C79.336 10.2742 79.6557 9.57074 80.2495 9.07741C80.8525 8.57494 81.6427 8.32371 82.6203 8.32371C83.2872 8.32371 83.8582 8.44247 84.3332 8.68C84.8083 8.9084 85.1646 9.22358 85.4021 9.62555C85.6488 10.0184 85.7721 10.466 85.7721 10.9685C85.7721 11.5441 85.6214 12.0328 85.3199 12.4348C85.0275 12.8276 84.6758 13.0926 84.2647 13.2296V13.2844C84.7946 13.4489 85.2057 13.7412 85.498 14.1615C85.7995 14.5817 85.9502 15.1207 85.9502 15.7785C85.9502 16.3266 85.8223 16.8154 85.5665 17.2448C85.3199 17.6742 84.9499 18.0122 84.4565 18.2589C83.9724 18.4964 83.3877 18.6151 82.7025 18.6151C81.6701 18.6151 80.8296 18.3548 80.181 17.834C79.5324 17.3133 79.1898 16.5459 79.1532 15.5318H81.0169C81.0352 15.9795 81.1859 16.3403 81.4692 16.6144C81.7615 16.8794 82.1589 17.0118 82.6614 17.0118C83.1273 17.0118 83.4836 16.8839 83.7303 16.6281C83.9861 16.3632 84.114 16.0252 84.114 15.614C84.114 15.0659 83.9404 14.6731 83.5932 14.4355C83.2461 14.198 82.707 14.0792 81.9762 14.0792H81.5788V12.5033H81.9762C83.2735 12.5033 83.9221 12.0694 83.9221 11.2015C83.9221 10.8086 83.8033 10.5026 83.5658 10.2833C83.3374 10.0641 83.004 9.95444 82.5654 9.95444C82.1361 9.95444 81.8026 10.0732 81.5651 10.3107C81.3367 10.5391 81.2042 10.8315 81.1677 11.1878H79.2903Z" fill="#F8F8F8"/>
<path d="M111.31 11.4332C111.31 11.9174 111.196 12.3742 110.967 12.8036C110.739 13.233 110.373 13.5847 109.871 13.8588C109.368 14.1237 108.724 14.2562 107.939 14.2562H106.212V18.1206H104.65V8.59657H107.939C108.67 8.59657 109.286 8.72447 109.789 8.98027C110.3 9.22694 110.679 9.56496 110.926 9.99434C111.182 10.4237 111.31 10.9033 111.31 11.4332ZM107.939 12.9817C108.533 12.9817 108.976 12.8493 109.268 12.5843C109.56 12.3103 109.706 11.9266 109.706 11.4332C109.706 10.3917 109.117 9.87101 107.939 9.87101H106.212V12.9817H107.939ZM114.362 9.8573V12.6528H117.651V13.9273H114.362V16.8462H118.062V18.1206H112.8V8.58286H118.062V9.8573H114.362ZM124.933 18.1206L122.741 14.311H121.548V18.1206H119.986V8.59657H123.275C124.006 8.59657 124.623 8.72447 125.125 8.98027C125.637 9.23607 126.016 9.57866 126.262 10.008C126.518 10.4374 126.646 10.9171 126.646 11.4469C126.646 12.0682 126.463 12.6346 126.098 13.1462C125.742 13.6486 125.189 13.9912 124.44 14.174L126.797 18.1206H124.933ZM121.548 13.064H123.275C123.86 13.064 124.298 12.9178 124.591 12.6254C124.892 12.3331 125.043 11.9403 125.043 11.4469C125.043 10.9536 124.897 10.5699 124.604 10.2958C124.312 10.0126 123.869 9.87101 123.275 9.87101H121.548V13.064ZM131.783 18.2165C131.143 18.2165 130.568 18.1069 130.056 17.8876C129.544 17.6592 129.143 17.3395 128.85 16.9284C128.558 16.5173 128.412 16.0377 128.412 15.4895H130.083C130.12 15.9006 130.28 16.2386 130.563 16.5036C130.855 16.7685 131.262 16.901 131.783 16.901C132.322 16.901 132.742 16.7731 133.043 16.5173C133.345 16.2523 133.496 15.9143 133.496 15.5032C133.496 15.1835 133.4 14.9231 133.208 14.7221C133.025 14.5211 132.792 14.3658 132.509 14.2562C132.235 14.1465 131.851 14.0278 131.358 13.8999C130.737 13.7354 130.23 13.571 129.837 13.4065C129.453 13.233 129.124 12.968 128.85 12.6117C128.576 12.2554 128.439 11.7804 128.439 11.1866C128.439 10.6384 128.576 10.1588 128.85 9.74768C129.124 9.33657 129.508 9.02138 130.001 8.80212C130.495 8.58286 131.066 8.47324 131.714 8.47324C132.637 8.47324 133.391 8.7062 133.975 9.17212C134.569 9.62891 134.898 10.2593 134.962 11.0632H133.235C133.208 10.7161 133.043 10.4192 132.742 10.1725C132.441 9.92582 132.043 9.80249 131.55 9.80249C131.102 9.80249 130.737 9.91669 130.453 10.1451C130.17 10.3735 130.029 10.7024 130.029 11.1317C130.029 11.4241 130.115 11.6662 130.289 11.858C130.472 12.0408 130.7 12.1869 130.974 12.2966C131.248 12.4062 131.623 12.5249 132.098 12.6528C132.728 12.8264 133.24 13 133.633 13.1736C134.035 13.3472 134.373 13.6167 134.647 13.9821C134.93 14.3384 135.072 14.818 135.072 15.421C135.072 15.9052 134.939 16.362 134.674 16.7914C134.418 17.2207 134.039 17.5679 133.537 17.8328C133.043 18.0886 132.459 18.2165 131.783 18.2165ZM141.259 18.2165C140.373 18.2165 139.555 18.011 138.806 17.5999C138.066 17.1796 137.477 16.5995 137.038 15.8595C136.609 15.1104 136.394 14.2699 136.394 13.338C136.394 12.4062 136.609 11.5703 137.038 10.8303C137.477 10.0903 138.066 9.51471 138.806 9.1036C139.555 8.68336 140.373 8.47324 141.259 8.47324C142.154 8.47324 142.972 8.68336 143.712 9.1036C144.461 9.51471 145.05 10.0903 145.48 10.8303C145.909 11.5703 146.124 12.4062 146.124 13.338C146.124 14.2699 145.909 15.1104 145.48 15.8595C145.05 16.5995 144.461 17.1796 143.712 17.5999C142.972 18.011 142.154 18.2165 141.259 18.2165ZM141.259 16.8599C141.889 16.8599 142.451 16.7183 142.945 16.4351C143.438 16.1427 143.822 15.7316 144.096 15.2017C144.379 14.6627 144.521 14.0415 144.521 13.338C144.521 12.6346 144.379 12.0179 144.096 11.488C143.822 10.9582 143.438 10.5516 142.945 10.2684C142.451 9.98521 141.889 9.8436 141.259 9.8436C140.629 9.8436 140.067 9.98521 139.573 10.2684C139.08 10.5516 138.692 10.9582 138.409 11.488C138.135 12.0179 137.998 12.6346 137.998 13.338C137.998 14.0415 138.135 14.6627 138.409 15.2017C138.692 15.7316 139.08 16.1427 139.573 16.4351C140.067 16.7183 140.629 16.8599 141.259 16.8599ZM155.486 18.1206H153.924L149.223 11.0084V18.1206H147.661V8.58286H149.223L153.924 15.6814V8.58286H155.486V18.1206ZM163.279 16.1747H159.291L158.606 18.1206H156.976L160.388 8.58286H162.197L165.609 18.1206H163.964L163.279 16.1747ZM162.841 14.9002L161.292 10.474L159.73 14.9002H162.841ZM168.655 16.8599H171.875V18.1206H167.092V8.59657H168.655V16.8599ZM186.772 8.59657V18.1206H185.21V11.5977L182.305 18.1206H181.222L178.303 11.5977V18.1206H176.741V8.59657H178.427L181.77 16.0651L185.1 8.59657H186.772ZM194.567 16.1747H190.58L189.894 18.1206H188.264L191.676 8.58286H193.485L196.897 18.1206H195.253L194.567 16.1747ZM194.129 14.9002L192.58 10.474L191.018 14.9002H194.129ZM205.041 11.4332C205.041 11.9174 204.926 12.3742 204.698 12.8036C204.47 13.233 204.104 13.5847 203.602 13.8588C203.099 14.1237 202.455 14.2562 201.67 14.2562H199.943V18.1206H198.381V8.59657H201.67C202.4 8.59657 203.017 8.72447 203.52 8.98027C204.031 9.22694 204.41 9.56496 204.657 9.99434C204.913 10.4237 205.041 10.9033 205.041 11.4332ZM201.67 12.9817C202.263 12.9817 202.706 12.8493 202.999 12.5843C203.291 12.3103 203.437 11.9266 203.437 11.4332C203.437 10.3917 202.848 9.87101 201.67 9.87101H199.943V12.9817H201.67ZM213.191 11.4332C213.191 11.9174 213.076 12.3742 212.848 12.8036C212.62 13.233 212.254 13.5847 211.752 13.8588C211.249 14.1237 210.605 14.2562 209.819 14.2562H208.093V18.1206H206.531V8.59657H209.819C210.55 8.59657 211.167 8.72447 211.669 8.98027C212.181 9.22694 212.56 9.56496 212.807 9.99434C213.063 10.4237 213.191 10.9033 213.191 11.4332ZM209.819 12.9817C210.413 12.9817 210.856 12.8493 211.149 12.5843C211.441 12.3103 211.587 11.9266 211.587 11.4332C211.587 10.3917 210.998 9.87101 209.819 9.87101H208.093V12.9817H209.819ZM216.243 8.59657V18.1206H214.681V8.59657H216.243ZM226.119 18.1206H224.556L219.856 11.0084V18.1206H218.294V8.58286H219.856L224.556 15.6814V8.58286H226.119V18.1206ZM235.063 11.3373C234.816 10.8622 234.474 10.5059 234.035 10.2684C233.597 10.0217 233.09 9.89842 232.514 9.89842C231.884 9.89842 231.322 10.04 230.829 10.3232C230.335 10.6064 229.947 11.0084 229.664 11.5291C229.39 12.0499 229.253 12.6528 229.253 13.338C229.253 14.0232 229.39 14.6307 229.664 15.1606C229.947 15.6814 230.335 16.0833 230.829 16.3665C231.322 16.6497 231.884 16.7914 232.514 16.7914C233.364 16.7914 234.053 16.5538 234.583 16.0788C235.113 15.6037 235.438 14.9596 235.556 14.1465H231.98V12.8995H237.228V14.1191C237.128 14.8591 236.863 15.5398 236.433 16.161C236.013 16.7822 235.46 17.2801 234.775 17.6547C234.099 18.0201 233.345 18.2028 232.514 18.2028C231.619 18.2028 230.801 17.9973 230.061 17.5862C229.321 17.1659 228.732 16.5858 228.293 15.8458C227.864 15.1058 227.649 14.2699 227.649 13.338C227.649 12.4062 227.864 11.5703 228.293 10.8303C228.732 10.0903 229.321 9.51471 230.061 9.1036C230.81 8.68336 231.628 8.47324 232.514 8.47324C233.528 8.47324 234.428 8.72447 235.214 9.22694C236.009 9.72027 236.584 10.4237 236.94 11.3373H235.063Z" fill="#2E303A"/>
<rect x="252.325" y="0.120605" width="27.4073" height="27.4073" rx="13.7036" fill="#DADADC"/>
<path d="M261.714 16.6007V15.0933L266.195 8.68H268.429V14.9289H269.635V16.6007H268.429V18.5466H266.511V16.6007H261.714ZM266.634 10.7355L263.825 14.9289H266.634V10.7355Z" fill="#2E303A"/>
</svg>
