<svg width="240" height="46" viewBox="0 0 240 46" fill="none" xmlns="http://www.w3.org/2000/svg">
<path d="M69.7178 33.3569C67.6313 33.3569 65.918 32.8649 64.5779 31.8811C63.2377 30.8802 62.5168 29.4553 62.415 27.6062H67.7331C67.784 28.2339 67.9706 28.6919 68.2929 28.9803C68.6152 29.2687 69.0308 29.4129 69.5397 29.4129C69.9977 29.4129 70.3709 29.3026 70.6593 29.0821C70.9646 28.8446 71.1173 28.5223 71.1173 28.1151C71.1173 27.5893 70.8713 27.1821 70.3794 26.8938C69.8874 26.6054 69.0902 26.2831 67.9875 25.9268C66.817 25.5367 65.8671 25.1635 65.1377 24.8072C64.4252 24.434 63.7975 23.8997 63.2547 23.2042C62.7288 22.4917 62.4659 21.5672 62.4659 20.4306C62.4659 19.2771 62.7543 18.2932 63.331 17.479C63.9078 16.6478 64.7051 16.0201 65.7229 15.596C66.7407 15.1719 67.8942 14.9599 69.1835 14.9599C71.27 14.9599 72.9324 15.4518 74.1707 16.4357C75.4261 17.4027 76.0961 18.7682 76.1809 20.5324H70.7611C70.7441 19.9896 70.5745 19.5825 70.2522 19.3111C69.9468 19.0396 69.5482 18.9039 69.0562 18.9039C68.683 18.9039 68.3777 19.0142 68.1402 19.2347C67.9027 19.4552 67.784 19.7691 67.784 20.1762C67.784 20.5155 67.9112 20.8123 68.1656 21.0668C68.4371 21.3043 68.7679 21.5163 69.158 21.7029C69.5482 21.8726 70.1249 22.0931 70.8883 22.3645C72.0249 22.7547 72.9579 23.1448 73.6873 23.535C74.4337 23.9082 75.0698 24.4425 75.5957 25.138C76.1385 25.8166 76.4099 26.6817 76.4099 27.7335C76.4099 28.8022 76.1385 29.7606 75.5957 30.6088C75.0698 31.457 74.298 32.127 73.2802 32.619C72.2793 33.1109 71.0919 33.3569 69.7178 33.3569ZM91.0185 36.1813L89.0338 33.2042C88.474 33.306 87.9057 33.3569 87.329 33.3569C85.6496 33.3569 84.1059 32.9667 82.6979 32.1864C81.2899 31.3891 80.1703 30.295 79.3391 28.9039C78.5249 27.496 78.1178 25.9099 78.1178 24.1457C78.1178 22.3815 78.5249 20.8038 79.3391 19.4128C80.1703 18.0049 81.2899 16.9107 82.6979 16.1304C84.1059 15.3501 85.6496 14.9599 87.329 14.9599C89.0253 14.9599 90.569 15.3501 91.96 16.1304C93.368 16.9107 94.4791 18.0049 95.2934 19.4128C96.1076 20.8038 96.5147 22.3815 96.5147 24.1457C96.5147 25.6215 96.2179 26.9871 95.6242 28.2424C95.0304 29.4807 94.2162 30.5155 93.1814 31.3467L96.9728 36.1813H91.0185ZM83.2068 24.1457C83.2068 25.5536 83.5715 26.6732 84.301 27.5045C85.0304 28.3187 86.0397 28.7258 87.329 28.7258C88.6012 28.7258 89.6021 28.3102 90.3315 27.479C91.0779 26.6478 91.4511 25.5367 91.4511 24.1457C91.4511 22.7207 91.0779 21.6011 90.3315 20.7869C89.6021 19.9557 88.6012 19.5401 87.329 19.5401C86.0397 19.5401 85.0304 19.9557 84.301 20.7869C83.5715 21.6011 83.2068 22.7207 83.2068 24.1457ZM103.667 15.2398V25.6469C103.667 26.6139 103.888 27.3603 104.329 27.8861C104.787 28.412 105.474 28.6749 106.39 28.6749C107.306 28.6749 107.993 28.412 108.451 27.8861C108.926 27.3433 109.163 26.5969 109.163 25.6469V15.2398H114.151V25.6469C114.151 27.2924 113.803 28.7004 113.107 29.8709C112.412 31.0244 111.462 31.898 110.257 32.4917C109.07 33.0685 107.747 33.3569 106.288 33.3569C104.829 33.3569 103.523 33.0685 102.369 32.4917C101.233 31.898 100.334 31.0244 99.6721 29.8709C99.0275 28.7173 98.7052 27.3094 98.7052 25.6469V15.2398H103.667ZM128.245 30.2526H121.884L120.917 33.1788H115.675L122.215 15.2398H127.965L134.479 33.1788H129.212L128.245 30.2526ZM126.998 26.4357L125.064 20.6342L123.156 26.4357H126.998ZM143.204 15.2398C145.087 15.2398 146.732 15.6215 148.14 16.3848C149.565 17.1312 150.659 18.183 151.423 19.5401C152.186 20.8971 152.568 22.4493 152.568 24.1966C152.568 25.9268 152.178 27.4705 151.397 28.8276C150.634 30.1847 149.54 31.2534 148.115 32.0337C146.707 32.7971 145.07 33.1788 143.204 33.1788H136.105V15.2398H143.204ZM142.822 28.7767C144.281 28.7767 145.426 28.3781 146.257 27.5808C147.089 26.7835 147.504 25.6554 147.504 24.1966C147.504 22.7207 147.089 21.5842 146.257 20.7869C145.426 19.9726 144.281 19.5655 142.822 19.5655H141.092V28.7767H142.822ZM168.098 20.5833C167.64 19.7012 167.004 19.0396 166.19 18.5986C165.376 18.1406 164.434 17.9116 163.366 17.9116C162.195 17.9116 161.152 18.1745 160.236 18.7004C159.32 19.2262 158.599 19.9726 158.073 20.9396C157.564 21.9065 157.31 23.0261 157.31 24.2983C157.31 25.5706 157.564 26.6987 158.073 27.6826C158.599 28.6495 159.32 29.3959 160.236 29.9218C161.152 30.4476 162.195 30.7106 163.366 30.7106C164.943 30.7106 166.224 30.2695 167.208 29.3874C168.192 28.5053 168.794 27.3094 169.014 25.7996H162.373V23.4841H172.119V25.7487C171.932 27.1228 171.44 28.3866 170.643 29.5401C169.863 30.6936 168.836 31.6181 167.564 32.3136C166.309 32.9922 164.909 33.3314 163.366 33.3314C161.703 33.3314 160.185 32.9498 158.811 32.1864C157.437 31.4061 156.343 30.3289 155.528 28.9548C154.731 27.5808 154.333 26.0286 154.333 24.2983C154.333 22.5681 154.731 21.0159 155.528 19.6418C156.343 18.2678 157.437 17.1991 158.811 16.4357C160.202 15.6554 161.72 15.2652 163.366 15.2652C165.249 15.2652 166.919 15.7317 168.378 16.6647C169.854 17.5808 170.923 18.887 171.584 20.5833H168.098ZM177.855 15.4943V26.7665C177.855 28.1067 178.203 29.116 178.898 29.7945C179.611 30.4731 180.595 30.8123 181.85 30.8123C183.122 30.8123 184.106 30.4731 184.802 29.7945C185.514 29.116 185.87 28.1067 185.87 26.7665V15.4943H188.771V26.7156C188.771 28.1576 188.457 29.3789 187.83 30.3798C187.202 31.3806 186.362 32.127 185.311 32.619C184.259 33.1109 183.097 33.3569 181.825 33.3569C180.552 33.3569 179.39 33.1109 178.339 32.619C177.304 32.127 176.481 31.3806 175.87 30.3798C175.26 29.3789 174.954 28.1576 174.954 26.7156V15.4943H177.855ZM201.734 33.1788L197.663 26.105H195.449V33.1788H192.548V15.4943H198.655C200.012 15.4943 201.157 15.7317 202.09 16.2067C203.04 16.6817 203.744 17.3178 204.202 18.1151C204.677 18.9124 204.914 19.803 204.914 20.7869C204.914 21.9404 204.575 22.9921 203.897 23.9421C203.235 24.8751 202.209 25.5112 200.818 25.8505L205.194 33.1788H201.734ZM195.449 23.7894H198.655C199.741 23.7894 200.555 23.518 201.098 22.9752C201.657 22.4323 201.937 21.7029 201.937 20.7869C201.937 19.8709 201.666 19.1584 201.123 18.6495C200.58 18.1236 199.758 17.8607 198.655 17.8607H195.449V23.7894ZM211.501 15.4943V26.7665C211.501 28.1067 211.848 29.116 212.544 29.7945C213.256 30.4731 214.24 30.8123 215.496 30.8123C216.768 30.8123 217.752 30.4731 218.447 29.7945C219.16 29.116 219.516 28.1067 219.516 26.7665V15.4943H222.417V26.7156C222.417 28.1576 222.103 29.3789 221.475 30.3798C220.848 31.3806 220.008 32.127 218.956 32.619C217.904 33.1109 216.742 33.3569 215.47 33.3569C214.198 33.3569 213.036 33.1109 211.984 32.619C210.949 32.127 210.127 31.3806 209.516 30.3798C208.905 29.3789 208.6 28.1576 208.6 26.7156V15.4943H211.501ZM232.021 33.3569C230.833 33.3569 229.764 33.1533 228.814 32.7462C227.864 32.3221 227.118 31.7284 226.575 30.965C226.032 30.2017 225.761 29.3111 225.761 28.2933H228.865C228.933 29.0566 229.23 29.6843 229.756 30.1762C230.299 30.6682 231.054 30.9141 232.021 30.9141C233.021 30.9141 233.802 30.6766 234.361 30.2017C234.921 29.7097 235.201 29.0821 235.201 28.3187C235.201 27.725 235.023 27.2415 234.667 26.8683C234.328 26.4951 233.895 26.2067 233.369 26.0032C232.86 25.7996 232.148 25.5791 231.232 25.3416C230.078 25.0363 229.137 24.7309 228.407 24.4256C227.695 24.1033 227.084 23.6113 226.575 22.9497C226.066 22.2882 225.812 21.4061 225.812 20.3034C225.812 19.2856 226.066 18.395 226.575 17.6317C227.084 16.8683 227.797 16.2831 228.713 15.8759C229.629 15.4688 230.689 15.2652 231.893 15.2652C233.607 15.2652 235.006 15.6978 236.092 16.563C237.194 17.4111 237.805 18.5816 237.924 20.0744H234.718C234.667 19.4298 234.361 18.8785 233.802 18.4205C233.242 17.9625 232.504 17.7334 231.588 17.7334C230.757 17.7334 230.078 17.9455 229.552 18.3696C229.026 18.7937 228.764 19.4044 228.764 20.2016C228.764 20.7445 228.925 21.194 229.247 21.5502C229.586 21.8895 230.01 22.1609 230.519 22.3645C231.028 22.5681 231.724 22.7886 232.606 23.0261C233.776 23.3484 234.726 23.6707 235.456 23.993C236.202 24.3153 236.83 24.8157 237.339 25.4943C237.864 26.1559 238.127 27.0464 238.127 28.166C238.127 29.0651 237.881 29.9133 237.389 30.7106C236.914 31.5079 236.211 32.1525 235.278 32.6444C234.361 33.1194 233.276 33.3569 232.021 33.3569Z" fill="#0C0739"/>
<path d="M0 9.542C0 4.2721 4.2721 0 9.542 0H36.7597C42.0296 0 46.3017 4.2721 46.3017 9.542V36.458C46.3017 41.7279 42.0296 46 36.7597 46H9.54199C4.27209 46 0 41.7279 0 36.458V9.542Z" fill="#F35050"/>
<path d="M21.1899 31.9054C22.8494 31.9054 24.509 31.8866 26.1677 31.9131C27.0841 31.9283 27.5926 31.3223 27.7509 30.7397C27.9683 29.9413 27.6718 29.1148 27.0216 28.7147C26.7809 28.5666 26.5151 28.5336 26.2404 28.5336C22.9281 28.5341 21.963 28.5341 18.6506 28.5341C18.0703 28.5341 17.5725 28.3486 17.2169 27.8612C16.8462 27.3526 16.7707 26.79 17.0086 26.2111C17.2525 25.6179 17.7062 25.2688 18.3437 25.1883C18.4905 25.1697 18.6397 25.1637 18.7876 25.1637C22.0418 25.162 22.9491 25.1766 26.203 25.1585C28.9391 25.1434 30.8286 27.2255 31.1041 29.5798C31.3551 31.7251 30.3595 33.726 28.5101 34.7392C27.8225 35.1155 27.0733 35.2807 26.2936 35.2818C22.9618 35.2855 19.6304 35.2845 16.2987 35.2825C15.343 35.2821 14.6417 34.6621 14.5344 33.7344C14.4352 32.8744 15.1665 31.9778 16.0184 31.9163C16.1342 31.9078 16.2507 31.9062 16.3667 31.9062C17.9746 31.9054 19.5822 31.9054 21.1899 31.9054Z" fill="white"/>
<path d="M26.5942 12.1314C27.2521 11.4563 27.907 10.7871 28.5923 10.085C28.5983 10.188 28.6047 10.2486 28.6047 10.3102C28.6053 12.535 28.6103 14.7605 28.6032 16.9857C28.5939 19.9376 26.6877 22.524 23.9045 23.3754C20.6691 24.3649 17.147 22.6517 15.9364 19.4373C15.0141 16.9894 15.3657 14.6787 17.0106 12.6624C18.4864 10.852 20.4468 10.0819 22.7498 10.3096C24.1785 10.4511 25.4268 11.0462 26.487 12.0394C26.5151 12.0655 26.5454 12.0889 26.5942 12.1314ZM18.77 16.954C18.7647 18.7897 20.2089 20.2702 22.0176 20.2822C23.8139 20.2948 25.2848 18.8127 25.2941 16.9811C25.3031 15.135 23.852 13.6399 22.044 13.6338C20.2322 13.6276 18.7751 15.1048 18.77 16.954Z" fill="white"/>
</svg>
